<svg xmlns="http://www.w3.org/2000/svg" viewBox="0 0 534.23 413.48"><defs><style>.cls-1{fill:#37bfbf;}.cls-2{fill:#c1977a;}.cls-3{fill:#d3a784;}.cls-4{fill:#30211d;}.cls-5{fill:#6d7e93;}.cls-10,.cls-11,.cls-6{fill:#fff;}.cls-7{fill:none;stroke:#e6e6e6;stroke-linecap:round;stroke-width:3px;stroke-dasharray:0 10;}.cls-10,.cls-11,.cls-7{stroke-miterlimit:10;}.cls-8{fill:#d6e5e9;}.cls-9{fill:#3f5163;}.cls-10,.cls-11{stroke:#3f5163;}.cls-10{stroke-width:1.5px;}.cls-11{stroke-width:2px;}</style></defs><title>Asset 21</title><g id="Layer_2" data-name="Layer 2"><g id="Guides"><circle class="cls-1" cx="267.99" cy="338.48" r="75"/><rect class="cls-2" x="252.21" y="340.35" width="27.58" height="23.79"/><path class="cls-3" d="M285.53,324.34c0,13.9-12,25.53-19.83,25.16-8.46-.4-19.83-11.26-19.83-25.16s8.88-25.17,19.83-25.17S285.53,310.44,285.53,324.34Z"/><path class="cls-4" d="M261.34,300.24s8.18,18.39,22,16.51c0,0,3.14,18.46-7.85,28.55l.2,8.5s10.6.4,16,4.56.79-38.4-1.61-45.63-9.4-19.91-22.15-20.72-23.35,8.1-26.57,23.94S240,358.64,240,358.64s9.39-4.71,14.49-5l.08-9.64A15.51,15.51,0,0,1,249,332.46C248.55,324.14,246.54,304.2,261.34,300.24Z"/><path class="cls-5" d="M254.49,353.66s12,10.81,21.33-.94c0,0,19.94-.45,32,22.83H224.43S228.71,357.82,254.49,353.66Z"/><path class="cls-3" d="M248.91,330.64s-5.43-7.74-.16-8.41Z"/><path class="cls-6" d="M352.54,361.45v-2a5.79,5.79,0,0,1-3.09-.89l.48-1.35a5.44,5.44,0,0,0,2.91.87c1.43,0,2.4-.83,2.4-2s-.79-1.8-2.28-2.41c-2.06-.8-3.33-1.73-3.33-3.49a3.31,3.31,0,0,1,3.05-3.25v-2h1.25v2a5.39,5.39,0,0,1,2.62.7l-.5,1.34a4.88,4.88,0,0,0-2.55-.69c-1.55,0-2.14.93-2.14,1.74,0,1.05.75,1.57,2.51,2.3,2.08.85,3.13,1.9,3.13,3.7a3.51,3.51,0,0,1-3.19,3.43v2.1Z"/><polyline class="cls-7" points="102.7 154.4 263.11 52.52 432.33 158.97"/><path class="cls-8" d="M69.79,105.82a55,55,0,1,0,55,55,55,55,0,0,0-55-55"/><path class="cls-6" d="M99.25,156.13H96.54a23.45,23.45,0,0,0-5.3-6.69h0a8.7,8.7,0,0,1,1-5.88c1.68-2.75.84-2.47.84-2.47-8.61-2.47-10.51,3.09-10.28,3.18l.48.2a34.7,34.7,0,0,0-13.48-2.67c-15.87,0-28.75,10.23-29,22.92,0-.95,0-1.66,0-1.66-8.41,4.3-.92,14.47-2.35,11.12s2.71-5.4,2.71-5.4a8,8,0,0,1-.17-1.07,21.6,21.6,0,0,0,7.86,13.49L46,187.16a4.07,4.07,0,0,0,2,5.39l2.83,1.31a4.06,4.06,0,0,0,5.39-2l2.43-5.23a35.72,35.72,0,0,0,22.54-.11L83,191.6A4.08,4.08,0,0,0,88.26,194l2.92-1.07a4.07,4.07,0,0,0,2.42-5.21l-2.51-6.83a22.13,22.13,0,0,0,7-10.9h1.12a3.68,3.68,0,0,0,3.67-3.67V159.8A3.68,3.68,0,0,0,99.25,156.13ZM77.9,153.5H59.84a1.62,1.62,0,0,1,0-3.23H77.9a1.62,1.62,0,1,1,0,3.23Z"/><path class="cls-9" d="M86.86,195a4.82,4.82,0,0,1-4.49-3.13l-1.62-4.41a36.47,36.47,0,0,1-21.72.09l-2.15,4.65a4.78,4.78,0,0,1-6.35,2.33L47.7,193.2a4.78,4.78,0,0,1-2.33-6.34l2.53-5.46a22.47,22.47,0,0,1-7.29-11.47c-1,.7-2.38,2.1-1.57,4,.16.37.54,1.26-.2,1.59s-1.12-.17-1.79-1.55c-1.73-3.58-1.92-8.68,3.14-11.41C40.91,157,44,151.89,49,148a33.52,33.52,0,0,1,20.8-6.86,35.85,35.85,0,0,1,12.54,2.24c.67-1.31,3.31-5.06,10.81-3a.84.84,0,0,1,.66.32c.43.54.19,1.36-1,3.24a8,8,0,0,0-.91,5.14A24,24,0,0,1,97,155.41h2.29a4.4,4.4,0,0,1,4.39,4.39v6.53a4.4,4.4,0,0,1-4.39,4.39h-.58a22.92,22.92,0,0,1-6.74,10.4l2.34,6.36a4.77,4.77,0,0,1-2.84,6.13l-2.93,1.08A4.84,4.84,0,0,1,86.86,195Zm-5.24-9.35,2.1,5.72a3.27,3.27,0,0,0,1.73,1.88,3.3,3.3,0,0,0,2.56.11l2.93-1.07a3.35,3.35,0,0,0,2-4.3l-2.67-7.28.37-.33a21.4,21.4,0,0,0,6.81-10.54l.15-.54h1.67a3,3,0,0,0,3-2.95V159.8a3,3,0,0,0-3-3l-3.14,0-.21-.4A22.79,22.79,0,0,0,90.77,150l.4-.52-.63.15a9.42,9.42,0,0,1,1-6.42,11.51,11.51,0,0,0,.82-1.53c-3-.77-5.42-.61-7.14.47a4.1,4.1,0,0,0-1.81,2.13.55.55,0,0,0,0-.21L83,145.14a34.19,34.19,0,0,0-13.2-2.61c-15.35,0-28,10-28.29,22.22H40v-.42a5.77,5.77,0,0,0-2.56,4,7.94,7.94,0,0,0,.18,3,6.38,6.38,0,0,1,2.65-2.94c0-.18-.06-.38-.09-.61l1.43-.18c0,.37.11.74.18,1.1l.11.46h0a21.14,21.14,0,0,0,7.33,11.48l.42.35-3,6.45a3.35,3.35,0,0,0,1.63,4.44l2.83,1.31a3.34,3.34,0,0,0,2.56.1,3.3,3.3,0,0,0,1.88-1.73l2.7-5.81.6.2A35,35,0,0,0,81,185.86ZM77.9,154.22H59.84a2.34,2.34,0,0,1,0-4.67H77.9a2.34,2.34,0,0,1,0,4.67ZM59.84,151a.9.9,0,0,0,0,1.79H77.9a.9.9,0,1,0,0-1.79Z"/><path class="cls-6" d="M68.87,152.85A13.1,13.1,0,1,1,82,139.75,13.12,13.12,0,0,1,68.87,152.85Z"/><path class="cls-1" d="M68.26,147.14v-1.82a5.26,5.26,0,0,1-2.75-.79l.43-1.21a4.81,4.81,0,0,0,2.59.78c1.28,0,2.14-.74,2.14-1.77s-.7-1.6-2-2.14c-1.84-.72-3-1.55-3-3.11a3,3,0,0,1,2.72-2.9v-1.82H69.5v1.75a4.69,4.69,0,0,1,2.34.63l-.45,1.19a4.29,4.29,0,0,0-2.27-.62c-1.38,0-1.9.83-1.9,1.55,0,.94.66,1.4,2.23,2,1.85.76,2.79,1.69,2.79,3.3a3.14,3.14,0,0,1-2.85,3.06v1.87Z"/><path class="cls-1" d="M68.87,152.85A13.1,13.1,0,1,1,82,139.75,13.12,13.12,0,0,1,68.87,152.85Zm0-24.62a11.52,11.52,0,1,0,11.52,11.52A11.54,11.54,0,0,0,68.87,128.23Z"/><path class="cls-8" d="M467.34,105.82a55,55,0,1,0,55,55,55,55,0,0,0-55-55"/><rect class="cls-10" x="438.2" y="133.12" width="47.82" height="60.49" rx="5" ry="5" transform="translate(-27.28 190.52) rotate(-22.65)"/><rect class="cls-10" x="445.33" y="128.95" width="47.82" height="60.49" rx="5" ry="5" transform="matrix(0.98, -0.21, 0.21, 0.98, -23.23, 104.38)"/><polygon class="cls-1" points="463.55 158.35 456.51 151.31 450.22 157.6 449.15 156.53 456.51 149.16 463.13 155.78 469.7 142.65 476.69 142.65 483.29 136.04 484.37 137.12 477.31 144.17 470.64 144.17 463.55 158.35"/><circle class="cls-6" cx="456.3" cy="150.49" r="1.88"/><path class="cls-1" d="M456.3,153.12a2.64,2.64,0,1,1,2.64-2.63A2.64,2.64,0,0,1,456.3,153.12Zm0-3.75a1.12,1.12,0,1,0,1.12,1.12A1.12,1.12,0,0,0,456.3,149.37Z"/><circle class="cls-6" cx="463.3" cy="157.07" r="1.88"/><path class="cls-1" d="M463.3,159.7a2.64,2.64,0,1,1,2.63-2.63A2.64,2.64,0,0,1,463.3,159.7Zm0-3.75a1.12,1.12,0,1,0,1.12,1.12A1.12,1.12,0,0,0,463.3,156Z"/><circle class="cls-6" cx="470.19" cy="143.09" r="1.88"/><path class="cls-1" d="M470.19,145.73a2.64,2.64,0,1,1,2.64-2.64A2.64,2.64,0,0,1,470.19,145.73Zm0-3.76a1.12,1.12,0,1,0,1.12,1.12A1.12,1.12,0,0,0,470.19,142Z"/><path class="cls-10" d="M453.81,172.38c.67-.14,35.63-8.15,35.63-8.15"/><path class="cls-10" d="M455.12,178.75c.67-.14,35.64-8.15,35.64-8.15"/><path class="cls-10" d="M456.39,185.17C457.07,185,492,177,492,177"/><circle class="cls-6" cx="494.47" cy="158.35" r="7.31"/><path class="cls-1" d="M498.61,155a.44.44,0,0,0-.31-.14.42.42,0,0,0-.29.11l-5,5L491,157.73a.49.49,0,0,0-.31-.11.38.38,0,0,0-.28.11l-.81.81a.34.34,0,0,0-.14.28.44.44,0,0,0,.14.31l3.2,3.2a.34.34,0,0,0,.28.14.44.44,0,0,0,.31-.14l6-6a.32.32,0,0,0,.15-.28.4.4,0,0,0-.15-.31Z"/><path class="cls-9" d="M502,153.83a8.66,8.66,0,0,0-3.18-3.18,8.63,8.63,0,0,0-8.71,0,8.81,8.81,0,0,0-3.18,3.18,8.69,8.69,0,0,0,0,8.71,8.81,8.81,0,0,0,3.18,3.18,8.63,8.63,0,0,0,8.71,0,8.66,8.66,0,0,0,3.18-3.18,8.63,8.63,0,0,0,0-8.71Zm-1.46,7.87a7.06,7.06,0,0,1-2.56,2.56,7,7,0,0,1-7,0,7.14,7.14,0,0,1-2.56-2.56,7,7,0,0,1,0-7,7.06,7.06,0,0,1,2.56-2.56,7,7,0,0,1,7,0,7,7,0,0,1,2.56,2.56,7,7,0,0,1,0,7Z"/><path class="cls-8" d="M261.51,0a55,55,0,1,0,55,55,55,55,0,0,0-55-55"/><path class="cls-11" d="M261.51,83.19c27.59-21.68,26.55-29.39,26.55-35.4s-5-13.28-13.27-13.28-13.28,8.85-13.28,8.85-5-8.85-13.27-8.85S235,41.78,235,47.79,233.92,61.51,261.51,83.19Z"/><path class="cls-1" d="M260.67,69V66.49a7.18,7.18,0,0,1-3.77-1.09l.59-1.65A6.59,6.59,0,0,0,261,64.81c1.76,0,2.94-1,2.94-2.42s-1-2.2-2.79-2.94c-2.52-1-4.07-2.12-4.07-4.27a4.05,4.05,0,0,1,3.73-4V48.72h1.53v2.39a6.6,6.6,0,0,1,3.21.87L265,53.6a6,6,0,0,0-3.11-.83c-1.9,0-2.62,1.13-2.62,2.12,0,1.28.92,1.92,3.06,2.81,2.54,1,3.83,2.32,3.83,4.52a4.3,4.3,0,0,1-3.9,4.2V69Z"/><path class="cls-9" d="M27.45,255.92h1.28l.07-9.65H27.45v-1.48h4.64v1.48H30.82l-.08,9.65h1.35v1.47H27.45Z"/><path class="cls-9" d="M33.8,255.92h1.07l0-6.41H33.59V248h3.33c0,.31,0,.64-.05,1s-.07.7-.13,1.09h0a3.61,3.61,0,0,1,.42-.86,2.9,2.9,0,0,1,.67-.73,3.12,3.12,0,0,1,1-.5,3.69,3.69,0,0,1,1.25-.19,3,3,0,0,1,2.45,1,4,4,0,0,1,.81,2.65q0,1.14,0,2.25c0,.73,0,1.48,0,2.24h1.23v1.47h-4.3v-1.47h1.06c0-.69,0-1.37,0-2.06s0-1.38,0-2.06a2.72,2.72,0,0,0-.46-1.64,1.62,1.62,0,0,0-1.43-.65,2.24,2.24,0,0,0-1.74.76,3.17,3.17,0,0,0-.73,2.08l-.07,3.57h1.26v1.47H33.8Z"/><path class="cls-9" d="M51.61,249.56a3.19,3.19,0,0,0-.54-.11,4.51,4.51,0,0,0-.65,0,2.93,2.93,0,0,0-1.23.24,2.44,2.44,0,0,0-.87.68,3,3,0,0,0-.53,1,4.13,4.13,0,0,0-.18,1.24,4.4,4.4,0,0,0,.16,1.2,3,3,0,0,0,.54,1.08,2.85,2.85,0,0,0,1,.77,3.63,3.63,0,0,0,1.57.3,5.67,5.67,0,0,0,1.35-.17,5,5,0,0,0,1-.37l-.11,1.74a6.42,6.42,0,0,1-1,.31,6.27,6.27,0,0,1-1.57.18,5.91,5.91,0,0,1-2.37-.42,4.34,4.34,0,0,1-1.55-1.12,4.4,4.4,0,0,1-.85-1.56,6.11,6.11,0,0,1-.26-1.74,5.71,5.71,0,0,1,.33-2,4.23,4.23,0,0,1,2.54-2.6,5.88,5.88,0,0,1,2.17-.37,6.3,6.3,0,0,1,2.67.48V251H51.61Z"/><path class="cls-9" d="M54.74,255.92h1.13l0-6.41H54.49V248h3.33c0,.35,0,.75,0,1.21a13.37,13.37,0,0,1-.1,1.39l0,0a4,4,0,0,1,1-2.07,2.36,2.36,0,0,1,1.75-.74,3.55,3.55,0,0,1,.67.06,2.8,2.8,0,0,1,.46.1l-.21,1.79a2.08,2.08,0,0,0-.41-.11,3.52,3.52,0,0,0-.51,0,2.2,2.2,0,0,0-1.94,1.06,3.3,3.3,0,0,0-.46,1.08,4.52,4.52,0,0,0-.16,1.21l0,2.92h1.36v1.47H54.74Z"/><path class="cls-9" d="M70.49,257a12.16,12.16,0,0,1-1.36.42,7.76,7.76,0,0,1-1.94.23,5.85,5.85,0,0,1-2.08-.35,4.51,4.51,0,0,1-1.54-1,4.19,4.19,0,0,1-1-1.53,5.79,5.79,0,0,1-.33-2,6.43,6.43,0,0,1,.29-1.95,4.34,4.34,0,0,1,.87-1.56,4.26,4.26,0,0,1,1.44-1.05,4.94,4.94,0,0,1,2-.37,4.33,4.33,0,0,1,1.85.37,3.51,3.51,0,0,1,1.32,1,4.55,4.55,0,0,1,.79,1.57,6.94,6.94,0,0,1,.27,2V253H64.39a3.07,3.07,0,0,0,.24,1.23,2.9,2.9,0,0,0,.66.95,3,3,0,0,0,1,.6,3.8,3.8,0,0,0,1.29.2,6.14,6.14,0,0,0,1.64-.2,7.36,7.36,0,0,0,1.37-.52ZM69,251.67v-.18a2.58,2.58,0,0,0-.11-.67,2.21,2.21,0,0,0-.36-.72,2,2,0,0,0-.68-.57,2.14,2.14,0,0,0-1.07-.24,2.34,2.34,0,0,0-1.08.22,2.15,2.15,0,0,0-1.12,1.3,3.24,3.24,0,0,0-.15.86Z"/><path class="cls-9" d="M73.06,248.66l.51-.23a5.27,5.27,0,0,1,.78-.28,7.74,7.74,0,0,1,1.06-.23,8,8,0,0,1,1.36-.1,5.12,5.12,0,0,1,1.74.25,2.74,2.74,0,0,1,1.13.71,2.7,2.7,0,0,1,.6,1.12,5.82,5.82,0,0,1,.18,1.5c0,.75,0,1.51,0,2.26s0,1.5-.05,2.26h1.26v1.47h-3c0-.3,0-.62,0-1a7.5,7.5,0,0,1,.12-1h0a5.59,5.59,0,0,1-.38.78,2.83,2.83,0,0,1-.6.7,3,3,0,0,1-.88.49,4.18,4.18,0,0,1-2.67-.06,2.75,2.75,0,0,1-.92-.64,2.38,2.38,0,0,1-.5-.87,3,3,0,0,1-.15-.92,2.38,2.38,0,0,1,.41-1.48,2.72,2.72,0,0,1,1-.85,4.35,4.35,0,0,1,1.31-.4c.47-.07.89-.11,1.28-.14l1.92-.1v-.7a3.32,3.32,0,0,0-.09-.8,1.42,1.42,0,0,0-.32-.62,1.53,1.53,0,0,0-.64-.4,3,3,0,0,0-1-.15,4.07,4.07,0,0,0-1,.12,7.26,7.26,0,0,0-.7.21V251h-1.8Zm1.62,6.1a1.2,1.2,0,0,0,.39.9,1.57,1.57,0,0,0,1.1.36,2.46,2.46,0,0,0,1-.2,2.33,2.33,0,0,0,.75-.54,2.13,2.13,0,0,0,.46-.76,2.35,2.35,0,0,0,.16-.87v-.38c-.53,0-1,0-1.5,0a6.22,6.22,0,0,0-1.24.19A1.86,1.86,0,0,0,75,254,1.05,1.05,0,0,0,74.68,254.76Z"/><path class="cls-9" d="M88.56,250.72l0-1.12a2,2,0,0,0-.56-.22,4.14,4.14,0,0,0-1-.09,5.09,5.09,0,0,0-.69.05,2.21,2.21,0,0,0-.6.17,1.09,1.09,0,0,0-.44.35,1,1,0,0,0-.16.57.76.76,0,0,0,.38.74,2.81,2.81,0,0,0,.81.3l2.29.45c.26.06.53.14.8.23a2.34,2.34,0,0,1,.73.43,2.1,2.1,0,0,1,.53.74,2.8,2.8,0,0,1,.2,1.17,3.06,3.06,0,0,1-.35,1.53,2.65,2.65,0,0,1-1,1,4.44,4.44,0,0,1-1.35.5,8.62,8.62,0,0,1-1.53.14,9.68,9.68,0,0,1-2.07-.2,11,11,0,0,1-1.33-.36l0-2.54H85l0,1.25.75.23a4.39,4.39,0,0,0,1.25.14,3.26,3.26,0,0,0,.7-.07,2,2,0,0,0,.6-.22,1.3,1.3,0,0,0,.43-.41,1.18,1.18,0,0,0,.16-.61.91.91,0,0,0-.39-.84,2.78,2.78,0,0,0-1-.35l-1.5-.27a10.65,10.65,0,0,1-1.08-.27,3.28,3.28,0,0,1-1-.46,2.48,2.48,0,0,1-.69-.75,2.1,2.1,0,0,1-.27-1.11,2.72,2.72,0,0,1,.33-1.39,2.83,2.83,0,0,1,.88-.91,3.88,3.88,0,0,1,1.27-.5,8.19,8.19,0,0,1,3.49.08c.57.16,1,.28,1.26.38l0,2.29Z"/><path class="cls-9" d="M100.51,257a11.52,11.52,0,0,1-1.36.42,7.74,7.74,0,0,1-1.93.23,5.81,5.81,0,0,1-2.08-.35,4.56,4.56,0,0,1-1.55-1,4,4,0,0,1-1-1.53,5.79,5.79,0,0,1-.33-2,6.43,6.43,0,0,1,.28-1.95,4.36,4.36,0,0,1,.88-1.56,4.26,4.26,0,0,1,1.44-1.05,4.91,4.91,0,0,1,2-.37,4.29,4.29,0,0,1,1.84.37,3.51,3.51,0,0,1,1.32,1,4.55,4.55,0,0,1,.79,1.57,6.94,6.94,0,0,1,.27,2V253H94.41a3.07,3.07,0,0,0,.24,1.23,2.8,2.8,0,0,0,1.68,1.55,3.74,3.74,0,0,0,1.28.2,6.09,6.09,0,0,0,1.64-.2,7.36,7.36,0,0,0,1.37-.52ZM99,251.67v-.18a2.58,2.58,0,0,0-.11-.67,2.21,2.21,0,0,0-.36-.72,2.09,2.09,0,0,0-.67-.57,2.14,2.14,0,0,0-1.07-.24,2.28,2.28,0,0,0-1.08.22,2.08,2.08,0,0,0-.71.55,2.13,2.13,0,0,0-.42.75,3.24,3.24,0,0,0-.15.86Z"/><path class="cls-9" d="M112.34,257.39h-3.17c0-.33,0-.67,0-1s.08-.63.13-.91h0a3.39,3.39,0,0,1-1.13,1.54,3.21,3.21,0,0,1-2,.59,3.81,3.81,0,0,1-1.56-.31,3.54,3.54,0,0,1-1.23-.87,4,4,0,0,1-.82-1.4,5.43,5.43,0,0,1-.3-1.87,6.34,6.34,0,0,1,.34-2.13,4.71,4.71,0,0,1,1-1.7,4.5,4.5,0,0,1,1.58-1.12,5.45,5.45,0,0,1,2.12-.39,7.82,7.82,0,0,1,1,.06c.31,0,.6.09.88.15l0-3h-1.71v-1.48h3.66l-.07,12.37h1.26Zm-3.24-7.59a3.39,3.39,0,0,0-1.79-.4,2.63,2.63,0,0,0-1.24.28,2.78,2.78,0,0,0-.91.76,3.25,3.25,0,0,0-.55,1.1,4.44,4.44,0,0,0-.19,1.32,4.72,4.72,0,0,0,.14,1.21,3.19,3.19,0,0,0,.42,1,2,2,0,0,0,1.7.88,2,2,0,0,0,1.82-.94,4.72,4.72,0,0,0,.6-2.57Z"/><path class="cls-9" d="M10.84,267.55h3.52L14.29,272q0,.5-.06,1c0,.32-.06.65-.1,1h0a3.42,3.42,0,0,1,1-1.43,3.39,3.39,0,0,1,.94-.53,3.68,3.68,0,0,1,1.25-.2,4,4,0,0,1,1.63.31,3.27,3.27,0,0,1,1.19.88,3.92,3.92,0,0,1,.73,1.34,5.79,5.79,0,0,1,.25,1.71,8.29,8.29,0,0,1-.26,2.05,4.83,4.83,0,0,1-.88,1.77,4.33,4.33,0,0,1-1.63,1.25,5.87,5.87,0,0,1-2.52.48,8.1,8.1,0,0,1-2.07-.23,13.18,13.18,0,0,1-1.53-.49L12.35,269H10.84Zm8.2,8.66a3.16,3.16,0,0,0-.56-2,2,2,0,0,0-1.72-.73,2.46,2.46,0,0,0-1.05.21,2,2,0,0,0-.75.57,2.38,2.38,0,0,0-.46.86,3.84,3.84,0,0,0-.17,1l-.07,3.33a3.65,3.65,0,0,0,.72.27,4,4,0,0,0,1.13.13,2.81,2.81,0,0,0,1.35-.31,2.65,2.65,0,0,0,.91-.82,3.61,3.61,0,0,0,.51-1.18A5.78,5.78,0,0,0,19,276.21Z"/><path class="cls-9" d="M22.41,272h3.26c0,.94,0,1.87-.06,2.8s0,1.86,0,2.8a2.81,2.81,0,0,0,.45,1.64,1.6,1.6,0,0,0,1.38.65,2.21,2.21,0,0,0,1.7-.77,3,3,0,0,0,.71-2.08l0-3.56H28.66V272H31.9l0,7.89h1.26v1.47H29.88c0-.31,0-.63,0-1s.08-.7.14-1.1h0a2.71,2.71,0,0,1-.46.95,3.51,3.51,0,0,1-.77.72,3.55,3.55,0,0,1-1,.46,3.92,3.92,0,0,1-1.08.16,2.92,2.92,0,0,1-2.34-1,3.92,3.92,0,0,1-.83-2.62c0-.77,0-1.53,0-2.27s0-1.5,0-2.25H22.41Z"/><path class="cls-9" d="M40,274.72l0-1.12a2.19,2.19,0,0,0-.57-.22,4.11,4.11,0,0,0-1-.09,5.24,5.24,0,0,0-.7,0,2.21,2.21,0,0,0-.6.17,1.06,1.06,0,0,0-.43.35.94.94,0,0,0-.16.57.76.76,0,0,0,.37.74,3,3,0,0,0,.81.3l2.29.45c.26.06.53.14.8.23a2.34,2.34,0,0,1,.73.43,2,2,0,0,1,.53.74,2.78,2.78,0,0,1,.21,1.17A3,3,0,0,1,42,280a2.65,2.65,0,0,1-1,1,4.25,4.25,0,0,1-1.35.5,8.62,8.62,0,0,1-1.53.14,9.68,9.68,0,0,1-2.07-.2,11.5,11.5,0,0,1-1.33-.36l0-2.54h1.8l0,1.25.76.23a4.32,4.32,0,0,0,1.24.14,3.26,3.26,0,0,0,.7-.07,2,2,0,0,0,.6-.22,1.3,1.3,0,0,0,.43-.41,1.09,1.09,0,0,0,.16-.61A.91.91,0,0,0,40,278a2.78,2.78,0,0,0-1-.35l-1.49-.27a10.65,10.65,0,0,1-1.08-.27,3.34,3.34,0,0,1-1-.46,2.48,2.48,0,0,1-.69-.75,2.1,2.1,0,0,1-.27-1.11,2.72,2.72,0,0,1,.33-1.39,2.83,2.83,0,0,1,.88-.91A3.88,3.88,0,0,1,37,272a7.34,7.34,0,0,1,1.5-.15,7.43,7.43,0,0,1,2,.23c.56.16,1,.28,1.26.38l0,2.29Z"/><path class="cls-9" d="M43.81,279.92H45l0-6.41H43.65V272h3.44l0,7.89h1.26v1.47h-4.5Zm.88-11.2a1.4,1.4,0,1,1,.41,1A1.34,1.34,0,0,1,44.69,268.72Z"/><path class="cls-9" d="M49.64,279.92h1.07l0-6.41H49.43V272h3.33c0,.31,0,.64,0,1s-.07.7-.13,1.09h0a3.61,3.61,0,0,1,.42-.86,2.9,2.9,0,0,1,.67-.73,3.12,3.12,0,0,1,1-.5,3.69,3.69,0,0,1,1.25-.19,3,3,0,0,1,2.45,1,4,4,0,0,1,.81,2.65q0,1.14,0,2.25c0,.73,0,1.48,0,2.24h1.23v1.47H56v-1.47h1.06c0-.69,0-1.37,0-2.06s0-1.38,0-2.06a2.72,2.72,0,0,0-.46-1.64,1.62,1.62,0,0,0-1.43-.65,2.24,2.24,0,0,0-1.74.76,3.17,3.17,0,0,0-.73,2.08l-.07,3.57H54v1.47H49.64Z"/><path class="cls-9" d="M69.66,281a12.16,12.16,0,0,1-1.36.42,7.74,7.74,0,0,1-1.93.23,5.77,5.77,0,0,1-2.08-.35,4.46,4.46,0,0,1-1.55-1,4,4,0,0,1-1-1.53,5.56,5.56,0,0,1-.34-2,6.43,6.43,0,0,1,.29-1.95,4.34,4.34,0,0,1,.87-1.56A4.26,4.26,0,0,1,64,272.19a4.94,4.94,0,0,1,2-.37,4.33,4.33,0,0,1,1.85.37,3.51,3.51,0,0,1,1.32,1,4.55,4.55,0,0,1,.79,1.57,6.94,6.94,0,0,1,.27,2V277H63.56a3.07,3.07,0,0,0,.24,1.23,2.78,2.78,0,0,0,.67,1,2.87,2.87,0,0,0,1,.6,3.8,3.8,0,0,0,1.29.2,6.09,6.09,0,0,0,1.64-.2,7.36,7.36,0,0,0,1.37-.52Zm-1.53-5.29v-.18a2.58,2.58,0,0,0-.11-.67,2.21,2.21,0,0,0-.36-.72,2.09,2.09,0,0,0-.67-.57,2.17,2.17,0,0,0-1.07-.24,2.35,2.35,0,0,0-1.09.22,2.15,2.15,0,0,0-1.12,1.3,3.24,3.24,0,0,0-.15.86Z"/><path class="cls-9" d="M77.06,274.72l0-1.12a1.94,1.94,0,0,0-.57-.22,4,4,0,0,0-1-.09,5.09,5.09,0,0,0-.69,0,2.21,2.21,0,0,0-.6.17,1,1,0,0,0-.44.35,1,1,0,0,0-.16.57.76.76,0,0,0,.38.74,2.81,2.81,0,0,0,.81.3l2.29.45c.26.06.53.14.8.23a2.19,2.19,0,0,1,.72.43,2,2,0,0,1,.54.74A3.47,3.47,0,0,1,79,280a2.7,2.7,0,0,1-1,1,4.44,4.44,0,0,1-1.35.5,8.71,8.71,0,0,1-1.53.14,9.68,9.68,0,0,1-2.07-.2,11,11,0,0,1-1.33-.36l0-2.54h1.8l0,1.25.75.23a4.37,4.37,0,0,0,1.24.14,3.29,3.29,0,0,0,.71-.07,2.13,2.13,0,0,0,.6-.22,1.27,1.27,0,0,0,.42-.41,1.09,1.09,0,0,0,.16-.61.9.9,0,0,0-.38-.84,2.76,2.76,0,0,0-1-.35l-1.49-.27a10.65,10.65,0,0,1-1.08-.27,3.28,3.28,0,0,1-1-.46,2.64,2.64,0,0,1-.7-.75,2.1,2.1,0,0,1-.27-1.11,2.58,2.58,0,0,1,1.22-2.3,3.88,3.88,0,0,1,1.27-.5,8.19,8.19,0,0,1,3.49.08c.57.16,1,.28,1.26.38l0,2.29Z"/><path class="cls-9" d="M86.4,274.72l0-1.12a2,2,0,0,0-.56-.22,4.14,4.14,0,0,0-1-.09,5.09,5.09,0,0,0-.69,0,2.21,2.21,0,0,0-.6.17,1.09,1.09,0,0,0-.44.35,1,1,0,0,0-.16.57.76.76,0,0,0,.38.74,2.81,2.81,0,0,0,.81.3l2.29.45c.26.06.53.14.8.23a2.34,2.34,0,0,1,.73.43,2.1,2.1,0,0,1,.53.74,2.8,2.8,0,0,1,.2,1.17,3.06,3.06,0,0,1-.35,1.53,2.73,2.73,0,0,1-1,1,4.44,4.44,0,0,1-1.35.5,8.62,8.62,0,0,1-1.53.14,9.68,9.68,0,0,1-2.07-.2,11,11,0,0,1-1.33-.36l0-2.54h1.8l0,1.25.75.23a4.39,4.39,0,0,0,1.25.14,3.26,3.26,0,0,0,.7-.07,2,2,0,0,0,.6-.22,1.3,1.3,0,0,0,.43-.41,1.18,1.18,0,0,0,.16-.61.91.91,0,0,0-.39-.84,2.78,2.78,0,0,0-1-.35l-1.5-.27a10.65,10.65,0,0,1-1.08-.27,3.28,3.28,0,0,1-1-.46,2.48,2.48,0,0,1-.69-.75,2.1,2.1,0,0,1-.27-1.11,2.72,2.72,0,0,1,.33-1.39,2.83,2.83,0,0,1,.88-.91,3.88,3.88,0,0,1,1.27-.5,8.19,8.19,0,0,1,3.49.08c.57.16,1,.28,1.26.38l0,2.29Z"/><path class="cls-9" d="M96.25,272.66a5.27,5.27,0,0,1,.5-.23,5.73,5.73,0,0,1,.78-.28,8.73,8.73,0,0,1,2.42-.33,5.19,5.19,0,0,1,1.75.25,2.7,2.7,0,0,1,1.12.71,2.6,2.6,0,0,1,.61,1.12,5.82,5.82,0,0,1,.18,1.5c0,.75,0,1.51,0,2.26s0,1.5,0,2.26h1.25v1.47h-3c0-.3,0-.62,0-1a7.48,7.48,0,0,1,.13-1h0a4.66,4.66,0,0,1-.38.78,2.78,2.78,0,0,1-.59.7,3.1,3.1,0,0,1-.88.49,4.21,4.21,0,0,1-2.68-.06,2.7,2.7,0,0,1-.91-.64,2.27,2.27,0,0,1-.51-.87,3,3,0,0,1-.15-.92,2.45,2.45,0,0,1,.41-1.48,2.72,2.72,0,0,1,1-.85,4.43,4.43,0,0,1,1.31-.4c.47-.07.9-.11,1.28-.14l1.93-.1v-.7a3.32,3.32,0,0,0-.09-.8,1.43,1.43,0,0,0-.33-.62,1.46,1.46,0,0,0-.64-.4,3,3,0,0,0-1-.15,4,4,0,0,0-1,.12,6.8,6.8,0,0,0-.71.21V275H96.25Zm1.61,6.1a1.2,1.2,0,0,0,.39.9,1.58,1.58,0,0,0,1.11.36,2.44,2.44,0,0,0,1-.2,2.49,2.49,0,0,0,.76-.54,2.28,2.28,0,0,0,.46-.76,2.57,2.57,0,0,0,.15-.87v-.38c-.53,0-1,0-1.49.05a6,6,0,0,0-1.24.19,1.84,1.84,0,0,0-.86.44A1.05,1.05,0,0,0,97.86,278.76Z"/><path class="cls-9" d="M106.34,279.92h1.06l0-6.41h-1.31V272h3.33c0,.31,0,.64,0,1s-.07.7-.13,1.09h0a3.61,3.61,0,0,1,.42-.86,2.9,2.9,0,0,1,.67-.73,3.12,3.12,0,0,1,1-.5,3.69,3.69,0,0,1,1.25-.19,3,3,0,0,1,2.45,1,4,4,0,0,1,.8,2.65c0,.76,0,1.51,0,2.25s0,1.48,0,2.24H117v1.47h-4.31v-1.47h1.07c0-.69,0-1.37,0-2.06s0-1.38,0-2.06a2.72,2.72,0,0,0-.46-1.64,1.62,1.62,0,0,0-1.43-.65,2.24,2.24,0,0,0-1.74.76,3.17,3.17,0,0,0-.73,2.08l-.07,3.57h1.26v1.47h-4.34Z"/><path class="cls-9" d="M128.18,281.39H125c0-.33,0-.67,0-1s.08-.63.13-.91h0A3.39,3.39,0,0,1,124,281a3.21,3.21,0,0,1-2,.59,3.81,3.81,0,0,1-1.56-.31,3.54,3.54,0,0,1-1.23-.87,4,4,0,0,1-.82-1.4,5.43,5.43,0,0,1-.3-1.87,6.34,6.34,0,0,1,.34-2.13,4.71,4.71,0,0,1,1-1.7,4.5,4.5,0,0,1,1.58-1.12,5.45,5.45,0,0,1,2.12-.39,7.82,7.82,0,0,1,1,.06c.31,0,.6.09.88.15l0-3h-1.71v-1.48H127l-.07,12.37h1.26Zm-3.24-7.59a3.39,3.39,0,0,0-1.79-.4,2.63,2.63,0,0,0-1.24.28,2.78,2.78,0,0,0-.91.76,3.25,3.25,0,0,0-.55,1.1,4.44,4.44,0,0,0-.19,1.32,4.72,4.72,0,0,0,.14,1.21,3.19,3.19,0,0,0,.42,1,2,2,0,0,0,1.7.88,2,2,0,0,0,1.82-.94,4.72,4.72,0,0,0,.6-2.57Z"/><path class="cls-9" d="M0,296H3.22c0,.34,0,.67-.05,1s-.08.64-.13.91h0a3.39,3.39,0,0,1,1.13-1.54,3.21,3.21,0,0,1,2-.58,4,4,0,0,1,1.57.3A3.64,3.64,0,0,1,9,297a4,4,0,0,1,.82,1.39,5.47,5.47,0,0,1,.3,1.87,6.58,6.58,0,0,1-.34,2.14,4.86,4.86,0,0,1-1,1.7,4.35,4.35,0,0,1-1.58,1.11,5.37,5.37,0,0,1-2.14.4,7.79,7.79,0,0,1-1-.07,4.23,4.23,0,0,1-.88-.24l0,3.13H4.68v1.48H.2v-1.48h1l.07-10.92H0Zm3.29,7.6a3.54,3.54,0,0,0,1.8.39,2.77,2.77,0,0,0,1.25-.27,2.78,2.78,0,0,0,.91-.76,3.39,3.39,0,0,0,.55-1.11A4.42,4.42,0,0,0,8,300.57a5.3,5.3,0,0,0-.14-1.22,3.07,3.07,0,0,0-.43-1,2,2,0,0,0-.71-.64,2.07,2.07,0,0,0-1-.23,2,2,0,0,0-1.83.93,4.78,4.78,0,0,0-.6,2.58Z"/><path class="cls-9" d="M19.75,305a12.16,12.16,0,0,1-1.36.42,7.82,7.82,0,0,1-1.94.23,5.85,5.85,0,0,1-2.08-.35,4.51,4.51,0,0,1-1.54-1,4.19,4.19,0,0,1-1-1.53,5.79,5.79,0,0,1-.33-2,6.43,6.43,0,0,1,.29-1.95,4.34,4.34,0,0,1,.87-1.56,4.26,4.26,0,0,1,1.44-1.05,4.91,4.91,0,0,1,2-.37,4.33,4.33,0,0,1,1.85.37,3.51,3.51,0,0,1,1.32,1,4.55,4.55,0,0,1,.79,1.57,6.94,6.94,0,0,1,.27,2V301h-6.7a2.83,2.83,0,0,0,1.92,2.78,3.8,3.8,0,0,0,1.29.2,6.14,6.14,0,0,0,1.64-.2,7,7,0,0,0,1.36-.52Zm-1.53-5.29v-.18a2.58,2.58,0,0,0-.11-.67,2.21,2.21,0,0,0-.36-.72,2.1,2.1,0,0,0-1.75-.81,2.34,2.34,0,0,0-1.08.22,2.18,2.18,0,0,0-.71.55,2.11,2.11,0,0,0-.41.75,3.72,3.72,0,0,0-.16.86Z"/><path class="cls-9" d="M21.67,303.92h1.14l0-6.41H21.42V296h3.33c0,.35,0,.75,0,1.21a13.37,13.37,0,0,1-.1,1.39l0,0a4,4,0,0,1,1-2.07,2.35,2.35,0,0,1,1.74-.74,3.66,3.66,0,0,1,.68.06,3.07,3.07,0,0,1,.46.1l-.22,1.79a2,2,0,0,0-.4-.11,3.55,3.55,0,0,0-.52,0,2.26,2.26,0,0,0-1.15.29,2.33,2.33,0,0,0-.79.77,3.52,3.52,0,0,0-.46,1.08,5,5,0,0,0-.15,1.21l0,2.92h1.37v1.47H21.67Z"/><path class="cls-9" d="M34.81,298.72l0-1.12a2.19,2.19,0,0,0-.57-.22,4.11,4.11,0,0,0-1-.09,5.24,5.24,0,0,0-.7,0,2.21,2.21,0,0,0-.6.17,1.06,1.06,0,0,0-.43.35.94.94,0,0,0-.16.57.76.76,0,0,0,.37.74,3,3,0,0,0,.81.3l2.29.45c.26.06.53.14.8.23a2.34,2.34,0,0,1,.73.43,2,2,0,0,1,.53.74,2.78,2.78,0,0,1,.21,1.17,3,3,0,0,1-.36,1.53,2.65,2.65,0,0,1-1,1,4.25,4.25,0,0,1-1.35.5,8.62,8.62,0,0,1-1.53.14,9.68,9.68,0,0,1-2.07-.2,11.5,11.5,0,0,1-1.33-.36l0-2.54h1.8l0,1.25.76.23a4.32,4.32,0,0,0,1.24.14,3.26,3.26,0,0,0,.7-.07,2,2,0,0,0,.6-.22,1.3,1.3,0,0,0,.43-.41,1.09,1.09,0,0,0,.16-.61.91.91,0,0,0-.39-.84,2.78,2.78,0,0,0-1-.35l-1.49-.27a10.65,10.65,0,0,1-1.08-.27,3.34,3.34,0,0,1-1-.46,2.48,2.48,0,0,1-.69-.75,2.1,2.1,0,0,1-.27-1.11,2.72,2.72,0,0,1,.33-1.39,2.83,2.83,0,0,1,.88-.91,3.88,3.88,0,0,1,1.27-.5,7.34,7.34,0,0,1,1.5-.15,7.43,7.43,0,0,1,2,.23c.56.16,1,.28,1.26.38l0,2.29Z"/><path class="cls-9" d="M38.48,300.91a5.8,5.8,0,0,1,.36-2.09,4.79,4.79,0,0,1,1-1.6,4.48,4.48,0,0,1,1.55-1,5.1,5.1,0,0,1,2-.37,4.78,4.78,0,0,1,2.18.45A3.86,3.86,0,0,1,47,297.43a4.7,4.7,0,0,1,.77,1.59,7.07,7.07,0,0,1,.23,1.75,5.49,5.49,0,0,1-.31,1.88,4.37,4.37,0,0,1-.91,1.54,4.16,4.16,0,0,1-1.5,1,5.43,5.43,0,0,1-2.1.38,5.16,5.16,0,0,1-2.15-.4,4.09,4.09,0,0,1-1.44-1.06,4.2,4.2,0,0,1-.81-1.5A5.65,5.65,0,0,1,38.48,300.91Zm2.13-.07a4.3,4.3,0,0,0,.15,1.14,2.88,2.88,0,0,0,.47,1,2.28,2.28,0,0,0,2,1,2.49,2.49,0,0,0,1.19-.27,2.53,2.53,0,0,0,.83-.73,3.25,3.25,0,0,0,.47-1.07,5.45,5.45,0,0,0,.16-1.3,4.3,4.3,0,0,0-.2-1.37,2.66,2.66,0,0,0-.53-.94,2.09,2.09,0,0,0-.8-.55,2.63,2.63,0,0,0-1-.18,2.47,2.47,0,0,0-2.12,1,3.23,3.23,0,0,0-.47,1.07A5.64,5.64,0,0,0,40.61,300.84Z"/><path class="cls-9" d="M49.43,303.92h1.06l0-6.41H49.21V296h3.33c0,.31,0,.64,0,1s-.08.7-.14,1.09h0a3.23,3.23,0,0,1,.41-.86,2.94,2.94,0,0,1,.68-.73,3.06,3.06,0,0,1,.95-.5,3.73,3.73,0,0,1,1.25-.19,3,3,0,0,1,2.46,1,4,4,0,0,1,.8,2.65q0,1.14,0,2.25c0,.73,0,1.48,0,2.24H60.1v1.47H55.8v-1.47h1.06c0-.69,0-1.37,0-2.06s0-1.38,0-2.06a2.72,2.72,0,0,0-.46-1.64,1.6,1.6,0,0,0-1.43-.65,2.23,2.23,0,0,0-1.73.76,3.07,3.07,0,0,0-.73,2.08l-.07,3.57h1.26v1.47H49.43Z"/><path class="cls-9" d="M62,296.66l.5-.23a5.91,5.91,0,0,1,.79-.28,7.74,7.74,0,0,1,1.06-.23,8,8,0,0,1,1.36-.1,5.12,5.12,0,0,1,1.74.25,2.74,2.74,0,0,1,1.13.71,2.7,2.7,0,0,1,.6,1.12,5.82,5.82,0,0,1,.18,1.5c0,.75,0,1.51,0,2.26s0,1.5,0,2.26h1.26v1.47h-3c0-.3,0-.62,0-1a7.5,7.5,0,0,1,.12-1h0a5.59,5.59,0,0,1-.38.78,3.05,3.05,0,0,1-.6.7,3,3,0,0,1-.88.49,4.18,4.18,0,0,1-2.67-.06,2.65,2.65,0,0,1-.92-.64,2.38,2.38,0,0,1-.5-.87,2.74,2.74,0,0,1-.16-.92,2.39,2.39,0,0,1,.42-1.48,2.69,2.69,0,0,1,1-.85,4.5,4.5,0,0,1,1.32-.4c.46-.07.89-.11,1.28-.14l1.92-.1v-.7a3.32,3.32,0,0,0-.09-.8,1.37,1.37,0,0,0-1-1,3,3,0,0,0-1-.15,4,4,0,0,0-1,.12,6.47,6.47,0,0,0-.7.21V299H62Zm1.62,6.1a1.2,1.2,0,0,0,.39.9,1.53,1.53,0,0,0,1.1.36,2.46,2.46,0,0,0,1-.2,2.33,2.33,0,0,0,.75-.54,2.13,2.13,0,0,0,.46-.76,2.58,2.58,0,0,0,.16-.87v-.38c-.53,0-1,0-1.5.05a6.11,6.11,0,0,0-1.24.19,1.89,1.89,0,0,0-.86.44A1,1,0,0,0,63.63,302.76Z"/><path class="cls-9" d="M72,303.92h1.13L73.24,293H71.6v-1.48h3.66l-.07,12.37h1.26v1.47H72Z"/><path class="cls-9" d="M88.5,298.72l0-1.12a1.94,1.94,0,0,0-.57-.22,4,4,0,0,0-1-.09,5.09,5.09,0,0,0-.69,0,2.18,2.18,0,0,0-.61.17,1.06,1.06,0,0,0-.43.35.94.94,0,0,0-.16.57.75.75,0,0,0,.38.74,2.81,2.81,0,0,0,.81.3l2.28.45a8,8,0,0,1,.8.23,2.24,2.24,0,0,1,.73.43,1.88,1.88,0,0,1,.53.74,2.78,2.78,0,0,1,.21,1.17,3,3,0,0,1-.36,1.53,2.7,2.7,0,0,1-1,1,4.44,4.44,0,0,1-1.35.5,8.8,8.8,0,0,1-1.53.14,9.68,9.68,0,0,1-2.07-.2,11,11,0,0,1-1.33-.36l0-2.54H85l0,1.25.75.23a4.37,4.37,0,0,0,1.24.14,3.35,3.35,0,0,0,.71-.07,2.25,2.25,0,0,0,.6-.22,1.37,1.37,0,0,0,.42-.41,1.09,1.09,0,0,0,.16-.61.92.92,0,0,0-.38-.84,2.76,2.76,0,0,0-1-.35L86,301.36a10.65,10.65,0,0,1-1.08-.27,3.28,3.28,0,0,1-1-.46,2.39,2.39,0,0,1-.7-.75,2.1,2.1,0,0,1-.27-1.11,2.63,2.63,0,0,1,.34-1.39,2.73,2.73,0,0,1,.88-.91,3.79,3.79,0,0,1,1.27-.5,8.19,8.19,0,0,1,3.49.08c.56.16,1,.28,1.26.38l0,2.29Z"/><path class="cls-9" d="M93,296.66l.51-.23a5.27,5.27,0,0,1,.78-.28,8.73,8.73,0,0,1,2.42-.33,5.19,5.19,0,0,1,1.75.25,2.7,2.7,0,0,1,1.12.71,2.83,2.83,0,0,1,.61,1.12,5.84,5.84,0,0,1,.17,1.5c0,.75,0,1.51,0,2.26s0,1.5,0,2.26h1.26v1.47h-3c0-.3,0-.62,0-1a9.72,9.72,0,0,1,.12-1h0a4.66,4.66,0,0,1-.38.78,2.78,2.78,0,0,1-.59.7,3.1,3.1,0,0,1-.88.49,4.21,4.21,0,0,1-2.68-.06,2.75,2.75,0,0,1-.92-.64,2.38,2.38,0,0,1-.5-.87,3,3,0,0,1-.15-.92,2.38,2.38,0,0,1,.41-1.48,2.72,2.72,0,0,1,1-.85,4.35,4.35,0,0,1,1.31-.4c.47-.07.89-.11,1.28-.14l1.92-.1v-.7a3.94,3.94,0,0,0-.08-.8,1.55,1.55,0,0,0-.33-.62,1.53,1.53,0,0,0-.64-.4,3,3,0,0,0-1-.15,3.93,3.93,0,0,0-1,.12,6.8,6.8,0,0,0-.71.21V299H93Zm1.62,6.1a1.2,1.2,0,0,0,.39.9,1.58,1.58,0,0,0,1.11.36,2.44,2.44,0,0,0,1-.2,2.49,2.49,0,0,0,.76-.54,2.45,2.45,0,0,0,.46-.76,2.57,2.57,0,0,0,.15-.87v-.38c-.53,0-1,0-1.5.05a6.22,6.22,0,0,0-1.24.19A1.86,1.86,0,0,0,95,302,1.05,1.05,0,0,0,94.64,302.76Z"/><path class="cls-9" d="M102.6,297.51h-.94V296h4.18v1.48h-1l1.85,5.06a4.33,4.33,0,0,1,.16.56q.06.28.15.57h0c0-.19.09-.38.12-.57a4.58,4.58,0,0,1,.15-.56l1.82-5.06h-1.19V296h4.17v1.48h-1l-3.19,7.88h-2.12Z"/><path class="cls-9" d="M112.75,303.92H114l0-6.41h-1.42V296H116l0,7.89h1.26v1.47h-4.5Zm.88-11.2a1.34,1.34,0,0,1,.41-1,1.32,1.32,0,0,1,1-.4,1.38,1.38,0,1,1-1.39,1.38Z"/><path class="cls-9" d="M118.58,303.92h1.06l0-6.41h-1.31V296h3.33c0,.31,0,.64,0,1s-.07.7-.13,1.09h0a3.61,3.61,0,0,1,.42-.86,2.9,2.9,0,0,1,.67-.73,3.12,3.12,0,0,1,1-.5,3.69,3.69,0,0,1,1.25-.19,3,3,0,0,1,2.45,1,4,4,0,0,1,.8,2.65c0,.76,0,1.51,0,2.25s0,1.48-.05,2.24h1.23v1.47H125v-1.47H126c0-.69,0-1.37,0-2.06s0-1.38,0-2.06a2.72,2.72,0,0,0-.46-1.64,1.62,1.62,0,0,0-1.43-.65,2.24,2.24,0,0,0-1.74.76,3.17,3.17,0,0,0-.73,2.08l-.07,3.57h1.26v1.47h-4.34Z"/><path class="cls-9" d="M139.75,297.51l-1.8-.11a4.26,4.26,0,0,1,.51.73,2.77,2.77,0,0,1,.26,1.3,3.06,3.06,0,0,1-.3,1.37,3.17,3.17,0,0,1-.84,1.05,4.18,4.18,0,0,1-1.21.67,4.35,4.35,0,0,1-1.44.24h-.76a1.26,1.26,0,0,0-.7.22.61.61,0,0,0-.33.49.44.44,0,0,0,.37.43,10,10,0,0,0,1.22.23l2.45.34a7,7,0,0,1,.93.21,2.27,2.27,0,0,1,.79.4,1.8,1.8,0,0,1,.54.65,2.13,2.13,0,0,1,.2,1,2.92,2.92,0,0,1-.42,1.61,3.26,3.26,0,0,1-1.13,1.05,5.12,5.12,0,0,1-1.58.58,9.8,9.8,0,0,1-1.8.17A8.59,8.59,0,0,1,133,310a5,5,0,0,1-1.39-.5,2.86,2.86,0,0,1-.92-.78,1.74,1.74,0,0,1-.33-1,2,2,0,0,1,.18-.85,2.16,2.16,0,0,1,.48-.67,2.45,2.45,0,0,1,.69-.46,2.92,2.92,0,0,1,.83-.23v0a2.22,2.22,0,0,1-.95-.43,1.13,1.13,0,0,1-.42-.95,1.19,1.19,0,0,1,.17-.63,1.51,1.51,0,0,1,.42-.45,2.19,2.19,0,0,1,.57-.29,3.78,3.78,0,0,1,.62-.16v0a5.13,5.13,0,0,1-.81-.31,2.75,2.75,0,0,1-.76-.57,2.8,2.8,0,0,1-.58-.89,3.34,3.34,0,0,1-.23-1.29,3.69,3.69,0,0,1,.28-1.41,3.3,3.3,0,0,1,.81-1.14,4,4,0,0,1,1.31-.74,5.37,5.37,0,0,1,1.78-.27,5.62,5.62,0,0,1,.92.07c.3.05.54.09.74.14h3.45Zm-6,8.15a4.36,4.36,0,0,0-1.09.67,1.15,1.15,0,0,0-.4.9,1.12,1.12,0,0,0,.2.68,1.39,1.39,0,0,0,.57.43,3.17,3.17,0,0,0,.85.24,6.9,6.9,0,0,0,1.06.07,7,7,0,0,0,1-.08,3.58,3.58,0,0,0,.91-.26,1.78,1.78,0,0,0,.65-.48,1.11,1.11,0,0,0,.25-.74.76.76,0,0,0-.41-.73,4.5,4.5,0,0,0-1.26-.34Zm-1.28-6.33a1.75,1.75,0,0,0,.62,1.49,2.9,2.9,0,0,0,1.76.47,2.27,2.27,0,0,0,1.65-.55,2,2,0,0,0,.56-1.48,1.76,1.76,0,0,0-.61-1.46,2.6,2.6,0,0,0-1.71-.51,2.35,2.35,0,0,0-1.66.56A1.9,1.9,0,0,0,132.44,299.33Z"/><path class="cls-9" d="M400.69,253.1H402l.07-9.65h-1.33V242h5a8.68,8.68,0,0,1,1.67.14,3.24,3.24,0,0,1,1.25.58,2.82,2.82,0,0,1,.79.95,2.88,2.88,0,0,1,.34,1.43,3.28,3.28,0,0,1-.16,1,2.62,2.62,0,0,1-.49.9,2.35,2.35,0,0,1-.79.64,2.91,2.91,0,0,1-1.06.3v0a3.6,3.6,0,0,1,1.22.21,3.36,3.36,0,0,1,1,.59,2.83,2.83,0,0,1,.72,1,3,3,0,0,1,.27,1.29,3.19,3.19,0,0,1-1.14,2.57,5.17,5.17,0,0,1-3.42,1h-5.27Zm4.94,0a4.34,4.34,0,0,0,1-.12,2.54,2.54,0,0,0,.85-.38,1.82,1.82,0,0,0,.57-.66,2,2,0,0,0,.21-1,1.88,1.88,0,0,0-.22-.91,2.07,2.07,0,0,0-.57-.64,3,3,0,0,0-.81-.38,3.81,3.81,0,0,0-.95-.12H404l0,4.18Zm-.25-5.77a2.44,2.44,0,0,0,1.64-.52,1.83,1.83,0,0,0,.62-1.49,2,2,0,0,0-.24-1,1.67,1.67,0,0,0-.61-.6,1.7,1.7,0,0,0-.59-.19,6.35,6.35,0,0,0-.84,0H404l0,3.88Z"/><path class="cls-9" d="M420.2,254.14a11.52,11.52,0,0,1-1.36.42,7.68,7.68,0,0,1-1.93.23,5.81,5.81,0,0,1-2.08-.35,4.58,4.58,0,0,1-1.55-1,4,4,0,0,1-1-1.53,5.73,5.73,0,0,1-.33-2,6.43,6.43,0,0,1,.28-2,4.42,4.42,0,0,1,.88-1.56,4,4,0,0,1,1.44-1,4.91,4.91,0,0,1,2-.38,4.44,4.44,0,0,1,1.84.37,3.55,3.55,0,0,1,1.32,1,4.56,4.56,0,0,1,.8,1.57,6.94,6.94,0,0,1,.27,2v.26h-6.7a3.08,3.08,0,0,0,.24,1.24,2.88,2.88,0,0,0,.67.94,2.79,2.79,0,0,0,1,.61,4,4,0,0,0,1.28.2,6.52,6.52,0,0,0,1.64-.2,7.1,7.1,0,0,0,1.37-.52Zm-1.53-5.29v-.18a2.48,2.48,0,0,0-.47-1.39,2,2,0,0,0-.67-.58,2.26,2.26,0,0,0-1.07-.23,2.34,2.34,0,0,0-1.08.22,2,2,0,0,0-.71.55,2.13,2.13,0,0,0-.42.75,3.17,3.17,0,0,0-.15.86Z"/><path class="cls-9" d="M421.88,245.21h1.42l0-2.1,2-.15-.07,2.25H428v1.48H425.3q0,1.13,0,2.22c0,.73,0,1.44,0,2.15a6.16,6.16,0,0,0,.07,1.06,1.69,1.69,0,0,0,.24.66.8.8,0,0,0,.4.33,1.72,1.72,0,0,0,.6.09,3.23,3.23,0,0,0,.82-.1,6.56,6.56,0,0,0,.75-.26l-.07,1.48a4.16,4.16,0,0,1-.93.33,4.81,4.81,0,0,1-1.14.14,4.24,4.24,0,0,1-1.26-.16,1.87,1.87,0,0,1-.86-.49,2.06,2.06,0,0,1-.48-.89,4.73,4.73,0,0,1-.16-1.34c0-.3,0-.67,0-1.1s0-.89,0-1.36,0-.95,0-1.43,0-.92,0-1.33h-1.42Z"/><path class="cls-9" d="M428.54,245.21H430l0-2.1,2-.15-.07,2.25h2.68v1.48H432q0,1.13,0,2.22c0,.73,0,1.44,0,2.15a6.16,6.16,0,0,0,.07,1.06,1.69,1.69,0,0,0,.24.66.8.8,0,0,0,.4.33,1.72,1.72,0,0,0,.6.09,3.23,3.23,0,0,0,.82-.1,6.56,6.56,0,0,0,.75-.26l-.07,1.48a4.16,4.16,0,0,1-.93.33,4.81,4.81,0,0,1-1.14.14,4.24,4.24,0,0,1-1.26-.16,1.87,1.87,0,0,1-.86-.49,2.06,2.06,0,0,1-.48-.89,4.73,4.73,0,0,1-.16-1.34c0-.3,0-.67,0-1.1s0-.89,0-1.36,0-.95,0-1.43,0-.92,0-1.33h-1.42Z"/><path class="cls-9" d="M443.53,254.14a11.52,11.52,0,0,1-1.36.42,7.74,7.74,0,0,1-1.93.23,5.81,5.81,0,0,1-2.08-.35,4.48,4.48,0,0,1-1.55-1,4,4,0,0,1-1-1.53,5.51,5.51,0,0,1-.34-2,6.43,6.43,0,0,1,.29-2,4.26,4.26,0,0,1,.87-1.56,4,4,0,0,1,1.44-1,4.94,4.94,0,0,1,2-.38,4.49,4.49,0,0,1,1.85.37,3.64,3.64,0,0,1,1.32,1,4.55,4.55,0,0,1,.79,1.57,6.94,6.94,0,0,1,.27,2v.26h-6.69a3.08,3.08,0,0,0,.24,1.24,2.74,2.74,0,0,0,.67.94,2.71,2.71,0,0,0,1,.61,4,4,0,0,0,1.28.2,6.52,6.52,0,0,0,1.64-.2,7.36,7.36,0,0,0,1.37-.52ZM442,248.85v-.18a2.58,2.58,0,0,0-.11-.67,2.21,2.21,0,0,0-.36-.72,2.12,2.12,0,0,0-.67-.58,2.68,2.68,0,0,0-2.15,0,2.09,2.09,0,0,0-.72.55,2.28,2.28,0,0,0-.41.75,3.17,3.17,0,0,0-.15.86Z"/><path class="cls-9" d="M445.46,253.1h1.13l0-6.41H445.2v-1.48h3.33c0,.35,0,.75,0,1.21a10.89,10.89,0,0,1-.09,1.38l0,0a4,4,0,0,1,1-2.07,2.36,2.36,0,0,1,1.75-.74,4.68,4.68,0,0,1,.67.05,4,4,0,0,1,.46.11l-.21,1.79a2.08,2.08,0,0,0-.41-.11,2.51,2.51,0,0,0-.51,0,2.21,2.21,0,0,0-1.15.29,2.42,2.42,0,0,0-.8.76,4,4,0,0,0-.46,1.08,5.09,5.09,0,0,0-.15,1.22l0,2.92H450v1.47h-4.51Z"/><path class="cls-9" d="M458.45,253.1h1.14l0-6.41H458.2v-1.48h1.42l0-1.28a3.67,3.67,0,0,1,.33-1.56,3,3,0,0,1,.84-1.06,3.38,3.38,0,0,1,1.23-.61,6.24,6.24,0,0,1,1.54-.19,8.07,8.07,0,0,1,1.32.1l1.07.21v1.47c-.24,0-.55-.1-.92-.14a10.94,10.94,0,0,0-1.15-.05,2.24,2.24,0,0,0-1.71.56,2.38,2.38,0,0,0-.54,1.49l0,1.06h5.49l0,7.89h1.26v1.47h-4.5V253.1h1.23l0-6.41h-3.47l0,6.41h1.26v1.47h-4.41Z"/><path class="cls-9" d="M469.86,253.1h1.07l0-6.41h-1.31v-1.48H473c0,.31,0,.64-.05,1s-.07.71-.13,1.1h0a3.61,3.61,0,0,1,.42-.86,2.9,2.9,0,0,1,.67-.73,3.37,3.37,0,0,1,1-.51,4,4,0,0,1,1.25-.19,3,3,0,0,1,2.45,1,4,4,0,0,1,.81,2.65c0,.76,0,1.51,0,2.24s0,1.49-.05,2.25h1.23v1.47h-4.3V253.1h1.06c0-.69,0-1.38,0-2.07s0-1.37,0-2.06a2.76,2.76,0,0,0-.46-1.64,1.63,1.63,0,0,0-1.43-.64,2.24,2.24,0,0,0-1.74.76,3.17,3.17,0,0,0-.73,2.08l-.07,3.57h1.26v1.47h-4.34Z"/><path class="cls-9" d="M482.45,245.84a5.27,5.27,0,0,1,.5-.23,6.26,6.26,0,0,1,.78-.28,10,10,0,0,1,1.06-.24,9.32,9.32,0,0,1,1.36-.1,5.17,5.17,0,0,1,1.75.26A2.6,2.6,0,0,1,489,246a2.55,2.55,0,0,1,.61,1.12,5.82,5.82,0,0,1,.18,1.5c0,.75,0,1.51,0,2.26s0,1.5,0,2.26H491v1.47h-3c0-.3,0-.62,0-1a9.67,9.67,0,0,1,.13-1h0a4,4,0,0,1-.38.78,2.58,2.58,0,0,1-.59.69,2.77,2.77,0,0,1-.88.5,3.89,3.89,0,0,1-1.26.19,3.46,3.46,0,0,1-1.42-.26,2.68,2.68,0,0,1-.91-.63,2.27,2.27,0,0,1-.51-.87,3,3,0,0,1-.15-.92,2.45,2.45,0,0,1,.41-1.48,2.85,2.85,0,0,1,1-.86,4.51,4.51,0,0,1,1.31-.39c.47-.07.9-.11,1.28-.14l1.93-.1v-.71a3.29,3.29,0,0,0-.09-.79,1.38,1.38,0,0,0-.33-.62,1.57,1.57,0,0,0-.64-.41,3.19,3.19,0,0,0-1-.14,4,4,0,0,0-1,.12l-.7.2v1.37h-1.8Zm1.61,6.1a1.17,1.17,0,0,0,.39.89,1.54,1.54,0,0,0,1.11.37,2.57,2.57,0,0,0,1-.2,2.49,2.49,0,0,0,.76-.54,2.38,2.38,0,0,0,.46-.76,2.57,2.57,0,0,0,.15-.87v-.38c-.53,0-1,0-1.49,0a6.89,6.89,0,0,0-1.24.19,2.11,2.11,0,0,0-.86.44A1.09,1.09,0,0,0,484.06,251.94Z"/><path class="cls-9" d="M492.54,253.1h1.06l0-6.41h-1.31v-1.48h3.33c0,.31,0,.64-.05,1s-.07.71-.13,1.1h0a3.61,3.61,0,0,1,.42-.86,2.9,2.9,0,0,1,.67-.73,3.37,3.37,0,0,1,1-.51,4,4,0,0,1,1.25-.19,3,3,0,0,1,2.45,1,4,4,0,0,1,.8,2.65c0,.76,0,1.51,0,2.24s0,1.49-.05,2.25h1.23v1.47h-4.3V253.1H500c0-.69,0-1.38,0-2.07s0-1.37,0-2.06a2.76,2.76,0,0,0-.46-1.64,1.63,1.63,0,0,0-1.43-.64,2.24,2.24,0,0,0-1.74.76,3.17,3.17,0,0,0-.73,2.08l-.07,3.57h1.26v1.47h-4.34Z"/><path class="cls-9" d="M510.35,246.74a3.12,3.12,0,0,0-.54-.12,4.54,4.54,0,0,0-.65,0,2.93,2.93,0,0,0-1.23.24,2.34,2.34,0,0,0-.87.68,3,3,0,0,0-.53,1,4.2,4.2,0,0,0-.18,1.25,4.4,4.4,0,0,0,.16,1.2,2.92,2.92,0,0,0,.54,1.07,2.76,2.76,0,0,0,1,.78,3.63,3.63,0,0,0,1.57.3,5.22,5.22,0,0,0,1.35-.18,4.55,4.55,0,0,0,1-.36l-.11,1.74a6.42,6.42,0,0,1-1,.31,6.3,6.3,0,0,1-1.58.18,5.72,5.72,0,0,1-2.36-.43,4.2,4.2,0,0,1-1.55-1.11,4.4,4.4,0,0,1-.85-1.56,6.17,6.17,0,0,1-.26-1.74,5.81,5.81,0,0,1,.33-2,4.17,4.17,0,0,1,1-1.56,4.36,4.36,0,0,1,1.58-1,6.09,6.09,0,0,1,2.17-.37,6.48,6.48,0,0,1,2.67.49v2.65h-1.69Z"/><path class="cls-9" d="M513.39,253.1h1.22l0-6.41h-1.42v-1.48h3.43l0,7.89h1.26v1.47h-4.5Zm.88-11.2a1.38,1.38,0,0,1,1.38-1.39,1.35,1.35,0,0,1,1,.41,1.39,1.39,0,1,1-2.37,1Z"/><path class="cls-9" d="M519.8,245.84a5.27,5.27,0,0,1,.5-.23,6.26,6.26,0,0,1,.78-.28,10,10,0,0,1,1.06-.24,9.32,9.32,0,0,1,1.36-.1,5.17,5.17,0,0,1,1.75.26,2.6,2.6,0,0,1,1.12.71,2.55,2.55,0,0,1,.61,1.12,5.82,5.82,0,0,1,.18,1.5c0,.75,0,1.51,0,2.26s0,1.5,0,2.26h1.26v1.47h-3c0-.3,0-.62,0-1a9.67,9.67,0,0,1,.13-1h0a4.66,4.66,0,0,1-.38.78,2.58,2.58,0,0,1-.59.69,2.89,2.89,0,0,1-.88.5,3.89,3.89,0,0,1-1.26.19,3.46,3.46,0,0,1-1.42-.26,2.68,2.68,0,0,1-.91-.63,2.27,2.27,0,0,1-.51-.87,3,3,0,0,1-.15-.92,2.45,2.45,0,0,1,.41-1.48,2.85,2.85,0,0,1,1-.86,4.51,4.51,0,0,1,1.31-.39c.47-.07.9-.11,1.28-.14l1.93-.1v-.71a3.29,3.29,0,0,0-.09-.79,1.38,1.38,0,0,0-.33-.62,1.57,1.57,0,0,0-.64-.41,3.24,3.24,0,0,0-1-.14,4,4,0,0,0-1,.12c-.32.08-.55.15-.7.2v1.37h-1.8Zm1.61,6.1a1.17,1.17,0,0,0,.39.89,1.54,1.54,0,0,0,1.11.37,2.57,2.57,0,0,0,1-.2,2.49,2.49,0,0,0,.76-.54,2.38,2.38,0,0,0,.46-.76,2.57,2.57,0,0,0,.15-.87v-.38c-.53,0-1,0-1.49,0a6.76,6.76,0,0,0-1.24.19,2.11,2.11,0,0,0-.86.44A1.09,1.09,0,0,0,521.41,251.94Z"/><path class="cls-9" d="M529.82,253.1H531l.08-10.9h-1.64v-1.47H533L533,253.1h1.26v1.47h-4.41Z"/><path class="cls-9" d="M412.08,269.21h1.43l0-2.1,2-.15-.08,2.25h2.69v1.48H415.5c0,.75,0,1.49,0,2.22s0,1.44,0,2.15a6.16,6.16,0,0,0,.07,1.06,1.87,1.87,0,0,0,.23.66.86.86,0,0,0,.41.33,1.72,1.72,0,0,0,.6.09,3.23,3.23,0,0,0,.82-.1,6.56,6.56,0,0,0,.75-.26l-.07,1.48a4.56,4.56,0,0,1-.93.33,4.81,4.81,0,0,1-1.14.14,4.15,4.15,0,0,1-1.26-.16,1.87,1.87,0,0,1-.86-.49,2.19,2.19,0,0,1-.49-.89,5.16,5.16,0,0,1-.15-1.34c0-.3,0-.67,0-1.1s0-.89,0-1.36,0-.95,0-1.43,0-.92,0-1.33h-1.43Z"/><path class="cls-9" d="M419,277.1h1.13l0-6.41h-1.43v-1.48h3.33c0,.35,0,.75,0,1.21a10.89,10.89,0,0,1-.09,1.38l0,0a4,4,0,0,1,1-2.07,2.36,2.36,0,0,1,1.75-.74,4.68,4.68,0,0,1,.67.05,4,4,0,0,1,.46.11l-.21,1.79a2.08,2.08,0,0,0-.41-.11,2.51,2.51,0,0,0-.51,0,2.21,2.21,0,0,0-1.15.29,2.42,2.42,0,0,0-.8.76,4,4,0,0,0-.46,1.08,5.09,5.09,0,0,0-.15,1.22l0,2.92h1.36v1.47H419Z"/><path class="cls-9" d="M426.88,269.84l.5-.23a5.91,5.91,0,0,1,.79-.28,9.44,9.44,0,0,1,1.06-.24,9.11,9.11,0,0,1,1.36-.1,5.1,5.1,0,0,1,1.74.26,2.54,2.54,0,0,1,1.73,1.83,5.82,5.82,0,0,1,.18,1.5c0,.75,0,1.51,0,2.26s0,1.5-.05,2.26h1.26v1.47h-3c0-.3,0-.62,0-1a7.5,7.5,0,0,1,.12-1h0a5.59,5.59,0,0,1-.38.78,2.81,2.81,0,0,1-.6.69,2.77,2.77,0,0,1-.88.5,3.89,3.89,0,0,1-1.26.19,3.45,3.45,0,0,1-1.41-.26,2.63,2.63,0,0,1-.92-.63,2.38,2.38,0,0,1-.5-.87,2.79,2.79,0,0,1-.16-.92,2.39,2.39,0,0,1,.42-1.48,2.82,2.82,0,0,1,1-.86,4.48,4.48,0,0,1,1.32-.39c.47-.07.89-.11,1.28-.14l1.92-.1v-.71a3.29,3.29,0,0,0-.09-.79A1.47,1.47,0,0,0,432,271a1.65,1.65,0,0,0-.64-.41,3.26,3.26,0,0,0-1-.14,4,4,0,0,0-1,.12l-.7.2v1.37h-1.8Zm1.62,6.1a1.17,1.17,0,0,0,.39.89,1.51,1.51,0,0,0,1.1.37A2.62,2.62,0,0,0,431,277a2.33,2.33,0,0,0,.75-.54,2.21,2.21,0,0,0,.46-.76,2.58,2.58,0,0,0,.16-.87v-.38c-.53,0-1,0-1.5,0a6.89,6.89,0,0,0-1.24.19,2.11,2.11,0,0,0-.86.44A1.09,1.09,0,0,0,428.5,275.94Z"/><path class="cls-9" d="M442.77,270.74a2.8,2.8,0,0,0-.53-.12,4.63,4.63,0,0,0-.65,0,2.93,2.93,0,0,0-1.23.24,2.34,2.34,0,0,0-.87.68,2.82,2.82,0,0,0-.53,1,4.2,4.2,0,0,0-.18,1.25,4.4,4.4,0,0,0,.16,1.2,2.92,2.92,0,0,0,.54,1.07,2.76,2.76,0,0,0,1,.78,3.62,3.62,0,0,0,1.56.3,5.24,5.24,0,0,0,1.36-.18,4.55,4.55,0,0,0,1-.36l-.11,1.74a6.42,6.42,0,0,1-1,.31,6.3,6.3,0,0,1-1.58.18,5.72,5.72,0,0,1-2.36-.43,4.12,4.12,0,0,1-1.55-1.11,4.4,4.4,0,0,1-.85-1.56,6.17,6.17,0,0,1-.26-1.74,5.81,5.81,0,0,1,.33-2,4.17,4.17,0,0,1,1-1.56,4.27,4.27,0,0,1,1.58-1,6.09,6.09,0,0,1,2.17-.37,6.48,6.48,0,0,1,2.67.49v2.65h-1.7Z"/><path class="cls-9" d="M445.58,277.1h1.14l.07-10.9h-1.64v-1.47h3.65l-.07,8.55,3.31-2.56v0h-1.33v-1.48h4.39v1.48h-.93l-3.35,2.77,3.62,3.64h1.06v1.47H451V277.1h1.1l-3.37-3.28v3.28h1.14v1.47h-4.29Z"/><path class="cls-9" d="M456.49,277.1h1.22l0-6.41h-1.42v-1.48h3.44l0,7.89H461v1.47h-4.5Zm.88-11.2a1.34,1.34,0,0,1,.41-1,1.33,1.33,0,0,1,1-.41,1.39,1.39,0,1,1,0,2.77,1.32,1.32,0,0,1-1-.4A1.34,1.34,0,0,1,457.37,265.9Z"/><path class="cls-9" d="M462.32,277.1h1.06l0-6.41h-1.31v-1.48h3.33c0,.31,0,.64-.05,1s-.08.71-.13,1.1h0a3.61,3.61,0,0,1,.42-.86,2.9,2.9,0,0,1,.67-.73,3.45,3.45,0,0,1,.95-.51,4.07,4.07,0,0,1,1.26-.19,3,3,0,0,1,2.45,1,4,4,0,0,1,.8,2.65c0,.76,0,1.51,0,2.24s0,1.49-.05,2.25H473v1.47h-4.31V277.1h1.07c0-.69,0-1.38,0-2.07s0-1.37,0-2.06a2.83,2.83,0,0,0-.46-1.64,1.63,1.63,0,0,0-1.43-.64,2.24,2.24,0,0,0-1.74.76,3.17,3.17,0,0,0-.73,2.08l-.07,3.57h1.26v1.47h-4.34Z"/><path class="cls-9" d="M483.49,270.69l-1.8-.11a3.79,3.79,0,0,1,.5.73,2.65,2.65,0,0,1,.27,1.3,3.06,3.06,0,0,1-.3,1.37,3.3,3.3,0,0,1-.84,1,4.11,4.11,0,0,1-1.22.67,4.25,4.25,0,0,1-1.43.24h-.76a1.26,1.26,0,0,0-.7.22.59.59,0,0,0-.33.49c0,.21.13.35.37.43a10,10,0,0,0,1.22.23l2.45.34a7,7,0,0,1,.93.21,2.27,2.27,0,0,1,.79.4,1.8,1.8,0,0,1,.54.65,2.27,2.27,0,0,1,.2,1,2.87,2.87,0,0,1-.42,1.6,3.2,3.2,0,0,1-1.13,1.06,4.86,4.86,0,0,1-1.58.57,9,9,0,0,1-1.8.18,8.07,8.07,0,0,1-1.76-.18,4.77,4.77,0,0,1-1.38-.49,2.86,2.86,0,0,1-.92-.78,1.76,1.76,0,0,1-.33-1,2,2,0,0,1,.18-.85,2.31,2.31,0,0,1,.47-.67,2.43,2.43,0,0,1,.7-.46,2.63,2.63,0,0,1,.83-.23v0a2.22,2.22,0,0,1-.95-.43,1.13,1.13,0,0,1-.42-.95,1.1,1.1,0,0,1,.17-.63,1.4,1.4,0,0,1,.42-.45,2.19,2.19,0,0,1,.57-.29,2.83,2.83,0,0,1,.62-.16v0a4.38,4.38,0,0,1-.81-.32,2.71,2.71,0,0,1-.77-.56,3,3,0,0,1-.57-.89,3.34,3.34,0,0,1-.23-1.29,3.66,3.66,0,0,1,.28-1.41,3.3,3.3,0,0,1,.81-1.14,3.79,3.79,0,0,1,1.31-.74,5.12,5.12,0,0,1,1.78-.28,5.62,5.62,0,0,1,.92.08,6,6,0,0,1,.73.14h3.46Zm-6,8.15a4.08,4.08,0,0,0-1.09.67,1.15,1.15,0,0,0-.4.9,1.08,1.08,0,0,0,.2.68,1.48,1.48,0,0,0,.57.43,3.17,3.17,0,0,0,.85.24,8.44,8.44,0,0,0,1.06.07,7,7,0,0,0,1-.08,4,4,0,0,0,.9-.26,1.82,1.82,0,0,0,.66-.48,1.11,1.11,0,0,0,.25-.75.75.75,0,0,0-.41-.72,4.27,4.27,0,0,0-1.26-.34Zm-1.28-6.34a1.76,1.76,0,0,0,.62,1.5,2.9,2.9,0,0,0,1.76.47,2.27,2.27,0,0,0,1.64-.55,2,2,0,0,0,.57-1.49,1.76,1.76,0,0,0-.61-1.45,2.6,2.6,0,0,0-1.71-.51,2.39,2.39,0,0,0-1.67.56A1.91,1.91,0,0,0,476.18,272.5Z"/><path class="cls-9" d="M490.56,269.84l.51-.23a5.27,5.27,0,0,1,.78-.28,10,10,0,0,1,1.06-.24,9.22,9.22,0,0,1,1.36-.1,5.17,5.17,0,0,1,1.75.26,2.6,2.6,0,0,1,1.12.71,2.65,2.65,0,0,1,.61,1.12,5.82,5.82,0,0,1,.18,1.5c0,.75,0,1.51,0,2.26s0,1.5,0,2.26h1.26v1.47h-3c0-.3,0-.62,0-1a7.48,7.48,0,0,1,.13-1h0a4.66,4.66,0,0,1-.38.78,2.58,2.58,0,0,1-.59.69,2.89,2.89,0,0,1-.88.5,3.89,3.89,0,0,1-1.26.19,3.46,3.46,0,0,1-1.42-.26,2.73,2.73,0,0,1-.92-.63,2.38,2.38,0,0,1-.5-.87,3,3,0,0,1-.15-.92,2.45,2.45,0,0,1,.41-1.48,2.85,2.85,0,0,1,1-.86,4.42,4.42,0,0,1,1.31-.39c.47-.07.89-.11,1.28-.14l1.93-.1v-.71a3.29,3.29,0,0,0-.09-.79,1.38,1.38,0,0,0-.33-.62,1.57,1.57,0,0,0-.64-.41,3.24,3.24,0,0,0-1-.14,4,4,0,0,0-1,.12c-.32.08-.55.15-.71.2v1.37h-1.8Zm1.62,6.1a1.17,1.17,0,0,0,.39.89,1.54,1.54,0,0,0,1.11.37,2.61,2.61,0,0,0,1-.2,2.49,2.49,0,0,0,.76-.54,2.38,2.38,0,0,0,.61-1.63v-.38c-.53,0-1,0-1.49,0a7,7,0,0,0-1.25.19,2.07,2.07,0,0,0-.85.44A1.09,1.09,0,0,0,492.18,275.94Z"/><path class="cls-9" d="M500.66,277.1h1.06l0-6.41h-1.31v-1.48h3.32c0,.31,0,.64,0,1s-.08.71-.13,1.1h0a3.61,3.61,0,0,1,.42-.86,2.9,2.9,0,0,1,.67-.73,3.45,3.45,0,0,1,.95-.51,4.07,4.07,0,0,1,1.26-.19,3,3,0,0,1,2.45,1,4,4,0,0,1,.8,2.65c0,.76,0,1.51,0,2.24s0,1.49-.05,2.25h1.23v1.47H507V277.1h1.07c0-.69,0-1.38,0-2.07s0-1.37,0-2.06a2.83,2.83,0,0,0-.46-1.64,1.63,1.63,0,0,0-1.43-.64,2.24,2.24,0,0,0-1.74.76,3.17,3.17,0,0,0-.73,2.08l-.07,3.57H505v1.47h-4.34Z"/><path class="cls-9" d="M522.5,278.57h-3.17c0-.33,0-.67,0-1s.08-.63.13-.91h0a3.39,3.39,0,0,1-1.13,1.54,3.21,3.21,0,0,1-2,.59,3.78,3.78,0,0,1-1.56-.31,3.54,3.54,0,0,1-1.23-.87,4,4,0,0,1-.82-1.4,5.43,5.43,0,0,1-.3-1.87,6.61,6.61,0,0,1,.33-2.13,4.79,4.79,0,0,1,1-1.7,4.5,4.5,0,0,1,1.58-1.12,5.45,5.45,0,0,1,2.12-.4,7.5,7.5,0,0,1,1,.07c.32,0,.61.09.89.15l0-3h-1.71v-1.47h3.66l-.08,12.37h1.27ZM519.26,271a3.39,3.39,0,0,0-1.79-.4,2.63,2.63,0,0,0-1.24.28,2.75,2.75,0,0,0-.91.75,3.62,3.62,0,0,0-.56,1.11,5.1,5.1,0,0,0,0,2.53,3,3,0,0,0,.42,1,2.14,2.14,0,0,0,.7.64,2.22,2.22,0,0,0,2.82-.7,4.76,4.76,0,0,0,.6-2.58Z"/><path class="cls-9" d="M401.05,293.21h3.22c0,.34,0,.67,0,1s-.08.63-.13.91h0a3.39,3.39,0,0,1,1.13-1.54,3.21,3.21,0,0,1,2-.59,4,4,0,0,1,1.57.31,3.76,3.76,0,0,1,1.24.87,4.11,4.11,0,0,1,.82,1.4,5.43,5.43,0,0,1,.3,1.87,6.58,6.58,0,0,1-.34,2.14,4.86,4.86,0,0,1-1,1.7,4.35,4.35,0,0,1-1.58,1.11,5.37,5.37,0,0,1-2.14.4,6.27,6.27,0,0,1-1-.08,3.68,3.68,0,0,1-.88-.23l0,3.13h1.49v1.48h-4.48v-1.48h1l.07-10.92h-1.31Zm3.29,7.6a3.54,3.54,0,0,0,1.8.39,2.65,2.65,0,0,0,1.25-.28,2.52,2.52,0,0,0,.9-.75,3.23,3.23,0,0,0,.56-1.11,4.42,4.42,0,0,0,.19-1.31,5.3,5.3,0,0,0-.14-1.22,3,3,0,0,0-.43-1,2,2,0,0,0-.71-.64,2.07,2.07,0,0,0-1-.23,2,2,0,0,0-1.83.93,4.78,4.78,0,0,0-.6,2.58Z"/><path class="cls-9" d="M412.71,301.1h1.14l0-6.41h-1.42v-1.48h3.33c0,.35,0,.75,0,1.21a10.94,10.94,0,0,1-.1,1.38l0,0a4,4,0,0,1,1-2.07,2.36,2.36,0,0,1,1.75-.74,4.8,4.8,0,0,1,.67.05,4.56,4.56,0,0,1,.46.11l-.22,1.79a1.82,1.82,0,0,0-.4-.11,2.51,2.51,0,0,0-.51,0,2.27,2.27,0,0,0-1.16.29,2.49,2.49,0,0,0-.79.76,3.75,3.75,0,0,0-.46,1.08,5.09,5.09,0,0,0-.15,1.22l0,2.92h1.37v1.47h-4.52Z"/><path class="cls-9" d="M428.46,302.14a11,11,0,0,1-1.36.42,7.68,7.68,0,0,1-1.93.23,5.85,5.85,0,0,1-2.08-.35,4.58,4.58,0,0,1-1.55-1,4.09,4.09,0,0,1-1-1.53,5.73,5.73,0,0,1-.33-2,6.43,6.43,0,0,1,.28-1.95,4.42,4.42,0,0,1,.88-1.56,4,4,0,0,1,1.44-1.05,4.91,4.91,0,0,1,2-.38,4.44,4.44,0,0,1,1.84.37,3.59,3.59,0,0,1,1.33,1,4.73,4.73,0,0,1,.79,1.57,6.94,6.94,0,0,1,.27,2v.26h-6.7a3.08,3.08,0,0,0,.24,1.24,3,3,0,0,0,.67.94,2.79,2.79,0,0,0,1,.61,4,4,0,0,0,1.28.2,6.52,6.52,0,0,0,1.64-.2,7.1,7.1,0,0,0,1.37-.52Zm-1.53-5.29v-.18a2.53,2.53,0,0,0-.1-.67,2.7,2.7,0,0,0-.36-.72,2.16,2.16,0,0,0-.68-.58,2.26,2.26,0,0,0-1.07-.23,2.34,2.34,0,0,0-1.08.22,2,2,0,0,0-.71.55,2.13,2.13,0,0,0-.42.75,3.17,3.17,0,0,0-.15.86Z"/><path class="cls-9" d="M430.06,293.21h3.23a8.26,8.26,0,0,1-.06,1c0,.33-.08.63-.12.91h0a3.34,3.34,0,0,1,1.14-1.54,3.17,3.17,0,0,1,2-.59,4,4,0,0,1,1.56.31,3.66,3.66,0,0,1,1.24.87,4,4,0,0,1,.82,1.4,5.43,5.43,0,0,1,.3,1.87,6.58,6.58,0,0,1-.33,2.14,4.86,4.86,0,0,1-1,1.7,4.3,4.3,0,0,1-1.59,1.11,5.34,5.34,0,0,1-2.14.4,6.14,6.14,0,0,1-1-.08,3.56,3.56,0,0,1-.88-.23l0,3.13h1.5v1.48h-4.49v-1.48h1.05l.07-10.92h-1.32Zm3.3,7.6a3.49,3.49,0,0,0,1.8.39,2.61,2.61,0,0,0,1.24-.28,2.64,2.64,0,0,0,.91-.75,3.41,3.41,0,0,0,.56-1.11,4.81,4.81,0,0,0,0-2.53,2.77,2.77,0,0,0-.42-1,2.08,2.08,0,0,0-.71-.64,2.13,2.13,0,0,0-1-.23,2,2,0,0,0-1.84.93,4.88,4.88,0,0,0-.59,2.58Z"/><path class="cls-9" d="M442.38,293.84c.12-.06.28-.14.5-.23a6.26,6.26,0,0,1,.78-.28,9.65,9.65,0,0,1,1.07-.24,9.11,9.11,0,0,1,1.36-.1,5.15,5.15,0,0,1,1.74.26A2.7,2.7,0,0,1,449,294a2.63,2.63,0,0,1,.6,1.12,5.82,5.82,0,0,1,.18,1.5c0,.75,0,1.51,0,2.26s0,1.5,0,2.26h1.26v1.47h-3q0-.45,0-1a9.67,9.67,0,0,1,.13-1h0a4,4,0,0,1-.38.78,2.58,2.58,0,0,1-.59.69,2.77,2.77,0,0,1-.88.5,3.89,3.89,0,0,1-1.26.19,3.38,3.38,0,0,1-1.41-.26,2.63,2.63,0,0,1-.92-.63,2.41,2.41,0,0,1-.51-.87,3,3,0,0,1-.15-.92,2.39,2.39,0,0,1,.42-1.48,2.74,2.74,0,0,1,1-.86,4.51,4.51,0,0,1,1.31-.39c.47-.07.9-.11,1.28-.14l1.93-.1v-.71a3.29,3.29,0,0,0-.09-.79,1.38,1.38,0,0,0-.33-.62,1.53,1.53,0,0,0-.63-.41,3.26,3.26,0,0,0-1-.14,4,4,0,0,0-1,.12l-.7.2v1.37h-1.8Zm1.62,6.1a1.19,1.19,0,0,0,.38.89,1.54,1.54,0,0,0,1.11.37,2.57,2.57,0,0,0,1-.2,2.24,2.24,0,0,0,1.22-1.3,2.57,2.57,0,0,0,.15-.87v-.38c-.53,0-1,0-1.49,0a6.89,6.89,0,0,0-1.24.19,2.11,2.11,0,0,0-.86.44A1.09,1.09,0,0,0,444,299.94Z"/><path class="cls-9" d="M452.4,301.1h1.14l0-6.41h-1.42v-1.48h3.33c0,.35,0,.75,0,1.21a10.94,10.94,0,0,1-.1,1.38l0,0a4,4,0,0,1,1-2.07,2.36,2.36,0,0,1,1.75-.74,4.8,4.8,0,0,1,.67.05,4.56,4.56,0,0,1,.46.11l-.22,1.79a1.82,1.82,0,0,0-.4-.11,2.51,2.51,0,0,0-.51,0,2.27,2.27,0,0,0-1.16.29,2.39,2.39,0,0,0-.79.76,3.75,3.75,0,0,0-.46,1.08,5.09,5.09,0,0,0-.15,1.22l0,2.92h1.37v1.47H452.4Z"/><path class="cls-9" d="M460.29,293.84c.12-.06.28-.14.5-.23a6.26,6.26,0,0,1,.78-.28,9.65,9.65,0,0,1,1.07-.24A9.11,9.11,0,0,1,464,293a5.15,5.15,0,0,1,1.74.26,2.7,2.7,0,0,1,1.13.71,2.63,2.63,0,0,1,.6,1.12,5.82,5.82,0,0,1,.18,1.5c0,.75,0,1.51,0,2.26s0,1.5,0,2.26h1.26v1.47h-3q0-.45,0-1a9.67,9.67,0,0,1,.13-1h0a4,4,0,0,1-.38.78,2.58,2.58,0,0,1-.59.69,2.77,2.77,0,0,1-.88.5,3.89,3.89,0,0,1-1.26.19,3.38,3.38,0,0,1-1.41-.26,2.63,2.63,0,0,1-.92-.63A2.41,2.41,0,0,1,460,301a3,3,0,0,1-.15-.92,2.39,2.39,0,0,1,.42-1.48,2.74,2.74,0,0,1,1-.86,4.48,4.48,0,0,1,1.32-.39c.46-.07.89-.11,1.27-.14l1.93-.1v-.71a3.29,3.29,0,0,0-.09-.79,1.47,1.47,0,0,0-.32-.62,1.65,1.65,0,0,0-.64-.41,3.26,3.26,0,0,0-1-.14,4,4,0,0,0-1,.12l-.7.2v1.37h-1.8Zm1.62,6.1a1.19,1.19,0,0,0,.38.89,1.54,1.54,0,0,0,1.11.37,2.54,2.54,0,0,0,1-.2,2.24,2.24,0,0,0,1.22-1.3,2.57,2.57,0,0,0,.15-.87v-.38c-.53,0-1,0-1.49,0a6.89,6.89,0,0,0-1.24.19,2.11,2.11,0,0,0-.86.44A1.09,1.09,0,0,0,461.91,299.94Z"/><path class="cls-9" d="M469.63,293.21h1.42l0-2.1,2-.15-.07,2.25h2.68v1.48h-2.68q0,1.13,0,2.22c0,.73,0,1.44,0,2.15a6,6,0,0,0,.08,1.06,1.55,1.55,0,0,0,.23.66.84.84,0,0,0,.4.33,1.82,1.82,0,0,0,.61.09,3.29,3.29,0,0,0,.82-.1,5.78,5.78,0,0,0,.74-.26l-.07,1.48a4.16,4.16,0,0,1-.93.33,4.68,4.68,0,0,1-1.14.14,4.24,4.24,0,0,1-1.26-.16,1.84,1.84,0,0,1-.85-.49,2,2,0,0,1-.49-.89,5.16,5.16,0,0,1-.15-1.34c0-.3,0-.67,0-1.1s0-.89,0-1.36,0-.95,0-1.43,0-.92,0-1.33h-1.42Z"/><path class="cls-9" d="M476.45,301.1h1.23l0-6.41h-1.42v-1.48h3.44l0,7.89H481v1.47h-4.5Zm.88-11.2a1.38,1.38,0,1,1,.41,1A1.34,1.34,0,0,1,477.33,289.9Z"/><path class="cls-9" d="M482,298.09a5.76,5.76,0,0,1,.36-2.09,4.69,4.69,0,0,1,1-1.6,4.5,4.5,0,0,1,1.55-1,5.29,5.29,0,0,1,2-.37,4.78,4.78,0,0,1,2.18.46,3.77,3.77,0,0,1,1.41,1.16,4.7,4.7,0,0,1,.77,1.59,7.07,7.07,0,0,1,.23,1.75,5.53,5.53,0,0,1-.31,1.88,4.24,4.24,0,0,1-.91,1.53,4.06,4.06,0,0,1-1.5,1.05,5.43,5.43,0,0,1-2.1.38,5.16,5.16,0,0,1-2.15-.4,4.09,4.09,0,0,1-1.44-1.06,4.48,4.48,0,0,1-.82-1.5A6,6,0,0,1,482,298.09Zm2.13-.07a4.35,4.35,0,0,0,.15,1.14,3,3,0,0,0,.47,1,2.32,2.32,0,0,0,.8.69,2.35,2.35,0,0,0,1.17.27,2.49,2.49,0,0,0,1.19-.28,2.4,2.4,0,0,0,.83-.72,3.35,3.35,0,0,0,.47-1.07,5.45,5.45,0,0,0,.16-1.3,4.26,4.26,0,0,0-.2-1.37,2.66,2.66,0,0,0-.53-.94,2.09,2.09,0,0,0-.8-.55,2.63,2.63,0,0,0-1-.18,2.47,2.47,0,0,0-2.12,1,3.14,3.14,0,0,0-.47,1.07A5.57,5.57,0,0,0,484.14,298Z"/><path class="cls-9" d="M493,301.1H494l0-6.41h-1.32v-1.48h3.33c0,.31,0,.64,0,1s-.08.71-.14,1.1h0a3.23,3.23,0,0,1,.41-.86,2.94,2.94,0,0,1,.68-.73,3.31,3.31,0,0,1,1-.51,4,4,0,0,1,1.25-.19,3,3,0,0,1,2.46,1,4,4,0,0,1,.8,2.65c0,.76,0,1.51,0,2.24s0,1.49,0,2.25h1.22v1.47h-4.3V301.1h1.06c0-.69,0-1.38.05-2.07s0-1.37,0-2.06a2.76,2.76,0,0,0-.46-1.64,1.62,1.62,0,0,0-1.43-.64,2.23,2.23,0,0,0-1.73.76,3.07,3.07,0,0,0-.73,2.08L496,301.1h1.26v1.47H493Z"/><path class="cls-9" d="M510.22,301.1h1.13l0-6.41H510v-1.48h1.42l0-1.28a3.67,3.67,0,0,1,.33-1.56,3,3,0,0,1,.84-1.06,3.23,3.23,0,0,1,1.23-.61,6.18,6.18,0,0,1,1.54-.19,6.73,6.73,0,0,1,1.06.08l.76.14-.08,1.58a2.31,2.31,0,0,0-.56-.15,6.22,6.22,0,0,0-.95-.06,2.61,2.61,0,0,0-1,.16,1.86,1.86,0,0,0-.67.44,1.66,1.66,0,0,0-.37.66,2.91,2.91,0,0,0-.14.79l0,1.06h2.2v1.48h-2.2l0,6.41h1.44v1.47h-4.59Z"/><path class="cls-9" d="M516.36,298.09a5.76,5.76,0,0,1,.36-2.09,4.55,4.55,0,0,1,1-1.6,4.46,4.46,0,0,1,1.54-1,5.29,5.29,0,0,1,2-.37,4.75,4.75,0,0,1,2.18.46,3.77,3.77,0,0,1,1.41,1.16,4.52,4.52,0,0,1,.77,1.59,6.63,6.63,0,0,1,.23,1.75,5.79,5.79,0,0,1-.3,1.88,4.54,4.54,0,0,1-.91,1.53,4.06,4.06,0,0,1-1.5,1.05,5.52,5.52,0,0,1-2.11.38,5.11,5.11,0,0,1-2.14-.4,3.92,3.92,0,0,1-1.44-1.06,4.15,4.15,0,0,1-.82-1.5A5.64,5.64,0,0,1,516.36,298.09Zm2.12-.07a4.35,4.35,0,0,0,.15,1.14,3.18,3.18,0,0,0,.47,1,2.32,2.32,0,0,0,.8.69,2.41,2.41,0,0,0,1.17.27,2.46,2.46,0,0,0,1.19-.28,2.31,2.31,0,0,0,.83-.72,3.37,3.37,0,0,0,.48-1.07,5.45,5.45,0,0,0,.15-1.3,4.26,4.26,0,0,0-.2-1.37,2.66,2.66,0,0,0-.53-.94,2.06,2.06,0,0,0-.79-.55,2.7,2.7,0,0,0-1-.18,2.53,2.53,0,0,0-1.28.29,2.47,2.47,0,0,0-.85.75,3.13,3.13,0,0,0-.46,1.07A5,5,0,0,0,518.48,298Z"/><path class="cls-9" d="M527.23,301.1h1.13l0-6.41H527v-1.48h3.33c0,.35,0,.75,0,1.21a13.19,13.19,0,0,1-.1,1.38l0,0a4,4,0,0,1,1-2.07A2.34,2.34,0,0,1,533,293a4.83,4.83,0,0,1,.68.05,3.67,3.67,0,0,1,.45.11l-.21,1.79a1.91,1.91,0,0,0-.41-.11,2.39,2.39,0,0,0-.51,0,2.23,2.23,0,0,0-1.15.29,2.3,2.3,0,0,0-.79.76,3.49,3.49,0,0,0-.46,1.08,5.11,5.11,0,0,0-.16,1.22l0,2.92h1.37v1.47h-4.52Z"/><path class="cls-9" d="M420.19,326.14a11.52,11.52,0,0,1-1.36.42,7.68,7.68,0,0,1-1.93.23,5.81,5.81,0,0,1-2.08-.35,4.58,4.58,0,0,1-1.55-1,4.09,4.09,0,0,1-1-1.53,5.73,5.73,0,0,1-.33-2,6.43,6.43,0,0,1,.28-1.95,4.42,4.42,0,0,1,.88-1.56,4,4,0,0,1,1.44-1.05,4.91,4.91,0,0,1,2-.38,4.44,4.44,0,0,1,1.84.37,3.48,3.48,0,0,1,1.32,1,4.56,4.56,0,0,1,.8,1.57,6.94,6.94,0,0,1,.27,2v.26h-6.7a3.08,3.08,0,0,0,.24,1.24,2.88,2.88,0,0,0,.67.94,2.79,2.79,0,0,0,1,.61,4,4,0,0,0,1.28.2,6.52,6.52,0,0,0,1.64-.2,7.1,7.1,0,0,0,1.37-.52Zm-1.53-5.29v-.18a2.48,2.48,0,0,0-.47-1.39,2,2,0,0,0-.67-.58,2.26,2.26,0,0,0-1.07-.23,2.34,2.34,0,0,0-1.08.22,2,2,0,0,0-.71.55,2.13,2.13,0,0,0-.42.75,3.17,3.17,0,0,0-.15.86Z"/><path class="cls-9" d="M422.19,325.1h1.06l0-6.41H422v-1.48h3.33c0,.31,0,.64,0,1s-.08.71-.14,1.1h0a3,3,0,0,1,1.15-1.66,3.39,3.39,0,0,1,2.05-.63,3.63,3.63,0,0,1,1.21.18,2.54,2.54,0,0,1,.85.45,2.09,2.09,0,0,1,.55.68,2.4,2.4,0,0,1,.27.82h0a2.9,2.9,0,0,1,1.17-1.58,3.69,3.69,0,0,1,2-.55,3,3,0,0,1,2.42,1,4,4,0,0,1,.81,2.64c0,.76,0,1.51,0,2.24s0,1.49-.06,2.25h1.23v1.47h-4.3V325.1h1.06c0-.69,0-1.38.05-2.07s0-1.37,0-2.06a2.76,2.76,0,0,0-.46-1.64,1.63,1.63,0,0,0-1.43-.64,2,2,0,0,0-1.64.76,3.44,3.44,0,0,0-.65,2.08l0,3.57h1.19v1.47h-4.23V325.1h1l0-3.77a7.88,7.88,0,0,0-.07-1,2.51,2.51,0,0,0-.29-.85,1.56,1.56,0,0,0-.59-.58,2.1,2.1,0,0,0-1.79,0,2.46,2.46,0,0,0-.74.56,3,3,0,0,0-.52.9,3.44,3.44,0,0,0-.2,1.18l0,3.57h1.26v1.47h-4.34Z"/><path class="cls-9" d="M448.2,326.14a11.52,11.52,0,0,1-1.36.42,7.74,7.74,0,0,1-1.93.23,5.81,5.81,0,0,1-2.08-.35,4.48,4.48,0,0,1-1.55-1,4,4,0,0,1-1-1.53,5.51,5.51,0,0,1-.34-2,6.43,6.43,0,0,1,.29-1.95,4.26,4.26,0,0,1,.87-1.56,4,4,0,0,1,1.44-1.05,4.94,4.94,0,0,1,2-.38,4.49,4.49,0,0,1,1.85.37,3.64,3.64,0,0,1,1.32,1,4.55,4.55,0,0,1,.79,1.57,6.94,6.94,0,0,1,.27,2v.26H442.1a3.08,3.08,0,0,0,.24,1.24,2.74,2.74,0,0,0,.67.94,2.71,2.71,0,0,0,1,.61,4,4,0,0,0,1.28.2,6.52,6.52,0,0,0,1.64-.2,7.36,7.36,0,0,0,1.37-.52Zm-1.53-5.29v-.18a2.58,2.58,0,0,0-.11-.67,2.21,2.21,0,0,0-.36-.72,2.12,2.12,0,0,0-.67-.58,2.68,2.68,0,0,0-2.15,0,2.09,2.09,0,0,0-.72.55,2.28,2.28,0,0,0-.41.75,3.17,3.17,0,0,0-.15.86Z"/><path class="cls-9" d="M450.13,325.1h1.13l0-6.41h-1.43v-1.48h3.33c0,.35,0,.75,0,1.21a10.89,10.89,0,0,1-.09,1.38l0,0a4,4,0,0,1,1-2.07,2.36,2.36,0,0,1,1.75-.74,4.68,4.68,0,0,1,.67.05,4,4,0,0,1,.46.11l-.21,1.79a2.08,2.08,0,0,0-.41-.11,2.51,2.51,0,0,0-.51,0,2.21,2.21,0,0,0-1.15.29,2.42,2.42,0,0,0-.8.76,4,4,0,0,0-.46,1.08,5.09,5.09,0,0,0-.15,1.22l0,2.92h1.36v1.47h-4.51Z"/><path class="cls-9" d="M467,318.69l-1.8-.11a4.3,4.3,0,0,1,.5.73,2.65,2.65,0,0,1,.27,1.3,3.06,3.06,0,0,1-.3,1.37,3.3,3.3,0,0,1-.84,1,4.25,4.25,0,0,1-2.66.91h-.75a1.26,1.26,0,0,0-.7.22.59.59,0,0,0-.33.49c0,.21.12.35.37.43a10,10,0,0,0,1.22.23l2.44.34a6.79,6.79,0,0,1,.94.21,2.36,2.36,0,0,1,.79.4,1.8,1.8,0,0,1,.54.65,2.27,2.27,0,0,1,.2,1,2.87,2.87,0,0,1-.42,1.6,3.28,3.28,0,0,1-1.13,1.06,5,5,0,0,1-1.58.57,9,9,0,0,1-1.8.18,8.07,8.07,0,0,1-1.76-.18,4.77,4.77,0,0,1-1.38-.49,2.86,2.86,0,0,1-.92-.78,1.76,1.76,0,0,1-.33-1,2,2,0,0,1,.18-.85,2.13,2.13,0,0,1,.47-.67,2.43,2.43,0,0,1,.7-.46,2.64,2.64,0,0,1,.82-.23v0a2.24,2.24,0,0,1-.94-.43,1.13,1.13,0,0,1-.42-.95,1.1,1.1,0,0,1,.17-.63,1.4,1.4,0,0,1,.42-.45,2.19,2.19,0,0,1,.57-.29,2.83,2.83,0,0,1,.62-.16v0a3.89,3.89,0,0,1-.81-.32,2.71,2.71,0,0,1-.77-.56,3,3,0,0,1-.57-.89,3.34,3.34,0,0,1-.23-1.29,3.48,3.48,0,0,1,.28-1.41,3.3,3.3,0,0,1,.81-1.14,3.7,3.7,0,0,1,1.31-.74A5.08,5.08,0,0,1,462,317a5.72,5.72,0,0,1,.92.08,6,6,0,0,1,.73.14h3.46Zm-6,8.15a4.08,4.08,0,0,0-1.09.67,1.16,1.16,0,0,0-.41.9,1.08,1.08,0,0,0,.21.68,1.48,1.48,0,0,0,.57.43,3.2,3.2,0,0,0,.84.24,8.74,8.74,0,0,0,1.07.07,6.74,6.74,0,0,0,1-.08,3.89,3.89,0,0,0,.91-.26,1.82,1.82,0,0,0,.66-.48,1.11,1.11,0,0,0,.25-.75.77.77,0,0,0-.41-.72,4.27,4.27,0,0,0-1.26-.34Zm-1.28-6.34a1.76,1.76,0,0,0,.62,1.5,2.88,2.88,0,0,0,1.76.47,2.29,2.29,0,0,0,1.64-.55,2,2,0,0,0,.57-1.49,1.79,1.79,0,0,0-.61-1.45,2.6,2.6,0,0,0-1.71-.51,2.37,2.37,0,0,0-1.67.56A1.91,1.91,0,0,0,459.72,320.5Z"/><path class="cls-9" d="M476.21,326.14a12.16,12.16,0,0,1-1.36.42,7.76,7.76,0,0,1-1.94.23,5.85,5.85,0,0,1-2.08-.35,4.54,4.54,0,0,1-1.54-1,4.11,4.11,0,0,1-1-1.53,5.73,5.73,0,0,1-.33-2,6.43,6.43,0,0,1,.29-1.95,4.26,4.26,0,0,1,.87-1.56,4,4,0,0,1,1.44-1.05,4.94,4.94,0,0,1,2-.38,4.49,4.49,0,0,1,1.85.37,3.64,3.64,0,0,1,1.32,1,4.55,4.55,0,0,1,.79,1.57,6.94,6.94,0,0,1,.27,2v.26h-6.69a3.08,3.08,0,0,0,.24,1.24A2.82,2.82,0,0,0,472,325a4.06,4.06,0,0,0,1.29.2A6.58,6.58,0,0,0,475,325a7.36,7.36,0,0,0,1.37-.52Zm-1.53-5.29v-.18a2.58,2.58,0,0,0-.11-.67,2.21,2.21,0,0,0-.36-.72,2.05,2.05,0,0,0-.68-.58,2.23,2.23,0,0,0-1.07-.23,2.34,2.34,0,0,0-1.08.22,2.15,2.15,0,0,0-.71.55,2.28,2.28,0,0,0-.41.75,3.17,3.17,0,0,0-.15.86Z"/><path class="cls-9" d="M478.21,325.1h1.06l0-6.41H478v-1.48h3.33c0,.31,0,.64-.05,1s-.07.71-.13,1.1h0a3.23,3.23,0,0,1,.41-.86,2.9,2.9,0,0,1,.67-.73,3.37,3.37,0,0,1,1-.51,4,4,0,0,1,1.25-.19,3,3,0,0,1,2.46,1,4,4,0,0,1,.8,2.65c0,.76,0,1.51,0,2.24s0,1.49,0,2.25h1.22v1.47h-4.3V325.1h1.06c0-.69,0-1.38,0-2.07s0-1.37,0-2.06a2.76,2.76,0,0,0-.46-1.64,1.62,1.62,0,0,0-1.43-.64,2.27,2.27,0,0,0-1.74.76,3.17,3.17,0,0,0-.73,2.08l-.07,3.57h1.26v1.47h-4.33Z"/><path class="cls-9" d="M496,318.74a3,3,0,0,0-.53-.12,4.68,4.68,0,0,0-.66,0,2.85,2.85,0,0,0-1.22.24,2.46,2.46,0,0,0-.88.68,3,3,0,0,0-.53,1,4.2,4.2,0,0,0-.18,1.25,4.4,4.4,0,0,0,.16,1.2,2.92,2.92,0,0,0,.54,1.07,2.85,2.85,0,0,0,1,.78,3.63,3.63,0,0,0,1.57.3,5.3,5.3,0,0,0,1.36-.18,4.44,4.44,0,0,0,1-.36l-.11,1.74a6.42,6.42,0,0,1-1,.31,6.27,6.27,0,0,1-1.57.18,5.74,5.74,0,0,1-2.37-.43,4.07,4.07,0,0,1-2.39-2.67,6.16,6.16,0,0,1,.06-3.73,4.45,4.45,0,0,1,1-1.56,4.4,4.4,0,0,1,1.59-1A6.05,6.05,0,0,1,495,317a6.47,6.47,0,0,1,1.71.18,6.59,6.59,0,0,1,.95.31v2.65H496Z"/><path class="cls-9" d="M499.05,325.1h1.22l0-6.41h-1.42v-1.48h3.43l0,7.89h1.26v1.47h-4.5Zm.88-11.2a1.34,1.34,0,0,1,.41-1,1.33,1.33,0,0,1,1-.41,1.39,1.39,0,1,1,0,2.77,1.32,1.32,0,0,1-1-.4A1.34,1.34,0,0,1,499.93,313.9Z"/><path class="cls-9" d="M512.89,326.14a11.52,11.52,0,0,1-1.36.42,7.68,7.68,0,0,1-1.93.23,5.81,5.81,0,0,1-2.08-.35,4.58,4.58,0,0,1-1.55-1,4,4,0,0,1-1-1.53,5.73,5.73,0,0,1-.33-2A6.43,6.43,0,0,1,505,320a4.42,4.42,0,0,1,.88-1.56,4,4,0,0,1,1.44-1.05,4.91,4.91,0,0,1,2-.38,4.44,4.44,0,0,1,1.84.37,3.64,3.64,0,0,1,1.32,1,4.75,4.75,0,0,1,.8,1.57,7,7,0,0,1,.26,2v.26h-6.69a3.08,3.08,0,0,0,.24,1.24,2.88,2.88,0,0,0,.67.94,2.79,2.79,0,0,0,1,.61,4,4,0,0,0,1.28.2,6.52,6.52,0,0,0,1.64-.2,7.1,7.1,0,0,0,1.37-.52Zm-1.53-5.29v-.18a2.58,2.58,0,0,0-.11-.67,2.21,2.21,0,0,0-.36-.72,2,2,0,0,0-.67-.58,2.26,2.26,0,0,0-1.07-.23,2.31,2.31,0,0,0-1.08.22,2,2,0,0,0-.71.55,2.13,2.13,0,0,0-.42.75,3.17,3.17,0,0,0-.15.86Z"/><path class="cls-9" d="M520.29,319.89l0-1.11a2,2,0,0,0-.56-.22,4.14,4.14,0,0,0-1-.09,5.09,5.09,0,0,0-.69,0,1.9,1.9,0,0,0-.6.17,1.09,1.09,0,0,0-.44.35,1,1,0,0,0-.16.57.78.78,0,0,0,.38.74,2.81,2.81,0,0,0,.81.3l2.29.45c.26.06.53.14.8.23a2.34,2.34,0,0,1,.73.43,2.15,2.15,0,0,1,.53.73,2.88,2.88,0,0,1,.2,1.18,3,3,0,0,1-.35,1.52,2.68,2.68,0,0,1-1,1,4.18,4.18,0,0,1-1.35.49,7.78,7.78,0,0,1-1.53.15,9.68,9.68,0,0,1-2.07-.2,11,11,0,0,1-1.33-.36l0-2.54h1.8l0,1.24.75.24a4.79,4.79,0,0,0,1.25.14,3.26,3.26,0,0,0,.7-.07,1.79,1.79,0,0,0,.6-.23,1.09,1.09,0,0,0,.59-1,.91.91,0,0,0-.39-.84,2.78,2.78,0,0,0-1-.35l-1.5-.27a10.65,10.65,0,0,1-1.08-.27,3.28,3.28,0,0,1-1-.46,2.48,2.48,0,0,1-.69-.75,2.12,2.12,0,0,1-.27-1.11,2.7,2.7,0,0,1,.33-1.39,2.83,2.83,0,0,1,.88-.91,3.88,3.88,0,0,1,1.27-.5,7.78,7.78,0,0,1,3.49.08c.57.16,1,.28,1.26.38l0,2.28Z"/><path class="cls-9" d="M224.08,151.27h1.28l.07-9.65h-1.35v-1.47h4.65v1.47h-1.28l-.07,9.65h1.35v1.48h-4.65Z"/><path class="cls-9" d="M230.44,151.27h1.06l0-6.41h-1.32v-1.47h3.33c0,.31,0,.63,0,1s-.08.7-.14,1.1h0a2.91,2.91,0,0,1,1.15-1.67,3.43,3.43,0,0,1,2.05-.62,3.92,3.92,0,0,1,1.21.17,2.66,2.66,0,0,1,.85.46,2.06,2.06,0,0,1,.55.67,3,3,0,0,1,.27.82h0a2.75,2.75,0,0,1,1.17-1.57,3.61,3.61,0,0,1,2-.55,2.94,2.94,0,0,1,2.42,1,4,4,0,0,1,.8,2.65c0,.75,0,1.5,0,2.24s0,1.48-.06,2.24h1.23v1.48H242.8v-1.48h1.07c0-.68,0-1.37,0-2.06s0-1.38,0-2.06a2.81,2.81,0,0,0-.46-1.64,1.64,1.64,0,0,0-1.43-.65,2,2,0,0,0-1.64.77,3.41,3.41,0,0,0-.65,2.08l0,3.56h1.18v1.48h-4.23v-1.48h1l0-3.76a6.59,6.59,0,0,0-.08-1,2,2,0,0,0-.29-.84,1.47,1.47,0,0,0-.58-.58,1.86,1.86,0,0,0-.93-.21,2,2,0,0,0-.86.2,2.23,2.23,0,0,0-.74.57,2.8,2.8,0,0,0-.52.9,3.36,3.36,0,0,0-.2,1.18l0,3.56h1.26v1.48h-4.34Z"/><path class="cls-9" d="M248,143.39h3.22a8.1,8.1,0,0,1,0,1c0,.33-.08.64-.13.91h0a3.5,3.5,0,0,1,1.13-1.54,3.21,3.21,0,0,1,2-.58,3.86,3.86,0,0,1,1.57.31,3.49,3.49,0,0,1,1.24.87,4.06,4.06,0,0,1,.82,1.39,5.53,5.53,0,0,1,.3,1.88,6.36,6.36,0,0,1-.34,2.14,4.67,4.67,0,0,1-1,1.69,4.5,4.5,0,0,1-1.58,1.12,5.55,5.55,0,0,1-2.14.39,6.07,6.07,0,0,1-1-.07,4.83,4.83,0,0,1-.89-.23l0,3.13h1.49v1.47h-4.48v-1.47h1l.08-10.93H248Zm3.29,7.59a3.43,3.43,0,0,0,1.8.4,2.62,2.62,0,0,0,2.16-1,3.25,3.25,0,0,0,.55-1.1,4.44,4.44,0,0,0,.19-1.32,4.67,4.67,0,0,0-.14-1.21,3.09,3.09,0,0,0-.42-1,1.92,1.92,0,0,0-.72-.64,2,2,0,0,0-1-.24,2,2,0,0,0-1.84.94,4.72,4.72,0,0,0-.6,2.57Z"/><path class="cls-9" d="M259.71,151.27h1.13l0-6.41h-1.43v-1.47h3.33c0,.34,0,.75,0,1.2a9.38,9.38,0,0,1-.1,1.39l0,0a4.1,4.1,0,0,1,1-2.07,2.35,2.35,0,0,1,1.75-.73,3.58,3.58,0,0,1,.67,0,2.59,2.59,0,0,1,.46.11l-.21,1.78A3.11,3.11,0,0,0,266,145a3.68,3.68,0,0,0-.51,0,2.27,2.27,0,0,0-1.16.28,2.52,2.52,0,0,0-.79.77,4,4,0,0,0-.46,1.08,5,5,0,0,0-.15,1.21l0,2.92h1.36v1.48h-4.51Z"/><path class="cls-9" d="M267,148.26a5.75,5.75,0,0,1,.36-2.08,4.74,4.74,0,0,1,1-1.61,4.48,4.48,0,0,1,1.55-1,5.06,5.06,0,0,1,2-.37,4.71,4.71,0,0,1,2.17.45,4.09,4.09,0,0,1,1.42,1.16,4.77,4.77,0,0,1,.76,1.59,6.65,6.65,0,0,1,.24,1.75,5.75,5.75,0,0,1-.31,1.88,4.59,4.59,0,0,1-.91,1.54,4.16,4.16,0,0,1-1.5,1,6.06,6.06,0,0,1-4.25,0A3.94,3.94,0,0,1,268,151.5a4.22,4.22,0,0,1-.82-1.5A6,6,0,0,1,267,148.26Zm2.12-.07a3.88,3.88,0,0,0,.16,1.14,3,3,0,0,0,.46,1,2.31,2.31,0,0,0,2,1,2.46,2.46,0,0,0,1.19-.27,2.25,2.25,0,0,0,.83-.73,3.07,3.07,0,0,0,.48-1.07,5.45,5.45,0,0,0,.15-1.3,4.24,4.24,0,0,0-.2-1.36,2.71,2.71,0,0,0-.53-.95,2.09,2.09,0,0,0-.79-.55,2.87,2.87,0,0,0-2.26.11,2.28,2.28,0,0,0-.84.76,2.89,2.89,0,0,0-.47,1.07A5,5,0,0,0,269.08,148.19Z"/><path class="cls-9" d="M277.49,144.86h-.94v-1.47h4.18v1.47h-1l1.86,5.06q.09.29.15.57c0,.18.09.37.15.56h0c0-.19.09-.38.12-.57a5.12,5.12,0,0,1,.15-.56l1.82-5.06h-1.19v-1.47H287v1.47h-1l-3.19,7.89h-2.12Z"/><path class="cls-9" d="M295.49,152.31a9.69,9.69,0,0,1-1.36.43,7.75,7.75,0,0,1-1.93.22,5.81,5.81,0,0,1-2.08-.35,4.32,4.32,0,0,1-1.55-1,4,4,0,0,1-1-1.53,5.56,5.56,0,0,1-.34-2,6.41,6.41,0,0,1,.29-1.94,4.38,4.38,0,0,1,.87-1.57,4.1,4.1,0,0,1,1.44-1,4.94,4.94,0,0,1,2-.38,4.33,4.33,0,0,1,1.85.37,3.53,3.53,0,0,1,1.32,1,4.5,4.5,0,0,1,.79,1.56,7,7,0,0,1,.27,2v.27h-6.69a3,3,0,0,0,.24,1.23,2.78,2.78,0,0,0,.67.95,2.87,2.87,0,0,0,1,.6,3.79,3.79,0,0,0,1.29.21,6.08,6.08,0,0,0,1.64-.21,8.14,8.14,0,0,0,1.37-.51ZM294,147v-.18a2.52,2.52,0,0,0-.11-.66,2,2,0,0,0-.36-.72,2.12,2.12,0,0,0-.67-.58,2.17,2.17,0,0,0-1.07-.23,2.42,2.42,0,0,0-1.08.21,2.37,2.37,0,0,0-.72.55,2.33,2.33,0,0,0-.41.76,3.1,3.1,0,0,0-.15.85Z"/><path class="cls-9" d="M307.32,152.75h-3.17c0-.34,0-.67.05-1s.08-.64.13-.91h0a3.45,3.45,0,0,1-1.13,1.54,3.21,3.21,0,0,1-2,.58,3.94,3.94,0,0,1-1.56-.3,3.7,3.7,0,0,1-1.23-.88,4,4,0,0,1-.82-1.39,5.47,5.47,0,0,1-.3-1.87,6.71,6.71,0,0,1,.33-2.14,5,5,0,0,1,1-1.7,4.39,4.39,0,0,1,1.59-1.11,5.27,5.27,0,0,1,2.12-.4,7.54,7.54,0,0,1,1,.06l.89.16,0-3h-1.71V138.9h3.66l-.08,12.37h1.27Zm-3.24-7.6a3.49,3.49,0,0,0-1.79-.4,2.62,2.62,0,0,0-2.15,1,3.62,3.62,0,0,0-.56,1.11,5.06,5.06,0,0,0,0,2.52,3,3,0,0,0,.42,1,1.94,1.94,0,0,0,1.7.87,2,2,0,0,0,1.82-.94,4.72,4.72,0,0,0,.6-2.57Z"/><path class="cls-9" d="M199,175.27h1.13l0-6.41h-1.42v-1.47h1.42l0-1.28a3.87,3.87,0,0,1,.34-1.57,3,3,0,0,1,.83-1.06,3.19,3.19,0,0,1,1.24-.6,5.75,5.75,0,0,1,1.54-.19,7.24,7.24,0,0,1,1.32.1l1.07.2v1.48a5.78,5.78,0,0,0-.93-.14,10.88,10.88,0,0,0-1.14-.06,2.2,2.2,0,0,0-1.71.57,2.25,2.25,0,0,0-.54,1.48l0,1.07h5.49l0,7.88h1.26v1.48h-4.5v-1.48h1.22l0-6.41h-3.48l0,6.41h1.26v1.48H199Z"/><path class="cls-9" d="M210.44,175.27h1.06l0-6.41h-1.32v-1.47h3.33c0,.31,0,.63,0,1s-.08.7-.14,1.1h0a3.44,3.44,0,0,1,.41-.87,3.13,3.13,0,0,1,.68-.73,3.43,3.43,0,0,1,.95-.5,3.77,3.77,0,0,1,1.25-.19,3,3,0,0,1,2.46,1,4.08,4.08,0,0,1,.8,2.66c0,.75,0,1.5,0,2.24s0,1.48,0,2.24h1.22v1.48h-4.3v-1.48h1.06c0-.68,0-1.37,0-2.06s0-1.38,0-2.06a2.81,2.81,0,0,0-.46-1.64,1.65,1.65,0,0,0-1.43-.65,2.25,2.25,0,0,0-1.74.77,3.1,3.1,0,0,0-.73,2.08l-.07,3.56h1.26v1.48h-4.34Z"/><path class="cls-9" d="M223,168l.51-.24a6.73,6.73,0,0,1,.78-.28,7.74,7.74,0,0,1,1.06-.23,8,8,0,0,1,1.36-.1,5.12,5.12,0,0,1,1.74.25,2.84,2.84,0,0,1,1.13.71,2.67,2.67,0,0,1,.6,1.13,5.69,5.69,0,0,1,.18,1.49c0,.76,0,1.51,0,2.26s0,1.5-.05,2.26h1.26v1.48h-3c0-.3,0-.63,0-1a7.5,7.5,0,0,1,.12-1h0a4.68,4.68,0,0,1-.38.78,2.83,2.83,0,0,1-.6.7,2.76,2.76,0,0,1-.88.49,3.63,3.63,0,0,1-1.26.19,3.46,3.46,0,0,1-1.41-.25,2.75,2.75,0,0,1-.92-.64,2.34,2.34,0,0,1-.5-.86,3.11,3.11,0,0,1-.15-.93,2.42,2.42,0,0,1,.41-1.48,2.82,2.82,0,0,1,1-.85,4.35,4.35,0,0,1,1.31-.4c.47-.06.89-.11,1.28-.13l1.92-.11v-.7a3.24,3.24,0,0,0-.09-.79,1.36,1.36,0,0,0-.32-.62,1.54,1.54,0,0,0-.64-.41,3,3,0,0,0-1-.14,4.55,4.55,0,0,0-1,.11,7.26,7.26,0,0,0-.7.21v1.37H223Zm1.62,6.1a1.18,1.18,0,0,0,.39.89,1.57,1.57,0,0,0,1.1.37,2.46,2.46,0,0,0,1.05-.21,2.33,2.33,0,0,0,.75-.54,2,2,0,0,0,.46-.76,2.35,2.35,0,0,0,.16-.87v-.38c-.53,0-1,0-1.5,0a6.11,6.11,0,0,0-1.24.19,1.86,1.86,0,0,0-.85.44A1.08,1.08,0,0,0,224.64,174.12Z"/><path class="cls-9" d="M233.12,175.27h1.06l0-6.41H232.9v-1.47h3.33c0,.31,0,.63,0,1s-.08.7-.14,1.1h0a3.44,3.44,0,0,1,.41-.87,3.13,3.13,0,0,1,.68-.73,3.43,3.43,0,0,1,.95-.5,3.77,3.77,0,0,1,1.25-.19,3,3,0,0,1,2.46,1,4.08,4.08,0,0,1,.8,2.66c0,.75,0,1.5,0,2.24s0,1.48,0,2.24h1.22v1.48h-4.3v-1.48h1.06c0-.68,0-1.37,0-2.06s0-1.38,0-2.06a2.81,2.81,0,0,0-.46-1.64,1.65,1.65,0,0,0-1.43-.65,2.25,2.25,0,0,0-1.74.77,3.1,3.1,0,0,0-.73,2.08l-.07,3.56h1.26v1.48h-4.34Z"/><path class="cls-9" d="M250.92,168.92a2.8,2.8,0,0,0-.53-.12,4.65,4.65,0,0,0-.66-.05,2.74,2.74,0,0,0-1.22.25,2.31,2.31,0,0,0-.87.67,3,3,0,0,0-.54,1,4.13,4.13,0,0,0-.18,1.24,4.53,4.53,0,0,0,.17,1.21,2.93,2.93,0,0,0,.54,1.07,2.6,2.6,0,0,0,1,.77,3.66,3.66,0,0,0,1.57.3,5.69,5.69,0,0,0,1.36-.17,4.39,4.39,0,0,0,1-.37l-.1,1.75a8.92,8.92,0,0,1-1,.3,6.36,6.36,0,0,1-1.58.18,6,6,0,0,1-2.37-.42,4.18,4.18,0,0,1-1.54-1.12,4.28,4.28,0,0,1-.85-1.55,6.18,6.18,0,0,1-.26-1.75,6,6,0,0,1,.32-2,4.46,4.46,0,0,1,1-1.57,4.25,4.25,0,0,1,1.58-1,5.84,5.84,0,0,1,2.17-.37,7.14,7.14,0,0,1,1.72.17,5.23,5.23,0,0,1,.94.32v2.64h-1.69Z"/><path class="cls-9" d="M254,175.27h1.23l0-6.41H253.8v-1.47h3.44l0,7.88h1.26v1.48H254Zm.88-11.2a1.39,1.39,0,0,1,2.78,0,1.33,1.33,0,0,1-.41,1,1.38,1.38,0,0,1-2,0A1.33,1.33,0,0,1,254.84,164.07Z"/><path class="cls-9" d="M260.37,168l.51-.24a6.73,6.73,0,0,1,.78-.28,7.74,7.74,0,0,1,1.06-.23,8,8,0,0,1,1.36-.1,5.12,5.12,0,0,1,1.74.25,2.84,2.84,0,0,1,1.13.71,2.67,2.67,0,0,1,.6,1.13,5.69,5.69,0,0,1,.18,1.49c0,.76,0,1.51,0,2.26s0,1.5,0,2.26h1.26v1.48h-3c0-.3,0-.63,0-1a7.5,7.5,0,0,1,.12-1h0a4.68,4.68,0,0,1-.38.78,3.05,3.05,0,0,1-.6.7,2.76,2.76,0,0,1-.88.49A3.63,3.63,0,0,1,263,177a3.46,3.46,0,0,1-1.41-.25,2.75,2.75,0,0,1-.92-.64,2.34,2.34,0,0,1-.5-.86,3.13,3.13,0,0,1-.16-.93,2.43,2.43,0,0,1,.42-1.48,2.82,2.82,0,0,1,1-.85,4.35,4.35,0,0,1,1.31-.4c.47-.06.89-.11,1.28-.13l1.92-.11v-.7a3.24,3.24,0,0,0-.09-.79,1.47,1.47,0,0,0-.32-.62,1.54,1.54,0,0,0-.64-.41,3,3,0,0,0-1-.14,4.48,4.48,0,0,0-1,.11,7.26,7.26,0,0,0-.7.21v1.37h-1.8Zm1.62,6.1a1.18,1.18,0,0,0,.39.89,1.55,1.55,0,0,0,1.1.37,2.46,2.46,0,0,0,1-.21,2.33,2.33,0,0,0,.75-.54,2,2,0,0,0,.46-.76,2.35,2.35,0,0,0,.16-.87v-.38c-.53,0-1,0-1.5,0a6.11,6.11,0,0,0-1.24.19,1.86,1.86,0,0,0-.85.44A1.08,1.08,0,0,0,262,174.12Z"/><path class="cls-9" d="M270.4,175.27h1.13l.07-10.89H270V162.9h3.66l-.07,12.37h1.26v1.48H270.4Z"/><path class="cls-9" d="M286.87,170.07l0-1.12a2.29,2.29,0,0,0-.57-.21,4,4,0,0,0-1-.09,5.12,5.12,0,0,0-.69,0,2.28,2.28,0,0,0-.61.17,1.15,1.15,0,0,0-.43.35.94.94,0,0,0-.16.57.79.79,0,0,0,.38.75,3.12,3.12,0,0,0,.81.29l2.28.45a6.21,6.21,0,0,1,.81.24,2,2,0,0,1,.72.42,2.09,2.09,0,0,1,.54.74,3,3,0,0,1,.2,1.18,2.92,2.92,0,0,1-.36,1.52,2.7,2.7,0,0,1-1,.95,4.19,4.19,0,0,1-1.35.5A8.8,8.8,0,0,1,285,177a9.08,9.08,0,0,1-2.07-.2,11,11,0,0,1-1.33-.36l0-2.53h1.8l0,1.24.75.23a4.33,4.33,0,0,0,1.24.15,3.36,3.36,0,0,0,.71-.08,1.86,1.86,0,0,0,.6-.22,1.27,1.27,0,0,0,.42-.41,1.07,1.07,0,0,0,.16-.61.92.92,0,0,0-.38-.84,3,3,0,0,0-1-.35l-1.49-.27a10.65,10.65,0,0,1-1.08-.27,3.27,3.27,0,0,1-1-.45,2.51,2.51,0,0,1-.7-.75,2.14,2.14,0,0,1-.27-1.12,2.58,2.58,0,0,1,1.22-2.29,3.68,3.68,0,0,1,1.27-.51,7.31,7.31,0,0,1,1.49-.15,7.8,7.8,0,0,1,2,.23l1.26.38,0,2.29Z"/><path class="cls-9" d="M290.48,167.39h1.43l0-2.11,2-.14-.08,2.25h2.69v1.47H293.9c0,.76,0,1.5,0,2.22s0,1.45,0,2.16a6.24,6.24,0,0,0,.07,1.06,1.89,1.89,0,0,0,.23.65.83.83,0,0,0,.41.34,1.72,1.72,0,0,0,.6.09,3.24,3.24,0,0,0,.82-.11,6.59,6.59,0,0,0,.75-.25l-.07,1.47a3.86,3.86,0,0,1-.93.34,4.8,4.8,0,0,1-1.14.13,4.53,4.53,0,0,1-1.26-.15,1.89,1.89,0,0,1-.86-.5,2.06,2.06,0,0,1-.49-.89,5.11,5.11,0,0,1-.15-1.34c0-.3,0-.66,0-1.1s0-.88,0-1.36,0-1,0-1.43,0-.92,0-1.33h-1.43Z"/><path class="cls-9" d="M297.4,175.27h1.13l0-6.41h-1.43v-1.47h3.33v1.2a13.18,13.18,0,0,1-.1,1.39l0,0a4.1,4.1,0,0,1,1-2.07,2.35,2.35,0,0,1,1.75-.73,3.58,3.58,0,0,1,.67,0,2.59,2.59,0,0,1,.46.11l-.21,1.78a3.11,3.11,0,0,0-.41-.11,3.68,3.68,0,0,0-.51,0,2.2,2.2,0,0,0-1.15.28,2.45,2.45,0,0,0-.8.77,3.73,3.73,0,0,0-.45,1.08,4.57,4.57,0,0,0-.16,1.21l0,2.92h1.36v1.48H297.4Z"/><path class="cls-9" d="M313.15,176.31a10.15,10.15,0,0,1-1.36.43,7.78,7.78,0,0,1-1.94.22,5.85,5.85,0,0,1-2.08-.35,4.37,4.37,0,0,1-1.54-1,4.19,4.19,0,0,1-1-1.53,5.79,5.79,0,0,1-.33-2,6.41,6.41,0,0,1,.29-1.94,4.38,4.38,0,0,1,.87-1.57,4.1,4.1,0,0,1,1.44-1,4.91,4.91,0,0,1,2-.38,4.33,4.33,0,0,1,1.85.37,3.53,3.53,0,0,1,1.32,1,4.5,4.5,0,0,1,.79,1.56,7,7,0,0,1,.27,2v.27H307a3,3,0,0,0,.25,1.23,2.9,2.9,0,0,0,.66.95,3,3,0,0,0,1,.6,3.79,3.79,0,0,0,1.29.21,6.14,6.14,0,0,0,1.64-.21,7.71,7.71,0,0,0,1.36-.51ZM311.62,171v-.18a2.52,2.52,0,0,0-.11-.66,2,2,0,0,0-.36-.72,2,2,0,0,0-1.75-.81,2.48,2.48,0,0,0-1.08.21,2.33,2.33,0,0,0-.71.55,2.16,2.16,0,0,0-.41.76,3.54,3.54,0,0,0-.16.85Z"/><path class="cls-9" d="M320.54,170.07l0-1.12a2.64,2.64,0,0,0-.57-.21,4,4,0,0,0-1-.09,5.12,5.12,0,0,0-.69,0,2.18,2.18,0,0,0-.61.17,1.15,1.15,0,0,0-.43.35.94.94,0,0,0-.16.57.77.77,0,0,0,.38.75,3.12,3.12,0,0,0,.81.29l2.28.45a6.08,6.08,0,0,1,.8.24,2,2,0,0,1,.73.42,2,2,0,0,1,.53.74,2.83,2.83,0,0,1,.21,1.18,2.92,2.92,0,0,1-.36,1.52,2.7,2.7,0,0,1-1,.95,4.19,4.19,0,0,1-1.35.5,8.8,8.8,0,0,1-1.53.14,9,9,0,0,1-2.07-.2,11.21,11.21,0,0,1-1.34-.36l0-2.53H317l0,1.24.76.23a4.28,4.28,0,0,0,1.24.15,3.19,3.19,0,0,0,.7-.08,1.92,1.92,0,0,0,.61-.22,1.27,1.27,0,0,0,.42-.41,1.07,1.07,0,0,0,.16-.61.94.94,0,0,0-.38-.84,3,3,0,0,0-1-.35l-1.49-.27a10.65,10.65,0,0,1-1.08-.27,3.27,3.27,0,0,1-1-.45,2.39,2.39,0,0,1-.7-.75,2.14,2.14,0,0,1-.27-1.12,2.58,2.58,0,0,1,1.22-2.29,3.6,3.6,0,0,1,1.27-.51,7.24,7.24,0,0,1,1.49-.15,7.86,7.86,0,0,1,2,.23l1.26.38,0,2.29Z"/><path class="cls-9" d="M329.89,170.07l0-1.12a2.29,2.29,0,0,0-.57-.21,4,4,0,0,0-1-.09,5.12,5.12,0,0,0-.69,0,2.28,2.28,0,0,0-.61.17,1.15,1.15,0,0,0-.43.35.94.94,0,0,0-.16.57.79.79,0,0,0,.38.75,3.12,3.12,0,0,0,.81.29l2.28.45a6.21,6.21,0,0,1,.81.24,2.1,2.1,0,0,1,.72.42,2,2,0,0,1,.53.74,2.83,2.83,0,0,1,.21,1.18,2.92,2.92,0,0,1-.36,1.52,2.7,2.7,0,0,1-.95.95,4.19,4.19,0,0,1-1.35.5A8.8,8.8,0,0,1,328,177a9.08,9.08,0,0,1-2.07-.2,11,11,0,0,1-1.33-.36l0-2.53h1.8l0,1.24.75.23a4.33,4.33,0,0,0,1.24.15,3.36,3.36,0,0,0,.71-.08,2,2,0,0,0,.6-.22,1.27,1.27,0,0,0,.42-.41,1.07,1.07,0,0,0,.16-.61.94.94,0,0,0-.38-.84,3,3,0,0,0-1-.35l-1.49-.27a10.65,10.65,0,0,1-1.08-.27,3.27,3.27,0,0,1-1-.45,2.39,2.39,0,0,1-.7-.75,2.14,2.14,0,0,1-.27-1.12,2.58,2.58,0,0,1,1.22-2.29,3.68,3.68,0,0,1,1.27-.51,7.31,7.31,0,0,1,1.49-.15,7.8,7.8,0,0,1,2,.23l1.26.38,0,2.29Z"/><path class="cls-9" d="M187.07,199.27h1.13l.07-10.89h-1.64V186.9h3.66l-.07,12.37h1.26v1.48h-4.41Z"/><path class="cls-9" d="M200.82,200.31a10.15,10.15,0,0,1-1.36.43,7.78,7.78,0,0,1-1.94.22,5.76,5.76,0,0,1-2.07-.35,4.32,4.32,0,0,1-1.55-1,4,4,0,0,1-1-1.53,5.56,5.56,0,0,1-.34-2,6.41,6.41,0,0,1,.29-1.94,4.38,4.38,0,0,1,.87-1.57,4.1,4.1,0,0,1,1.44-1,4.94,4.94,0,0,1,2-.38,4.33,4.33,0,0,1,1.85.37,3.53,3.53,0,0,1,1.32,1,4.5,4.5,0,0,1,.79,1.56,7,7,0,0,1,.27,2v.27h-6.69a3,3,0,0,0,.24,1.23,2.78,2.78,0,0,0,.67.95,2.87,2.87,0,0,0,1,.6,3.79,3.79,0,0,0,1.29.21,6.14,6.14,0,0,0,1.64-.21,8.14,8.14,0,0,0,1.37-.51ZM199.29,195v-.18a2.52,2.52,0,0,0-.11-.66,2,2,0,0,0-.36-.72,2.12,2.12,0,0,0-.67-.58,2.19,2.19,0,0,0-1.08-.23,2.16,2.16,0,0,0-1.79.76,2.33,2.33,0,0,0-.41.76,3.1,3.1,0,0,0-.15.85Z"/><path class="cls-9" d="M202.4,192.86h-.93v-1.47h4.17v1.47h-1l1.86,5.06q.09.29.15.57c0,.18.09.37.15.56h0c0-.19.09-.38.13-.57a3.53,3.53,0,0,1,.14-.56l1.82-5.06h-1.19v-1.47h4.18v1.47h-1l-3.18,7.89h-2.13Z"/><path class="cls-9" d="M220.4,200.31a9.27,9.27,0,0,1-1.36.43,7.7,7.7,0,0,1-1.93.22,5.81,5.81,0,0,1-2.08-.35,4.41,4.41,0,0,1-1.55-1,4.17,4.17,0,0,1-1-1.53,5.79,5.79,0,0,1-.33-2,6.41,6.41,0,0,1,.28-1.94,4.56,4.56,0,0,1,.88-1.57,4.1,4.1,0,0,1,1.44-1,4.91,4.91,0,0,1,2-.38,4.29,4.29,0,0,1,1.84.37,3.38,3.38,0,0,1,1.32,1,4.52,4.52,0,0,1,.8,1.56,7,7,0,0,1,.27,2v.27h-6.7a3,3,0,0,0,.24,1.23,3.08,3.08,0,0,0,.67.95,2.92,2.92,0,0,0,1,.6,3.78,3.78,0,0,0,1.28.21,6.08,6.08,0,0,0,1.64-.21,7.82,7.82,0,0,0,1.37-.51ZM218.87,195v-.18a2.16,2.16,0,0,0-.11-.66,2.16,2.16,0,0,0-1-1.3,2.15,2.15,0,0,0-1.07-.23,2.48,2.48,0,0,0-1.08.21,2.21,2.21,0,0,0-.71.55,2.18,2.18,0,0,0-.42.76,3.1,3.1,0,0,0-.15.85Z"/><path class="cls-9" d="M222.33,199.27h1.13l.07-10.89H221.9V186.9h3.65l-.07,12.37h1.26v1.48h-4.41Z"/><path class="cls-9" d="M234,192l.51-.24a7.49,7.49,0,0,1,.78-.28,8.73,8.73,0,0,1,2.42-.33,5.19,5.19,0,0,1,1.75.25,2.8,2.8,0,0,1,1.12.71,2.69,2.69,0,0,1,.61,1.13,5.69,5.69,0,0,1,.18,1.49c0,.76,0,1.51,0,2.26s0,1.5-.05,2.26h1.26v1.48h-3c0-.3,0-.63,0-1a7.48,7.48,0,0,1,.13-1h0a4,4,0,0,1-.38.78,2.78,2.78,0,0,1-.59.7,2.87,2.87,0,0,1-.88.49,3.63,3.63,0,0,1-1.26.19,3.47,3.47,0,0,1-1.42-.25,2.7,2.7,0,0,1-.91-.64,2.23,2.23,0,0,1-.51-.86,3.11,3.11,0,0,1-.15-.93,2.49,2.49,0,0,1,.41-1.48,2.82,2.82,0,0,1,1-.85,4.43,4.43,0,0,1,1.31-.4c.47-.06.9-.11,1.28-.13l1.93-.11v-.7a3.24,3.24,0,0,0-.09-.79,1.38,1.38,0,0,0-.33-.62,1.48,1.48,0,0,0-.64-.41,3,3,0,0,0-1-.14,4.48,4.48,0,0,0-1,.11,6.8,6.8,0,0,0-.71.21v1.37H234Zm1.62,6.1a1.18,1.18,0,0,0,.39.89,1.58,1.58,0,0,0,1.11.37,2.44,2.44,0,0,0,1-.21,2.49,2.49,0,0,0,.76-.54,2.18,2.18,0,0,0,.46-.76,2.57,2.57,0,0,0,.15-.87v-.38c-.53,0-1,0-1.49,0a6.21,6.21,0,0,0-1.25.19,1.86,1.86,0,0,0-.85.44A1.08,1.08,0,0,0,235.59,198.12Z"/><path class="cls-9" d="M244.07,199.27h1.06l0-6.41h-1.31v-1.47h3.33c0,.31,0,.63-.05,1s-.07.7-.13,1.1h0a3.87,3.87,0,0,1,.42-.87,3.08,3.08,0,0,1,.67-.73,3.43,3.43,0,0,1,1-.5,3.79,3.79,0,0,1,1.26-.19,3,3,0,0,1,2.45,1,4,4,0,0,1,.8,2.66c0,.75,0,1.5,0,2.24s0,1.48,0,2.24h1.23v1.48h-4.31v-1.48h1.07c0-.68,0-1.37,0-2.06s0-1.38,0-2.06a2.81,2.81,0,0,0-.46-1.64,1.64,1.64,0,0,0-1.43-.65,2.25,2.25,0,0,0-1.74.77,3.15,3.15,0,0,0-.73,2.08l-.07,3.56h1.26v1.48h-4.34Z"/><path class="cls-9" d="M265.91,200.75h-3.17c0-.34,0-.67.05-1s.08-.64.13-.91h0a3.45,3.45,0,0,1-1.13,1.54,3.21,3.21,0,0,1-2,.58,3.94,3.94,0,0,1-1.56-.3,3.7,3.7,0,0,1-1.23-.88,4,4,0,0,1-.82-1.39,5.47,5.47,0,0,1-.3-1.87,6.45,6.45,0,0,1,.34-2.14,4.71,4.71,0,0,1,1-1.7,4.35,4.35,0,0,1,1.58-1.11,5.27,5.27,0,0,1,2.12-.4,7.82,7.82,0,0,1,1,.06l.88.16,0-3h-1.71V186.9h3.66l-.07,12.37h1.26Zm-3.24-7.6a3.49,3.49,0,0,0-1.79-.4,2.62,2.62,0,0,0-2.15,1,3.62,3.62,0,0,0-.56,1.11,5.06,5.06,0,0,0,0,2.52,3.26,3.26,0,0,0,.42,1,1.94,1.94,0,0,0,1.7.87,2,2,0,0,0,1.82-.94,4.72,4.72,0,0,0,.6-2.57Z"/><path class="cls-9" d="M278.15,194.07l0-1.12a2.29,2.29,0,0,0-.57-.21,4,4,0,0,0-1-.09,5.12,5.12,0,0,0-.69,0,2.28,2.28,0,0,0-.61.17,1.15,1.15,0,0,0-.43.35.94.94,0,0,0-.16.57.79.79,0,0,0,.38.75,3.12,3.12,0,0,0,.81.29l2.28.45a5.65,5.65,0,0,1,.8.24,2,2,0,0,1,.73.42,2,2,0,0,1,.53.74,2.83,2.83,0,0,1,.21,1.18,2.92,2.92,0,0,1-.36,1.52,2.7,2.7,0,0,1-.95.95,4.19,4.19,0,0,1-1.35.5,8.8,8.8,0,0,1-1.53.14,9.08,9.08,0,0,1-2.07-.2,11,11,0,0,1-1.33-.36l0-2.53h1.8l0,1.24.75.23a4.33,4.33,0,0,0,1.24.15,3.36,3.36,0,0,0,.71-.08,2,2,0,0,0,.6-.22,1.27,1.27,0,0,0,.42-.41,1.07,1.07,0,0,0,.16-.61.94.94,0,0,0-.38-.84,3,3,0,0,0-1-.35l-1.49-.27a10.65,10.65,0,0,1-1.08-.27,3.27,3.27,0,0,1-1-.45,2.39,2.39,0,0,1-.7-.75,2.14,2.14,0,0,1-.27-1.12,2.58,2.58,0,0,1,1.22-2.29,3.6,3.6,0,0,1,1.27-.51,7.31,7.31,0,0,1,1.49-.15,7.8,7.8,0,0,1,2,.23l1.26.38,0,2.29Z"/><path class="cls-9" d="M290.1,200.31a10.15,10.15,0,0,1-1.36.43,7.78,7.78,0,0,1-1.94.22,5.85,5.85,0,0,1-2.08-.35,4.37,4.37,0,0,1-1.54-1,4,4,0,0,1-1-1.53,5.56,5.56,0,0,1-.34-2,6.41,6.41,0,0,1,.29-1.94,4.38,4.38,0,0,1,.87-1.57,4.1,4.1,0,0,1,1.44-1,4.94,4.94,0,0,1,2-.38,4.33,4.33,0,0,1,1.85.37,3.53,3.53,0,0,1,1.32,1,4.5,4.5,0,0,1,.79,1.56,7,7,0,0,1,.27,2v.27H284a3,3,0,0,0,.24,1.23,2.9,2.9,0,0,0,.66.95,3,3,0,0,0,1,.6,3.79,3.79,0,0,0,1.29.21,6.14,6.14,0,0,0,1.64-.21,8.14,8.14,0,0,0,1.37-.51ZM288.57,195v-.18a2.52,2.52,0,0,0-.11-.66,2.13,2.13,0,0,0-1-1.3,2.12,2.12,0,0,0-1.07-.23,2.16,2.16,0,0,0-1.79.76,2.33,2.33,0,0,0-.41.76,3.1,3.1,0,0,0-.15.85Z"/><path class="cls-9" d="M292.1,199.27h1.06l0-6.41h-1.31v-1.47h3.33c0,.31,0,.63,0,1s-.07.7-.13,1.1h0a3.44,3.44,0,0,1,.41-.87,3.08,3.08,0,0,1,.67-.73,3.35,3.35,0,0,1,1-.5,3.69,3.69,0,0,1,1.25-.19,3,3,0,0,1,2.46,1,4.08,4.08,0,0,1,.8,2.66c0,.75,0,1.5,0,2.24s0,1.48,0,2.24h1.22v1.48h-4.3v-1.48h1.06c0-.68,0-1.37,0-2.06s0-1.38,0-2.06a2.74,2.74,0,0,0-.46-1.64,1.63,1.63,0,0,0-1.43-.65,2.28,2.28,0,0,0-1.74.77,3.1,3.1,0,0,0-.72,2.08l-.08,3.56h1.26v1.48H292.1Z"/><path class="cls-9" d="M309.5,194.07l0-1.12a2.36,2.36,0,0,0-.56-.21,4.11,4.11,0,0,0-1-.09,5.27,5.27,0,0,0-.7,0,2.21,2.21,0,0,0-.6.17,1.15,1.15,0,0,0-.43.35.94.94,0,0,0-.17.57.79.79,0,0,0,.38.75,3.41,3.41,0,0,0,.81.29l2.29.45a6.57,6.57,0,0,1,.8.24,2.14,2.14,0,0,1,.73.42,2.07,2.07,0,0,1,.53.74,2.83,2.83,0,0,1,.21,1.18,2.92,2.92,0,0,1-.36,1.52,2.65,2.65,0,0,1-1,.95,4,4,0,0,1-1.35.5,8.62,8.62,0,0,1-1.53.14,9.08,9.08,0,0,1-2.07-.2,11.5,11.5,0,0,1-1.33-.36l0-2.53H306l0,1.24.76.23a4.28,4.28,0,0,0,1.24.15,3.27,3.27,0,0,0,.7-.08,1.78,1.78,0,0,0,.6-.22,1.21,1.21,0,0,0,.43-.41,1.07,1.07,0,0,0,.16-.61.93.93,0,0,0-.39-.84,3,3,0,0,0-1-.35l-1.49-.27a10.65,10.65,0,0,1-1.08-.27,3.33,3.33,0,0,1-1-.45,2.48,2.48,0,0,1-.69-.75,2.14,2.14,0,0,1-.27-1.12,2.54,2.54,0,0,1,1.21-2.29,3.68,3.68,0,0,1,1.27-.51,7.34,7.34,0,0,1,1.5-.15,7.72,7.72,0,0,1,2,.23c.57.16,1,.29,1.27.38l0,2.29Z"/><path class="cls-9" d="M321.45,200.31a9.27,9.27,0,0,1-1.36.43,7.7,7.7,0,0,1-1.93.22,5.85,5.85,0,0,1-2.08-.35,4.41,4.41,0,0,1-1.55-1,4.17,4.17,0,0,1-1-1.53,5.79,5.79,0,0,1-.33-2,6.41,6.41,0,0,1,.28-1.94,4.56,4.56,0,0,1,.88-1.57,4.1,4.1,0,0,1,1.44-1,4.91,4.91,0,0,1,2-.38,4.29,4.29,0,0,1,1.84.37,3.49,3.49,0,0,1,1.33,1,4.68,4.68,0,0,1,.79,1.56,7,7,0,0,1,.27,2v.27h-6.7a3,3,0,0,0,.24,1.23,3.08,3.08,0,0,0,.67.95,2.92,2.92,0,0,0,1,.6,3.78,3.78,0,0,0,1.28.21,6.08,6.08,0,0,0,1.64-.21,7.82,7.82,0,0,0,1.37-.51ZM319.92,195v-.18a2.46,2.46,0,0,0-.1-.66,2.43,2.43,0,0,0-.36-.72,2,2,0,0,0-1.75-.81,2.48,2.48,0,0,0-1.08.21,2.21,2.21,0,0,0-.71.55,2.18,2.18,0,0,0-.42.76,3.1,3.1,0,0,0-.15.85Z"/><path class="cls-9" d="M328.51,196.26a5.75,5.75,0,0,1,.36-2.08,4.74,4.74,0,0,1,1-1.61,4.53,4.53,0,0,1,1.54-1,5.15,5.15,0,0,1,2-.37,4.71,4.71,0,0,1,2.17.45,4.09,4.09,0,0,1,1.42,1.16,4.77,4.77,0,0,1,.76,1.59,6.65,6.65,0,0,1,.24,1.75,5.75,5.75,0,0,1-.31,1.88,4.59,4.59,0,0,1-.91,1.54,4.16,4.16,0,0,1-1.5,1,6.06,6.06,0,0,1-4.25,0,3.94,3.94,0,0,1-1.44-1.07,4.22,4.22,0,0,1-.82-1.5A6,6,0,0,1,328.51,196.26Zm2.12-.07a3.88,3.88,0,0,0,.16,1.14,3,3,0,0,0,.46,1,2.31,2.31,0,0,0,2,1,2.46,2.46,0,0,0,1.19-.27,2.25,2.25,0,0,0,.83-.73,3.07,3.07,0,0,0,.48-1.07,5.45,5.45,0,0,0,.15-1.3,4.24,4.24,0,0,0-.2-1.36,2.71,2.71,0,0,0-.53-.95,2.09,2.09,0,0,0-.79-.55,2.87,2.87,0,0,0-2.26.11,2.28,2.28,0,0,0-.84.76,2.89,2.89,0,0,0-.47,1.07A5,5,0,0,0,330.63,196.19Z"/><path class="cls-9" d="M339.38,199.27h1.13l0-6.41h-1.42v-1.47h1.42l0-1.28a3.72,3.72,0,0,1,.33-1.57,3,3,0,0,1,.84-1.06,3.14,3.14,0,0,1,1.23-.6,5.8,5.8,0,0,1,1.54-.19,5.72,5.72,0,0,1,1.06.08l.76.13-.08,1.59a2.8,2.8,0,0,0-.56-.16,6.13,6.13,0,0,0-.95-.06,2.83,2.83,0,0,0-1,.16,1.86,1.86,0,0,0-.66.44,1.68,1.68,0,0,0-.38.66,3,3,0,0,0-.14.79l0,1.07h2.19v1.47h-2.19l0,6.41H344v1.48h-4.59Z"/><path class="cls-9" d="M194.14,223.27h1.13l0-6.41h-1.42v-1.47h1.42l0-1.28a3.72,3.72,0,0,1,.33-1.57,3,3,0,0,1,.84-1.06,3.14,3.14,0,0,1,1.23-.6,5.8,5.8,0,0,1,1.54-.19,7.17,7.17,0,0,1,1.32.1l1.07.2v1.48a5.82,5.82,0,0,0-.92-.14,10.93,10.93,0,0,0-1.15-.06,2.2,2.2,0,0,0-1.71.57,2.36,2.36,0,0,0-.54,1.48l0,1.07h5.49l0,7.88H204v1.48h-4.5v-1.48h1.22l0-6.41h-3.47l0,6.41h1.26v1.48h-4.41Z"/><path class="cls-9" d="M205.55,223.27h1.06l0-6.41h-1.31v-1.47h3.33c0,.31,0,.63,0,1s-.07.7-.13,1.1h0a3.87,3.87,0,0,1,.42-.87,3.08,3.08,0,0,1,.67-.73,3.35,3.35,0,0,1,1-.5,3.69,3.69,0,0,1,1.25-.19,3,3,0,0,1,2.45,1,4,4,0,0,1,.8,2.66c0,.75,0,1.5,0,2.24s0,1.48-.05,2.24h1.23v1.48h-4.31v-1.48H213c0-.68,0-1.37,0-2.06s0-1.38,0-2.06a2.74,2.74,0,0,0-.46-1.64,1.64,1.64,0,0,0-1.43-.65,2.25,2.25,0,0,0-1.74.77,3.15,3.15,0,0,0-.73,2.08l-.07,3.56h1.26v1.48h-4.34Z"/><path class="cls-9" d="M218.13,216l.51-.24a7.49,7.49,0,0,1,.78-.28,8.73,8.73,0,0,1,2.42-.33,5.19,5.19,0,0,1,1.75.25,2.8,2.8,0,0,1,1.12.71,2.58,2.58,0,0,1,.61,1.13,5.69,5.69,0,0,1,.18,1.49c0,.76,0,1.51,0,2.26s0,1.5-.05,2.26h1.26v1.48h-3c0-.3,0-.63,0-1a7.48,7.48,0,0,1,.13-1h0a4,4,0,0,1-.38.78,2.78,2.78,0,0,1-.59.7,2.87,2.87,0,0,1-.88.49,3.63,3.63,0,0,1-1.26.19,3.47,3.47,0,0,1-1.42-.25,2.7,2.7,0,0,1-.91-.64,2.23,2.23,0,0,1-.51-.86,3.11,3.11,0,0,1-.15-.93,2.49,2.49,0,0,1,.41-1.48,2.82,2.82,0,0,1,1-.85,4.43,4.43,0,0,1,1.31-.4c.47-.06.9-.11,1.28-.13l1.93-.11v-.7a3.24,3.24,0,0,0-.09-.79,1.38,1.38,0,0,0-.33-.62,1.48,1.48,0,0,0-.64-.41,3,3,0,0,0-1-.14,4.48,4.48,0,0,0-1,.11,6.8,6.8,0,0,0-.71.21v1.37h-1.8Zm1.62,6.1a1.18,1.18,0,0,0,.39.89,1.58,1.58,0,0,0,1.11.37,2.44,2.44,0,0,0,1-.21,2.49,2.49,0,0,0,.76-.54,2.18,2.18,0,0,0,.46-.76,2.57,2.57,0,0,0,.15-.87v-.38c-.53,0-1,0-1.49,0a6.21,6.21,0,0,0-1.25.19,1.86,1.86,0,0,0-.85.44A1.08,1.08,0,0,0,219.75,222.12Z"/><path class="cls-9" d="M228.23,223.27h1.06l0-6.41H228v-1.47h3.33c0,.31,0,.63,0,1s-.07.7-.13,1.1h0a3.87,3.87,0,0,1,.42-.87,3.08,3.08,0,0,1,.67-.73,3.35,3.35,0,0,1,1-.5,3.69,3.69,0,0,1,1.25-.19,3,3,0,0,1,2.45,1,4,4,0,0,1,.8,2.66c0,.75,0,1.5,0,2.24s0,1.48,0,2.24h1.23v1.48H234.6v-1.48h1.07c0-.68,0-1.37,0-2.06s0-1.38,0-2.06a2.81,2.81,0,0,0-.46-1.64,1.64,1.64,0,0,0-1.43-.65,2.25,2.25,0,0,0-1.74.77,3.15,3.15,0,0,0-.73,2.08l-.07,3.56h1.26v1.48h-4.34Z"/><path class="cls-9" d="M246,216.92a2.8,2.8,0,0,0-.53-.12,4.62,4.62,0,0,0-.65-.05,2.79,2.79,0,0,0-1.23.25,2.31,2.31,0,0,0-.87.67,3,3,0,0,0-.53,1,4.13,4.13,0,0,0-.18,1.24,4.52,4.52,0,0,0,.16,1.21,3.09,3.09,0,0,0,.54,1.07,2.64,2.64,0,0,0,1,.77,3.62,3.62,0,0,0,1.56.3,5.69,5.69,0,0,0,1.36-.17,4.49,4.49,0,0,0,1-.37l-.11,1.75a8.26,8.26,0,0,1-1,.3A6.3,6.3,0,0,1,245,225a5.9,5.9,0,0,1-2.36-.42,4.22,4.22,0,0,1-1.55-1.12,4.44,4.44,0,0,1-.85-1.55,6.18,6.18,0,0,1-.26-1.75,5.71,5.71,0,0,1,.33-2,4.29,4.29,0,0,1,1-1.57,4.25,4.25,0,0,1,1.58-1,5.88,5.88,0,0,1,2.17-.37,7.14,7.14,0,0,1,1.72.17,5.39,5.39,0,0,1,.95.32v2.64H246Z"/><path class="cls-9" d="M249.08,223.27h1.22l0-6.41h-1.43v-1.47h3.44l0,7.88h1.26v1.48h-4.5Zm.88-11.2a1.37,1.37,0,0,1,1.38-1.38,1.36,1.36,0,0,1,1,.4,1.38,1.38,0,0,1,.4,1,1.38,1.38,0,0,1-1.39,1.39,1.34,1.34,0,0,1-1-.41A1.32,1.32,0,0,1,250,212.07Z"/><path class="cls-9" d="M255.48,216l.51-.24a6.73,6.73,0,0,1,.78-.28,8.73,8.73,0,0,1,2.42-.33,5.19,5.19,0,0,1,1.75.25,2.8,2.8,0,0,1,1.12.71,2.69,2.69,0,0,1,.61,1.13,5.69,5.69,0,0,1,.18,1.49c0,.76,0,1.51,0,2.26s0,1.5-.05,2.26H264v1.48h-3c0-.3,0-.63,0-1a7.48,7.48,0,0,1,.13-1h0a4,4,0,0,1-.38.78,2.78,2.78,0,0,1-.59.7,2.87,2.87,0,0,1-.88.49,3.63,3.63,0,0,1-1.26.19,3.47,3.47,0,0,1-1.42-.25,2.7,2.7,0,0,1-.91-.64,2.23,2.23,0,0,1-.51-.86,3.11,3.11,0,0,1-.15-.93,2.49,2.49,0,0,1,.41-1.48,2.82,2.82,0,0,1,1-.85,4.43,4.43,0,0,1,1.31-.4c.47-.06.9-.11,1.28-.13l1.93-.11v-.7a3.24,3.24,0,0,0-.09-.79,1.38,1.38,0,0,0-.33-.62,1.48,1.48,0,0,0-.64-.41,3,3,0,0,0-1-.14,4.48,4.48,0,0,0-1,.11,6.8,6.8,0,0,0-.71.21v1.37h-1.8Zm1.62,6.1a1.18,1.18,0,0,0,.39.89,1.58,1.58,0,0,0,1.11.37,2.44,2.44,0,0,0,1-.21,2.49,2.49,0,0,0,.76-.54,2.34,2.34,0,0,0,.46-.76A2.57,2.57,0,0,0,261,221v-.38c-.53,0-1,0-1.49,0a6.21,6.21,0,0,0-1.25.19,1.86,1.86,0,0,0-.85.44A1.08,1.08,0,0,0,257.1,222.12Z"/><path class="cls-9" d="M265.51,223.27h1.13l.08-10.89h-1.64V210.9h3.65l-.07,12.37h1.26v1.48h-4.41Z"/><path class="cls-9" d="M282.38,216.92a3.12,3.12,0,0,0-.54-.12,4.51,4.51,0,0,0-.65-.05A2.79,2.79,0,0,0,280,217a2.48,2.48,0,0,0-.87.67,3.14,3.14,0,0,0-.53,1,4.13,4.13,0,0,0-.18,1.24,4.52,4.52,0,0,0,.16,1.21,3.09,3.09,0,0,0,.54,1.07,2.64,2.64,0,0,0,1,.77,3.63,3.63,0,0,0,1.57.3,5.67,5.67,0,0,0,1.35-.17,4.49,4.49,0,0,0,1-.37l-.11,1.75a8.26,8.26,0,0,1-1,.3,6.27,6.27,0,0,1-1.57.18,5.91,5.91,0,0,1-2.37-.42,4.13,4.13,0,0,1-2.39-2.67,5.86,5.86,0,0,1-.27-1.75,5.71,5.71,0,0,1,.33-2,4.23,4.23,0,0,1,2.54-2.6,5.91,5.91,0,0,1,2.17-.37,7.08,7.08,0,0,1,1.72.17,5.39,5.39,0,0,1,.95.32v2.64h-1.69Z"/><path class="cls-9" d="M285.31,220.26a5.75,5.75,0,0,1,.36-2.08,4.74,4.74,0,0,1,1-1.61,4.48,4.48,0,0,1,1.55-1,5.1,5.1,0,0,1,2-.37,4.71,4.71,0,0,1,2.17.45,4.09,4.09,0,0,1,1.42,1.16,4.59,4.59,0,0,1,.76,1.59,6.65,6.65,0,0,1,.24,1.75,5.75,5.75,0,0,1-.31,1.88,4.43,4.43,0,0,1-.91,1.54,4.16,4.16,0,0,1-1.5,1,6.06,6.06,0,0,1-4.25,0,3.94,3.94,0,0,1-1.44-1.07,4.39,4.39,0,0,1-.82-1.5A6,6,0,0,1,285.31,220.26Zm2.12-.07a3.88,3.88,0,0,0,.16,1.14,3,3,0,0,0,.46,1,2.35,2.35,0,0,0,2,1,2.45,2.45,0,0,0,1.18-.27,2.25,2.25,0,0,0,.83-.73,3.07,3.07,0,0,0,.48-1.07,5.45,5.45,0,0,0,.15-1.3,4,4,0,0,0-.2-1.36,2.56,2.56,0,0,0-.53-.95,2.09,2.09,0,0,0-.79-.55,2.87,2.87,0,0,0-2.26.11,2.28,2.28,0,0,0-.84.76,2.89,2.89,0,0,0-.47,1.07A5,5,0,0,0,287.43,220.19Z"/><path class="cls-9" d="M296.25,223.27h1.07l0-6.41H296v-1.47h3.33c0,.31,0,.63-.05,1s-.07.7-.13,1.1h0a3.87,3.87,0,0,1,.42-.87,3.08,3.08,0,0,1,.67-.73,3.35,3.35,0,0,1,1-.5,3.69,3.69,0,0,1,1.25-.19,3,3,0,0,1,2.45,1,4,4,0,0,1,.81,2.66c0,.75,0,1.5,0,2.24s0,1.48-.05,2.24h1.23v1.48h-4.3v-1.48h1.06c0-.68,0-1.37,0-2.06s0-1.38,0-2.06a2.74,2.74,0,0,0-.46-1.64,1.63,1.63,0,0,0-1.43-.65,2.25,2.25,0,0,0-1.74.77,3.15,3.15,0,0,0-.73,2.08l-.07,3.56h1.26v1.48h-4.34Z"/><path class="cls-9" d="M307.94,215.39h1.42l0-2.11,2-.14-.07,2.25H314v1.47h-2.68q0,1.14,0,2.22c0,.73,0,1.45,0,2.16a6.24,6.24,0,0,0,.07,1.06,1.7,1.7,0,0,0,.24.65.77.77,0,0,0,.4.34,1.72,1.72,0,0,0,.6.09,3.24,3.24,0,0,0,.82-.11,6.59,6.59,0,0,0,.75-.25l-.07,1.47a3.7,3.7,0,0,1-.93.34,4.8,4.8,0,0,1-1.14.13,4.63,4.63,0,0,1-1.26-.15,1.89,1.89,0,0,1-.86-.5,2,2,0,0,1-.48-.89,4.68,4.68,0,0,1-.16-1.34c0-.3,0-.66,0-1.1s0-.88,0-1.36,0-1,0-1.43,0-.92,0-1.33h-1.42Z"/><path class="cls-9" d="M314.85,223.27H316l0-6.41H314.6v-1.47h3.33c0,.34,0,.75,0,1.2a13.18,13.18,0,0,1-.1,1.39l0,0a4.1,4.1,0,0,1,1-2.07,2.36,2.36,0,0,1,1.75-.73,3.58,3.58,0,0,1,.67,0,2.59,2.59,0,0,1,.46.11l-.21,1.78a2.75,2.75,0,0,0-.41-.11,3.68,3.68,0,0,0-.51,0,2.23,2.23,0,0,0-1.15.28,2.33,2.33,0,0,0-.79.77,3.49,3.49,0,0,0-.46,1.08,4.57,4.57,0,0,0-.16,1.21l0,2.92h1.37v1.48h-4.52Z"/><path class="cls-9" d="M322.1,220.26a5.75,5.75,0,0,1,.36-2.08,4.74,4.74,0,0,1,1-1.61,4.48,4.48,0,0,1,1.55-1,5.1,5.1,0,0,1,2-.37,4.78,4.78,0,0,1,2.18.45,4.15,4.15,0,0,1,1.41,1.16,4.59,4.59,0,0,1,.76,1.59,6.65,6.65,0,0,1,.24,1.75,5.49,5.49,0,0,1-.31,1.88,4.43,4.43,0,0,1-.91,1.54,4.16,4.16,0,0,1-1.5,1,6.06,6.06,0,0,1-4.25,0,3.94,3.94,0,0,1-1.44-1.07,4.39,4.39,0,0,1-.82-1.5A6,6,0,0,1,322.1,220.26Zm2.13-.07a4.24,4.24,0,0,0,.15,1.14,3,3,0,0,0,.47,1,2.31,2.31,0,0,0,2,1A2.52,2.52,0,0,0,328,223a2.3,2.3,0,0,0,.82-.73,3.07,3.07,0,0,0,.48-1.07,5.45,5.45,0,0,0,.15-1.3,4.25,4.25,0,0,0-.19-1.36,2.72,2.72,0,0,0-.54-.95,2.09,2.09,0,0,0-.79-.55,2.63,2.63,0,0,0-1-.18,2.66,2.66,0,0,0-1.28.29,2.36,2.36,0,0,0-.84.76,3.06,3.06,0,0,0-.47,1.07A4.94,4.94,0,0,0,324.23,220.19Z"/><path class="cls-9" d="M333,223.27h1.14l.07-10.89h-1.64V210.9h3.66l-.08,12.37h1.26v1.48H333Z"/></g></g></svg>