<svg id="Layer_1" data-name="Layer 1" xmlns="http://www.w3.org/2000/svg" viewBox="0 0 120 120"><defs><style>.cls-1{fill:#d6e5e9;}.cls-2{fill:#fff;}.cls-3{fill:#3f5163;}.cls-4{fill:#37bfbf;}</style></defs><path class="cls-1" d="M60,7a55,55,0,1,0,55,55A55,55,0,0,0,60,7"/><path class="cls-2" d="M78.59,82.7H41.41A13.21,13.21,0,0,1,28.22,69.51v-21A13.21,13.21,0,0,1,41.41,35.29H78.59A13.21,13.21,0,0,1,91.78,48.48v21A13.21,13.21,0,0,1,78.59,82.7Z"/><path class="cls-3" d="M78.59,82.7H41.41A13.21,13.21,0,0,1,28.22,69.51v-21A13.21,13.21,0,0,1,41.41,35.29H78.59A13.21,13.21,0,0,1,91.78,48.48v21A13.21,13.21,0,0,1,78.59,82.7ZM41.41,37.32A11.18,11.18,0,0,0,30.25,48.48v21A11.18,11.18,0,0,0,41.41,80.67H78.59A11.18,11.18,0,0,0,89.75,69.51v-21A11.18,11.18,0,0,0,78.59,37.32Z"/><path class="cls-3" d="M45.59,97.28a1,1,0,0,1-.72-.29,1,1,0,0,1,0-1.44L59.46,81a1,1,0,0,1,.72-.29h0a1,1,0,0,1,.71.29L75.13,95.2a1,1,0,0,1,0,1.44,1,1,0,0,1-1.44,0L60.18,83.12,46.31,97A1,1,0,0,1,45.59,97.28Z"/><path class="cls-3" d="M60.18,94.18a1,1,0,0,1-1-1V82.58a1,1,0,0,1,2,0V93.17A1,1,0,0,1,60.18,94.18Z"/><path class="cls-4" d="M46.54,74.28H44.28a3.44,3.44,0,0,1-3.43-3.43v-16a3.44,3.44,0,0,1,3.43-3.44h2.26A3.44,3.44,0,0,1,50,54.89v16A3.44,3.44,0,0,1,46.54,74.28Zm-2.26-20.8a1.41,1.41,0,0,0-1.4,1.41v16a1.4,1.4,0,0,0,1.4,1.4h2.26A1.41,1.41,0,0,0,48,70.85v-16a1.41,1.41,0,0,0-1.41-1.41Z"/><path class="cls-4" d="M61.13,74.28H58.87a3.44,3.44,0,0,1-3.44-3.43V45.26a3.44,3.44,0,0,1,3.44-3.43h2.26a3.44,3.44,0,0,1,3.44,3.43V70.85A3.44,3.44,0,0,1,61.13,74.28ZM58.87,43.86a1.41,1.41,0,0,0-1.41,1.4V70.85a1.41,1.41,0,0,0,1.41,1.4h2.26a1.41,1.41,0,0,0,1.41-1.4V45.26a1.41,1.41,0,0,0-1.41-1.4Z"/><path class="cls-4" d="M75.72,74.28H73.45A3.44,3.44,0,0,1,70,70.85V62.37a3.44,3.44,0,0,1,3.43-3.43h2.27a3.44,3.44,0,0,1,3.43,3.43v8.48A3.44,3.44,0,0,1,75.72,74.28ZM73.45,61a1.4,1.4,0,0,0-1.4,1.4v8.48a1.4,1.4,0,0,0,1.4,1.4h2.27a1.4,1.4,0,0,0,1.4-1.4V62.37a1.4,1.4,0,0,0-1.4-1.4Z"/></svg>