<svg id="Layer_1" data-name="Layer 1" xmlns="http://www.w3.org/2000/svg" viewBox="0 0 120 120"><defs><style>.cls-1{fill:#d6e5e9;}.cls-2{fill:#fff;}.cls-3{fill:#3f5163;}.cls-4{fill:#37bfbf;}</style></defs><path class="cls-1" d="M60,7a55,55,0,1,0,55,55A55,55,0,0,0,60,7"/><path class="cls-2" d="M59.74,93a38.46,38.46,0,0,1-18.46-4.41c-2.07.52-8.62,2-11,.56a2.1,2.1,0,0,1-1-1.37c-.64-2.86,2.87-7.07,4-8.34C31,58.79,47.85,43.73,48.6,43.07,50,41.7,51,39.72,46.7,32.19c-1-1.76-2.19-4.27-.92-5.69,1.42-1.58,4.74-.25,5.4,0l.13.07a16.75,16.75,0,0,0,18.93.16l.13-.1.15-.05a2.58,2.58,0,0,1,2.72.59c1.07,1.3.48,3.76-1.92,8C68.57,40,69,41.75,69.25,42.3a1,1,0,0,0,.69.52l.27,0,.22.17C88.28,56.17,86.84,76.55,86.49,79.75c.9,1.14,3.67,5,3.07,8.27a2.47,2.47,0,0,1-1.31,1.8c-2.32,1.23-7-.57-8.67-1.26A48.81,48.81,0,0,1,59.74,93Z"/><path class="cls-3" d="M59.74,93a38.46,38.46,0,0,1-18.46-4.41c-2.07.52-8.62,2-11,.56a2.1,2.1,0,0,1-1-1.37c-.64-2.86,2.87-7.07,4-8.34C31,58.79,47.85,43.73,48.6,43.07,50,41.7,51,39.72,46.7,32.19c-1-1.76-2.19-4.27-.92-5.69,1.42-1.58,4.74-.25,5.4,0l.13.07a16.75,16.75,0,0,0,18.93.16l.13-.1.15-.05a2.58,2.58,0,0,1,2.72.59c1.07,1.3.48,3.76-1.92,8C68.57,40,69,41.75,69.25,42.3a1,1,0,0,0,.69.52l.27,0,.22.17C88.28,56.17,86.84,76.55,86.49,79.75c.9,1.14,3.67,5,3.07,8.27a2.47,2.47,0,0,1-1.31,1.8c-2.32,1.23-7-.57-8.67-1.26A48.81,48.81,0,0,1,59.74,93ZM41.57,86.53l.35.21c.15.1,15.82,9.61,37.27-.06l.38-.17.38.17c2.31,1,6.14,2.16,7.42,1.48a.62.62,0,0,0,.35-.48c.44-2.46-2-5.91-2.92-7l-.28-.32.06-.43c0-.21,3.1-21.68-15.08-35.24a2.92,2.92,0,0,1-1.91-1.47c-1-1.84-.29-4.77,2.1-9,2.8-4.9,2.11-5.83,2.1-5.84s-.35-.07-.57,0a18.68,18.68,0,0,1-20.86-.14c-1.33-.56-2.89-.79-3.18-.47-.15.16-.22,1.11,1.15,3.51,4.49,7.85,3.87,11,1.56,13.18l0,0c-.17.15-17.1,15-14.69,35.14l.05.43-.3.32c-1.68,1.8-4.21,5.28-3.83,7,0,0,0,.08.16.16,1.39.85,6.65,0,9.94-.87Z"/><path class="cls-3" d="M49,41a2.58,2.58,0,0,1,1.32-3.28c.93-.44,2.33,0,3.33.21,2.51.54,8.74,1.58,12.66-.26,5-2.34,5.63,4.38,2.57,5.63-2.84,1.16-10.25,2-16.31.36C51,43.25,49.42,42.49,49,41Z"/><path class="cls-4" d="M58.83,80.4V77a9.57,9.57,0,0,1-5.09-1.47l.8-2.23a8.87,8.87,0,0,0,4.79,1.44c2.37,0,4-1.37,4-3.27s-1.29-3-3.76-4C56.13,66.22,54,64.68,54,61.79s2-4.87,5-5.36V53.06h2.06v3.23a8.89,8.89,0,0,1,4.33,1.17l-.83,2.2a8.06,8.06,0,0,0-4.2-1.14c-2.56,0-3.53,1.54-3.53,2.87,0,1.73,1.23,2.6,4.13,3.79,3.43,1.4,5.16,3.13,5.16,6.1,0,2.63-1.83,5.09-5.26,5.66V80.4Z"/></svg>