<svg id="Layer_1" data-name="Layer 1" xmlns="http://www.w3.org/2000/svg" viewBox="0 0 500 500"><defs><style>.cls-1,.cls-8{fill:#1b69aa;}.cls-1{opacity:0.07;}.cls-2{opacity:0.15;}.cls-3{fill:#4e6875;}.cls-4{fill:#80bcbb;}.cls-5{fill:#3f5163;}.cls-6{fill:#5f4668;}.cls-7{fill:#9ae5b5;}.cls-9{fill:#ccdee5;}.cls-10{opacity:0.3;}.cls-11{fill:#332926;}.cls-12{fill:#ceb195;}.cls-13{fill:#eac9a9;}.cls-14{fill:#3a6e91;}.cls-15{fill:#31607a;}.cls-16{fill:#4f403b;}.cls-17{fill:#243035;}.cls-18,.cls-19,.cls-20{fill:#fff;}.cls-18,.cls-20{stroke:#ceb195;stroke-linecap:round;stroke-miterlimit:10;}.cls-20{stroke-width:0.5px;}.cls-21{fill:#302623;}.cls-22{fill:#b29883;}</style></defs><path class="cls-1" d="M165.15,413.78C158.8,413.87,14.8,412.12,32,264.65S260.67-2.79,369.71,122.88s134.9,229.78,46.46,268.37C262,458.56,231.39,412.85,165.15,413.78Z"/><g class="cls-2"><rect class="cls-3" x="72.42" y="310.99" width="362" height="7.57"/><rect class="cls-3" x="72.42" y="240.99" width="362" height="7.57"/><rect class="cls-4" x="104.53" y="168.36" width="5.97" height="8.53"/><path class="cls-5" d="M106.11,175.36h2.8a4.83,4.83,0,0,1,4.83,4.83v1.22a0,0,0,0,1,0,0H101.29a0,0,0,0,1,0,0v-1.22a4.83,4.83,0,0,1,4.83-4.83Z"/><path class="cls-3" d="M105.27,180.3h4.49a8.84,8.84,0,0,1,8.84,8.84V242a3.1,3.1,0,0,1-3.1,3.1h-16a3.1,3.1,0,0,1-3.1-3.1V189.14a8.84,8.84,0,0,1,8.84-8.84Z"/><rect class="cls-4" x="144.53" y="168.36" width="5.97" height="8.53"/><path class="cls-5" d="M146.11,175.36h2.8a4.83,4.83,0,0,1,4.83,4.83v1.22a0,0,0,0,1,0,0H141.29a0,0,0,0,1,0,0v-1.22a4.83,4.83,0,0,1,4.83-4.83Z"/><path class="cls-3" d="M145.27,180.3h4.49a8.84,8.84,0,0,1,8.84,8.84V242a3.1,3.1,0,0,1-3.1,3.1h-16a3.1,3.1,0,0,1-3.1-3.1V189.14A8.84,8.84,0,0,1,145.27,180.3Z"/><rect class="cls-4" x="184.53" y="168.36" width="5.97" height="8.53"/><path class="cls-5" d="M186.11,175.36h2.8a4.83,4.83,0,0,1,4.83,4.83v1.22a0,0,0,0,1,0,0H181.29a0,0,0,0,1,0,0v-1.22a4.83,4.83,0,0,1,4.83-4.83Z"/><path class="cls-6" d="M185.27,180.3h4.49a8.84,8.84,0,0,1,8.84,8.84V242a3.1,3.1,0,0,1-3.1,3.1h-16a3.1,3.1,0,0,1-3.1-3.1V189.14A8.84,8.84,0,0,1,185.27,180.3Z"/><rect class="cls-4" x="224.53" y="168.36" width="5.97" height="8.53"/><path class="cls-5" d="M226.11,175.36h2.8a4.83,4.83,0,0,1,4.83,4.83v1.22a0,0,0,0,1,0,0H221.29a0,0,0,0,1,0,0v-1.22A4.83,4.83,0,0,1,226.11,175.36Z"/><path class="cls-6" d="M225.27,180.3h4.49a8.84,8.84,0,0,1,8.84,8.84V242a3.1,3.1,0,0,1-3.1,3.1h-16a3.1,3.1,0,0,1-3.1-3.1V189.14a8.84,8.84,0,0,1,8.84-8.84Z"/><rect class="cls-4" x="274.53" y="168.36" width="5.97" height="8.53"/><path class="cls-5" d="M276.11,175.36h2.8a4.83,4.83,0,0,1,4.83,4.83v1.22a0,0,0,0,1,0,0H271.29a0,0,0,0,1,0,0v-1.22A4.83,4.83,0,0,1,276.11,175.36Z"/><path class="cls-3" d="M275.27,180.3h4.49a8.84,8.84,0,0,1,8.84,8.84V242a3.1,3.1,0,0,1-3.1,3.1h-16a3.1,3.1,0,0,1-3.1-3.1V189.14A8.84,8.84,0,0,1,275.27,180.3Z"/><rect class="cls-7" x="314.53" y="168.36" width="5.97" height="8.53"/><path class="cls-7" d="M316.11,175.36h2.8a4.83,4.83,0,0,1,4.83,4.83v1.22a0,0,0,0,1,0,0H311.29a0,0,0,0,1,0,0v-1.22A4.83,4.83,0,0,1,316.11,175.36Z"/><path class="cls-7" d="M315.27,180.3h4.49a8.84,8.84,0,0,1,8.84,8.84V242a3.1,3.1,0,0,1-3.1,3.1h-16a3.1,3.1,0,0,1-3.1-3.1V189.14a8.84,8.84,0,0,1,8.84-8.84Z"/><rect class="cls-7" x="394.53" y="168.36" width="5.97" height="8.53"/><path class="cls-7" d="M396.11,175.36h2.8a4.83,4.83,0,0,1,4.83,4.83v1.22a0,0,0,0,1,0,0H391.29a0,0,0,0,1,0,0v-1.22A4.83,4.83,0,0,1,396.11,175.36Z"/><path class="cls-7" d="M395.27,180.3h4.49a8.84,8.84,0,0,1,8.84,8.84V242a3.1,3.1,0,0,1-3.1,3.1h-16a3.1,3.1,0,0,1-3.1-3.1V189.14A8.84,8.84,0,0,1,395.27,180.3Z"/><rect class="cls-8" x="93.09" y="281.71" width="29.29" height="29.29"/><rect class="cls-8" x="173.09" y="281.71" width="29.29" height="29.29"/><rect class="cls-8" x="283.09" y="281.71" width="29.29" height="29.29"/><rect class="cls-8" x="323.09" y="270.61" width="29.29" height="40.39"/><rect class="cls-8" x="363.09" y="270.61" width="29.29" height="40.39"/><path class="cls-9" d="M117.6,228l-8,.27c-.69,0-1.38,0-2.08,0l-8-.27V193.11l8.57.38c.57,0,2.28,0,2.85,0l6.76-.38Z"/><path class="cls-9" d="M157.6,228l-8,.27c-.69,0-1.39,0-2.08,0l-8.05-.27V193.11l8.57.38c.56,0,2.28,0,2.85,0l6.76-.38Z"/><path class="cls-9" d="M197.92,228l-8,.27c-.69,0-1.38,0-2.08,0l-8-.27V193.11l8.56.38c.57,0,2.28,0,2.85,0l6.76-.38Z"/><path class="cls-9" d="M237.58,228l-8,.27c-.7,0-1.39,0-2.09,0l-8-.27V193.11l8.56.38c.57,0,2.28,0,2.85,0l6.76-.38Z"/><path class="cls-9" d="M287.58,228l-8,.27c-.7,0-1.39,0-2.09,0l-8-.27V193.11l8.56.38c.57,0,2.28,0,2.85,0l6.76-.38Z"/><path class="cls-9" d="M327.58,228l-8,.27c-.7,0-1.39,0-2.09,0l-8-.27V193.11l8.56.38c.57,0,2.28,0,2.85,0l6.76-.38Z"/><path class="cls-9" d="M407.58,228l-8,.27c-.7,0-1.39,0-2.09,0l-8-.27V193.11l8.56.38c.57,0,2.28,0,2.85,0l6.76-.38Z"/><rect class="cls-9" x="96.42" y="294.45" width="22.17" height="14.67"/><rect class="cls-9" x="176.42" y="294.45" width="22.17" height="14.67"/><rect class="cls-9" x="286.42" y="294.45" width="22.17" height="14.67"/><rect class="cls-9" x="326.42" y="286.94" width="22.17" height="22.17"/><rect class="cls-9" x="366.42" y="286.94" width="22.17" height="22.17"/></g><g class="cls-10"><rect class="cls-7" x="354.53" y="168.36" width="5.97" height="8.53"/><path class="cls-7" d="M356.11,175.36h2.8a4.83,4.83,0,0,1,4.83,4.83v1.22a0,0,0,0,1,0,0H351.29a0,0,0,0,1,0,0v-1.22A4.83,4.83,0,0,1,356.11,175.36Z"/><path class="cls-7" d="M355.27,180.3h4.49a8.84,8.84,0,0,1,8.84,8.84V242a3.1,3.1,0,0,1-3.1,3.1h-16a3.1,3.1,0,0,1-3.1-3.1V189.14A8.84,8.84,0,0,1,355.27,180.3Z"/><rect class="cls-8" x="133.09" y="281.71" width="29.29" height="29.29"/><path class="cls-9" d="M367.58,228l-8,.27c-.7,0-1.39,0-2.09,0l-8-.27V193.11l8.56.38c.57,0,2.28,0,2.85,0l6.76-.38Z"/><rect class="cls-9" x="136.42" y="294.45" width="22.17" height="14.67"/></g><rect class="cls-11" x="221.03" y="225.59" width="53.53" height="34.84"/><path class="cls-12" d="M261.07,256l-1.2-12.59h-20L238.71,256c-3.89,1.67-8,2.26-8,5.18,0,5,12.49,31.63,21.63,31.63s17.82-26.59,17.82-31.63C270.12,258.28,265,257.69,261.07,256Z"/><path class="cls-13" d="M269.19,238.89c.52-.91,1.8-2.36,3.09-4,2.14-12.68,3.31-24.29,3.31-24.29-22.27,0-39-17.43-39-17.43a54.91,54.91,0,0,0-11.2,35.71A11.52,11.52,0,0,0,226,231c1.5,3.14,4.71,6.35,5.61,7.93a45.6,45.6,0,0,0,15.59,10.89,6.6,6.6,0,0,0,6.41,0A45.6,45.6,0,0,0,269.19,238.89Z"/><path class="cls-14" d="M234.72,261.71s-31.84-5.75-41.25,23.53-4.19,40.27-4.19,40.27-1.57,13.07,5.23,14.64,1.57-7.84,24.06-8.89c0,0-8.3,24.06-7.29,40.79s38.1,25.1,38.1,25.1,45,3.66,47.9-19.35-5.5-25.1-5.5-25.1l-6.28-23.39s23,1.95,22.49,8.23,5.75.8,3.14-8.23a101.63,101.63,0,0,1-3.14-20s-1-38.18-19.35-43.93-21.44-4.12-21.44-4.12S253.6,279.49,254.65,291Z"/><path class="cls-15" d="M219.09,270.6l15.63-8.89,10.15,14.91C245.92,278.17,237.68,268.69,219.09,270.6Z"/><path class="cls-15" d="M255.74,282.87s6.76-11.75,24-17-12.55-4.64-12.55-4.64Z"/><polygon class="cls-15" points="254.65 291 255.74 397.37 258.2 397.35 257.53 292.82 254.65 291"/><path class="cls-12" d="M308,337.54s4.19,14.64-16.21,15.16-57.06-2.58-57.06-2.58,38.84-22,56-20.17S305.9,329.17,308,337.54Z"/><path class="cls-13" d="M194.51,340.15s9.41,15.69,24.58,14.12,59.62-22.49,59.62-22.49L290.77,330l-13.63-6.53-58.57,7.84S201.83,325,194.51,340.15Z"/><polygon class="cls-15" points="218.57 331.26 215.43 312.44 209.54 329.2 218.57 331.26"/><polygon class="cls-15" points="287.99 328.61 282.89 309.82 277.14 323.42 287.99 328.61"/><path class="cls-16" d="M238.21,275.45s-27.9-47-1.67-82.31c0,0,16.78,17.45,39,17.43,0,0-5.17,60-13.6,64.88,0,0,19,1.91,20.32-8.16s3.61-53.09,2.74-62.25-6.4-41.29-37.32-37.4c0,0-29.13-5.34-32,39.54,0,0-1,55.45,1.87,60S224.51,278.05,238.21,275.45Z"/><path class="cls-17" d="M212.66,354.38s44.87,2.64,79.12-1.68c0,0,9.15,1.57,7.58,49s-85.31,20.39-85.31,20.39S202.05,400.38,212.66,354.38Z"/><path class="cls-18" d="M242.52,231.64s5,.89,15.56,0C261.9,231.31,249.67,244.8,242.52,231.64Z"/><path class="cls-19" d="M234.64,213.42s5.92-3.31,9.23,0A22.34,22.34,0,0,1,234.64,213.42Z"/><path class="cls-20" d="M233.65,214s7-6,11,0C244.65,214,241.08,216.9,233.65,214Z"/><path class="cls-20" d="M266.29,214.22s-5.81,2.65-11,.41c-.16-.07,4.29-6,11-.41"/><circle class="cls-21" cx="239.31" cy="213.34" r="2"/><circle class="cls-21" cx="260.56" cy="213.68" r="2"/><path class="cls-16" d="M245.56,210.07a23.86,23.86,0,0,0-2.94-.93,14.69,14.69,0,0,0-3-.49,29.23,29.23,0,0,0-3,.17,6,6,0,0,0-1.4.27c-.45.16-.93.39-1.43.57l-.06-.08a5.62,5.62,0,0,1,1.17-1.11,4.6,4.6,0,0,1,1.56-.64,10.16,10.16,0,0,1,3.21,0A18.23,18.23,0,0,1,245.6,210Z"/><path class="cls-16" d="M256.44,209.6a18.25,18.25,0,0,1,5.65-1.82,6.17,6.17,0,0,1,3.07.3,4.66,4.66,0,0,1,2.39,1.91l-.08.07a10.89,10.89,0,0,0-2.62-1,10.32,10.32,0,0,0-2.71-.45,14.55,14.55,0,0,0-2.84.37,24.87,24.87,0,0,0-2.82.74Z"/><path class="cls-22" d="M245,224.65a2.41,2.41,0,0,0,1.41,1.08,5.54,5.54,0,0,0,.9.19,1,1,0,0,1,.53.2c.15.11.27.22.39.32a3.11,3.11,0,0,0,1.48.83,1.36,1.36,0,0,0,1.34-.51,3.53,3.53,0,0,1,.82-.71,2.58,2.58,0,0,1,.53-.24,2,2,0,0,1,.37-.06H253a4.57,4.57,0,0,0,1.6-.35,1.3,1.3,0,0,0,.81-1.1,4.93,4.93,0,0,0-.24-1.77s0-.05,0-.06,0,0,.06,0a3.58,3.58,0,0,1,.84,1.81,2,2,0,0,1-1,2,4,4,0,0,1-2.05.48,1.68,1.68,0,0,0-1.36.58,2.13,2.13,0,0,1-2.07.59,3.59,3.59,0,0,1-1.7-1.11c-.11-.11-.21-.23-.31-.32a.57.57,0,0,0-.33-.16,7.6,7.6,0,0,1-.92-.3,2.64,2.64,0,0,1-1.39-1.32,0,0,0,0,1,0-.07A0,0,0,0,1,245,224.65Z"/></svg>