<svg xmlns="http://www.w3.org/2000/svg" viewBox="0 0 74.52 69.05"><defs><style>.cls-1{fill:#3f5163;}.cls-2{fill:#fff;opacity:0.7;}</style></defs><title>focused</title><g id="Layer_2" data-name="Layer 2"><g id="Guides"><path class="cls-1" d="M74.37,19.82c0-3-1.44-7.09-2.85-10.08a25.37,25.37,0,0,0-4.75-7q-.36-.36-.72-.66l.13-.13-.69-.47-.3-.2c-2.1-1.3-4-1.6-5.65-.87-2.34,1-3.31,3.82-3.63,5L45.37,10.24V12.4L9,29.56a4.4,4.4,0,0,0-2.29,2.52,4.48,4.48,0,0,0,.16,3.41l.47,1L2,38A2.77,2.77,0,0,0,.23,39.6,2.81,2.81,0,0,0,.31,42l.93,1.79a2.8,2.8,0,0,0,1.92,1.46,3.66,3.66,0,0,0,.57,0,2.75,2.75,0,0,0,1.77-.64l4.13-3.4L10.48,43A4.42,4.42,0,0,0,13,45.33a4.28,4.28,0,0,0,1.5.27,4.47,4.47,0,0,0,1.9-.43l19.87-9.39V46.1l-8,22.25,1.93.7,6.09-16.87V67.79h2.06V51.93l6.18,17.12,1.94-.7L38.37,45.93h0V34.81l13.28-6.27L53,29.6l11.45-4.85c1.29.61,4.71,2,7.28.67,1.54-.79,2.45-2.34,2.71-4.61l0-.28.06-.7ZM65,22.71l-.44-.25L53.3,27.23l-1.25-1.18L15.53,43.3a2.37,2.37,0,0,1-1.83.09,2.34,2.34,0,0,1-1.35-1.23L8.78,34.61a2.33,2.33,0,0,1-.09-1.83,2.35,2.35,0,0,1,1.23-1.36l37.47-17.7,0-2.16L57.71,6.8l.1-.52s.65-3.17,2.57-4l.07,0c-1,3.11,1.69,9.3,2.71,11.44A30.54,30.54,0,0,0,67.84,21,8.26,8.26,0,0,0,71,23.41l-.24.18C68.69,24.66,65.12,22.79,65,22.71Zm4.68-12.09c3,6.43,2.93,10.6,2.34,10.88-.1.05-1-.08-2.64-1.9A29.22,29.22,0,0,1,65,12.81c-3.09-6.54-3-10-2.41-10.24l.13,0c.38,0,1.28.36,2.58,1.65A23.31,23.31,0,0,1,69.66,10.62ZM4.19,43.06a.72.72,0,0,1-1.12-.23l-.93-1.78a.77.77,0,0,1,0-.63A.71.71,0,0,1,2.59,40l5.68-1.64.06.12.39.84Z"/><path class="cls-2" d="M60.38,2.27l.07,0c-1,3.11,1.69,9.3,2.71,11.44A30.54,30.54,0,0,0,67.84,21,8.26,8.26,0,0,0,71,23.41l-.24.18c-2.09,1.07-5.66-.8-5.8-.88l-.44-.25L53.3,27.23l-1.25-1.18L15.53,43.3a2.37,2.37,0,0,1-1.83.09,2.34,2.34,0,0,1-1.35-1.23L8.78,34.61a2.33,2.33,0,0,1-.09-1.83,2.35,2.35,0,0,1,1.23-1.36l37.47-17.7,0-2.16L57.71,6.8l.1-.52s.65-3.17,2.57-4"/><path class="cls-2" d="M4.19,43.06a.72.72,0,0,1-1.12-.23l-.93-1.78a.77.77,0,0,1,0-.63A.71.71,0,0,1,2.59,40l5.68-1.64.06.12.39.84Z"/></g></g></svg>