<svg xmlns="http://www.w3.org/2000/svg" viewBox="0 0 468.06 47.7"><defs><style>.cls-1{fill:#3f5163;}.cls-2{fill:#37bfbf;}</style></defs><title>Asset 19</title><g id="Layer_2" data-name="Layer 2"><g id="Guides"><path class="cls-1" d="M.13,16.19H1.39l.07-9.65H0V5.07H8.86l.07,3.31H7.24L7.13,6.54H3.47l0,3.89H7.36V12H3.44l0,4.17H5v1.48H.13Z"/><path class="cls-1" d="M17.69,17.24a11,11,0,0,1-1.36.42,7.7,7.7,0,0,1-1.93.22,5.64,5.64,0,0,1-2.08-.35,4.41,4.41,0,0,1-1.55-1A4.17,4.17,0,0,1,9.8,15a5.73,5.73,0,0,1-.33-2,6.13,6.13,0,0,1,.29-1.95,4.38,4.38,0,0,1,.87-1.57,4.1,4.1,0,0,1,1.44-1,4.91,4.91,0,0,1,2-.38,4.44,4.44,0,0,1,1.84.37,3.59,3.59,0,0,1,1.33,1A4.78,4.78,0,0,1,18,11.05a7,7,0,0,1,.27,2v.27h-6.7a3.08,3.08,0,0,0,.24,1.24,3,3,0,0,0,.67.94,2.77,2.77,0,0,0,1,.6,3.79,3.79,0,0,0,1.29.21,6.06,6.06,0,0,0,1.63-.21,7.1,7.1,0,0,0,1.37-.51Zm-1.53-5.3v-.18a2.46,2.46,0,0,0-.1-.66,2.7,2.7,0,0,0-.36-.72A2.16,2.16,0,0,0,15,9.8,2.26,2.26,0,0,0,14,9.57a2.48,2.48,0,0,0-1.08.21,2.21,2.21,0,0,0-.71.55,2.27,2.27,0,0,0-.42.76,3.17,3.17,0,0,0-.15.85Z"/><path class="cls-1" d="M19.69,16.19h1.06l0-6.41H19.48V8.31h3.33c0,.31,0,.63,0,1s-.07.7-.13,1.1h0a3,3,0,0,1,1.15-1.67,3.47,3.47,0,0,1,2.06-.62,3.86,3.86,0,0,1,1.2.17,2.93,2.93,0,0,1,.86.46,2.26,2.26,0,0,1,.55.68,2.93,2.93,0,0,1,.27.82h0A2.86,2.86,0,0,1,30,8.64a3.72,3.72,0,0,1,2-.55,3,3,0,0,1,2.42,1,4,4,0,0,1,.8,2.64c0,.76,0,1.5,0,2.24s0,1.49,0,2.24h1.22v1.48h-4.3V16.19h1.06c0-.68,0-1.37.05-2.06s0-1.38,0-2.06a2.74,2.74,0,0,0-.46-1.64,1.63,1.63,0,0,0-1.43-.65,2,2,0,0,0-1.64.77A3.35,3.35,0,0,0,29,12.63l0,3.56h1.19v1.48H25.94V16.19h1l0-3.76a6.63,6.63,0,0,0-.07-1,2.46,2.46,0,0,0-.29-.84,1.5,1.5,0,0,0-.59-.58,1.82,1.82,0,0,0-.92-.21,2,2,0,0,0-.87.2,2.2,2.2,0,0,0-.73.57,3.06,3.06,0,0,0-.53.9,3.4,3.4,0,0,0-.19,1.18l0,3.56H24v1.48H19.69Z"/><path class="cls-1" d="M38.27,8.94l.5-.24q.33-.13.78-.27a9.65,9.65,0,0,1,1.07-.24A9.11,9.11,0,0,1,42,8.09a5.43,5.43,0,0,1,1.74.25,2.82,2.82,0,0,1,1.13.72,2.63,2.63,0,0,1,.6,1.12,5.69,5.69,0,0,1,.18,1.49c0,.76,0,1.51,0,2.26s0,1.51,0,2.26h1.26v1.48h-3q0-.45,0-1a9.88,9.88,0,0,1,.13-1h0a4.34,4.34,0,0,1-.37.79,2.81,2.81,0,0,1-.6.69,3,3,0,0,1-.88.5,3.9,3.9,0,0,1-1.26.18,3.39,3.39,0,0,1-1.41-.25,2.65,2.65,0,0,1-.92-.64,2.29,2.29,0,0,1-.51-.86,3.11,3.11,0,0,1-.15-.93,2.37,2.37,0,0,1,.42-1.47,2.74,2.74,0,0,1,1-.86,4.2,4.2,0,0,1,1.32-.39c.46-.07.89-.12,1.27-.14l1.93-.11v-.7a3.24,3.24,0,0,0-.09-.79,1.47,1.47,0,0,0-.32-.62,1.54,1.54,0,0,0-.64-.41,3.26,3.26,0,0,0-1-.14,4,4,0,0,0-1,.12,5,5,0,0,0-.7.2v1.37h-1.8ZM39.89,15a1.19,1.19,0,0,0,.38.89,1.54,1.54,0,0,0,1.11.37,2.46,2.46,0,0,0,1-.21,2.29,2.29,0,0,0,1.21-1.29,2.62,2.62,0,0,0,.15-.88v-.37c-.52,0-1,0-1.49,0a6.11,6.11,0,0,0-1.24.19,2,2,0,0,0-.86.44A1.07,1.07,0,0,0,39.89,15Z"/><path class="cls-1" d="M48.29,16.19h1.14L49.5,5.3H47.86V3.83h3.66l-.08,12.36H52.7v1.48H48.29Z"/><path class="cls-1" d="M62,17.24a11.26,11.26,0,0,1-1.35.42,7.83,7.83,0,0,1-1.94.22,5.64,5.64,0,0,1-2.08-.35,4.5,4.5,0,0,1-1.55-1,4.17,4.17,0,0,1-1-1.53,5.73,5.73,0,0,1-.33-2,6.43,6.43,0,0,1,.29-1.95A4.38,4.38,0,0,1,55,9.51a4.1,4.1,0,0,1,1.44-1,4.91,4.91,0,0,1,2-.38,4.44,4.44,0,0,1,1.84.37,3.59,3.59,0,0,1,1.33,1,4.78,4.78,0,0,1,.79,1.56,7,7,0,0,1,.27,2v.27h-6.7a2.92,2.92,0,0,0,.25,1.24,2.85,2.85,0,0,0,.66.94,2.77,2.77,0,0,0,1,.6,3.79,3.79,0,0,0,1.29.21,6.14,6.14,0,0,0,1.64-.21,7,7,0,0,0,1.36-.51Zm-1.52-5.3v-.18a2.52,2.52,0,0,0-.11-.66,2.7,2.7,0,0,0-.36-.72,2.16,2.16,0,0,0-.68-.58,2.26,2.26,0,0,0-1.07-.23,2.48,2.48,0,0,0-1.08.21,2.33,2.33,0,0,0-.71.55,2.25,2.25,0,0,0-.41.76,3.64,3.64,0,0,0-.16.85Z"/><path class="cls-2" d="M194.32,23.69H86.6a10,10,0,0,1-10-10V10a10,10,0,0,1,10-10H194.32Z"/><path class="cls-1" d="M120.9,39.51h.23a5.27,5.27,0,0,0,1.09-.12,3.35,3.35,0,0,0,1-.4,2.62,2.62,0,0,0,.77-.75,2,2,0,0,0,.31-1.16,1.56,1.56,0,0,0-.52-1.25,2,2,0,0,0-1.37-.45,2.42,2.42,0,0,0-1.09.22,1.9,1.9,0,0,0-.67.53,1.86,1.86,0,0,0-.33.66,2.35,2.35,0,0,0-.09.59h-2a3.55,3.55,0,0,1,.2-1,3.44,3.44,0,0,1,.69-1.18,3.8,3.8,0,0,1,1.32-1,4.9,4.9,0,0,1,2.13-.41,5.54,5.54,0,0,1,1.72.24,3.59,3.59,0,0,1,1.21.67,2.73,2.73,0,0,1,.71,1,3.31,3.31,0,0,1,.23,1.22,3.14,3.14,0,0,1-.21,1.2,2.88,2.88,0,0,1-.59.89,3.26,3.26,0,0,1-.85.62,3.89,3.89,0,0,1-1,.35v0a4.22,4.22,0,0,1,1.24.27,3.07,3.07,0,0,1,1,.6,2.75,2.75,0,0,1,.66.94,3.06,3.06,0,0,1,.25,1.25,4,4,0,0,1-.29,1.52,3.09,3.09,0,0,1-.91,1.22,4.33,4.33,0,0,1-1.59.81,7.71,7.71,0,0,1-2.29.3,10.25,10.25,0,0,1-1.31-.07,9.4,9.4,0,0,1-1-.18,4.3,4.3,0,0,1-.74-.24l-.52-.21V44.31a10.47,10.47,0,0,0,1.42.62,5.8,5.8,0,0,0,2,.32,6.15,6.15,0,0,0,1.15-.11,2.85,2.85,0,0,0,1-.36,1.9,1.9,0,0,0,.68-.67,1.93,1.93,0,0,0,.25-1,1.75,1.75,0,0,0-.31-1.08,2.09,2.09,0,0,0-.8-.64,3.4,3.4,0,0,0-1-.3,10.27,10.27,0,0,0-1.07-.07h-.72Z"/><path class="cls-1" d="M136.76,34.07v1.58h-5.28l-.07,3h.31a11.72,11.72,0,0,1,1.76.15,6.06,6.06,0,0,1,1.83.6,4,4,0,0,1,1.43,1.23,3.43,3.43,0,0,1,.57,2,4,4,0,0,1-.35,1.7,3.61,3.61,0,0,1-1,1.35,4.63,4.63,0,0,1-1.55.89,6.14,6.14,0,0,1-2,.31,11.18,11.18,0,0,1-1.81-.14,7.59,7.59,0,0,1-1.45-.4V44.71l.4.14a6.18,6.18,0,0,0,.62.18c.25.06.53.11.85.16a8.66,8.66,0,0,0,1.08.06,3.65,3.65,0,0,0,2.32-.63,2.21,2.21,0,0,0,.78-1.82,1.92,1.92,0,0,0-.46-1.35,2.84,2.84,0,0,0-1.22-.77,6.86,6.86,0,0,0-1.76-.35c-.66-.06-1.34-.09-2-.09h-.32l.07-6.17Z"/><path class="cls-1" d="M139.8,45.55a1.37,1.37,0,1,1,.4,1A1.34,1.34,0,0,1,139.8,45.55Z"/><path class="cls-1" d="M147.57,40.24v0a5.83,5.83,0,0,1-.9-.39,3.08,3.08,0,0,1-.82-.61,3.26,3.26,0,0,1-.6-.88,3,3,0,0,1-.23-1.22,3.25,3.25,0,0,1,.26-1.28,2.81,2.81,0,0,1,.79-1.06,4.1,4.1,0,0,1,1.33-.71,6.21,6.21,0,0,1,1.87-.26,5.15,5.15,0,0,1,3,.78,2.66,2.66,0,0,1,1.09,2.3,2.82,2.82,0,0,1-.21,1.11,3,3,0,0,1-.57.9,4.31,4.31,0,0,1-.83.68,6.27,6.27,0,0,1-1,.51v0a7.47,7.47,0,0,1,1,.39,3.85,3.85,0,0,1,.95.66,3.45,3.45,0,0,1,.72,1,2.72,2.72,0,0,1,.29,1.28,3.54,3.54,0,0,1-.34,1.63,2.92,2.92,0,0,1-1,1.1,4.2,4.2,0,0,1-1.51.61,9,9,0,0,1-1.94.19,8.69,8.69,0,0,1-1.61-.15,4.15,4.15,0,0,1-1.42-.53,3,3,0,0,1-1-1,3,3,0,0,1-.39-1.59,2.87,2.87,0,0,1,.22-1.17,3.22,3.22,0,0,1,.55-.87,4.62,4.62,0,0,1,.73-.62,4.7,4.7,0,0,1,.75-.41Zm1.5.78-.79.41a4.59,4.59,0,0,0-1.13.83,1.67,1.67,0,0,0-.48,1.23,1.8,1.8,0,0,0,.15.73,1.44,1.44,0,0,0,.45.6,2,2,0,0,0,.78.39,3.84,3.84,0,0,0,1.14.15,2.73,2.73,0,0,0,1.93-.57,1.84,1.84,0,0,0,.59-1.4,1.56,1.56,0,0,0-.12-.64,2,2,0,0,0-.33-.48,2.35,2.35,0,0,0-.47-.36l-.55-.3Zm.18-1.73.66-.32a3.2,3.2,0,0,0,1.07-.8,1.72,1.72,0,0,0,.39-1.15,1.47,1.47,0,0,0-.17-.74,1.6,1.6,0,0,0-.46-.51,1.83,1.83,0,0,0-.68-.3,3.89,3.89,0,0,0-.85-.09,2.42,2.42,0,0,0-1.63.49,1.57,1.57,0,0,0-.55,1.22,1.7,1.7,0,0,0,.13.67,1.74,1.74,0,0,0,.33.5,2.45,2.45,0,0,0,.47.38l.55.31Z"/><path class="cls-1" d="M158.25,33.8a3.43,3.43,0,0,1,1.13.18,2.41,2.41,0,0,1,.9.54,2.58,2.58,0,0,1,.6.91,3.6,3.6,0,0,1,.21,1.29,2.91,2.91,0,0,1-.79,2.14,2.86,2.86,0,0,1-2.14.81,2.94,2.94,0,0,1-2.13-.78,2.86,2.86,0,0,1-.81-2.14,3,3,0,0,1,.21-1.14,2.9,2.9,0,0,1,.6-.94,3,3,0,0,1,1-.64A3.33,3.33,0,0,1,158.25,33.8Zm-.09,1.26a1.33,1.33,0,0,0-1.1.46,1.81,1.81,0,0,0-.36,1.22,2,2,0,0,0,.37,1.21,1.27,1.27,0,0,0,1.09.46,1.31,1.31,0,0,0,1.11-.46,2,2,0,0,0,.35-1.21,2,2,0,0,0-.33-1.22A1.27,1.27,0,0,0,158.16,35.06Zm7.23-2,1.17.71-8.29,14L157.1,47Zm.4,8a3.39,3.39,0,0,1,1.13.18,2.41,2.41,0,0,1,.9.54,2.54,2.54,0,0,1,.6.91,3.63,3.63,0,0,1,.21,1.29,2.91,2.91,0,0,1-.79,2.14,2.86,2.86,0,0,1-2.14.81,2.92,2.92,0,0,1-2.12-.78,2.84,2.84,0,0,1-.81-2.14,3.11,3.11,0,0,1,.2-1.14,2.86,2.86,0,0,1,1.56-1.57A3.15,3.15,0,0,1,165.79,41.07Zm-.09,1.26a1.36,1.36,0,0,0-1.1.46,1.81,1.81,0,0,0-.36,1.22,2,2,0,0,0,.37,1.21,1.29,1.29,0,0,0,1.09.46,1.31,1.31,0,0,0,1.11-.46,2,2,0,0,0,.35-1.21,2,2,0,0,0-.33-1.22A1.29,1.29,0,0,0,165.7,42.33Z"/><path class="cls-1" d="M425.86,16.19h1.28l.07-9.65h-1.42V5.07h4.14l3.64,9.38a4.28,4.28,0,0,1,.15.51c0,.17.09.34.14.51h0c.05-.17.1-.34.14-.51a4.28,4.28,0,0,1,.15-.51l3.6-9.38h3.92V6.54h-1.44l.08,9.65h1.36v1.48h-4.59V16.19h1.25l.07-8.51-.06,0c-.08.28-.15.56-.22.84a6.75,6.75,0,0,1-.26.84l-3.22,8.35h-2l-3.15-8a6.58,6.58,0,0,1-.31-1c-.07-.33-.15-.65-.25-1h0l-.08,8.48h1.43v1.48h-4.4Z"/><path class="cls-1" d="M443.68,8.94l.51-.24a7.67,7.67,0,0,1,.78-.27A10,10,0,0,1,446,8.19a9.32,9.32,0,0,1,1.36-.1,5.45,5.45,0,0,1,1.75.25,2.72,2.72,0,0,1,1.12.72,2.65,2.65,0,0,1,.61,1.12,5.69,5.69,0,0,1,.18,1.49c0,.76,0,1.51,0,2.26s0,1.51,0,2.26h1.26v1.48h-3c0-.3,0-.62,0-1a7.63,7.63,0,0,1,.13-1h0a4.4,4.4,0,0,1-.38.79,2.58,2.58,0,0,1-.59.69,3.11,3.11,0,0,1-.88.5,3.9,3.9,0,0,1-1.26.18,3.47,3.47,0,0,1-1.42-.25A2.7,2.7,0,0,1,444,17a2.16,2.16,0,0,1-.51-.86,3.11,3.11,0,0,1-.15-.93,2.44,2.44,0,0,1,.41-1.47,2.85,2.85,0,0,1,1-.86,4.14,4.14,0,0,1,1.31-.39c.47-.07.9-.12,1.28-.14l1.93-.11v-.7a3.24,3.24,0,0,0-.09-.79,1.38,1.38,0,0,0-.33-.62,1.48,1.48,0,0,0-.64-.41,3.24,3.24,0,0,0-1-.14,4,4,0,0,0-1,.12,5.24,5.24,0,0,0-.71.2v1.37h-1.8ZM445.3,15a1.17,1.17,0,0,0,.39.89,1.54,1.54,0,0,0,1.11.37,2.44,2.44,0,0,0,1-.21,2.19,2.19,0,0,0,.76-.54,2.23,2.23,0,0,0,.46-.75,2.62,2.62,0,0,0,.15-.88v-.37c-.53,0-1,0-1.49,0a6.21,6.21,0,0,0-1.25.19,2,2,0,0,0-.85.44A1.08,1.08,0,0,0,445.3,15Z"/><path class="cls-1" d="M453.71,16.19h1.13l.08-10.89h-1.64V3.83h3.65l-.07,12.36h1.26v1.48h-4.41Z"/><path class="cls-1" d="M467.46,17.24a11.52,11.52,0,0,1-1.36.42,7.7,7.7,0,0,1-1.93.22,5.6,5.6,0,0,1-2.08-.35,4.41,4.41,0,0,1-1.55-1,4,4,0,0,1-1-1.53,5.73,5.73,0,0,1-.33-2,6.43,6.43,0,0,1,.28-1.95,4.56,4.56,0,0,1,.88-1.57,4.1,4.1,0,0,1,1.44-1,4.91,4.91,0,0,1,2-.38,4.44,4.44,0,0,1,1.84.37,3.55,3.55,0,0,1,1.32,1,4.61,4.61,0,0,1,.8,1.56,7,7,0,0,1,.27,2v.27h-6.7a3.08,3.08,0,0,0,.24,1.24,2.88,2.88,0,0,0,.67.94,2.77,2.77,0,0,0,1,.6,3.78,3.78,0,0,0,1.28.21,6.08,6.08,0,0,0,1.64-.21,7.1,7.1,0,0,0,1.37-.51Zm-1.53-5.3v-.18a2.16,2.16,0,0,0-.11-.66,2.21,2.21,0,0,0-.36-.72,2,2,0,0,0-.67-.58,2.26,2.26,0,0,0-1.07-.23,2.48,2.48,0,0,0-1.08.21,2.21,2.21,0,0,0-.71.55,2.27,2.27,0,0,0-.42.76,3.17,3.17,0,0,0-.15.85Z"/><path class="cls-1" d="M330.5,35.73a7.59,7.59,0,0,0-.77-.22,5.58,5.58,0,0,0-1.27-.13,4.81,4.81,0,0,0-1.84.32,3.31,3.31,0,0,0-1.28.92,4.51,4.51,0,0,0-.81,1.47,9.86,9.86,0,0,0-.44,2l0,0a4.76,4.76,0,0,1,.45-.46,3.35,3.35,0,0,1,.63-.44,4.38,4.38,0,0,1,.82-.33,3.69,3.69,0,0,1,1-.14,4.62,4.62,0,0,1,1.57.26,3.59,3.59,0,0,1,1.23.76,3.44,3.44,0,0,1,.79,1.2,4.32,4.32,0,0,1,.28,1.58,5.17,5.17,0,0,1-.32,1.85,3.93,3.93,0,0,1-.88,1.38,3.78,3.78,0,0,1-1.36.87,4.71,4.71,0,0,1-1.76.31,4.13,4.13,0,0,1-2.17-.53A4.17,4.17,0,0,1,323,45a6,6,0,0,1-.74-1.88,9.87,9.87,0,0,1-.23-2.07,11.13,11.13,0,0,1,.33-2.72A6.45,6.45,0,0,1,323.47,36a5.28,5.28,0,0,1,2-1.63,6.66,6.66,0,0,1,3-.61,7.42,7.42,0,0,1,1.05.08c.34.06.63.11.86.17l.27.09Zm-6.41,5.81a6.3,6.3,0,0,0,.16,1.49,3.61,3.61,0,0,0,.49,1.18,2.26,2.26,0,0,0,.8.77,2.21,2.21,0,0,0,1.12.27,2,2,0,0,0,1-.22,2.29,2.29,0,0,0,.71-.56,2.57,2.57,0,0,0,.43-.82,3.57,3.57,0,0,0,.14-1,3.12,3.12,0,0,0-.12-.85,2.27,2.27,0,0,0-.42-.76,2.14,2.14,0,0,0-.73-.54,2.62,2.62,0,0,0-1.07-.2,3,3,0,0,0-.84.1,2.68,2.68,0,0,0-.62.25,2.85,2.85,0,0,0-.46.32c-.14.12-.26.22-.36.32Z"/><path class="cls-1" d="M332.24,41.56l5.26-7.49h2.44l-.07,7.49h2.38v1.58h-2.38l0,2h1.49v1.48h-4.71V45.19H338l0-2h-5.74ZM338,36l0,0-3.78,5.59.46,0H338Z"/><path class="cls-1" d="M343.69,45.55a1.37,1.37,0,1,1,.4,1A1.34,1.34,0,0,1,343.69,45.55Z"/><path class="cls-1" d="M348.55,45.19l.48-.37,1.06-.85c.41-.34.84-.7,1.28-1.1s.87-.82,1.3-1.27a16.08,16.08,0,0,0,1.17-1.37,7.24,7.24,0,0,0,.84-1.42,3.35,3.35,0,0,0,.31-1.37,2.05,2.05,0,0,0-.48-1.4,2.09,2.09,0,0,0-1.61-.55,2.06,2.06,0,0,0-1.81.89,2.51,2.51,0,0,0-.36.76,2.18,2.18,0,0,0-.11.62h-2a4.47,4.47,0,0,1,.2-1.17,3.67,3.67,0,0,1,.7-1.3,4.23,4.23,0,0,1,1.34-1.06A4.63,4.63,0,0,1,353,33.8a5.39,5.39,0,0,1,1.58.23,3.84,3.84,0,0,1,1.28.69,3.17,3.17,0,0,1,.85,1.12A3.65,3.65,0,0,1,357,37.4a4.62,4.62,0,0,1-.58,2.21A11.11,11.11,0,0,1,355,41.68a19.75,19.75,0,0,1-1.83,1.83c-.64.57-1.23,1.07-1.76,1.5v0l.55,0,.82,0h4.68v1.69h-8.91Z"/><path class="cls-1" d="M362.14,33.8a3.43,3.43,0,0,1,1.13.18,2.41,2.41,0,0,1,.9.54,2.58,2.58,0,0,1,.6.91,3.6,3.6,0,0,1,.21,1.29,2.91,2.91,0,0,1-.79,2.14,2.86,2.86,0,0,1-2.14.81,2.94,2.94,0,0,1-2.13-.78,2.86,2.86,0,0,1-.81-2.14,3,3,0,0,1,.21-1.14,2.9,2.9,0,0,1,.6-.94,3,3,0,0,1,1-.64A3.33,3.33,0,0,1,362.14,33.8Zm-.09,1.26a1.33,1.33,0,0,0-1.1.46,1.81,1.81,0,0,0-.36,1.22A2,2,0,0,0,361,38a1.27,1.27,0,0,0,1.09.46,1.31,1.31,0,0,0,1.11-.46,2,2,0,0,0,.35-1.21,2,2,0,0,0-.33-1.22A1.27,1.27,0,0,0,362.05,35.06Zm7.23-2,1.17.71-8.29,14L361,47Zm.4,8a3.39,3.39,0,0,1,1.13.18,2.41,2.41,0,0,1,.9.54,2.54,2.54,0,0,1,.6.91,3.63,3.63,0,0,1,.21,1.29,2.91,2.91,0,0,1-.79,2.14,2.86,2.86,0,0,1-2.14.81,2.92,2.92,0,0,1-2.12-.78,2.84,2.84,0,0,1-.81-2.14,3.33,3.33,0,0,1,.2-1.14,2.86,2.86,0,0,1,1.56-1.57A3.15,3.15,0,0,1,369.68,41.07Zm-.09,1.26a1.36,1.36,0,0,0-1.1.46,1.81,1.81,0,0,0-.36,1.22,2,2,0,0,0,.37,1.21,1.29,1.29,0,0,0,1.09.46,1.31,1.31,0,0,0,1.11-.46,2,2,0,0,0,.35-1.21,2,2,0,0,0-.33-1.22A1.29,1.29,0,0,0,369.59,42.33Z"/><path class="cls-1" d="M396.43,0H196.78V23.69H396.43c5.52,0,10-5.3,10-11.84h0C406.43,5.3,402,0,396.43,0Z"/></g></g></svg>
