<svg xmlns="http://www.w3.org/2000/svg" viewBox="0 0 406.01 428.25"><defs><style>.cls-1{fill:#d6e5e9;}.cls-2{fill:#3f5163;}.cls-3{fill:#37bfbf;}</style></defs><title>Asset 18</title><g id="Layer_2" data-name="Layer 2"><g id="Guides"><rect class="cls-1" x="5.45" y="411.73" width="14.5" height="14.5" rx="2" ry="2"/><path class="cls-2" d="M31.19,417.49a7.92,7.92,0,0,1,.45-2.72,6.13,6.13,0,0,1,1.27-2.13,5.54,5.54,0,0,1,2-1.39,6.79,6.79,0,0,1,2.64-.5,6.33,6.33,0,0,1,2.45.45,5,5,0,0,1,1.83,1.25,5.4,5.4,0,0,1,1.16,2,8.68,8.68,0,0,1,0,5.08,6.2,6.2,0,0,1-1.13,2.16,5.79,5.79,0,0,1-1.94,1.53,6.06,6.06,0,0,1-2.75.59,6.78,6.78,0,0,1-2.49-.44,5.17,5.17,0,0,1-1.88-1.27,5.52,5.52,0,0,1-1.2-2A7.7,7.7,0,0,1,31.19,417.49Zm2.23-.09a6.79,6.79,0,0,0,.22,1.76,4.42,4.42,0,0,0,.71,1.5,3.44,3.44,0,0,0,1.19,1,3.54,3.54,0,0,0,1.71.38,3.41,3.41,0,0,0,2-.53,3.75,3.75,0,0,0,1.19-1.29,5,5,0,0,0,.56-1.61,9.7,9.7,0,0,0,.13-1.5,8.69,8.69,0,0,0-.16-1.68,4.26,4.26,0,0,0-.59-1.51,3.25,3.25,0,0,0-1.14-1.1,3.61,3.61,0,0,0-1.84-.42,4.09,4.09,0,0,0-1.51.28,3.42,3.42,0,0,0-1.28.88,4.33,4.33,0,0,0-.88,1.54A7,7,0,0,0,33.42,417.4Z"/><path class="cls-2" d="M44.58,414.21H47.8c0,.34,0,.67,0,1s-.08.63-.13.91h0a3.32,3.32,0,0,1,1.13-1.54,3.21,3.21,0,0,1,2-.59,4.07,4.07,0,0,1,1.57.31,3.49,3.49,0,0,1,1.24.87,4.11,4.11,0,0,1,.82,1.4,5.69,5.69,0,0,1,.29,1.87,6.62,6.62,0,0,1-.33,2.14,4.81,4.81,0,0,1-1,1.69,4.37,4.37,0,0,1-1.58,1.12,5.57,5.57,0,0,1-2.15.4,6.14,6.14,0,0,1-1-.08,3.68,3.68,0,0,1-.88-.23l0,3.13h1.5v1.48H44.78v-1.48h1l.07-10.92H44.58Zm3.29,7.6a3.49,3.49,0,0,0,1.8.39,2.61,2.61,0,0,0,1.24-.28,2.55,2.55,0,0,0,.91-.75,3.41,3.41,0,0,0,.56-1.11,4.42,4.42,0,0,0,.19-1.31,5.24,5.24,0,0,0-.14-1.22,3,3,0,0,0-.43-1,2,2,0,0,0-.71-.64,2.26,2.26,0,0,0-2.82.7,4.76,4.76,0,0,0-.6,2.58Z"/><path class="cls-2" d="M64.32,423.14a11,11,0,0,1-1.36.42,7.68,7.68,0,0,1-1.93.23,5.85,5.85,0,0,1-2.08-.35,4.58,4.58,0,0,1-1.55-1,4.17,4.17,0,0,1-1-1.53,5.73,5.73,0,0,1-.33-2,6.13,6.13,0,0,1,.29-1.95,4.26,4.26,0,0,1,.87-1.56,4,4,0,0,1,1.44-1.05,4.91,4.91,0,0,1,2-.38,4.44,4.44,0,0,1,1.84.37,3.59,3.59,0,0,1,1.33,1,4.73,4.73,0,0,1,.79,1.57,6.87,6.87,0,0,1,.27,2v.27h-6.7a3.08,3.08,0,0,0,.24,1.24,3,3,0,0,0,.67.94,2.79,2.79,0,0,0,1,.61,4.06,4.06,0,0,0,1.29.2,6.5,6.5,0,0,0,1.63-.2,7.1,7.1,0,0,0,1.37-.52Zm-1.53-5.29v-.18a2.47,2.47,0,0,0-.1-.67,2.7,2.7,0,0,0-.36-.72,2.16,2.16,0,0,0-.68-.58,2.26,2.26,0,0,0-1.07-.23,2.34,2.34,0,0,0-1.08.22,2,2,0,0,0-.71.55,2.13,2.13,0,0,0-.42.75,3.17,3.17,0,0,0-.15.86Z"/><path class="cls-2" d="M66.32,422.09h1.06l0-6.4H66.11v-1.48h3.33c0,.31,0,.64,0,1s-.07.7-.13,1.1h0a3.61,3.61,0,0,1,.42-.86,2.9,2.9,0,0,1,.67-.73,3.45,3.45,0,0,1,1-.51,4.07,4.07,0,0,1,1.26-.19A3,3,0,0,1,75,415a4,4,0,0,1,.8,2.65c0,.76,0,1.51,0,2.24s0,1.49,0,2.24H77v1.48H72.69v-1.48h1.07c0-.68,0-1.37,0-2.06s0-1.37,0-2.06a2.83,2.83,0,0,0-.46-1.64,1.63,1.63,0,0,0-1.43-.64,2.24,2.24,0,0,0-1.74.76,3.15,3.15,0,0,0-.73,2.08l-.07,3.56h1.26v1.48H66.32Z"/><rect class="cls-3" x="132.86" y="409.73" width="14.5" height="14.5" rx="2" ry="2"/><path class="cls-2" d="M158.47,422.09h1.28l.07-9.64H158.4V411h4.14l3.64,9.38a4.91,4.91,0,0,1,.15.51c0,.18.09.35.14.51h0c.05-.16.09-.33.14-.51a4.91,4.91,0,0,1,.15-.51l3.6-9.38h3.92v1.48h-1.44l.08,9.64h1.36v1.48h-4.59v-1.48H171l.07-8.51-.06,0c-.08.28-.16.56-.22.84a6.75,6.75,0,0,1-.26.84l-3.22,8.35h-2l-3.15-8a6.58,6.58,0,0,1-.31-1c-.07-.33-.15-.65-.25-1h0l-.08,8.47h1.43v1.48h-4.4Z"/><path class="cls-2" d="M176.29,414.84l.51-.23a5.27,5.27,0,0,1,.78-.28,10,10,0,0,1,1.06-.24A9.22,9.22,0,0,1,180,414a5.17,5.17,0,0,1,1.75.26,2.67,2.67,0,0,1,1.12.71,2.76,2.76,0,0,1,.61,1.12,6.25,6.25,0,0,1,.17,1.5c0,.75,0,1.51,0,2.25s0,1.51,0,2.26h1.26v1.48h-3c0-.3,0-.62,0-1a6.1,6.1,0,0,1,.13-1h0a4.66,4.66,0,0,1-.38.78,2.77,2.77,0,0,1-.59.69,2.89,2.89,0,0,1-.88.5,3.89,3.89,0,0,1-1.26.19,3.46,3.46,0,0,1-1.42-.26,2.73,2.73,0,0,1-.92-.63,2.38,2.38,0,0,1-.5-.87,3.11,3.11,0,0,1-.15-.93,2.37,2.37,0,0,1,.41-1.47,2.85,2.85,0,0,1,1-.86,4.33,4.33,0,0,1,1.31-.39c.47-.07.89-.11,1.28-.14l1.92-.11v-.7a3.84,3.84,0,0,0-.08-.79,1.38,1.38,0,0,0-.33-.62,1.57,1.57,0,0,0-.64-.41,3.24,3.24,0,0,0-1-.14,4.09,4.09,0,0,0-1,.12c-.31.08-.54.14-.7.2v1.37h-1.8Zm1.62,6.1a1.17,1.17,0,0,0,.39.89,1.54,1.54,0,0,0,1.11.37,2.61,2.61,0,0,0,1-.2,2.49,2.49,0,0,0,.76-.54,2.38,2.38,0,0,0,.61-1.63v-.38c-.53,0-1,0-1.49,0a7,7,0,0,0-1.25.19,2.07,2.07,0,0,0-.85.44A1.08,1.08,0,0,0,177.91,420.94Z"/><path class="cls-2" d="M186.23,422.09h1.22l0-6.4h-1.42v-1.48h3.43l0,7.88h1.26v1.48h-4.5Zm.88-11.19a1.4,1.4,0,0,1,1.39-1.39,1.34,1.34,0,0,1,1,.41,1.32,1.32,0,0,1,.4,1,1.37,1.37,0,0,1-1.38,1.38,1.32,1.32,0,0,1-1-.4A1.34,1.34,0,0,1,187.11,410.9Z"/><path class="cls-2" d="M192.06,422.09h1.06l0-6.4h-1.32v-1.48h3.33c0,.31,0,.64,0,1s-.08.7-.14,1.1h0a3.57,3.57,0,0,1,.41-.86,3.14,3.14,0,0,1,.68-.73,3.45,3.45,0,0,1,.95-.51,4,4,0,0,1,1.25-.19,3,3,0,0,1,2.46,1,4,4,0,0,1,.8,2.65c0,.76,0,1.51,0,2.24s0,1.49-.05,2.24h1.22v1.48h-4.3v-1.48h1.06c0-.68,0-1.37,0-2.06s0-1.37,0-2.06a2.83,2.83,0,0,0-.46-1.64,1.65,1.65,0,0,0-1.43-.64,2.24,2.24,0,0,0-1.74.76,3.1,3.1,0,0,0-.73,2.08l-.07,3.56h1.26v1.48h-4.34Z"/><path class="cls-2" d="M203.74,414.21h1.42l0-2.11,2-.14-.07,2.25h2.68v1.48h-2.68c0,.75,0,1.49,0,2.22s0,1.44,0,2.15a6.16,6.16,0,0,0,.07,1.06,1.69,1.69,0,0,0,.23.66.86.86,0,0,0,.41.33,1.72,1.72,0,0,0,.6.09,2.85,2.85,0,0,0,.82-.11,5.07,5.07,0,0,0,.75-.25l-.08,1.48a4.25,4.25,0,0,1-.92.33,4.83,4.83,0,0,1-1.15.14,4.24,4.24,0,0,1-1.26-.16,1.89,1.89,0,0,1-.85-.49,2.19,2.19,0,0,1-.49-.89,5.21,5.21,0,0,1-.15-1.34c0-.3,0-.67,0-1.1s0-.89,0-1.36,0-.95,0-1.43v-1.33h-1.42Z"/><path class="cls-2" d="M211.32,414.84l.5-.23a5.91,5.91,0,0,1,.79-.28,9.44,9.44,0,0,1,1.06-.24A9.11,9.11,0,0,1,215,414a5.1,5.1,0,0,1,1.74.26,2.54,2.54,0,0,1,1.73,1.83,5.76,5.76,0,0,1,.18,1.5c0,.75,0,1.51,0,2.25s0,1.51,0,2.26h1.26v1.48h-3c0-.3,0-.62,0-1a7.5,7.5,0,0,1,.12-1h0a5.59,5.59,0,0,1-.38.78,2.81,2.81,0,0,1-.6.69,2.77,2.77,0,0,1-.88.5,3.89,3.89,0,0,1-1.26.19,3.45,3.45,0,0,1-1.41-.26,2.73,2.73,0,0,1-.92-.63,2.38,2.38,0,0,1-.5-.87,3.13,3.13,0,0,1-.16-.93,2.37,2.37,0,0,1,.42-1.47,2.82,2.82,0,0,1,1-.86,4.48,4.48,0,0,1,1.32-.39c.47-.07.89-.11,1.28-.14l1.92-.11v-.7a3.24,3.24,0,0,0-.09-.79,1.47,1.47,0,0,0-.32-.62,1.65,1.65,0,0,0-.64-.41,3.26,3.26,0,0,0-1-.14,4,4,0,0,0-1,.12c-.31.08-.54.14-.7.2v1.37h-1.8Zm1.62,6.1a1.17,1.17,0,0,0,.39.89,1.51,1.51,0,0,0,1.1.37,2.62,2.62,0,0,0,1-.2,2.33,2.33,0,0,0,.75-.54,2.21,2.21,0,0,0,.46-.76,2.35,2.35,0,0,0,.16-.87v-.38c-.53,0-1,0-1.5,0a6.89,6.89,0,0,0-1.24.19,2.07,2.07,0,0,0-.85.44A1.08,1.08,0,0,0,212.94,420.94Z"/><path class="cls-2" d="M221.26,422.09h1.22l0-6.4h-1.43v-1.48h3.44l0,7.88h1.26v1.48h-4.5Zm.88-11.19a1.32,1.32,0,0,1,.4-1,1.39,1.39,0,0,1,2,0,1.32,1.32,0,0,1,.4,1,1.39,1.39,0,1,1-2.77,0Z"/><path class="cls-2" d="M227.09,422.09h1.06l0-6.4h-1.32v-1.48h3.33c0,.31,0,.64,0,1s-.08.7-.14,1.1h0a3.23,3.23,0,0,1,.41-.86,2.94,2.94,0,0,1,.68-.73,3.31,3.31,0,0,1,.95-.51,4,4,0,0,1,1.25-.19,3,3,0,0,1,2.46,1,4,4,0,0,1,.8,2.65c0,.76,0,1.51,0,2.24s0,1.49,0,2.24h1.22v1.48h-4.3v-1.48h1.06c0-.68,0-1.37,0-2.06s0-1.37,0-2.06a2.83,2.83,0,0,0-.45-1.64,1.65,1.65,0,0,0-1.44-.64,2.23,2.23,0,0,0-1.73.76,3.05,3.05,0,0,0-.73,2.08l-.07,3.56h1.26v1.48h-4.34Z"/><rect class="cls-2" x="292.27" y="409.73" width="14.5" height="13.34" rx="2" ry="2"/><path class="cls-2" d="M318.1,422.25h1.26l.07-9.64H318v-1.48h8.85l.07,3.31h-1.69l-.11-1.83h-3.65l0,3.88H325v1.59h-3.6l0,4.17h3.83l.15-2.05h1.71l-.15,3.53H318.1Z"/><path class="cls-2" d="M334.25,422.25h1.17l-.17-.16-.17-.16L333.4,420l-1.78,1.94a1.07,1.07,0,0,1-.36.29v0h1.3v1.48h-4.07v-1.48h1l3-3.24-2.75-3.16h-1.08v-1.48h4.5v1.48H332l.17.16.17.16,1.49,1.75,1.55-1.75a1.39,1.39,0,0,1,.36-.29v0h-1.22v-1.48h4v1.48h-1l-2.79,2.95,3,3.45h1.05v1.48h-4.5Z"/><path class="cls-2" d="M339.76,414.37H343a8.26,8.26,0,0,1-.06,1c0,.33-.07.63-.12.91h0a3.34,3.34,0,0,1,1.14-1.54,3.17,3.17,0,0,1,2-.59,4,4,0,0,1,1.56.31,3.8,3.8,0,0,1,1.25.87,4.28,4.28,0,0,1,.82,1.4,5.69,5.69,0,0,1,.29,1.87,6.62,6.62,0,0,1-.33,2.14,4.73,4.73,0,0,1-1,1.69,4.21,4.21,0,0,1-1.59,1.12,5.48,5.48,0,0,1-2.14.4,6.14,6.14,0,0,1-1-.08,3.56,3.56,0,0,1-.88-.23l0,3.13h1.5v1.48H340v-1.48H341l.07-10.92h-1.31Zm3.29,7.6a3.49,3.49,0,0,0,1.8.39,2.61,2.61,0,0,0,1.24-.28,2.64,2.64,0,0,0,.91-.75,3.41,3.41,0,0,0,.56-1.11,4.42,4.42,0,0,0,.19-1.31,4.74,4.74,0,0,0-.15-1.22,2.77,2.77,0,0,0-.42-1,2,2,0,0,0-.71-.64,2,2,0,0,0-1-.23,2,2,0,0,0-1.84.93,4.85,4.85,0,0,0-.59,2.58Z"/><path class="cls-2" d="M352.07,415l.5-.23a6.26,6.26,0,0,1,.78-.28,9.65,9.65,0,0,1,1.07-.24,9.11,9.11,0,0,1,1.36-.1,5.15,5.15,0,0,1,1.74.26,2.7,2.7,0,0,1,1.13.71,2.63,2.63,0,0,1,.6,1.12,5.76,5.76,0,0,1,.18,1.5c0,.75,0,1.51,0,2.26s0,1.5,0,2.25h1.26v1.48h-3q0-.45,0-1a9.67,9.67,0,0,1,.13-1h0a4.59,4.59,0,0,1-.37.78,2.81,2.81,0,0,1-.6.69,2.77,2.77,0,0,1-.88.5,3.89,3.89,0,0,1-1.26.19,3.45,3.45,0,0,1-1.41-.26,2.63,2.63,0,0,1-.92-.63,2.41,2.41,0,0,1-.51-.87,3.11,3.11,0,0,1-.15-.93,2.37,2.37,0,0,1,.42-1.47,2.74,2.74,0,0,1,1-.86,4.48,4.48,0,0,1,1.32-.39c.46-.07.89-.11,1.27-.14l1.93-.11v-.7a3.24,3.24,0,0,0-.09-.79,1.47,1.47,0,0,0-.32-.62,1.65,1.65,0,0,0-.64-.41,3.26,3.26,0,0,0-1-.14,4,4,0,0,0-1,.12,7,7,0,0,0-.7.2v1.37h-1.8Zm1.62,6.1a1.19,1.19,0,0,0,.38.89,1.54,1.54,0,0,0,1.11.37,2.62,2.62,0,0,0,1.05-.2,2.33,2.33,0,0,0,.75-.54,2.21,2.21,0,0,0,.46-.76,2.57,2.57,0,0,0,.15-.87v-.38c-.52,0-1,0-1.49,0a6.89,6.89,0,0,0-1.24.19,2.11,2.11,0,0,0-.86.44A1.07,1.07,0,0,0,353.69,421.1Z"/><path class="cls-2" d="M362.17,422.25h1.06l0-6.4H362v-1.48h3.33c0,.31,0,.64,0,1s-.07.7-.13,1.1h0a3.23,3.23,0,0,1,.41-.86,2.9,2.9,0,0,1,.67-.73,3.37,3.37,0,0,1,1-.51,4,4,0,0,1,1.25-.19,3,3,0,0,1,2.46,1,4,4,0,0,1,.8,2.65c0,.76,0,1.51,0,2.24s0,1.49,0,2.24h1.22v1.48h-4.3v-1.48h1.06c0-.68,0-1.37,0-2.06s0-1.37,0-2.06a2.76,2.76,0,0,0-.46-1.64,1.62,1.62,0,0,0-1.43-.64,2.27,2.27,0,0,0-1.74.76,3.1,3.1,0,0,0-.72,2.08l-.08,3.56h1.26v1.48h-4.33Z"/><path class="cls-2" d="M384,423.73h-3.17a8.26,8.26,0,0,1,.06-1c0-.33.07-.63.12-.91h0a3.34,3.34,0,0,1-1.14,1.54,3.17,3.17,0,0,1-2,.59,4,4,0,0,1-1.56-.31,3.54,3.54,0,0,1-1.23-.87,4.11,4.11,0,0,1-.82-1.4,5.44,5.44,0,0,1-.29-1.87,6.61,6.61,0,0,1,.33-2.13,4.77,4.77,0,0,1,1-1.7,4.37,4.37,0,0,1,1.58-1.12,5.54,5.54,0,0,1,2.13-.4,7.63,7.63,0,0,1,1,.07c.31,0,.61.09.88.15l0-3h-1.71v-1.47h3.65l-.07,12.36H384Zm-3.24-7.6a3.46,3.46,0,0,0-1.78-.39,2.61,2.61,0,0,0-1.24.28,2.66,2.66,0,0,0-.91.75,3.23,3.23,0,0,0-.56,1.11,4.42,4.42,0,0,0-.19,1.31,5.24,5.24,0,0,0,.14,1.22,3,3,0,0,0,.43,1,2,2,0,0,0,.7.64,2,2,0,0,0,1,.23,2,2,0,0,0,1.82-.93,4.85,4.85,0,0,0,.59-2.58Z"/><path class="cls-2" d="M0,40.21l5.26-7.49H7.7l-.07,7.49H10V41.8H7.63l0,2.05H9.09v1.47H4.37V43.85H5.71l0-2.05H0Zm5.78-5.52,0,0L2,40.25l.46,0H5.74Z"/><path class="cls-2" d="M19.49,34.38c-.16-.06-.42-.13-.76-.22A5.7,5.7,0,0,0,17.46,34a4.87,4.87,0,0,0-1.85.31,3.28,3.28,0,0,0-1.27.92,4.22,4.22,0,0,0-.81,1.48,9.7,9.7,0,0,0-.44,2l0,0a6.27,6.27,0,0,1,.45-.46,3.88,3.88,0,0,1,.63-.44,4.12,4.12,0,0,1,.82-.33,3.7,3.7,0,0,1,1-.13,4.38,4.38,0,0,1,1.57.26,3.38,3.38,0,0,1,1.22.75,3.33,3.33,0,0,1,.8,1.2,4.4,4.4,0,0,1,.28,1.58A5.13,5.13,0,0,1,19.61,43a3.89,3.89,0,0,1-.88,1.39,4.07,4.07,0,0,1-1.36.87,5,5,0,0,1-1.76.3,4,4,0,0,1-2.17-.53A4.14,4.14,0,0,1,12,43.7a5.84,5.84,0,0,1-.75-1.89,9.71,9.71,0,0,1-.22-2.07A11.55,11.55,0,0,1,11.39,37a6.64,6.64,0,0,1,1.07-2.33,5.3,5.3,0,0,1,2-1.63,6.66,6.66,0,0,1,3-.62,6,6,0,0,1,1,.09,7.91,7.91,0,0,1,.87.17l.27.09Zm-6.4,5.81a6.45,6.45,0,0,0,.16,1.5,3.94,3.94,0,0,0,.48,1.18,2.41,2.41,0,0,0,.8.76,2.28,2.28,0,0,0,1.13.27,2.1,2.1,0,0,0,1-.21,2.31,2.31,0,0,0,.7-.57,2.4,2.4,0,0,0,.44-.82,3.5,3.5,0,0,0,.14-1,2.8,2.8,0,0,0-.13-.86,2,2,0,0,0-.41-.75,2.24,2.24,0,0,0-.73-.54A2.46,2.46,0,0,0,15.57,39a3,3,0,0,0-.84.1,3.21,3.21,0,0,0-.62.25,2.8,2.8,0,0,0-.47.33l-.36.31Z"/><path class="cls-2" d="M22.07,44.21a1.32,1.32,0,0,1,.4-1,1.34,1.34,0,0,1,1-.41,1.4,1.4,0,0,1,1.39,1.39,1.34,1.34,0,0,1-.41,1,1.32,1.32,0,0,1-1,.4,1.37,1.37,0,0,1-1.38-1.38Z"/><path class="cls-2" d="M26.53,40.21l5.26-7.49h2.44l-.07,7.49h2.38V41.8H34.16l0,2.05h1.49v1.47H30.91V43.85h1.33l0-2.05H26.53Zm5.78-5.52,0,0-3.78,5.6.46,0h3.32Z"/><path class="cls-2" d="M40.52,32.45a3.48,3.48,0,0,1,1.13.18,2.41,2.41,0,0,1,.9.54,2.52,2.52,0,0,1,.59.91,3.42,3.42,0,0,1,.22,1.29,2.91,2.91,0,0,1-.79,2.14,2.86,2.86,0,0,1-2.14.81,2.94,2.94,0,0,1-2.13-.78,2.82,2.82,0,0,1-.81-2.13,3.13,3.13,0,0,1,.21-1.15,2.86,2.86,0,0,1,.6-.93,2.79,2.79,0,0,1,1-.64A3.15,3.15,0,0,1,40.52,32.45Zm-.09,1.26a1.36,1.36,0,0,0-1.1.46A1.81,1.81,0,0,0,39,35.39a2,2,0,0,0,.37,1.21,1.26,1.26,0,0,0,1.09.46,1.28,1.28,0,0,0,1.1-.46,1.89,1.89,0,0,0,.35-1.21,2,2,0,0,0-.32-1.22A1.31,1.31,0,0,0,40.43,33.71Zm7.23-2,1.17.7-8.3,14-1.17-.7Zm.4,8a3.43,3.43,0,0,1,1.13.18,2.41,2.41,0,0,1,.9.54,2.58,2.58,0,0,1,.6.91,3.54,3.54,0,0,1,.21,1.28,2.91,2.91,0,0,1-.79,2.14,2.86,2.86,0,0,1-2.14.81,2.94,2.94,0,0,1-2.13-.78A2.82,2.82,0,0,1,45,42.68a3,3,0,0,1,.21-1.14,2.8,2.8,0,0,1,.6-.94,3,3,0,0,1,1-.64A3.15,3.15,0,0,1,48.06,39.73ZM48,41a1.33,1.33,0,0,0-1.1.46,1.78,1.78,0,0,0-.36,1.21,2.08,2.08,0,0,0,.37,1.22,1.29,1.29,0,0,0,1.09.45,1.34,1.34,0,0,0,1.11-.45,2.34,2.34,0,0,0,0-2.43A1.27,1.27,0,0,0,48,41Z"/><path class="cls-2" d="M294.69,12.15h2.44l.08-9.23-.37.32a3.18,3.18,0,0,1-.37.27L294.18,5l-.83-1.37L297.64,1h1.58l-.07,11.12h2.63v1.48h-7.09Z"/><path class="cls-2" d="M303.74,12.15l.49-.38,1-.84c.41-.34.84-.71,1.28-1.1s.87-.82,1.3-1.27A14.76,14.76,0,0,0,309,7.18a7.48,7.48,0,0,0,.84-1.41,3.39,3.39,0,0,0,.31-1.38A2,2,0,0,0,309.7,3a2,2,0,0,0-1.6-.55,2.25,2.25,0,0,0-1.13.26,2.1,2.1,0,0,0-.69.63,2.46,2.46,0,0,0-.36.75,2.61,2.61,0,0,0-.11.62h-2a4.47,4.47,0,0,1,.2-1.17,3.76,3.76,0,0,1,.7-1.3A4.14,4.14,0,0,1,306,1.19a4.56,4.56,0,0,1,2.13-.43,5.07,5.07,0,0,1,1.58.23,3.83,3.83,0,0,1,1.28.68,3.36,3.36,0,0,1,.86,1.13,3.81,3.81,0,0,1,.31,1.56,4.61,4.61,0,0,1-.58,2.2,10.49,10.49,0,0,1-1.43,2.07,19.77,19.77,0,0,1-1.82,1.84q-1,.85-1.77,1.5v0a4.41,4.41,0,0,1,.55-.06l.82,0h4.68v1.7h-8.91Z"/><path class="cls-2" d="M314.79,12.51a1.34,1.34,0,0,1,.41-1,1.33,1.33,0,0,1,1-.41,1.39,1.39,0,1,1,0,2.77,1.32,1.32,0,0,1-1-.4A1.34,1.34,0,0,1,314.79,12.51Z"/><path class="cls-2" d="M327.66,1V2.61h-5.27l-.07,3h.3a11.73,11.73,0,0,1,1.77.15,6.07,6.07,0,0,1,1.82.59,4.06,4.06,0,0,1,1.43,1.24,3.34,3.34,0,0,1,.58,2.05,4.17,4.17,0,0,1-.35,1.7,4,4,0,0,1-1,1.35,4.56,4.56,0,0,1-1.56.88,6,6,0,0,1-2,.31,10.08,10.08,0,0,1-1.81-.14,7.41,7.41,0,0,1-1.45-.39v-1.7l.39.15c.17.06.38.12.62.18a7.78,7.78,0,0,0,.85.15,8.83,8.83,0,0,0,1.09.06,3.62,3.62,0,0,0,2.31-.63,2.19,2.19,0,0,0,.79-1.81,1.94,1.94,0,0,0-.46-1.35,3,3,0,0,0-1.23-.78,6.78,6.78,0,0,0-1.75-.35c-.66,0-1.34-.08-2-.08h-.32L320.37,1Z"/><path class="cls-2" d="M333.24.76a3.49,3.49,0,0,1,1.14.18,2.55,2.55,0,0,1,.9.53,2.52,2.52,0,0,1,.59.91,3.63,3.63,0,0,1,.22,1.29,2.92,2.92,0,0,1-.8,2.14,2.84,2.84,0,0,1-2.14.81A2.93,2.93,0,0,1,331,5.84a2.82,2.82,0,0,1-.81-2.13,3.35,3.35,0,0,1,.2-1.15,2.73,2.73,0,0,1,.61-.93A2.89,2.89,0,0,1,332,1,3.15,3.15,0,0,1,333.24.76ZM333.15,2a1.37,1.37,0,0,0-1.1.45,1.83,1.83,0,0,0-.36,1.22,2.1,2.1,0,0,0,.37,1.21,1.29,1.29,0,0,0,1.09.46,1.3,1.3,0,0,0,1.11-.46,2,2,0,0,0,.35-1.21,2.14,2.14,0,0,0-.32-1.22A1.32,1.32,0,0,0,333.15,2Zm7.24-2,1.17.7-8.3,14-1.17-.7Zm.39,8a3.49,3.49,0,0,1,1.14.18,2.41,2.41,0,0,1,.9.54,2.43,2.43,0,0,1,.59.91,3.33,3.33,0,0,1,.22,1.28,3,3,0,0,1-.79,2.15,2.87,2.87,0,0,1-2.15.8,2.93,2.93,0,0,1-2.12-.78,2.82,2.82,0,0,1-.81-2.13A3,3,0,0,1,338,9.84a2.65,2.65,0,0,1,.6-.94,2.89,2.89,0,0,1,.95-.64A3.4,3.4,0,0,1,340.78,8Zm-.09,1.26a1.31,1.31,0,0,0-1.09.46,1.69,1.69,0,0,0-.36,1.21,2.08,2.08,0,0,0,.36,1.22,1.57,1.57,0,0,0,2.2,0,2,2,0,0,0,.35-1.22,2.09,2.09,0,0,0-.32-1.21A1.3,1.3,0,0,0,340.69,9.29Z"/><path class="cls-2" d="M355.11,284.18l5.25-7.49h2.45l-.07,7.49h2.38v1.58h-2.38l0,2.05h1.5v1.48h-4.72v-1.48h1.33l0-2.05h-5.74Zm5.78-5.53,0,0-3.78,5.59.46,0h3.32Z"/><path class="cls-2" d="M367.69,287.81h2.45l.07-9.23-.37.32a2.51,2.51,0,0,1-.37.27l-2.28,1.52-.83-1.37,4.28-2.63h1.59l-.08,11.12h2.63v1.48h-7.09Z"/><path class="cls-2" d="M377.18,288.17a1.37,1.37,0,0,1,1.38-1.38,1.32,1.32,0,0,1,1,.4,1.34,1.34,0,0,1,.41,1,1.37,1.37,0,0,1-.41,1,1.32,1.32,0,0,1-1,.4,1.34,1.34,0,0,1-1-.4A1.36,1.36,0,0,1,377.18,288.17Z"/><path class="cls-2" d="M383.6,287.81h2.45l.07-9.23c-.13.12-.25.23-.37.32a2.07,2.07,0,0,1-.37.27l-2.28,1.52-.83-1.37,4.28-2.63h1.59l-.07,11.12h2.62v1.48H383.6Z"/><path class="cls-2" d="M395.63,276.42a3.48,3.48,0,0,1,1.13.18,2.41,2.41,0,0,1,.9.54,2.43,2.43,0,0,1,.59.91,3.38,3.38,0,0,1,.22,1.29,2.93,2.93,0,0,1-.79,2.14,2.86,2.86,0,0,1-2.14.81,2.94,2.94,0,0,1-2.13-.78,2.86,2.86,0,0,1-.81-2.14,3,3,0,0,1,.21-1.14,2.9,2.9,0,0,1,.6-.94,2.83,2.83,0,0,1,1-.64A3.33,3.33,0,0,1,395.63,276.42Zm-.09,1.26a1.33,1.33,0,0,0-1.1.46,1.76,1.76,0,0,0-.36,1.22,2,2,0,0,0,.37,1.21,1.26,1.26,0,0,0,1.09.46,1.28,1.28,0,0,0,1.1-.46,1.91,1.91,0,0,0,.35-1.21,2,2,0,0,0-.32-1.22A1.28,1.28,0,0,0,395.54,277.68Zm7.23-2,1.17.71-8.3,13.95-1.17-.7Zm.4,8a3.48,3.48,0,0,1,1.13.18,2.41,2.41,0,0,1,.9.54,2.52,2.52,0,0,1,.59.91,3.42,3.42,0,0,1,.22,1.29,2.91,2.91,0,0,1-.79,2.14,2.86,2.86,0,0,1-2.14.81,2.94,2.94,0,0,1-2.13-.78,2.84,2.84,0,0,1-.81-2.14,3.12,3.12,0,0,1,.21-1.14,2.86,2.86,0,0,1,.6-.93,2.74,2.74,0,0,1,1-.64A3.15,3.15,0,0,1,403.17,283.69Zm-.09,1.26a1.36,1.36,0,0,0-1.1.46,1.81,1.81,0,0,0-.36,1.22,2,2,0,0,0,.37,1.21,1.26,1.26,0,0,0,1.09.46,1.28,1.28,0,0,0,1.1-.46,1.9,1.9,0,0,0,.36-1.21,2,2,0,0,0-.33-1.22A1.29,1.29,0,0,0,403.08,285Z"/><path class="cls-2" d="M186.65,73.19v-40h-.13V19.31a165.61,165.61,0,0,0-35.46,327l9.87-42.54h0l2.31-9.95A111.72,111.72,0,0,1,186.65,73.19Z"/><path class="cls-3" d="M304.68,67.35,273.81,98.22l0,0-7.22,7.22A111.72,111.72,0,0,1,188,296.61a112.63,112.63,0,0,1-22.11-2.19l-9.05,39,.29.06L154,347A165.6,165.6,0,0,0,304.68,67.35Z"/><path class="cls-1" d="M302.5,65.22A165.08,165.08,0,0,0,189.56,19.31V33.23l-.12,0v40a111.35,111.35,0,0,1,75.17,30.36l28.3-28.3-.31-.12Z"/></g></g></svg>
