<svg xmlns="http://www.w3.org/2000/svg" viewBox="0 0 67.69 52.13"><defs><style>.cls-1{fill:#fff;opacity:0.5;}.cls-2{fill:#3f5163;}</style></defs><title>off-balance</title><g id="Layer_2" data-name="Layer 2"><g id="Guides"><path class="cls-1" d="M2,14.52s10-14.65,35.71-9S66.19,31.47,66.19,31.47s-10.53-8.22-20-2c0,0-8.23-10-25.18-6.43C21,23,18.15,16.57,2,14.52Z"/><path class="cls-2" d="M67.31,31.32A29.61,29.61,0,0,0,62.5,20C58.46,14,51,7.3,37.92,4.43A53.6,53.6,0,0,0,26.42,3.1c-8.93,0-15.28,2.65-19.37,5.33a22.53,22.53,0,0,0-6,5.45L0,15.4l1.83.23c8,1,12.53,3.08,15.08,4.83a11.62,11.62,0,0,1,2.5,2.21,4.73,4.73,0,0,1,.45.63l.08.14v0l.37.83.89-.19a32.73,32.73,0,0,1,6.9-.76,24.86,24.86,0,0,1,13,3.44,20.83,20.83,0,0,1,3.19,2.34c.34.32.6.58.77.76l.18.2,0,0h0l.63.78.85-.55a12.9,12.9,0,0,1,7.16-2.11,19.07,19.07,0,0,1,8.15,2.06,24.54,24.54,0,0,1,2.53,1.43l.67.46.17.12,0,0h0l2.19,1.71ZM53.93,26a15.16,15.16,0,0,0-7.57,2,21.49,21.49,0,0,0-4.1-3.14,27.1,27.1,0,0,0-14.15-3.76,35.06,35.06,0,0,0-6.57.66,13.17,13.17,0,0,0-3.36-3.15c-2.66-1.82-7-3.78-14-4.9a24.23,24.23,0,0,1,4.31-3.5c3.78-2.43,9.61-4.84,18-4.85a51.85,51.85,0,0,1,11,1.27C50,9.4,56.85,15.67,60.64,21.25a30.3,30.3,0,0,1,3.64,7.32c0,.15.1.29.14.43-.41-.23-.86-.47-1.36-.71A21,21,0,0,0,53.93,26Z"/><path class="cls-2" d="M32.88,22.56l-.69,3C30.93,31,28.31,42.24,27.54,45.34a9.38,9.38,0,0,1-1.42,3.26,3.78,3.78,0,0,1-1,1,1.89,1.89,0,0,1-1.05.31V51l.07-1.09h-.07V51l.07-1.09H24a1.26,1.26,0,0,0-.41.12l.5,1V49.88a2.77,2.77,0,0,1-1.65-.47,3.54,3.54,0,0,1-1.21-1.73,5.92,5.92,0,0,1-.22-.8l0-.23v0h0l-.48,0,.48,0h0l-.48,0,.48,0a1.14,1.14,0,0,0-1.22-1,1.12,1.12,0,0,0-1,1.22,7.09,7.09,0,0,0,.8,2.59,5.31,5.31,0,0,0,1.62,1.87,5.09,5.09,0,0,0,2.93.88h.27l.23-.11-.49-1v1.12a1.17,1.17,0,0,0,.49-.11l-.49-1v0L24,52.13h.06V51L24,52.13h.06a4.23,4.23,0,0,0,2.24-.65A6.73,6.73,0,0,0,28.53,49a12.73,12.73,0,0,0,1.2-3.11c1-4.19,5.34-22.81,5.34-22.82a1.12,1.12,0,0,0-2.19-.5Z"/><path class="cls-2" d="M22.08,23.23a18.89,18.89,0,0,1,3.51-7.51,28.35,28.35,0,0,1,8.07-7A32.52,32.52,0,0,1,36.83,7.1c.39-.18.7-.31.92-.4L38,6.61l.06,0h0l-.38-1L37,6.39l0,0a30.3,30.3,0,0,1,4.68,5.27,21.66,21.66,0,0,1,4.25,12.19,16.85,16.85,0,0,1-.82,5.2l2.14.69a19.21,19.21,0,0,0,.93-5.89,24,24,0,0,0-4.89-13.8A31.84,31.84,0,0,0,38.4,4.66l-.5-.41-.6.22A33.31,33.31,0,0,0,29.65,8.7a28.68,28.68,0,0,0-5.85,5.65,21,21,0,0,0-3.92,8.41l2.2.47Z"/><path class="cls-2" d="M38.77,5.81l1.14-4.4A1.13,1.13,0,0,0,37.73.84l-1.14,4.4a1.13,1.13,0,0,0,2.18.57"/></g></g></svg>