<svg id="Layer_1" data-name="Layer 1" xmlns="http://www.w3.org/2000/svg" viewBox="0 0 500 500"><defs><style>.cls-1{fill:#1b69aa;opacity:0.07;}.cls-2{opacity:0.3;}.cls-3{fill:#809365;}.cls-4{fill:#467240;}.cls-5{fill:#2f5927;}.cls-6{fill:#dfc3b8;}.cls-7{fill:#4d4d4d;}.cls-8{fill:#8c0000;}.cls-9{fill:#933737;}.cls-10,.cls-21,.cls-23{fill:none;}.cls-10{stroke:#4d4d4d;stroke-linecap:round;stroke-width:5px;}.cls-10,.cls-23,.cls-25{stroke-miterlimit:10;}.cls-11{fill:#1c272d;}.cls-12,.cls-25{fill:#fff;}.cls-13{fill:#71c65d;}.cls-14{fill:#3d322a;}.cls-15{fill:#9e584a;}.cls-16{fill:#f4cfc1;}.cls-17{fill:#ffd8c7;}.cls-18{fill:#6d524e;}.cls-19{fill:#f2f2f2;}.cls-20{fill:#ddd;}.cls-22{fill:#767d84;}.cls-23,.cls-25{stroke:#e5bbae;}.cls-23{stroke-width:0.5px;}.cls-24{fill:#e5bbae;}</style></defs><path class="cls-1" d="M318.74,435c-54,28.35-117.69,15-172.44-12C90.63,395.57,44.83,357.56,44.06,308.52,42.35,200,134,106.69,196.29,84.31,232.65,71.25,280.55,46.55,345,49.49c73.14,3.32,173.2,262.19,59.66,324.72C369.77,393.45,342.18,422.65,318.74,435Z"/><g class="cls-2"><path class="cls-3" d="M44.18,308.52c.77,49,46.57,87.05,102.24,114.46,54.75,26.95,118.4,40.32,172.44,12,23.44-12.3,51.78-41.27,85.95-60.74,42.16-24,54.18-67,50.16-113.64H50.67A151.44,151.44,0,0,0,44.18,308.52Z"/><path class="cls-4" d="M91.35,196.54c-1.78-10.49-2.87-22.78,6.33-30.07,4.08-3.23,9.56-4.87,14.86-6.41l22.92-6.69c11.15-3.25,23.1-5.36,33.16-.18,3.23,1.67,5.84,4.08,9.13,5.67A41.8,41.8,0,0,0,188,161.75l15.37,3c3.57.69,7.31,1.37,10.83.53,1.29-.3,2.51-.81,3.83-1,6.5-.95,10.65,5.37,13.62,10.29s10.51,10,15.26,6.13a51.25,51.25,0,0,1,3.39,28.65c-1.61,9.44-5.88,18.41-8.17,27.75-1.57,6.37-2.23,12.94-4.82,19.08s-7.54,12-14.87,14.2c-3.53,1.06-7.66,1.33-10.25,3.6-3.41,3-2.37,7.82-3.55,11.85-1.85,6.29-9.46,10.47-17.13,11.47s-15.44-.53-23-2c-19.62-4-38.23-8.93-57.85-12.89-1.9-.38-3.9-.81-5.27-2-1.62-1.38-2-3.45-3-5.18-2.35-3.9-7.86-5.66-11.19-9-5.71-5.76-3.7-14.2-3.64-21.68a38.57,38.57,0,0,0-6.69-21.72C79,220,76.71,217.17,77,214c.7-7.91,16.69-12.51,12.94-19.8"/><path class="cls-5" d="M215.32,163.25c-2-11.95-3.28-25.94,7.21-34.25,4.64-3.67,10.88-5.53,16.92-7.3l26.1-7.61c12.69-3.7,26.31-6.1,37.76-.2,3.67,1.89,6.66,4.64,10.39,6.45,3.57,1.72,7.64,2.52,11.65,3.29L342.86,127c4.06.79,8.33,1.57,12.33.61,1.47-.34,2.86-.92,4.37-1.14,7.4-1.08,12.12,6.12,15.5,11.72s12,11.33,17.38,7a58.41,58.41,0,0,1,3.87,32.63c-1.85,10.74-6.7,21-9.31,31.59-1.79,7.26-2.54,14.74-5.49,21.73s-8.59,13.68-16.93,16.18c-4,1.21-8.73,1.51-11.67,4.1-3.89,3.42-2.7,8.9-4.05,13.48-2.11,7.18-10.78,11.93-19.5,13.07s-17.59-.61-26.17-2.34c-22.35-4.5-43.54-10.17-65.89-14.67-2.15-.44-4.43-.93-6-2.25-1.85-1.57-2.27-3.93-3.46-5.9-2.68-4.43-8.95-6.44-12.74-10.27-6.5-6.55-4.21-16.17-4.14-24.68a44,44,0,0,0-7.63-24.74c-2.1-3.13-4.7-6.37-4.38-10,.8-9,19-14.25,14.74-22.55"/><path class="cls-6" d="M118,332.7l259.3-60.15s4.63,3.79,1.62,6L118.29,338.62S113,337.27,118,332.7Z"/><polygon class="cls-7" points="190.17 310.91 193.41 322.31 273.86 309.19 275.12 306.73 190.17 310.91"/><path class="cls-8" d="M144.66,276.8s69.94,5.46,83.68,6,42.55.81,51.17,3,18.58,1.35,18.58,1.35l-14.24,15.08a15,15,0,0,1-10,4.67l-83.69,4.05a15,15,0,0,1-10.49-3.43Z"/><path class="cls-9" d="M304.29,271.76v11.31s.55,3.92-6.2,4-153.16-7.89-155.32-10-9.17-3.23,8.07-6.47,136.75-1.8,136.75-1.8S304.29,268.53,304.29,271.76Z"/><path class="cls-10" d="M196.63,328.21c2.35-.43,4.05-3.47,14.82,8.11,8.36,9,22.81,27,31.57,33.73,3.49,2.69,7.55,4.66,11.92,4.05s8.68-4.85,8.95-11.31c.67-16.16-2.24-40.63,6.19-47.69"/><path class="cls-11" d="M189.46,336.52a29.15,29.15,0,0,1-29.15,29.15c-16.11,0-30.31-11.89-30.31-28s14.2-30.3,30.31-30.3A29.15,29.15,0,0,1,189.46,336.52Z"/><path class="cls-12" d="M173.59,336.52a16,16,0,0,1-16,16c-8.85,0-17.17-6-17.17-14.87s8.32-17.17,17.17-17.17A16,16,0,0,1,173.59,336.52Z"/><path class="cls-6" d="M116.92,336.86,378.7,288.65s4.5,4.05,1.34,6l-263.12,48.1S111.72,341.24,116.92,336.86Z"/><path class="cls-13" d="M195.74,268.53c4.3-2.18.26-10.17,4.06-13.14,1.44-1.13,3.48-1,5.19-1.66s3-2,4.43-3.12c5.07-3.94,11.2-3.63,17-1a4.35,4.35,0,0,1,2.62,2.48c.32,1.2-.84,2.72-2,2.26,2.61,1.38,5.44,3,6.4,5.81s-1.6,6.63-4.36,5.58a14.25,14.25,0,0,0,7.52,7.92c-14.91-.24-28.65-2.93-43.3-5.73"/><path class="cls-14" d="M216.55,275.88q-10.37.57-20.75.17c-13.05-.51-26-2.18-39-3.85,3.47-3.7,8.82-4.79,13.81-5.7,9.34-1.69,18.85-3.4,28.28-2.3,3.28.38,6.54,1.1,9.84,1.2,6.16.17,11.21-.77,16-4.64a13.77,13.77,0,0,1,4.1-2.76c2.29-.74,4.94.05,7.09-1a17.86,17.86,0,0,0,3-2.45c4.21-3.49,11.49-2.07,14.09,2.74.86,1.6,1.24,3.42,2,5.08a13,13,0,0,0,7.47,6.95c3.94,1.4,8.27.81,12.42,1.33s8.7,2.85,9.33,7a3.59,3.59,0,0,1-.3,2.24c-.84,1.53-2.94,1.72-4.69,1.72-23.22-.08-45.29-2.34-68.41-4.45"/></g><path class="cls-15" d="M396.62,302.09s-74.9-25.75-98.06,3.31c0,0-13.53,63.47-9.3,140.18,0,0,.34.18,1,.49A138,138,0,0,0,318.86,435c22.24-11.67,48.91-38.35,80.77-57.68C399.42,353.93,398.62,327.44,396.62,302.09Z"/><path class="cls-16" d="M334.12,184.87l-1.93,7s-9.76,18.26,2.79,25.23,35.25,5.2,36.14-2.79.68-17-.61-21.55-3.95-11-3.95-12.05S334.64,174.73,334.12,184.87Z"/><path class="cls-17" d="M327.1,168.2s2.48,14.81,9.6,21c8.52,7.37,17.81,5.77,23.41,1.81,6.69-4.73,9.69-10.58,11.28-18.48,3.4-16.88,4-35.17-3-41.26-10.4-9-34.08-9.69-39.47,6.46A60,60,0,0,0,327.1,168.2Z"/><path class="cls-18" d="M327.1,168.2s-6.12-20.18-4.18-27l-.48-1.34,1.51-5h-1.51s1.23-5,4.22-6.32c0,0,3-9.15,9.25-11.17s15.38-8.48,21.8-2.15c0,0,15.82,4.3,16.27,9.68,0,0,5.52,6.73,4.63,15.07s.1,11.17.1,11.17-4.67,4.21-4.38,6.49a6.2,6.2,0,0,1-1.24,4.21s-.15-7.88-2.1-12.85,2.24-12.25-5.52-17.63-25.08,6.59-34.19,6.59c0,0,.27,8-2.92,13.4S327.1,168.2,327.1,168.2Z"/><path class="cls-17" d="M372.84,157.92s2.74-9,4.78-5.75-1,9-1.37,10.65-1.3,6.45-4.86,5.38Z"/><path class="cls-17" d="M326.82,159.17s-2.75-9-4.79-5.74,1,9,1.37,10.64,1.3,6.46,4.87,5.38Z"/><path class="cls-19" d="M333.18,188.42a20.28,20.28,0,0,0-6.09,7.1s-9.89,1.53-17,5.84l-11.16,4.95s-4.56-2.92-11.16,20.41c0,0-12.17,39-9.89,57.82S286,300,286,300s12.39,1.77,19.38,4.82,26,6.85,26,6.85,10.91-1.53,13.19-3.05c0,0,15.54-5.45,16.81-5.7s.94-.38,32.65-3.17c0,0,11.66,4.81,13.44-11.16,0,0,5.32-23.59,4.05-44.13s1.53-32.7-9.63-38.16S372.24,194,372.24,194s-2.88-6.17-4.15-7.61-.33,7.61-.33,7.61a13.14,13.14,0,0,0-4.06,6.6s-11.08,5.32-14.12,12.85c0,0-10.74-9.64-15.89-10.32C333.69,203.13,335,192,333.18,188.42Z"/><path class="cls-17" d="M376,264.5S384.41,249,388.64,249s1.35.84,1.35.84,5.24-3.72,5.24-1.86,2.09,1.86,1.89,3.72-3.07,6.08-3.07,6.08,3.21,1.19.16,4.06l-3,2.7S377.77,264,376,264.5Z"/><path class="cls-17" d="M329.29,262.31a17.69,17.69,0,0,1-5-1c-2.83-1-18.15-5.25-16-.85,0,0-6.68,6.93-1.43,12.34,0,0,4.56,1.86,5.07,3.89,0,0,8.28,5.24,10.65,5.24a9.93,9.93,0,0,1,4.56,1.35S323.54,269.58,329.29,262.31Z"/><path class="cls-20" d="M309.19,258.5c-.5,0-.75-.56-.82-1.34l-1.13-11.76a2.35,2.35,0,0,1,.05-.75c0-.08,1.88-8.14,1.88-13.77,0-.86.46-1.56,1-1.56s1,.7,1,1.56a77.36,77.36,0,0,1-1.92,14.45l.79,8A47,47,0,0,0,309.19,258.5Z"/><path class="cls-20" d="M383.18,252.94c-.05.08-.41-1.76-.55-2.3a165.89,165.89,0,0,1,3.06-20.77c.11-.48.37-.68.6-.46a1.54,1.54,0,0,1,.21,1.26,183.48,183.48,0,0,0-3.1,21.48C383.37,252.61,383.39,252.94,383.18,252.94Z"/><path class="cls-20" d="M322.51,282.3c3.4,3.41,20.48,11.75,20.48,11.75l19.55,8.67"/><path class="cls-21" d="M346.71,264.5s-4.51,25.78-1.75,29.55"/><path class="cls-20" d="M349.58,213.45s-11.48,29.24-7.47,50"/><path class="cls-22" d="M329.29,262.31s42,1.26,46.67,2.19"/><path class="cls-22" d="M318,250.2c-.2-2.71-.32-5.42-.35-8.15,0-1.36,0-2.73.13-4.1.06-.69.11-1.38.24-2.08a7.42,7.42,0,0,1,.63-2.17.63.63,0,0,1,.76-.32l.09,0a43.73,43.73,0,0,0,4.3,1.12c1.45.32,2.92.5,4.38.7s2.93.32,4.39.44,2.93.12,4.41.1h.12a.62.62,0,0,1,.63.62v.06c-.06.72-.15,1.45-.24,2.18s-.19,1.49-.33,2.25v0a.09.09,0,0,1-.11.08.11.11,0,0,1-.08-.08c-.14-.72-.22-1.46-.33-2.21s-.17-1.51-.24-2.27l.76.67a24.06,24.06,0,0,1-4.64.51,23.75,23.75,0,0,1-4.62-.37,42.64,42.64,0,0,1-4.5-1.06,44.09,44.09,0,0,1-4.38-1.46l.85-.3a6.63,6.63,0,0,0-.59,1.7c-.15.63-.25,1.29-.34,1.95-.19,1.32-.29,2.67-.41,4-.2,2.69-.3,5.41-.32,8.12a.11.11,0,0,1-.1.1A.09.09,0,0,1,318,250.2Z"/><path class="cls-15" d="M327.23,201.08s-11,23.16-10.82,25.53c0,0-7.94,12.85-7.27,17.58s-1.35,14.71-.84,14.71,9.13-.51,16.74,2.88a9.38,9.38,0,0,0,4.22.67c3.05,0,21.64,1.52,23.67,3.38s6.77-.84,6.77-.84,4.05-.05,4.39,1.5,11.84-1.84,11.84-1.84l5.24-8.54s2.87-.25-4.23-10.23L375.42,234s-2.87-24.95-1.69-31.89l-2.37-7.27s-3.89,1-3.55,6.94.68,30.77.68,30.77-28.24,1.73-39.73-1.67c0,0-6.09-1.38-6.77-1.21s7.44-24,7.44-24Z"/><path class="cls-20" d="M334.12,203.78l-4.66,1.72-2.2-4.57s-9,7.44-13.52,6.6l13.35-12s3.72-6.42,6.09-7.1S334.12,203.78,334.12,203.78Z"/><polygon class="cls-20" points="366.75 192 377.83 208.06 370.45 190.36 367.09 184.39 366.75 192"/><path class="cls-12" d="M336.55,157s3.95-4.2,8.83,0C345.38,157,340.58,159.73,336.55,157Z"/><path class="cls-12" d="M356.7,158.2a6.07,6.07,0,0,1,8.32-.62S363.73,159.94,356.7,158.2Z"/><path class="cls-23" d="M336.55,157s3.95-4.2,8.83,0C345.38,157,340.58,159.73,336.55,157Z"/><path class="cls-23" d="M365.59,157.59s-1.46,2.68-9.46.71a6.9,6.9,0,0,1,9.46-.71"/><circle class="cls-7" cx="341.06" cy="156.78" r="1.5"/><circle class="cls-7" cx="360.86" cy="157.52" r="1.5"/><path class="cls-24" d="M345,169.62a1.67,1.67,0,0,0,.23.94,1,1,0,0,0,.79.41,7.16,7.16,0,0,1,2.09.31,2.83,2.83,0,0,1,.94.63c.26.28.45.63.63.81a1.38,1.38,0,0,0,1.53.29,2.07,2.07,0,0,0,.73-.44.53.53,0,0,0,.13-.13l.1-.17a3.37,3.37,0,0,1,.39-.48,6.2,6.2,0,0,1,1.83-1.25,3.14,3.14,0,0,1,1.18-.26.62.62,0,0,0,.55-.26,1.85,1.85,0,0,0,.2-1.75l.08-.05a2,2,0,0,1,.31,2.17,1.4,1.4,0,0,1-1.11.78,2,2,0,0,0-.79.28,8.25,8.25,0,0,0-1.56,1.06,2.1,2.1,0,0,0-.3.29,2.21,2.21,0,0,1-.19.24,1.34,1.34,0,0,1-.25.23,3,3,0,0,1-1.08.51,2.55,2.55,0,0,1-1.2,0,1.91,1.91,0,0,1-1-.66c-.26-.34-.37-.62-.57-.85a2.07,2.07,0,0,0-.72-.56,7,7,0,0,0-1.93-.47,1.22,1.22,0,0,1-.91-.61,1.75,1.75,0,0,1-.16-1Z"/><path class="cls-25" d="M339.64,175.5a85.45,85.45,0,0,1,8.83,1.63c2.06.69,9.86-1.29,12.09-.81C360.56,176.32,349.84,192.9,339.64,175.5Z"/><path class="cls-7" d="M346.38,153.39l-3.41-.51c-1.13-.15-2.26-.34-3.37-.42a7.36,7.36,0,0,0-.81,0c-.23,0-.45,0-.67.05a10.63,10.63,0,0,0-1.36.28c-.48.12-1,.3-1.53.49a4.72,4.72,0,0,1-1.82.38l-.05-.19A10,10,0,0,1,336,151a4.33,4.33,0,0,1,2-.56,4,4,0,0,1,1,.09c.31.07.6.16.89.24,1.15.32,2.25.67,3.33,1.08s2.16.85,3.21,1.34Z"/><path class="cls-7" d="M354.86,154a27.22,27.22,0,0,1,3.26-1.58,15.46,15.46,0,0,1,3.61-1,4,4,0,0,1,1.1,0,1.65,1.65,0,0,1,.32.06l.23.05.42.13a14.59,14.59,0,0,1,1.67.62,15.14,15.14,0,0,1,3.17,1.78l-.05.19a15.23,15.23,0,0,1-3.65-.22,14.76,14.76,0,0,1-1.75-.39,8.24,8.24,0,0,0-1.41-.39,13.57,13.57,0,0,0-3.36.29c-1.16.19-2.32.44-3.48.71Z"/></svg>