<svg id="Layer_1" data-name="Layer 1" xmlns="http://www.w3.org/2000/svg" viewBox="0 0 500 500"><defs><style>.cls-1{fill:#eaa10f;opacity:0.08;}.cls-2{opacity:0.3;}.cls-3{fill:#9b897c;}.cls-4{fill:#997352;}.cls-5{fill:#ebc7a5;}.cls-6{fill:#5a88a8;opacity:0.2;}.cls-21,.cls-7{fill:#fff;}.cls-8{fill:#bc986d;}.cls-9{fill:#cca576;}.cls-10{fill:#d8b07c;}.cls-11{fill:#b59469;}.cls-12{fill:#c4a172;}.cls-13{fill:#ccaa75;}.cls-14{fill:#aa866d;}.cls-15{fill:#2b1813;}.cls-16{fill:#b28769;}.cls-17{fill:#23140f;}.cls-18{fill:#516e8e;}.cls-19{fill:#455f77;}.cls-20{fill:#755e4b;}.cls-21,.cls-22{stroke:#755e4b;stroke-miterlimit:10;stroke-width:0.75px;}.cls-22{fill:none;}</style></defs><path class="cls-1" d="M330.64,63.63c-30.25-17-82-20.85-111.88-3.18C167.15,90.94,94.45,155.24,74.5,217.8c-56.93,178.53-3.26,223.61,80.61,207.06s184.08,64,254.56,3.14C472.3,373.91,470.15,142,330.64,63.63Z"/><g class="cls-2"><path class="cls-3" d="M448.82,287.48H97L51.2,329.68c0,.09,0,.18,0,.27l368.11,7.55L449,310.19Q449.28,299,448.82,287.48Z"/><rect class="cls-4" x="50.91" y="329.94" width="368.38" height="7.95"/><rect class="cls-4" x="67.84" y="230.6" width="376.23" height="7.95"/><path class="cls-5" d="M371.12,230.6H336.68a6.32,6.32,0,0,1-6.31-6.32l1.26-17.22-1.26-11.44a12.09,12.09,0,0,1,12.09-12.09h22.88a12.09,12.09,0,0,1,12.1,12.09l-1.27,11.44,1.27,17.22A6.32,6.32,0,0,1,371.12,230.6Z"/><path class="cls-6" d="M335.82,235.73S327,237,325.1,226.27s-2.51-44.46,10.72-48.7,21.42-16.22,21.42-16.22l-10.08-7.57s6.93-8.82,10.08-5.67,12,1.89,12,1.89,6.93,1.26,0,7.57,7.35,20,7.35,20,14.08,1.52,2.74,58.2C379.31,235.77,365.46,242,335.82,235.73Z"/><path class="cls-5" d="M283.07,230.6H248.63a6.31,6.31,0,0,1-6.31-6.32l1.26-17.22-1.26-11.44a12.09,12.09,0,0,1,12.09-12.09h22.88a12.09,12.09,0,0,1,12.09,12.09l-1.26,11.44,1.26,17.22A6.32,6.32,0,0,1,283.07,230.6Z"/><path class="cls-6" d="M247.77,235.73S238.93,237,237,226.27s-2.5-44.46,10.73-48.7,21.42-16.22,21.42-16.22l-10.09-7.57s6.94-8.82,10.09-5.67,12,1.89,12,1.89,6.93,1.26,0,7.57,7.35,20,7.35,20,14.08,1.52,2.73,58.2C291.25,235.77,277.4,242,247.77,235.73Z"/><path class="cls-5" d="M153.32,230.6H118.88a6.32,6.32,0,0,1-6.31-6.32l1.26-17.22-1.26-11.44a12.09,12.09,0,0,1,12.09-12.09h22.89a12.09,12.09,0,0,1,12.09,12.09l-1.26,11.44,1.26,17.22A6.32,6.32,0,0,1,153.32,230.6Z"/><path class="cls-6" d="M118,235.73s-8.83,1.26-10.72-9.46-2.5-44.46,10.72-48.7,21.43-16.22,21.43-16.22l-10.09-7.57s6.93-8.82,10.09-5.67,12,1.89,12,1.89,6.94,1.26,0,7.57,7.36,20,7.36,20,14.07,1.52,2.73,58.2C161.51,235.77,147.66,242,118,235.73Z"/><path class="cls-5" d="M196.9,230.6H162.46a6.32,6.32,0,0,1-6.31-6.32l1.26-17.22-1.26-11.44a12.09,12.09,0,0,1,12.09-12.09h22.88a12.09,12.09,0,0,1,12.09,12.09L202,207.06l1.26,17.22A6.31,6.31,0,0,1,196.9,230.6Z"/><path class="cls-6" d="M161.6,235.73s-8.83,1.26-10.72-9.46-2.51-44.46,10.72-48.7S183,161.35,183,161.35l-10.08-7.57s6.93-8.82,10.08-5.67S195,150,195,150s6.93,1.26,0,7.57,7.35,20,7.35,20,14.08,1.52,2.73,58.2C205.08,235.77,191.24,242,161.6,235.73Z"/><path class="cls-5" d="M240.3,230.6H205.86a6.32,6.32,0,0,1-6.31-6.32l1.26-17.22-1.26-11.44a12.09,12.09,0,0,1,12.09-12.09h22.88a12.09,12.09,0,0,1,12.1,12.09l-1.26,11.44,1.26,17.22A6.32,6.32,0,0,1,240.3,230.6Z"/><path class="cls-6" d="M205,235.73s-8.83,1.26-10.72-9.46-2.5-44.46,10.72-48.7,21.42-16.22,21.42-16.22l-10.08-7.57s6.93-8.82,10.08-5.67,12,1.89,12,1.89,6.93,1.26,0,7.57,7.36,20,7.36,20,14.07,1.52,2.73,58.2C248.49,235.77,234.64,242,205,235.73Z"/><rect class="cls-7" x="128.46" y="195.46" width="12.11" height="22.02" transform="translate(340.99 71.96) rotate(90)"/><rect class="cls-7" x="170.39" y="195.46" width="12.11" height="22.02" transform="translate(382.92 30.03) rotate(90)"/><rect class="cls-7" x="217.03" y="195.46" width="12.11" height="22.02" transform="translate(429.56 -16.61) rotate(90)"/><rect class="cls-7" x="263.61" y="195.46" width="12.11" height="22.02" transform="translate(476.14 -63.19) rotate(90)"/><rect class="cls-7" x="346.87" y="195.46" width="12.11" height="22.02" transform="translate(559.41 -146.46) rotate(90)"/><path class="cls-8" d="M99.91,302.2s-14.31-13.06,3.86-18.92,21.47,10.26,16.52,15.2S99.91,302.2,99.91,302.2Z"/><path class="cls-8" d="M123.08,302.2s-14.32-13.06,3.85-18.92,21.48,10.26,16.52,15.2S123.08,302.2,123.08,302.2Z"/><path class="cls-8" d="M150.24,302.2s-14.31-13.06,3.86-18.92,21.47,10.26,16.52,15.2S150.24,302.2,150.24,302.2Z"/><path class="cls-9" d="M84.34,317.78S70,304.71,88.2,298.85s21.47,10.26,16.52,15.2S84.34,317.78,84.34,317.78Z"/><path class="cls-9" d="M113.17,317.78S98.85,304.71,117,298.85s21.48,10.26,16.52,15.2S113.17,317.78,113.17,317.78Z"/><path class="cls-9" d="M134.67,317.78s-14.32-13.07,3.85-18.93S160,309.11,155,314.05,134.67,317.78,134.67,317.78Z"/><path class="cls-10" d="M73.4,328.72s-14.32-13.06,3.85-18.92S98.73,320.05,93.77,325,73.4,328.72,73.4,328.72Z"/><path class="cls-10" d="M102,328.72s-14.31-13.06,3.86-18.92,21.47,10.25,16.52,15.2S102,328.72,102,328.72Z"/><path class="cls-10" d="M123.73,328.72s-14.32-13.06,3.85-18.92,21.47,10.25,16.52,15.2S123.73,328.72,123.73,328.72Z"/><path class="cls-11" d="M186.55,302.58s-16.05-13.51,6.25-16.18,54.94-5.63,54.14,3.92-6.13,10.76-28.54,12.26S186.55,302.58,186.55,302.58Z"/><path class="cls-12" d="M175.8,316.82s-16.05-13.51,6.25-16.17S237,295,236.2,304.57s-6.13,10.76-28.55,12.25S175.8,316.82,175.8,316.82Z"/><path class="cls-13" d="M167.16,328.6s-16-13.5,6.25-16.17,55-5.63,54.15,3.92S221.43,327.11,199,328.6,167.16,328.6,167.16,328.6Z"/><path class="cls-9" d="M342.17,314.71s-18.28-16.68,4.92-24.17,27.43,13.1,21.1,19.41S342.17,314.71,342.17,314.71Z"/><path class="cls-9" d="M379,314.71S360.7,298,383.91,290.54,411.34,303.64,405,310,379,314.71,379,314.71Z"/><path class="cls-9" d="M406.45,314.71s-18.29-16.68,4.92-24.17,27.42,13.1,21.1,19.41S406.45,314.71,406.45,314.71Z"/><path class="cls-10" d="M351.4,328.72s-14.32-13.06,3.85-18.92,21.48,10.25,16.52,15.2S351.4,328.72,351.4,328.72Z"/><path class="cls-10" d="M364.73,328.68s-18.29-16.68,4.92-24.16,27.42,13.09,21.1,19.41S364.73,328.68,364.73,328.68Z"/><path class="cls-10" d="M392.47,328.68s-18.28-16.68,4.92-24.16,27.43,13.09,21.1,19.41S392.47,328.68,392.47,328.68Z"/></g><path class="cls-14" d="M293.68,223s0,8.51-2.63,13.5-13.31,43.36-6.33,50.61S314.08,298,320,283.7s11.23-45.47,6.87-49.32c-5.74-5.06-9.32-17.47-9.32-17.47Z"/><path class="cls-15" d="M280.6,165.67a4.08,4.08,0,0,1-6.25-5,6.39,6.39,0,0,1,1.92-10.51c.93-.39,2.44-.15,2.35.85a7.79,7.79,0,0,1,4.89-9.48c.08.51-.76.57-1.18.27a3.2,3.2,0,0,1-.29-4.55,4.53,4.53,0,0,1,4.74-1,2.84,2.84,0,0,0,1.83.29c.79-.3,1-1.3,1.46-2s2.46-3.93,3.19-4.5c3.42-2.66,6.08,1.24,10.58-3.83,1.27-1.44,3.62-1.25,5.17-.1l0,0a3.39,3.39,0,0,1,1.49,3.22c3.7-.29,6.4-.73,9.76.85a3.58,3.58,0,0,1,1.61,1.22c.36.59,1.39,2.59.81,3,8-.92,5.62,2,9.45,4.83a5.27,5.27,0,0,1,2.94,3.38,5.58,5.58,0,0,1-.86,4.51c-1.43,1.9,0,3.44,0,5.25,0,1.31.09,2.8-.84,3.72-.38.38-.91.62-1.2,1.07-.41.62-.3,1.51-.82,2-.74.73-2.29.27-2.78,1.18-.23.44-.09,1-.34,1.43s-.89.54-1.41.63a8.58,8.58,0,0,0-4.69,2.47,8.09,8.09,0,0,1-1.72,1.59,5.27,5.27,0,0,1-2.3.47,88.57,88.57,0,0,1-12.72-.31,34.55,34.55,0,0,0-4.19-.28c-1.15,0-2.29.18-3.44.25a45.24,45.24,0,0,1-6.37-.24"/><path class="cls-16" d="M278.81,193.73a36.44,36.44,0,0,1,.59,5.21,42.25,42.25,0,0,0,14,29.29c14.06,12.4,25.65-5.14,25.65-5.14s10.26-9.69,4-28.5-8.55-28.21-23.65-28.21C284.94,166.38,275.56,176.68,278.81,193.73Z"/><path class="cls-17" d="M330.88,164.58a11.8,11.8,0,0,0-9.56-5.1c-4.31-.1-7.83,1.67-11.72,3.22-3,1.19-6.45.66-9.61.64q-4.1,0-8.18.09c-4.22.12-9.23-.2-12.64,2.75a10,10,0,0,0-2.16,3.24c-5.55,4.47-5.61,14.54-4.82,15.23-.17,1,.9,3.36,1.25,3.8a3.07,3.07,0,0,0,1.19.77c-1.25,2-1.48,4.06.88,5.33a1,1,0,0,0,1.06-.24c.14,1.22.27,2.44.41,3.66.17,1.55,2.49,0,2.35-1.24l-.63-5.67a1.53,1.53,0,0,0,.69-1.52,2.5,2.5,0,0,0-.89-1.52c0-1.18.23-3.2.2-3.48a7.55,7.55,0,0,0-.13-.83.75.75,0,0,0,.05-.16,15.25,15.25,0,0,1,6.43-9.53c.54,0,1.06.1,1.53.12,2.57.12,4.81-.48,7.33-.84,5.11-.74,11,1.14,15.59,3.38,2.44,1.2,3.36,2.77,4.39,5.16a5.92,5.92,0,0,0,2.78,3,4.64,4.64,0,0,1,2.58,3.6,13.55,13.55,0,0,0,.84,2.62c.83,1.87,1.84,4.56,3.39,5.89,1,.84,2.41-2,2.35-2.85-.11-1.79.4.82,2,0s.78,5.39,1.43,4.34c1-1.64,6.57-14.16,6.83-16a54.19,54.19,0,0,0,.78-6.85C336.92,170.65,333.65,168.18,330.88,164.58Z"/><path class="cls-16" d="M323.08,199.27a9.06,9.06,0,0,1,1-4.11c1.27-2.42,3.54-6.1,4.83-4.2,1.84,2.74,0,4.57,0,7.69s-.36,8.08-3.48,7.53C323.37,205.81,323.06,201.85,323.08,199.27Z"/><path class="cls-18" d="M291.05,236.49l-27.9,13.68s-17.89,5.26-17.1,26.84c0,0-7.1,29.47-5,35s-1.84,13.68,5.53,20.26-6.32,31.76,2.63,35.18,11.58,7.9,11.58,7.9-3.69,9-1.06,11.39,75.52,35.78,92.36,2.36c0,0,3.55-28.6-4.08-41.23,0,0,13.64,4.1,13.38,16.2,0,0,10.7,1.88,11-5.75,0,0,2.11,3.94,8.69-7.11,0,0,12.89-9.21,1.57-21.84,0,0-7.36-52.36-8.15-58.15s0-15.79-15.26-21.84-32.37-15-32.37-15L300.17,287.1s-8.86-24.56-8.07-34.82S291.05,236.49,291.05,236.49Z"/><path class="cls-19" d="M302.82,401.92c0-.35-1.21-35.12-.17-57s-2.94-57.42-3-57.78l1-.11c0,.36,4,36,3,57.94s.16,56.55.17,56.9Z"/><circle class="cls-19" cx="296.66" cy="318.99" r="3.51"/><path class="cls-19" d="M352.83,348.84c.83-2.07-3.64-15.82-1.75-20.38s-.68-9.47-.68-9.47L346,348Z"/><path class="cls-16" d="M346,348s-29.47,5.84-47.89,16.53l-6.84,6.69s34.48,7.89,68.24-4.05C367.54,364.38,358.85,346,346,348Z"/><path class="cls-19" d="M272,351.53c-.67-4.65-.81-9.21-1.74-13.8a1.55,1.55,0,0,0,0-.47l-1.65-12.89a16.43,16.43,0,0,0-.74-5.75,1.29,1.29,0,0,0-.19-.51,1.2,1.2,0,0,0-1.44-.56,2.28,2.28,0,0,0-.78.23,3.74,3.74,0,0,0-.49.32l0,0s0,0-.05.05l-.25.22-.09.11a2,2,0,0,0-.19.22l-.12.18a1.22,1.22,0,0,0-.12.19,1.24,1.24,0,0,0-.1.2,1.47,1.47,0,0,0-.1.22.56.56,0,0,0,0,.12,2.57,2.57,0,0,0-.14,1.17l.69,5.32c-.22,6,.52,12.06.71,18.1.09,2.66.84,5.09,1.25,7.7a49.5,49.5,0,0,1,0,12V364c-.4.89-.39,1.82.69,2.2C277.51,369.87,273.18,356.54,272,351.53Z"/><path class="cls-3" d="M52.63,364.59c8.69,56.62,49.58,70.71,102.48,60.27,83.86-16.56,184.08,64,254.56,3.14,14.74-12.73,25.89-35.31,32.5-63.41Z"/><path class="cls-7" d="M283.63,199.32c-.36-.11,2.33-6.26,9.48-1A12.09,12.09,0,0,1,283.63,199.32Z"/><path class="cls-7" d="M304.35,196.58s1.18-6.64,9-2.42C313.37,194.16,313.1,196.94,304.35,196.58Z"/><path class="cls-20" d="M293.1,209.62a6.66,6.66,0,0,0,1.95.81c.67.18,1.39.22,2.1.36a6,6,0,0,0,2,.2,1.81,1.81,0,0,0,.86-.38A5.4,5.4,0,0,1,301,210a8.56,8.56,0,0,1,2.12-.67l.55-.08a2.44,2.44,0,0,0,.42-.12,2.08,2.08,0,0,0,.77-.46c.85-.79,1.25-2.58-.09-3.3l0-.07a1.66,1.66,0,0,1,1,.59,2,2,0,0,1,.41,1.1,3.11,3.11,0,0,1-.77,2.21,2.91,2.91,0,0,1-1,.67,2.86,2.86,0,0,1-.61.14l-.51.05a7.84,7.84,0,0,0-2,.49,4.43,4.43,0,0,0-.88.48,2.48,2.48,0,0,1-1.11.43,6.73,6.73,0,0,1-2.18-.32c-.68-.19-1.39-.27-2.08-.51a6.86,6.86,0,0,1-1.93-1Z"/><path class="cls-21" d="M293.08,217.2s3.55,4.21,6.41,4.11,5.56,1.4,11.08-6.08c0,0-6.74,1.31-9.35,1.69A74.47,74.47,0,0,1,293.08,217.2Z"/><ellipse cx="289.06" cy="198.02" rx="1.96" ry="2.1" transform="translate(53.41 457.32) rotate(-82.15)"/><ellipse cx="308.56" cy="194.85" rx="2.07" ry="1.92"/><path class="cls-22" d="M283.6,199.59c-.37-.1,3.69-7.09,9.51-1.27C293.11,198.32,290.43,201.56,283.6,199.59Z"/><path class="cls-22" d="M304.35,196.87s1.18-6.63,9-2.41C313.37,194.46,313.1,197.23,304.35,196.87Z"/><path class="cls-20" d="M292.13,192.62a19.31,19.31,0,0,0-3.31-.9,7.51,7.51,0,0,0-3.27,0,4.1,4.1,0,0,0-1.36.76c-.44.33-.85.69-1.28,1-.85.72-1.66,1.51-2.52,2.3l-.09-.06a9.18,9.18,0,0,1,1.93-3,6.43,6.43,0,0,1,3.13-1.86,8,8,0,0,1,3.57.3,18.24,18.24,0,0,1,3.24,1.29Z"/><path class="cls-20" d="M301.79,192.54a17.9,17.9,0,0,1,3-2.55,9.44,9.44,0,0,1,3.71-1.56,8.28,8.28,0,0,1,4,.54,9.13,9.13,0,0,1,3.35,2.18l-.07.08a28.38,28.38,0,0,0-3.6-1.31,12.08,12.08,0,0,0-3.62-.7,9.06,9.06,0,0,0-3.54,1.19,18.29,18.29,0,0,0-3.19,2.2Z"/></svg>