<svg id="Layer_1" data-name="Layer 1" xmlns="http://www.w3.org/2000/svg" viewBox="0 0 500 500"><defs><style>.cls-1,.cls-13{fill:#3f5163;}.cls-1{opacity:0.07;}.cls-2{fill:#bec7ce;}.cls-3,.cls-4{fill:none;}.cls-3{stroke:#c8d2db;stroke-width:5px;}.cls-18,.cls-3,.cls-4{stroke-miterlimit:10;}.cls-4{stroke:#bec7ce;stroke-width:4px;}.cls-18,.cls-5{fill:#fff;}.cls-6{fill:#abbedc;}.cls-7{fill:#cedeef;}.cls-8{fill:#aba8b1;}.cls-9{fill:#d8e2ee;}.cls-10{fill:#98bbe1;}.cls-11{fill:#e0cec6;}.cls-12{fill:#f2f2f2;}.cls-14{fill:#edd9ce;}.cls-15{fill:#31404c;}.cls-16{fill:#ccc1a6;}.cls-17{fill:#d8c4ba;}.cls-18{stroke:#d8c4ba;}.cls-19{fill:#4f88a8;}.cls-20{fill:#bcaa9c;}.cls-21{fill:#4d4d4d;}</style></defs><path class="cls-1" d="M56.07,256.3c-7.6-42.77,3.15-105,105.71-146.61,5.09-2.06,10.09-4.34,15-6.75,35.58-17.33,184.29-83.26,227.25,2.37,48.93,97.5,107.15,368.5-160,327.5-164.16-25.2-190.79-68-186.94-97.3C60.64,309.16,60.72,282.48,56.07,256.3Z"/><path class="cls-2" d="M107.71,394.83l-4.59-226-5.31.06,4.55,224.18A27.66,27.66,0,0,1,107.71,394.83Z"/><line class="cls-3" x1="94.5" y1="168.89" x2="377.83" y2="168.89"/><line class="cls-4" x1="369.54" y1="424.19" x2="363.57" y2="168.89"/><path class="cls-5" d="M299.67,205c.39-1.07,12.58-8.58,12.58-8.58h13.18c.87-1.88,1.33-3.16,1.33-3.16l-13,0c-.1-2.49-.32-9.84.22-18.66.27-4.44-1-7.45-3.68-9a10.09,10.09,0,0,0-6.82-.72l1,2.12a6.13,6.13,0,0,1,4,.41c1.85,1,2.7,3.47,2.48,7.06-.52,8.51-.34,15.66-.23,18.47l-13,9.4C298.39,203.3,299,204.16,299.67,205Z"/><path class="cls-5" d="M274.32,205c.39-1.07,12.58-8.58,12.58-8.58h13.18c.87-1.88,1.33-3.16,1.33-3.16l-13,0c-.1-2.49-.32-9.84.22-18.66.27-4.44-1-7.45-3.68-9a10.09,10.09,0,0,0-6.82-.72l1,2.12a6.13,6.13,0,0,1,4,.41c1.85,1,2.7,3.47,2.48,7.06-.52,8.51-.34,15.66-.23,18.47l-13,9.4C273,203.3,273.68,204.16,274.32,205Z"/><path class="cls-5" d="M222.1,202.19c-1.32-.16,6-6.36,6-6.36l7.26.45c1.5-2.53,2.45-4.52,2.45-4.52l-7,1.45c-.1-2.49-.32-9.84.22-18.66.27-4.44-1-7.45-3.68-9a10.09,10.09,0,0,0-6.82-.72l1,2.12a6.13,6.13,0,0,1,4,.41c1.84,1,2.7,3.47,2.48,7.06-.52,8.51-.34,15.66-.24,18.47l-9.38,6.8c3.68,12.2,10,6.7,14.45.47C229.52,201.52,225.56,202.6,222.1,202.19Z"/><path class="cls-5" d="M154.21,193.21c-.1-2.49-.32-9.84.22-18.66.27-4.44-1-7.45-3.68-9a10.09,10.09,0,0,0-6.82-.72l1,2.12a6.13,6.13,0,0,1,4,.41c1.85,1,2.7,3.47,2.48,7.06-.52,8.51-.34,15.66-.23,18.47L144.43,198c6.08,20.15,17,2.45,17,2.45Zm-8.41,7.89,6.89-4.53,6.45,5.85S151,210.49,145.8,201.1Z"/><path class="cls-5" d="M203.92,193.21c-.11-2.49-.32-9.84.22-18.66.27-4.44-1-7.45-3.68-9a10.09,10.09,0,0,0-6.82-.72l1,2.12a6.13,6.13,0,0,1,4,.41c1.84,1,2.7,3.47,2.48,7.06-.52,8.51-.34,15.66-.24,18.47L194.14,198c6.08,20.15,17,2.45,17,2.45Z"/><path class="cls-6" d="M303.13,196.39c1.95,2.34,2.79.41,5.81,2s7.31,2.11,10.32.53c2.81-1.48,3.76-4.28,6.12-6.14a195.64,195.64,0,0,1,26,18.55c6.79,5.69,13.22,11.74,17.54,18.66,12.4,19.89,5.65,43.49,12,64.93,1.56,5.26,3.94,10.46,4,15.85a14.38,14.38,0,0,1-9.21,13.71c-5.11,2-11.3,1.44-16.88.38-2.64-.5-5.44-1.21-7-2.89-2-2.14-1.2-5-.67-7.57a33.34,33.34,0,0,0-2.57-21.07l3.15,14.85a3.79,3.79,0,0,1-.23,3.06c-1,1.46-3.55,1.76-5.72,1.89l-23.9,1.41"/><path class="cls-7" d="M272.39,202.82c5.09,3.09,10.6,2,16.32-.33s9.54-4.21,12.7-9.26c8.79,8.78,15.63,5.05,20.38,27.17.9,4.22,2.29,8.61.38,12.62a12.57,12.57,0,0,1-12.44,6.59c1.58,12.93,7.53,25.22,12.28,37.66s8.36,25.62,5.14,38.36a10.35,10.35,0,0,1-2.7,5.27c-2.31,2.19-6.09,2.92-9.61,3.49q-17.19,2.76-34.68,4.09c-7.44.57-15.59.79-21.64-2.7-7.82-4.51-9.36-13.67-16.84-18.54"/><path class="cls-8" d="M229.22,415.46c6.83,5.07,17.39,6.18,26.76,8.73,4.78-.34,9.61,0,14.55-.59,5.39-.65,9.43-2.81,13.24-5.37,5.37-46.64-9.6-93.7-7.51-140.68.95-21.42,4.59-45.44-11.08-62-8.25-8.7-21-14-27.38-23.81-3,7.35-11.8,12.57-20.74,12.23l-2.29,8.94c-1.43,35.82-2.84,72,4.78,107.22,5.27,24.34,14.85,48.53,12.55,73.22C231.41,400.75,229.66,408.1,229.22,415.46Z"/><path class="cls-9" d="M178.44,238.58a148.65,148.65,0,0,0,3-35.84,4.6,4.6,0,0,1,.87-3.53,7.25,7.25,0,0,1,2.6-1.48l18.35-7.43c.05,6.13,10.81,8.57,14.35,14.06,1.56,2.4,1.57,5.21,1.6,7.9a286.08,286.08,0,0,0,8.07,65.08c3.37,13.9,7.79,27.73,8.68,41.86,1.57,24.61-7.61,49.11-5.42,73.69a236.8,236.8,0,0,0-51,4.67c1.51-7.7,3-15.49,2.21-23.26-.47-4.6-1.76-9.15-2-13.76-.27-4.78.56-9.56,1.1-14.33,4.29-38.32-10.81-77.36-1-115.06"/><path class="cls-10" d="M140.57,399.84c.65.55,1.34,1.08,2.06,1.58a97,97,0,0,0,17.5,6.93,62.52,62.52,0,0,0,10.47,1.13c5.45.13,13.16.77,19.33-.49.44-.67.87-1.35,1.24-2.05,4.86-9.13,4.72-20,3.91-30.3a283.81,283.81,0,0,0-7.94-47.75c-2.77-10.84-6.22-21.77-5.56-32.93.41-7.08,2.48-14,2.28-21.13-.17-5.78-1.84-11.4-3.49-16.94q-4.37-14.64-8.74-29.28c-2.74-9.19-5.52-18.47-10.18-26.87a8.9,8.9,0,0,1-17-3.73c-24,20.61-11.18,42.14-12.86,63.68-.75,9.69,1.44,22.81.81,32.51-.48,7.48-1.46,12.3-2.74,19.68-2.3,13.25,4.11,25.75,2.4,39.09C130,368.89,135,384.67,140.57,399.84Z"/><path class="cls-11" d="M330.44,191.89l7.71,27.37s3.67,37.18-3,41.28-57.44,11.27-58.46-6.15-2.32-28.77,5.5-35.13S300.73,198,300.73,198,329,186.8,330.44,191.89Z"/><path class="cls-5" d="M335.55,209.72a29.4,29.4,0,0,0-.67-4.15A4.75,4.75,0,0,0,335.55,209.72Z"/><path class="cls-5" d="M408.08,299.18q-3.66-14.51-7.33-29c-.72-2.85-1.48-5.78-3.21-8.16-1.17-1.62-2.74-2.91-3.9-4.54-4.13-5.8-2-13.84-3.58-20.77a19.39,19.39,0,0,0-13.41-14c-4.13-1.15-8.53-.88-12.7-1.89-5.69-1.39-10.62-5.1-16.33-6.36-2.9-.65-6-.66-8.69-1.86a7.91,7.91,0,0,1-3.38-2.87,73.65,73.65,0,0,1-.1,11.88,16.83,16.83,0,0,1-1.27,6.43c-1.87,3.84-6.23,5.63-10.05,7.53a59.6,59.6,0,0,0-16,11.65c-2.71,2.78-5.95,6.11-9.75,5.34-3.3-.67-5.17-4.24-5.74-7.55s-.32-6.81-1.54-9.94c-1.73-4.44-6.22-7.71-6.75-12.44-.62-5.52,4.34-9.89,8.8-13.19l3.47-3.16L274.07,217l-4.19,2c-4.27,2-8.75,4.26-11.28,8.25s-2.63,8.79-4,13.19c-2.18,6.79-7.4,12.5-8.4,19.55-.86,6.06,1.54,12.09,1.76,18.2.36,10.24-5.32,19.63-7.54,29.64-2.17,9.81-.95,20,.27,30,.54,4.39,1.15,9,3.77,12.56a3.81,3.81,0,0,0,2.06,1.62c1.07.25,3.85,1.54,4.8,1,4.76-2.77,11.67,6.74,12.3,1.28.37-3.21,2.81-21.39,4.1-24.34,2.18-5,2.2-4.57,7.43-3.12,12.83,3.54,25.63,7.34,37.81,12.71,10.62,4.67,21.79,10.68,33.16,8.36,2.45-.51,5-1.5,6.43-3.54a12.56,12.56,0,0,0,1.78-4.91c.45-2.12.91-4.24,1.36-6.36,2.52,4.06,4.35,9.27,1.44,13.77-4.84,7.45,16.66-4.05,31.52-16.86,1.82-1,3.61-2.11,5.39-3.2,6.72-4.09,14.11-9.14,15.31-16.91C409.86,306.33,409,302.7,408.08,299.18ZM358.3,320.67q4.76-22.28,9.5-44.56l12.07,22.07a9.49,9.49,0,0,1,1.32,3.47c.36,4-4.15,6.42-7.54,8.61Z"/><path class="cls-12" d="M297.35,203.06s-27.78,15.32-31.08,20.83c0,0,9.64-3.73,8.39,1.87s11.07,5.3,11.07,5.3,9.41-17.58,11.17-16.74S298,206.67,297.35,203.06Z"/><path class="cls-12" d="M293.29,246.57S285.86,231.2,279.46,231"/><path class="cls-12" d="M332.66,200.81c2.82,4.87,12.81,12,11.28,36.89,0,0-3.08-17.16-11.28-12.3Z"/><path class="cls-13" d="M281.63,236.86S264.71,250.51,264.41,263s-1.48,21.67,0,30.28,1.21,27.61-.73,32.95-7.58,16.92-7.58,25.53-14.25,9.86-4.16,31.8c0,0-7.06,38.58-.4,49.67,2.06,3.44,36.08,5.75,59.43,3.59,28.18-2.61,48.67-6.74,49.56-10s6.89-43.89,3-50.72S348.72,354.62,348.42,347s4.16-10.05,4.16-10.05-17.22-70.06-15.74-85.2S336,217,336,217l-3.56-3.86s2.38,34.14.89,35.32-28.2,9.13-42.45,5.61S277.77,243.68,281.63,236.86Z"/><path class="cls-14" d="M350.64,328.81s-10.18,4.15-14.76,7.91-11.19,7.37-11.55,9.56,1.5,13.66,8.33,13.66c0,0,6.29,3,7.61,3.76s5.22-13.19,8.54-14.28,8.28-2.54,8.28-2.54S361.1,333.2,350.64,328.81Z"/><path class="cls-15" d="M324.43,340.16a22,22,0,0,0-.4,5.11,17.81,17.81,0,0,0,.84,5,13.36,13.36,0,0,0,5.85,7.7c.69.43,1.47.74,2.19,1.11l2.41,1a44.63,44.63,0,0,1,4.69,2.35,39.28,39.28,0,0,1,4.37,2.94,17.64,17.64,0,0,1,3.73,3.74.1.1,0,0,1-.14.14h0a64.16,64.16,0,0,0-8.91-5.05l-4.57-2.32-2.3-1.17c-.78-.47-1.6-.86-2.34-1.39a14.71,14.71,0,0,1-5.94-8.77,19.1,19.1,0,0,1-.47-5.26,22,22,0,0,1,.81-5.17.09.09,0,0,1,.12-.06.09.09,0,0,1,.07.11Z"/><path class="cls-14" d="M335.82,186.49c0,.77-2.31,14.86-20,25.36a15.19,15.19,0,0,1-10.76,2.82c-6.41-.77-7.43-3.33-9.74-9.1s-7.43-12.42-7.81-16.65-.74-21.82-.64-24.85,2.18-33.43,29.59-20.75c0,0,18.44-3.46,20.88,14.09S335.82,186.49,335.82,186.49Z"/><path class="cls-14" d="M338,172.79s2.39-6.54,4.95-4.62,1.92,8.31,1.28,9.34-2,9-8.45,9S338,172.79,338,172.79Z"/><path class="cls-16" d="M329.93,149.21c-.52.26-11.4,3.59-11.4,3.59l.77-2.69L308,149.85c.39,0,2.31-2.17,2.31-2.17l-19.21,5.89,2.81-3.72s-6.29,8.42-6.13,11.84a33.1,33.1,0,0,1-1,8s-5.28-11-1.7-21.39l-2.94-2.82,7.3-3.72.13-2.43,5.76-4.48a21.49,21.49,0,0,0,2.44-2.44c.12-.38,3.71-1.66,3.71-1.66l2.18-1.92H306l2.88-3.08h5.38s6.15-.13,7.05,0,17.16-1.15,17.29,14.48c0,0,10.89,6.4,6.91,16L343,168.17,335.31,175s-6.41-9.73-5.64-14.22A60.77,60.77,0,0,0,329.93,149.21Z"/><path class="cls-14" d="M261.28,332.23s-9.74.3-8.72,6.45-.37,15.08,3.4,14.46C256,353.14,255.72,344.66,261.28,332.23Z"/><path class="cls-15" d="M275.9,316.12c4.91,1.06,9.85,2,14.81,2.78,2.47.4,5,.77,7.44,1,1.24.15,2.48.22,3.71.28a18.36,18.36,0,0,0,3.59-.15l.83-.17a9.74,9.74,0,0,1,1-.25c.65-.14,1.3-.22,1.94-.3,1.28-.14,2.55-.22,3.82-.29s2.53-.09,3.78-.11l3.76,0c2.5,0,5,0,7.44-.23a20.45,20.45,0,0,0,3.61-.59,4.51,4.51,0,0,0,2.93-1.89h0a.1.1,0,0,1,.13,0,.11.11,0,0,1,.05.12,3.36,3.36,0,0,1-1.11,1.62,7.81,7.81,0,0,1-1.69,1.05,17.68,17.68,0,0,1-3.72,1.12,51.67,51.67,0,0,1-7.6.84l-3.78.11h-3.76c-1.25,0-2.49,0-3.71.08a17.39,17.39,0,0,0-1.8.19c-.29,0-.57.1-.84.16l-1,.18a19.88,19.88,0,0,1-3.93,0c-1.27-.11-2.54-.24-3.79-.43-2.51-.36-5-.82-7.46-1.33-4.94-1-9.82-2.25-14.68-3.56a.11.11,0,0,1-.07-.13A.1.1,0,0,1,275.9,316.12Z"/><path class="cls-17" d="M299.53,190.27a3.94,3.94,0,0,0,.87.81,4.15,4.15,0,0,0,1.09.45,8,8,0,0,0,2.15.87,1.37,1.37,0,0,0,1-.22,5.29,5.29,0,0,1,1.13-.6,6.14,6.14,0,0,1,2.48-.38l-.11,0a2.73,2.73,0,0,0,.72-.32,1.12,1.12,0,0,0,.49-.6h.07a1,1,0,0,1-.3.88,2.77,2.77,0,0,1-.76.59h-.1a17,17,0,0,0-2.25.5,5.19,5.19,0,0,0-1,.43,2.06,2.06,0,0,1-1.37.21,7.62,7.62,0,0,1-2.21-1.1,4.26,4.26,0,0,1-1.08-.59,4.37,4.37,0,0,1-.8-.92Z"/><path class="cls-18" d="M297.14,196.83a20.62,20.62,0,0,0,3.45,4.54c1.57,1.26,8,1.41,9.87,0s6-5.17,6-5.17-9.48.59-11.6.79-7.32-1.38-8.07-1.34Z"/><path class="cls-5" d="M289.89,175.29c-.36-.17,2.35-2.82,6.2-1.75s3.35,2.07,3.41,2.26S295.42,177.87,289.89,175.29Z"/><path class="cls-17" d="M289.87,175.34c-.1-.07-.05-.17,0-.22a.71.71,0,0,1,.1-.14,2.73,2.73,0,0,1,.23-.25,5.43,5.43,0,0,1,.53-.42,6.36,6.36,0,0,1,1.16-.67,6.11,6.11,0,0,1,2.64-.6,11.31,11.31,0,0,1,4,1,3,3,0,0,1,1.21.92,1.13,1.13,0,0,1,.19.43,1,1,0,0,1,0,.24v.09s0,0,0,0a.19.19,0,0,0,0-.07.46.46,0,0,1,0,.36c-.05.08,0,.06-.07.09a.37.37,0,0,1-.09.09l-.11.07-.18.11c-.11.05-.22.11-.33.15a8.74,8.74,0,0,1-1.35.42,9.85,9.85,0,0,1-2.76.17A14.66,14.66,0,0,1,289.87,175.34Zm0-.09a13.18,13.18,0,0,0,5.12.87,14.22,14.22,0,0,0,2.53-.15,6.87,6.87,0,0,0,1.21-.28l.28-.1.11-.05,0,0s0,0,0,0l0,.06a.4.4,0,0,0,0,.32.8.8,0,0,1,0-.15v-.13s0-.07,0-.09a.45.45,0,0,0-.07-.18,2.32,2.32,0,0,0-.86-.71,11.05,11.05,0,0,0-1.16-.52,8.48,8.48,0,0,0-2.49-.61,6.71,6.71,0,0,0-2.55.29,6.17,6.17,0,0,0-1.19.56,4,4,0,0,0-.52.4L290,175C290,175.1,289.89,175.25,289.91,175.25Z"/><circle class="cls-19" cx="295.07" cy="175.02" r="1.86"/><path class="cls-5" d="M323,175c.36-.17-2.34-2.82-6.2-1.75s-3.35,2.07-3.41,2.26S317.49,177.6,323,175Z"/><circle class="cls-19" cx="318.72" cy="174.75" r="1.86"/><path class="cls-20" d="M287.72,171.7a10.81,10.81,0,0,1,2.7-3,4,4,0,0,1,1-.55,2.89,2.89,0,0,1,1.25-.2,16.84,16.84,0,0,1,2,.16,13.58,13.58,0,0,1,3.84,1.15,8.54,8.54,0,0,1,1.78,1.06,2.82,2.82,0,0,1,1.2,1.76l-.19.07a3.16,3.16,0,0,0-1.55-.85,16.54,16.54,0,0,0-1.78-.45c-1.21-.26-2.44-.45-3.66-.72-.61-.13-1.23-.28-1.82-.38a3.08,3.08,0,0,0-.67-.08,2.79,2.79,0,0,0-.77.21,15.75,15.75,0,0,0-3.2,2Z"/><path class="cls-20" d="M328.32,172.25a21.17,21.17,0,0,0-4.84-2,5.65,5.65,0,0,0-1.18-.16c-.2,0-.35,0-.54,0l-.64.07c-.87.1-1.74.25-2.62.37-1.74.26-3.5.43-5.24.67-.87.13-1.73.25-2.58.43a4.88,4.88,0,0,0-2.34.91l-.18-.09a2.52,2.52,0,0,1,.93-1.13,8,8,0,0,1,1.22-.73,16.73,16.73,0,0,1,2.59-1,27.43,27.43,0,0,1,5.36-1.1c.9-.09,1.81-.13,2.73-.15h.7a5.3,5.3,0,0,1,.8.1,7.73,7.73,0,0,1,1.43.47,15.89,15.89,0,0,1,4.52,3.18Z"/><path class="cls-21" d="M338.74,168.09l-10.11,3.48c-1.36-.43-5.31-1.72-13.72-1.45-4.81.15-7.24,1.36-8.27,3-1.61-.6-4.2-.27-5.62,0-1.15-1.53-3.6-2.56-8.22-2.56a56.34,56.34,0,0,0-7.42.44l1.48-.82v-2.65l-7.72,4.91c-.77.27.47,3.37.47,3.37s.74-.34,1.35,2.09,2.15,6.26,4.17,7.54,8,1.75,10.57.8,4.94-3.68,6-8.61a6.68,6.68,0,0,0,0-3,10.32,10.32,0,0,1,4.35,0,7.11,7.11,0,0,0,.17,2.81c1.22,4.9,3.68,7.56,6.27,8.42s8.56.2,10.54-1.15,3.4-5.22,3.93-7.67,1.28-2.13,1.28-2.13l12.18-6ZM299.07,180.9a7.9,7.9,0,0,1-6.35,4.83A13.93,13.93,0,0,1,287,185a4.15,4.15,0,0,1-1.49-.87c-3.43-3.22-3.5-7.75-3.37-9.51a1.71,1.71,0,0,1,.73-1.36c2.95-1.92,13.12-2.38,16.24-.11C301.22,174.65,300.2,178.28,299.07,180.9Zm23.54,2.52a3.93,3.93,0,0,1-1.46.92,13.79,13.79,0,0,1-5.67.92,7.9,7.9,0,0,1-6.5-4.63c-1.21-2.57-2.35-6.17-.31-7.75,3-2.36,13.23-2.23,16.24-.4a1.71,1.71,0,0,1,.77,1.33C325.86,175.57,325.94,180.1,322.61,183.42Z"/><path class="cls-17" d="M323.07,174.73a.86.86,0,0,0-.1-.16,2.85,2.85,0,0,0-.23-.26c-.17-.16-.34-.31-.52-.45a6.29,6.29,0,0,0-1.17-.71,6,6,0,0,0-2.64-.64,8.75,8.75,0,0,0-2.69.53,8.24,8.24,0,0,0-1.28.53,3.1,3.1,0,0,0-1.21,1,1.48,1.48,0,0,0-.19.46,2.17,2.17,0,0,0,0,.25v.12a.17.17,0,0,1,0-.07.56.56,0,0,0,0,.38c0,.08,0,.06.06.1a.73.73,0,0,0,.09.09l.11.08.18.11.33.16a7.87,7.87,0,0,0,1.35.44,9.23,9.23,0,0,0,2.77.19A14.27,14.27,0,0,0,323,175,.18.18,0,0,0,323.07,174.73Zm-5.35,1.33a10.77,10.77,0,0,1-2.2-.17,10.23,10.23,0,0,1-1.38-.56,1.69,1.69,0,0,1-.27-.11h0v0a.56.56,0,0,1,.07-.19,2.48,2.48,0,0,1,.86-.75,10.55,10.55,0,0,1,3.65-1.2,6.23,6.23,0,0,1,2.56.31,5.43,5.43,0,0,1,1.18.59,4.24,4.24,0,0,1,.52.43,2.62,2.62,0,0,1,.22.25c.06.08.12.23.1.23A13.83,13.83,0,0,1,317.72,176.06Z"/><path class="cls-17" d="M289.88,175.21c-.11-.14,0-.24.07-.34a1.78,1.78,0,0,1,.22-.26,4.36,4.36,0,0,1,.51-.44,6.09,6.09,0,0,1,1.15-.7,6.17,6.17,0,0,1,2.65-.58,8.34,8.34,0,0,1,2.66.58,4.85,4.85,0,0,1,2.36,1.44,1.47,1.47,0,0,1,.21.75s0,0,0,0,0,0,0,.13a.28.28,0,0,1-.13.17l-.16.12-.33.16a7,7,0,0,1-1.32.42,9.34,9.34,0,0,1-2.74.2A13.57,13.57,0,0,1,289.88,175.21Zm0-.05a12.78,12.78,0,0,0,5.15,1.21,11.39,11.39,0,0,0,2.61-.18,6.61,6.61,0,0,0,1.25-.35l.28-.13.11-.07s0-.06,0,.05,0,.07,0,.05a.26.26,0,0,1,0-.07.87.87,0,0,0-.12-.54,4.6,4.6,0,0,0-2.14-1.36,8.16,8.16,0,0,0-2.55-.63,6.12,6.12,0,0,0-2.6.43,5.7,5.7,0,0,0-1.16.64,4.23,4.23,0,0,0-.51.44C290.07,174.79,289.85,175,289.9,175.16Z"/></svg>