<svg id="Layer_1" data-name="Layer 1" xmlns="http://www.w3.org/2000/svg" viewBox="0 0 500 500"><defs><style>.cls-1{fill:#37bfbf;opacity:0.1;}.cls-2,.cls-6{opacity:0.5;}.cls-15,.cls-17,.cls-3{fill:#fff;}.cls-4{fill:#d6e5e9;}.cls-5{fill:#4d4d4d;}.cls-6{fill:#565656;}.cls-7{fill:#545860;}.cls-8{fill:#ad8c73;}.cls-9{fill:#bc987a;}.cls-10{fill:#726c68;}.cls-11{fill:#f2f2f2;}.cls-12{fill:#ddd;}.cls-13{fill:none;stroke:#ddd;stroke-width:4px;}.cls-13,.cls-15,.cls-17{stroke-miterlimit:10;}.cls-14{fill:#e8e8e8;}.cls-15{stroke:#7c6355;}.cls-16{fill:#7c6355;}.cls-17{stroke:#826b5f;}.cls-18{fill:#3f5163;}</style></defs><path class="cls-1" d="M286.57,94.57S64.45,47.13,68.38,184.06,12.62,417.32,177.45,420.54s299-61,260.63-136S359.75,113.73,286.57,94.57Z"/><g class="cls-2"><path class="cls-3" d="M55.83,148.15c8,9.2,6.65,138.34,6.65,138.34l315.61-23.16-9.37-184L55.32,98.21Z"/><polygon class="cls-4" points="378.09 263.33 62.48 286.5 63.65 281.23 378.09 259.31 378.09 263.33"/></g><path class="cls-5" d="M234.72,159.85s-53.68-12.61-95.6,1.36c0,0-10.79-2.67-9.45,65.95S148.75,347.7,148.75,347.7s108.51,3.32,123.17-7.95S281.76,165.07,234.72,159.85Z"/><path class="cls-6" d="M139.12,161.21s-7.94,33.84,0,42.73,82.89,2.27,95.57,5,35.86-14.1,9.59-33.07S212.17,150.41,139.12,161.21Z"/><path class="cls-7" d="M177.45,420.54C328,423.48,453,370.11,444.24,303.68L207.18,328.37,61.58,343.54C65.38,390.48,89.32,418.82,177.45,420.54Z"/><polygon class="cls-3" points="240.25 386.31 313.54 378.47 265 322.35 201.37 328.98 240.25 386.31"/><path class="cls-8" d="M220.18,203.14s-5.39,3.17-11.69,7.37,22.25,39.28,22.25,39.28,24.75,8,30.43-11.91S254.34,208.28,220.18,203.14Z"/><path class="cls-9" d="M216.79,174.2s-.95,6.05-1.58,13c-.77,8.52-1.23,18.25-1.23,18.41s1.4,12.68,9,18.41c0,0,9.21,8.83,12.59,8.83s8.17.75,13.34-4.79,11.45-14.75,11.45-22.45a94.46,94.46,0,0,0,1.79-16.25c-.09-6.95,4.32-21.32-4.13-24.8s-25.74-13-35.32.94Z"/><path class="cls-9" d="M215.12,188.58a4.63,4.63,0,0,0-5-4.52c-1.61,0-1.5,4.13-1.59,8.45s-.1,6.2.75,7.24-.75,5.91,4.32,5.82S215.12,188.58,215.12,188.58Z"/><path class="cls-10" d="M217.54,198.56l-3-12.19s-2.39-3.05-3.84-2.31.5-13.56.5-13.56,1.25-12.37,13.15-17.9c0,0,19.41-10.77,32.81,3.25s7.81,16.41,8,33.56l-4.31,13.73s6.32-33.14-3.95-34.76-12.78,2.63-20.67-.88-13.65,5.38-13.65,5.38,1.76,7-1.25,10.4S217.54,198.56,217.54,198.56Z"/><path class="cls-11" d="M213.08,206.32s-18.78,15.78-28.8,18.29-24,17.28-24.29,21.29-2,18,0,21.54-5.39,9.76-1,32.81,1.13,36.32,8.46,39.07c2,.75,17.78,4.76,20.54,2.76,0,0,49.06,4.36,54.33.55s8.54,1.56,8.54,1.56.5-19.4,3.25-22.9,8.52-7.77,8.52-7.77,5.26,1.25,9,1.76,11.53-1,11.53-1,10.21-3.88,13.47,4.88-5.76,15.28-5.76,15.28,16-3.12,11.7-15.65S294.74,308,294.74,308s5.26-5.26.25-24.54-7.52-30.31-7.52-30.31,4-32.31-28.3-37.07c0,0-12.51,10.27-12.77,14.78s-5,13.77-4.51,15.78-3.51,2.5-3.51,2.5l-1-10.27s-7.51-7-8.77-7.26S214.59,219.1,213.08,206.32Z"/><path class="cls-12" d="M197.3,273.06A69.57,69.57,0,0,1,200,283.58a71,71,0,0,1,1.19,10.88,30.87,30.87,0,0,1-.36,5.88,14.33,14.33,0,0,1-.42,1.72l-.3,1c-.08.3-.12.63-.2.95l-.14,1a22.88,22.88,0,0,0,.06,4.44c.08.77.2,1.55.36,2.33s.37,1.6.55,2.21l-2.6-1.89c4.4.59,8.82,1.05,13.23,1.57s8.82,1,13.23,1.59L237.86,317q6.62.84,13.21,1.78l0,.7c-4.45,0-8.89-.09-13.33-.18l-13.33-.27c-4.44-.12-8.88-.2-13.32-.38s-8.87-.33-13.32-.41l-1.78,0-.82-1.85c-.46-1-.78-1.89-1.1-2.84a29.44,29.44,0,0,1-.82-2.86,21.69,21.69,0,0,1-.6-6.14c0-.55.09-1.09.15-1.64s.21-1.1.36-1.65l.71-2.36.23-1.07c.08-.37.12-.78.18-1.17.15-.77.21-1.63.32-2.45.36-3.36.59-6.87.89-10.38s.61-7.09,1.16-10.69Z"/><path class="cls-13" d="M241.89,246.65s-6.1,10.51-6.86,20.66.76,22.69,0,28.81S235,318,235,318"/><path class="cls-12" d="M255.7,318.32a59.91,59.91,0,0,1-.24-11.9A102.33,102.33,0,0,1,257,294.59c.72-3.9,1.28-7.89,2.66-11.59a54.75,54.75,0,0,1,2.29-5.51,27.17,27.17,0,0,1,1.46-2.69c.14-.22.28-.44.45-.67s.17-.23.29-.37a1.34,1.34,0,0,1,.27-.26.67.67,0,0,1,.17-.1.72.72,0,0,1,.37-.07.73.73,0,0,1,.45.25.38.38,0,0,1,.09.18.94.94,0,0,1,0,.61c0,.14-.06.27-.1.4s-.19.49-.29.73l-.4-.06c0-.24-.08-.49-.13-.73a3.38,3.38,0,0,0-.08-.34c0-.08-.09-.25-.08-.11a.37.37,0,0,0,.06.1.53.53,0,0,0,.36.2.59.59,0,0,0,.29,0c.12-.07.08,0,.1,0s0,0,0,0l-.06.28q-.08.33-.12.69l-.48,2.88c-.33,1.93-.69,3.86-1.13,5.77a57.37,57.37,0,0,1-1.6,5.63c-.66,1.83-1.23,3.69-1.79,5.55l-.75,2.82-.68,2.84c-.45,1.89-.87,3.79-1.22,5.71a68.63,68.63,0,0,0-1.36,11.61Z"/><circle class="cls-12" cx="243.08" cy="255.54" r="1.2"/><circle class="cls-12" cx="240.25" cy="282.87" r="1.64"/><path class="cls-12" d="M255.57,318.36a18.57,18.57,0,0,1,1.67-4.68,25.25,25.25,0,0,1,1.32-2.21l.82-1c.29-.34.62-.66.93-1s.66-.65,1-1l.52-.52c.18-.17.39-.32.59-.48a4.76,4.76,0,0,1,1.34-.75,6.84,6.84,0,0,1,1.55-.29,5.56,5.56,0,0,1,5.37,3.35l-.22.66c-2,1.45-2.84,2.24-3.68,2.84a2.31,2.31,0,0,1-1.42.47,3.56,3.56,0,0,0-.91.07,2.89,2.89,0,0,0-.92.23c-.3.13-.61.24-.91.38l-.9.48a17.65,17.65,0,0,0-1.85,1.1,36.07,36.07,0,0,0-3.7,2.72Z"/><path class="cls-9" d="M288.2,313.17s-15.4-1.32-18.41-1.69-10.14,3.57-12.39,3.57-11.65-1.7-5.45,4.13l1.88,1.5s-1.51,3.95-1.32,5.07-6.2,1.51-4.51,3.38l1.69,1.88s-4.69.94-5.26,2.26.42,1.46,2.82,5.07c.75,1.13-.75,3.94,4.14,4.13s12.39,4.89,13.52,4.89,3.82,4.79,16.16-4.14c1.29-.94,6.57-3,10.33-9.39A12.61,12.61,0,0,0,299.29,322C299.48,312.79,288.2,313.17,288.2,313.17Z"/><path class="cls-14" d="M230.47,232.84s-4.6,2-5.36,6.54.51,8.27-4,2.51-16.28-21.79-14.78-25,.49-9,6.75-10.52C213.08,206.32,223.05,231.81,230.47,232.84Z"/><path class="cls-14" d="M246.4,230.87c-.28,2,7.77-3,8.27-1.26s3.24-12.45,3.24-12.45S246.6,229.41,246.4,230.87Z"/><path class="cls-15" d="M230.07,211.15s6.63,1.37,10,2.36a9.88,9.88,0,0,0,4.12.3,36.71,36.71,0,0,0,6.1-1.18C252.35,211.85,244.87,227,230.07,211.15Z"/><path class="cls-16" d="M236.18,203.23a5.22,5.22,0,0,0,.71,2.05,1.67,1.67,0,0,0,.75.65,1.8,1.8,0,0,0,1,0,2.83,2.83,0,0,1,1.22.06,2.79,2.79,0,0,1,1,.67,4.52,4.52,0,0,0,1.8.94,6.18,6.18,0,0,0,3.95-.59,5.18,5.18,0,0,0,.84-.53l.17-.17a3.53,3.53,0,0,1,.27-.23,1.62,1.62,0,0,1,.63-.26c.66-.06,1-.69,1.37-1.36l.1,0a3.65,3.65,0,0,1-.3,1.13,1.74,1.74,0,0,1-.94.85c-.38.17-.35.22-.7.63a5.08,5.08,0,0,1-1,.76,5.83,5.83,0,0,1-4.67.59,4.94,4.94,0,0,1-2-1.29,2.8,2.8,0,0,0-.77-.62,2.57,2.57,0,0,0-1-.12,2.27,2.27,0,0,1-1.19-.12,1.94,1.94,0,0,1-.85-.85,5.68,5.68,0,0,1-.56-2.19Z"/><path class="cls-17" d="M228.5,189.74a8.79,8.79,0,0,0,6.62,2.61c4.18-.18,3.48-1.3,3.48-1.3S234.94,184.86,228.5,189.74Z"/><path class="cls-17" d="M250.61,192.94s4.53-6.18,9.06,0C259.67,192.94,255.83,196.7,250.61,192.94Z"/><circle class="cls-18" cx="233.87" cy="190.01" r="1.93"/><circle class="cls-18" cx="254.21" cy="192.4" r="1.84"/><path class="cls-16" d="M239.59,185.92a30,30,0,0,1-3.83-1.37c-.6-.24-1.17-.52-1.72-.77a4.06,4.06,0,0,0-1.61-.47,1.88,1.88,0,0,0-.34,0,2.71,2.71,0,0,0-.44.12l-1,.31c-.63.22-1.26.45-1.89.7-1.27.46-2.53,1-3.8,1.47l-.09-.17c1.12-.78,2.29-1.49,3.46-2.2.59-.34,1.19-.68,1.81-1l.93-.46a2.8,2.8,0,0,1,.52-.22,4,4,0,0,1,.66-.17,6.59,6.59,0,0,1,2.38.2,6.9,6.9,0,0,1,2,.87,9.47,9.47,0,0,1,3,3Z"/><path class="cls-16" d="M249.92,186.75a7.36,7.36,0,0,1,2.74-2.12,7.07,7.07,0,0,1,3.52-.52,9.19,9.19,0,0,1,3.38.93,6.74,6.74,0,0,1,1.46,1,2.91,2.91,0,0,1,.57.69,1.32,1.32,0,0,1,.16.91l-.2,0a1.46,1.46,0,0,0-.9-1.07,5.91,5.91,0,0,0-1.44-.53,9.48,9.48,0,0,0-3-.27c-.94.09-1.86.62-2.88.81a14.58,14.58,0,0,1-3.29.41Z"/></svg>