<svg xmlns="http://www.w3.org/2000/svg" viewBox="0 0 15.68 12.75"><defs><style>.cls-1{fill:#fff;}</style></defs><title>twitter_white</title><g id="Layer_2" data-name="Layer 2"><g id="Guides"><path class="cls-1" d="M15.68,1.51A6.27,6.27,0,0,1,13.84,2,3.23,3.23,0,0,0,15.25.23a6.56,6.56,0,0,1-2,.79,3.22,3.22,0,0,0-5.57,2.2A3.47,3.47,0,0,0,7.72,4,9.12,9.12,0,0,1,1.09.59,3.26,3.26,0,0,0,.66,2.21,3.21,3.21,0,0,0,2.09,4.89,3.25,3.25,0,0,1,.63,4.48v0A3.23,3.23,0,0,0,3.21,7.68a3.35,3.35,0,0,1-.85.11,3,3,0,0,1-.6-.06,3.23,3.23,0,0,0,3,2.24,6.45,6.45,0,0,1-4,1.38,6.49,6.49,0,0,1-.77,0,9.14,9.14,0,0,0,4.93,1.45,9.1,9.1,0,0,0,9.16-9.16c0-.14,0-.28,0-.42A6.47,6.47,0,0,0,15.68,1.51Z"/></g></g></svg>