<svg id="Layer_1" data-name="Layer 1" xmlns="http://www.w3.org/2000/svg" viewBox="0 0 120 120"><defs><style>.cls-1{fill:#d6e5e9;}.cls-2{fill:#3f5163;}.cls-3{fill:#fff;}.cls-4{fill:#37bfbf;}</style></defs><path class="cls-1" d="M60,7a55,55,0,1,0,55,55A55,55,0,0,0,60,7"/><path class="cls-2" d="M20.39,81.61l-1.78-.5C21.59,69,25.06,63,29.24,62.67c3.83-.29,6.6,4.3,9.28,8.75,2.29,3.8,4.68,7.75,7.18,7.64,3.18-.12,4.94-8.7,6.49-16.28,1.75-8.54,3.26-15.91,7-16.5,3.35-.54,5.42,6.08,8,14.45,2.37,7.54,5.31,16.91,8.69,17H76c1.39,0,4.09-1.65,7.72-11.69l1.76.56c-3.19,8.91-6.32,13.2-9.59,13.1-4.66-.15-7.56-9.41-10.37-18.36-1.78-5.66-4.24-13.41-6-13.14-2.53.4-4.11,8.15-5.51,15C52.13,72.28,50.37,80.86,45.76,81c-3.54.12-6.21-4.28-8.78-8.55-2.39-4-4.89-8.09-7.6-7.85C27.14,64.81,23.77,67.9,20.39,81.61Z"/><path class="cls-3" d="M89,69A16.32,16.32,0,1,1,105.28,52.7,16.34,16.34,0,0,1,89,69Z"/><path class="cls-4" d="M88.2,61.91V59.64a6.53,6.53,0,0,1-3.43-1l.54-1.51a6,6,0,0,0,3.23,1c1.59,0,2.67-.92,2.67-2.2s-.88-2-2.54-2.67c-2.28-.89-3.7-1.92-3.7-3.88a3.69,3.69,0,0,1,3.39-3.61V43.5h1.39v2.18a5.91,5.91,0,0,1,2.91.78l-.56,1.48a5.41,5.41,0,0,0-2.82-.76c-1.73,0-2.38,1-2.38,1.93,0,1.16.83,1.74,2.78,2.55,2.31.94,3.48,2.11,3.48,4.1a3.91,3.91,0,0,1-3.54,3.82v2.33Z"/><path class="cls-4" d="M89,69A16.32,16.32,0,1,1,105.28,52.7,16.34,16.34,0,0,1,89,69Zm0-30.67A14.35,14.35,0,1,0,103.31,52.7,14.37,14.37,0,0,0,89,38.35Z"/></svg>