<svg xmlns="http://www.w3.org/2000/svg" viewBox="0 0 304.01 33.32"><defs><style>.cls-1{fill:#e5542e;}.cls-2{fill:#eaa10f;}.cls-3{fill:#1b69aa;}.cls-4{fill:#37bfbf;}.cls-5{fill:#fff;}</style></defs><title>Asset 11</title><g id="Layer_2" data-name="Layer 2"><g id="Guides"><rect class="cls-1" x="143.78" y="21.24" width="3.23" height="8.12"/><rect class="cls-2" x="138.58" y="4.69" width="3.23" height="8.12"/><rect class="cls-2" x="138.58" y="16.14" width="3.23" height="13.22"/><rect class="cls-3" x="147.01" y="12.91" width="8.33" height="3.23"/><rect class="cls-1" x="143.78" y="4.69" width="3.23" height="13.22"/><polygon class="cls-4" points="155.34 18.01 141.91 18.01 141.91 21.24 155.34 21.24 155.34 19.16 155.34 18.74 155.34 18.01"/><path class="cls-3" d="M143.78,12.91v3.23H132.64a2.41,2.41,0,0,0-2,.94,2.37,2.37,0,0,0-.62,1.66V15.51a2.57,2.57,0,0,1,2.6-2.6Z"/><path class="cls-4" d="M138.58,18v3.23h-6a2.58,2.58,0,0,1-2.61-2.6,2.54,2.54,0,0,1,.63-1.67,2.77,2.77,0,0,0,2,.94h6Z"/><path class="cls-5" d="M3.12,29.26H0V0H3.12V12.18A7.78,7.78,0,0,1,10.2,8.12c5,0,7.92,3.33,7.92,8.33V29.36H15V17.18c0-3.85-2.08-6.25-5.72-6.25A6.13,6.13,0,0,0,3,17.39V29.26Z"/><path class="cls-5" d="M25.3,12.49,24.36,10a17.16,17.16,0,0,1,7.5-1.77c5.62,0,8.85,2.91,8.85,8.32V29.26h-3V26.13a9.11,9.11,0,0,1-7.5,3.54c-3.85,0-7.7-2.18-7.7-6.45s3.64-6.77,8.85-6.77a21.88,21.88,0,0,1,6.35.83v-.62c0-3.75-2.29-5.62-6.14-5.62A14.93,14.93,0,0,0,25.3,12.49Zm.31,10.62c0,2.61,2.4,4.17,5.21,4.17,3.85,0,7-2.29,7-5.62v-2a22.82,22.82,0,0,0-6.14-.83C27.8,18.74,25.61,20.51,25.61,23.11Z"/><path class="cls-5" d="M49.77,29.26H46.64V8.54h3.13V14C51.33,10.52,54.35,8,58.2,8.12v3.33H58c-4.58,0-8.22,3.23-8.22,9.48Z"/><path class="cls-5" d="M78.29,29.26V25.09a9.26,9.26,0,0,1-7.91,4.58c-5,0-9.89-4-9.89-10.83S65.38,8,70.38,8a9.29,9.29,0,0,1,7.91,4.37V0h3.13V29.26ZM70.9,10.83c-4.06,0-7.29,3-7.29,8S67,27,70.9,27a7.76,7.76,0,0,0,7.5-8.12A7.73,7.73,0,0,0,70.9,10.83Z"/><path class="cls-5" d="M96.83,27.07a8.64,8.64,0,0,0,6.56-2.92l2,1.77a10.73,10.73,0,0,1-8.53,3.86C91.1,29.78,86.52,25.4,86.52,19c0-6,4.16-10.83,10-10.83,6.15,0,9.69,4.89,9.69,11v.93H89.54A7.21,7.21,0,0,0,96.83,27.07Zm6-9.27c-.31-3.74-2.49-7.08-6.66-7.08-3.64,0-6.35,3-6.77,7.08Z"/><path class="cls-5" d="M114,29.26h-3.13V8.54H114V14c1.56-3.43,4.58-5.93,8.43-5.83v3.33h-.21c-4.58,0-8.22,3.23-8.22,9.48v8.33Z"/><path class="cls-5" d="M173.87,29.57a10.64,10.64,0,0,1-10.62-10.83A10.65,10.65,0,0,1,173.87,7.91a11,11,0,0,1,8.33,3.65l-2.08,2.18c-1.67-1.77-3.54-3.12-6.35-3.12-4.17,0-7.4,3.54-7.4,8.12s3.34,8.12,7.6,8.12a8.73,8.73,0,0,0,6.36-3.12l2,1.87A10.74,10.74,0,0,1,173.87,29.57Z"/><path class="cls-5" d="M195.63,29.57a10.59,10.59,0,0,1-10.72-10.83,10.83,10.83,0,1,1,21.65,0A10.84,10.84,0,0,1,195.63,29.57Zm0-19c-4.48,0-7.6,3.54-7.6,8.12a7.85,7.85,0,0,0,7.7,8.12c4.48,0,7.61-3.54,7.61-8S200,10.62,195.63,10.62Z"/><path class="cls-5" d="M227.07,16a3.66,3.66,0,0,1-3.74-3.74,3.66,3.66,0,0,1,3.74-3.75A3.82,3.82,0,0,1,230,9.79l-1,1.14a2.53,2.53,0,0,0-1.88-.94,2.15,2.15,0,0,0-2.08,2.3,2.23,2.23,0,0,0,2.19,2.29,2.72,2.72,0,0,0,1.87-.94l1,.94A3.7,3.7,0,0,1,227.07,16Z"/><path class="cls-5" d="M235.3,16a3.75,3.75,0,1,1,3.85-3.74A3.69,3.69,0,0,1,235.3,16Zm0-6.14a2.16,2.16,0,0,0-2.19,2.29,2.22,2.22,0,0,0,2.19,2.29,2.16,2.16,0,0,0,2.18-2.29A2.1,2.1,0,0,0,235.3,9.89Z"/><path class="cls-5" d="M249.87,8.43c1.57,0,2.5,1,2.5,2.81v4.59h-1.66V11.77c0-1.15-.52-1.77-1.46-1.77s-1.56.62-1.56,1.77v4.06H246V11.66c0-1.14-.52-1.77-1.46-1.77A1.6,1.6,0,0,0,243,11.66v4.06h-1.66V8.64H243V9.79a2.63,2.63,0,0,1,2.19-1.25,2.4,2.4,0,0,1,2.18,1.25A3.07,3.07,0,0,1,249.87,8.43Z"/><path class="cls-5" d="M263.41,8.43c1.56,0,2.5,1,2.5,2.81v4.59h-1.67V11.77c0-1.15-.52-1.77-1.46-1.77s-1.56.62-1.56,1.77v4.06h-1.66V11.66c0-1.14-.52-1.77-1.46-1.77a1.59,1.59,0,0,0-1.56,1.77v4.06h-1.67V8.64h1.67V9.79a2.6,2.6,0,0,1,2.18-1.25,2.42,2.42,0,0,1,2.19,1.25A3.05,3.05,0,0,1,263.41,8.43Z"/><path class="cls-5" d="M273.3,8.64H275v7.19H273.3V14.68A2.47,2.47,0,0,1,271,15.93a2.52,2.52,0,0,1-2.6-2.81V8.64h1.66V12.7c0,1.15.52,1.77,1.56,1.77a1.61,1.61,0,0,0,1.67-1.77Z"/><path class="cls-5" d="M279.23,15.83h-1.66V8.64h1.66V9.79a2.47,2.47,0,0,1,2.29-1.25,2.52,2.52,0,0,1,2.61,2.81v4.58h-1.67V11.87c0-1.15-.52-1.77-1.56-1.77a1.61,1.61,0,0,0-1.67,1.77Z"/><path class="cls-5" d="M286.63,7.5V5.93h1.77V7.5Zm.1,8.33V8.64h1.67v7.19Z"/><path class="cls-5" d="M293.08,13.53a.83.83,0,0,0,.94.94,2.91,2.91,0,0,0,1-.21v1.36a3,3,0,0,1-1.46.41A1.82,1.82,0,0,1,291.52,14V10h-1V8.64h.94v-2h1.66v2h2V10.1h-2v3.43Z"/><path class="cls-5" d="M301.1,16c-.63,1.46-1.25,2-2.4,2a3.51,3.51,0,0,1-1.66-.42l.52-1.24a1.73,1.73,0,0,0,.94.31c.41,0,.73-.21,1-.83l-3-7.19h1.77l2.08,5.41,1.87-5.41H304Z"/><path class="cls-5" d="M225,29.36h-1.66V22.18H225v1.66a2.52,2.52,0,0,1,2.6-1.77v1.77h-.1c-1.46,0-2.5.94-2.5,2.81v2.71Z"/><path class="cls-5" d="M232.59,28.21a2.86,2.86,0,0,0,2-.83l.94.83a3.77,3.77,0,0,1-6.67-2.39,3.57,3.57,0,0,1,3.54-3.75c2.29,0,3.44,1.77,3.44,3.85v.42h-5.31A2,2,0,0,0,232.59,28.21Zm1.67-2.91a1.88,1.88,0,0,0-3.75,0Z"/><path class="cls-5" d="M240.61,29.57a5.32,5.32,0,0,1-3-1l.73-1.15a3.84,3.84,0,0,0,2.39.94c.73,0,1.15-.31,1.15-.73h0c0-.52-.73-.73-1.67-1s-2.29-.73-2.29-2.08h0a2.32,2.32,0,0,1,2.6-2.19,5.16,5.16,0,0,1,2.71.83l-.62,1.15a4.53,4.53,0,0,0-2.09-.73c-.62,0-1,.31-1,.73h0c0,.52.73.73,1.67,1s2.29.83,2.29,2.08h0A2.57,2.57,0,0,1,240.61,29.57Z"/><path class="cls-5" d="M248.83,28.21a2.83,2.83,0,0,0,2-.83l.94.83a3.71,3.71,0,0,1-2.92,1.36,3.66,3.66,0,0,1-3.74-3.75,3.56,3.56,0,0,1,3.53-3.75c2.3,0,3.44,1.77,3.44,3.85v.42h-5.31A2,2,0,0,0,248.83,28.21Zm1.67-2.91a1.88,1.88,0,0,0-3.75,0Z"/><path class="cls-5" d="M258.72,29.36v-.94a2.81,2.81,0,0,1-2.29,1c-1.35,0-2.6-.72-2.6-2.18h0c0-1.56,1.25-2.29,2.92-2.29a5.18,5.18,0,0,1,2,.31v-.21c0-1-.62-1.56-1.77-1.56a6.14,6.14,0,0,0-2.08.42l-.41-1.36a6.93,6.93,0,0,1,2.7-.62c2.19,0,3.13,1.14,3.13,3v4.27h-1.57Zm0-3a3.91,3.91,0,0,0-1.66-.31c-1,0-1.67.42-1.67,1.14h0c0,.73.63,1,1.36,1,1.14,0,1.87-.63,1.87-1.57v-.31Z"/><path class="cls-5" d="M264.55,29.36h-1.66V22.18h1.66v1.66a2.53,2.53,0,0,1,2.61-1.77v1.77h-.11c-1.45,0-2.5.94-2.5,2.81Z"/><path class="cls-5" d="M272.15,29.57a3.75,3.75,0,0,1,0-7.5,3.82,3.82,0,0,1,2.92,1.25l-1,1.15a2.53,2.53,0,0,0-1.88-.94,2.14,2.14,0,0,0-2.08,2.29,2.22,2.22,0,0,0,2.19,2.29,2.72,2.72,0,0,0,1.87-.94l1,.94A3.69,3.69,0,0,1,272.15,29.57Z"/><path class="cls-5" d="M278.82,29.36h-1.67v-10h1.67v3.85A2.45,2.45,0,0,1,281.11,22a2.52,2.52,0,0,1,2.6,2.81v4.58h-1.66V25.3c0-1.15-.53-1.77-1.57-1.77a1.61,1.61,0,0,0-1.66,1.77Z"/><rect class="cls-5" x="214.48" width="1.04" height="33.32"/></g></g></svg>