<svg xmlns="http://www.w3.org/2000/svg" viewBox="0 0 326.44 439.96"><defs><style>.cls-1{fill:#e5542e;}.cls-2{fill:#3f5163;}.cls-3{fill:#fff;}.cls-4{fill:#f3f7fb;}.cls-5,.cls-6{fill:none;stroke-miterlimit:10;stroke-width:1.5px;}.cls-5{stroke:#37bfbf;stroke-linecap:round;}.cls-6{stroke:#3f5163;}.cls-7{fill:#37bfbf;}</style></defs><title>Asset 8</title><g id="Layer_2" data-name="Layer 2"><g id="Guides"><path class="cls-1" d="M67,51.66H83a67,67,0,0,1,67,67V439.12a0,0,0,0,1,0,0H0a0,0,0,0,1,0,0V118.71a67,67,0,0,1,67-67Z"/><path class="cls-2" d="M243.49,36.51h15.9a67,67,0,0,1,67,67V440a0,0,0,0,1,0,0h-150a0,0,0,0,1,0,0V103.56A67,67,0,0,1,243.49,36.51Z"/><path class="cls-3" d="M38.1,369.14h1.14l.07-8.58H38.1v-1.31h4.13v1.31H41.1L41,369.14h1.2v1.31H38.1Z"/><path class="cls-3" d="M43.75,369.14h1l0-5.7H43.56v-1.31h3c0,.27,0,.56,0,.86s-.07.63-.12,1h0a3.21,3.21,0,0,1,.37-.77,2.64,2.64,0,0,1,.6-.65,3.25,3.25,0,0,1,.85-.45,3.42,3.42,0,0,1,1.11-.16,2.67,2.67,0,0,1,2.18.85,3.56,3.56,0,0,1,.72,2.36c0,.67,0,1.34,0,2s0,1.32,0,2h1.09v1.31H49.42v-1.31h.94c0-.61,0-1.22,0-1.84s0-1.22,0-1.83A2.46,2.46,0,0,0,50,364a1.46,1.46,0,0,0-1.28-.58,2,2,0,0,0-1.54.68,2.76,2.76,0,0,0-.65,1.85l-.06,3.17h1.12v1.31H43.75Z"/><path class="cls-3" d="M59.58,363.49a2.45,2.45,0,0,0-.48-.11,5.28,5.28,0,0,0-.58,0,2.61,2.61,0,0,0-1.09.22,2,2,0,0,0-.77.6,2.49,2.49,0,0,0-.47.9,3.57,3.57,0,0,0-.17,1.1,3.89,3.89,0,0,0,.15,1.07,2.59,2.59,0,0,0,.48.95,2.3,2.3,0,0,0,.89.69,3.24,3.24,0,0,0,1.4.27,4.5,4.5,0,0,0,1.2-.16,4.33,4.33,0,0,0,.92-.32L61,370.21a8.07,8.07,0,0,1-.87.27,5.44,5.44,0,0,1-1.4.16,5.24,5.24,0,0,1-2.11-.38,3.65,3.65,0,0,1-1.37-1,3.89,3.89,0,0,1-.76-1.38,5.49,5.49,0,0,1-.23-1.55,5.2,5.2,0,0,1,.29-1.76,3.87,3.87,0,0,1,.86-1.4,4,4,0,0,1,1.4-.92,5.54,5.54,0,0,1,1.93-.32,6.24,6.24,0,0,1,1.53.15,4.74,4.74,0,0,1,.84.28v2.35h-1.5Z"/><path class="cls-3" d="M62.36,369.14h1l0-5.7H62.14v-1.31h3c0,.31,0,.66,0,1.07s0,.82-.09,1.23l0,0a3.65,3.65,0,0,1,.88-1.84,2.12,2.12,0,0,1,1.55-.65,2.8,2.8,0,0,1,.6,0,2.4,2.4,0,0,1,.41.09l-.19,1.59a1.61,1.61,0,0,0-.36-.1,2.86,2.86,0,0,0-.46,0,2,2,0,0,0-1,.25,2.07,2.07,0,0,0-.7.68,3.44,3.44,0,0,0-.41,1,4.45,4.45,0,0,0-.14,1.08l0,2.6h1.22v1.31h-4Z"/><path class="cls-3" d="M76.36,370.06a8.89,8.89,0,0,1-1.21.38,7,7,0,0,1-1.72.2,5,5,0,0,1-1.84-.31,4.06,4.06,0,0,1-1.38-.87,3.63,3.63,0,0,1-.86-1.36,5.08,5.08,0,0,1-.3-1.78,5.41,5.41,0,0,1,.26-1.73,3.66,3.66,0,0,1,2-2.32,4.44,4.44,0,0,1,1.77-.33,4,4,0,0,1,1.64.32,3.14,3.14,0,0,1,1.17.92,4.06,4.06,0,0,1,.71,1.39,6.21,6.21,0,0,1,.24,1.77v.24h-6a2.72,2.72,0,0,0,.21,1.09,2.43,2.43,0,0,0,.6.84,2.37,2.37,0,0,0,.89.54,3.49,3.49,0,0,0,1.14.18,5.61,5.61,0,0,0,1.46-.18,6.73,6.73,0,0,0,1.22-.46ZM75,365.36v-.16a2,2,0,0,0-.1-.59,2,2,0,0,0-.31-.64,1.72,1.72,0,0,0-.61-.51,1.91,1.91,0,0,0-1-.21,2.13,2.13,0,0,0-1,.19,2.05,2.05,0,0,0-.63.49,2.09,2.09,0,0,0-.37.67,2.82,2.82,0,0,0-.13.76Z"/><path class="cls-3" d="M78.65,362.69l.45-.21a4.88,4.88,0,0,1,.69-.25,8.55,8.55,0,0,1,.95-.21,8.77,8.77,0,0,1,1.21-.08,4.67,4.67,0,0,1,1.55.22,2.52,2.52,0,0,1,1,.63,2.3,2.3,0,0,1,.53,1,5,5,0,0,1,.16,1.33c0,.67,0,1.34,0,2s0,1.33,0,2h1.12v1.31H83.61c0-.27,0-.55,0-.86a8,8,0,0,1,.11-.87h0a4.42,4.42,0,0,1-.33.7,2.56,2.56,0,0,1-.53.61,2.61,2.61,0,0,1-.79.44,3.34,3.34,0,0,1-1.12.17,3,3,0,0,1-1.25-.22,2.4,2.4,0,0,1-.82-.57,2.08,2.08,0,0,1-.45-.77,2.69,2.69,0,0,1-.13-.82,2.15,2.15,0,0,1,.37-1.32,2.48,2.48,0,0,1,.91-.76,4.08,4.08,0,0,1,1.17-.35c.41-.06.79-.1,1.13-.12l1.71-.09V365a2.59,2.59,0,0,0-.08-.7,1.25,1.25,0,0,0-.28-.55,1.27,1.27,0,0,0-.57-.36,2.62,2.62,0,0,0-.91-.13,3.6,3.6,0,0,0-.88.1,4.81,4.81,0,0,0-.62.19v1.21h-1.6Zm1.44,5.42a1,1,0,0,0,.34.79,1.38,1.38,0,0,0,1,.33,2.27,2.27,0,0,0,.93-.18,2,2,0,0,0,.67-.48,2.2,2.2,0,0,0,.41-.67,2.28,2.28,0,0,0,.13-.78v-.34c-.47,0-.91,0-1.33,0a6.53,6.53,0,0,0-1.1.17,1.88,1.88,0,0,0-.76.39A1,1,0,0,0,80.09,368.11Z"/><path class="cls-3" d="M92.43,364.51l0-1a1.58,1.58,0,0,0-.5-.19,3.79,3.79,0,0,0-.86-.08,4,4,0,0,0-.61,0,2.13,2.13,0,0,0-.54.15.9.9,0,0,0-.38.31.83.83,0,0,0-.15.51.69.69,0,0,0,.34.66,2.47,2.47,0,0,0,.72.26l2,.4c.24.06.47.13.71.21a2,2,0,0,1,.65.38,1.79,1.79,0,0,1,.47.65,2.47,2.47,0,0,1,.19,1.05,2.59,2.59,0,0,1-.32,1.35,2.47,2.47,0,0,1-.85.85,3.51,3.51,0,0,1-1.2.44,6.89,6.89,0,0,1-1.36.13,9.19,9.19,0,0,1-3-.5l0-2.25h1.6l0,1.1.67.21a3.76,3.76,0,0,0,1.1.13,2.65,2.65,0,0,0,.63-.07,1.67,1.67,0,0,0,.53-.2,1.09,1.09,0,0,0,.38-.36,1,1,0,0,0,.14-.54.8.8,0,0,0-.34-.74,2.49,2.49,0,0,0-.86-.32l-1.33-.24a8.42,8.42,0,0,1-1-.24,2.9,2.9,0,0,1-.85-.4,2.21,2.21,0,0,1-.62-.67,1.89,1.89,0,0,1-.24-1,2.34,2.34,0,0,1,.3-1.23,2.52,2.52,0,0,1,.78-.81,3.35,3.35,0,0,1,1.13-.45,6.45,6.45,0,0,1,1.33-.13,7.07,7.07,0,0,1,1.77.2c.51.14.88.25,1.12.34l0,2Z"/><path class="cls-3" d="M103.05,370.06a8.89,8.89,0,0,1-1.21.38,7.06,7.06,0,0,1-1.72.2,5.09,5.09,0,0,1-1.85-.31,4,4,0,0,1-1.37-.87A3.78,3.78,0,0,1,96,368.1a5.32,5.32,0,0,1-.29-1.78,5.7,5.7,0,0,1,.25-1.73,3.71,3.71,0,0,1,2.06-2.32,4.44,4.44,0,0,1,1.77-.33,4,4,0,0,1,1.64.32,3.22,3.22,0,0,1,1.17.92,4.06,4.06,0,0,1,.71,1.39,6.21,6.21,0,0,1,.24,1.77v.24h-6a2.72,2.72,0,0,0,.21,1.09,2.55,2.55,0,0,0,.59.84,2.41,2.41,0,0,0,.9.54,3.49,3.49,0,0,0,1.14.18,5.61,5.61,0,0,0,1.46-.18,6.73,6.73,0,0,0,1.22-.46Zm-1.36-4.7v-.16a2,2,0,0,0-.1-.59,1.83,1.83,0,0,0-.32-.64,1.77,1.77,0,0,0-.6-.51,1.91,1.91,0,0,0-1-.21,2.13,2.13,0,0,0-1,.19,1.94,1.94,0,0,0-.63.49,1.92,1.92,0,0,0-.37.67,2.82,2.82,0,0,0-.13.76Z"/><path class="cls-3" d="M113.56,370.45h-2.81a8.7,8.7,0,0,1,0-.89c0-.29.07-.56.11-.81h0a3,3,0,0,1-1,1.37,2.79,2.79,0,0,1-1.76.52,3.47,3.47,0,0,1-1.38-.27,3,3,0,0,1-1.09-.78,3.45,3.45,0,0,1-.73-1.24,4.78,4.78,0,0,1-.27-1.66,5.82,5.82,0,0,1,.3-1.9,4.43,4.43,0,0,1,.87-1.51,3.83,3.83,0,0,1,1.41-1,4.69,4.69,0,0,1,1.89-.35,6,6,0,0,1,.86.05c.28,0,.54.08.79.14l0-2.67h-1.52v-1.32h3.25l-.07,11h1.12Zm-2.88-6.75a3,3,0,0,0-1.58-.36,2.45,2.45,0,0,0-1.11.25,2.37,2.37,0,0,0-.8.67,3,3,0,0,0-.5,1,4.09,4.09,0,0,0-.17,1.17,4.21,4.21,0,0,0,.13,1.08,2.7,2.7,0,0,0,.37.86,1.91,1.91,0,0,0,.63.57,1.8,1.8,0,0,0,.89.21,1.77,1.77,0,0,0,1.61-.84,4.14,4.14,0,0,0,.53-2.28Z"/><path class="cls-3" d="M34.09,386.13h1.26l0-1.87,1.8-.13-.06,2h2.38v1.31H37.13l0,2v1.91a6,6,0,0,0,.06.94,1.46,1.46,0,0,0,.21.59.72.72,0,0,0,.36.29,1.4,1.4,0,0,0,.54.08,3,3,0,0,0,.72-.09,5.84,5.84,0,0,0,.67-.23l-.07,1.31a3.53,3.53,0,0,1-.82.3,4.31,4.31,0,0,1-1,.12,4,4,0,0,1-1.12-.14,1.65,1.65,0,0,1-.76-.44,1.82,1.82,0,0,1-.43-.79,4.5,4.5,0,0,1-.13-1.19v-1c0-.38,0-.78,0-1.2s0-.85,0-1.28v-1.18H34.09Z"/><path class="cls-3" d="M40.3,393.14h.94l.07-9.68H40.1v-1.32h3.06l0,4a6.55,6.55,0,0,1-.06.86c0,.3-.09.63-.15,1h0a2.6,2.6,0,0,1,.37-.77,2.42,2.42,0,0,1,.59-.65,3.42,3.42,0,0,1,.85-.45,3.5,3.5,0,0,1,1.11-.16,2.69,2.69,0,0,1,2.19.85,3.61,3.61,0,0,1,.71,2.36c0,.67,0,1.34,0,2s0,1.32,0,2h1.08v1.31H46v-1.31h.94c0-.61,0-1.22,0-1.84s0-1.22,0-1.83a2.46,2.46,0,0,0-.41-1.45,1.44,1.44,0,0,0-1.27-.58,2,2,0,0,0-1.55.68A2.76,2.76,0,0,0,43.1,390L43,393.14h1.12v1.31H40.3Z"/><path class="cls-3" d="M58.09,394.06a8.89,8.89,0,0,1-1.21.38,7.06,7.06,0,0,1-1.72.2,5.09,5.09,0,0,1-1.85-.31,3.92,3.92,0,0,1-1.37-.87,3.78,3.78,0,0,1-.87-1.36,5.32,5.32,0,0,1-.29-1.78,5.7,5.7,0,0,1,.25-1.73,3.8,3.8,0,0,1,.78-1.39,3.68,3.68,0,0,1,1.28-.93,4.44,4.44,0,0,1,1.77-.33,4,4,0,0,1,1.64.32,3.22,3.22,0,0,1,1.17.92,4.06,4.06,0,0,1,.71,1.39,6.21,6.21,0,0,1,.24,1.77v.24h-6a2.72,2.72,0,0,0,.22,1.09,2.5,2.5,0,0,0,1.49,1.38,3.49,3.49,0,0,0,1.14.18,5.61,5.61,0,0,0,1.46-.18,6.73,6.73,0,0,0,1.22-.46Zm-1.36-4.7v-.16a2,2,0,0,0-.1-.59,1.83,1.83,0,0,0-.32-.64,1.77,1.77,0,0,0-.6-.51,1.94,1.94,0,0,0-1-.21,2.13,2.13,0,0,0-1,.19,1.84,1.84,0,0,0-.63.49,1.92,1.92,0,0,0-.37.67,3.28,3.28,0,0,0-.14.76Z"/><path class="cls-3" d="M59.72,393.14h1.09l0-5.7H59.58v-1.31h3.05l0,7h1.12v1.31h-4Zm.78-10a1.23,1.23,0,1,1,.36.88A1.19,1.19,0,0,1,60.5,383.18Z"/><path class="cls-3" d="M64.84,393.14h1l0-5.7H64.62v-1.31h3c0,.31,0,.66,0,1.07s0,.82-.09,1.23l0,0a3.65,3.65,0,0,1,.88-1.84,2.12,2.12,0,0,1,1.55-.65,2.8,2.8,0,0,1,.6,0,2.4,2.4,0,0,1,.41.09l-.19,1.59a1.61,1.61,0,0,0-.36-.1,2.86,2.86,0,0,0-.46,0,2,2,0,0,0-1,.25,2.07,2.07,0,0,0-.7.68,3.17,3.17,0,0,0-.41,1,4.45,4.45,0,0,0-.14,1.08l0,2.6h1.22v1.31h-4Z"/><path class="cls-3" d="M76.1,386.13H79a8.85,8.85,0,0,1,0,.89c0,.29-.07.56-.11.8h0a2.94,2.94,0,0,1,1-1.36,2.81,2.81,0,0,1,1.76-.52,3.55,3.55,0,0,1,1.39.27,3.17,3.17,0,0,1,1.1.77,3.54,3.54,0,0,1,.73,1.24,4.84,4.84,0,0,1,.27,1.67,5.74,5.74,0,0,1-.3,1.9,4.43,4.43,0,0,1-.87,1.51,4.18,4.18,0,0,1-1.41,1,4.91,4.91,0,0,1-1.9.35,6.15,6.15,0,0,1-.87-.06,4.44,4.44,0,0,1-.78-.21l0,2.78h1.32v1.31h-4v-1.31h.93l.06-9.71H76.1ZM79,392.88a3.14,3.14,0,0,0,1.6.35,2.33,2.33,0,0,0,1.11-.25,2.26,2.26,0,0,0,.8-.67,2.93,2.93,0,0,0,.5-1,4.14,4.14,0,0,0,.17-1.17,4.21,4.21,0,0,0-.13-1.08,2.61,2.61,0,0,0-.38-.86,1.73,1.73,0,0,0-.63-.57,2,2,0,0,0-2.51.62,4.29,4.29,0,0,0-.53,2.29Z"/><path class="cls-3" d="M86.47,393.14h1l0-5.7H86.25v-1.31h3c0,.31,0,.66,0,1.07a10.18,10.18,0,0,1-.09,1.23l0,0a3.65,3.65,0,0,1,.88-1.84,2.13,2.13,0,0,1,1.56-.65,2.92,2.92,0,0,1,.6,0,2.48,2.48,0,0,1,.4.09l-.19,1.59a1.61,1.61,0,0,0-.36-.1,2.81,2.81,0,0,0-.45,0,2,2,0,0,0-1,.25,2.07,2.07,0,0,0-.7.68,3.44,3.44,0,0,0-.41,1,4.45,4.45,0,0,0-.14,1.08l0,2.6h1.22v1.31h-4Z"/><path class="cls-3" d="M92.92,390.46a5.17,5.17,0,0,1,.32-1.85,4,4,0,0,1,2.27-2.35,4.79,4.79,0,0,1,1.76-.32,4.19,4.19,0,0,1,1.94.4,3.57,3.57,0,0,1,1.26,1,4,4,0,0,1,.67,1.41,6,6,0,0,1,.21,1.56,5.08,5.08,0,0,1-.27,1.67,4,4,0,0,1-.81,1.37,3.64,3.64,0,0,1-1.33.92,5.35,5.35,0,0,1-3.78,0,3.55,3.55,0,0,1-1.28-1,3.93,3.93,0,0,1-.73-1.33A5.33,5.33,0,0,1,92.92,390.46Zm1.89-.06a3.86,3.86,0,0,0,.13,1,2.92,2.92,0,0,0,.42.87,2.1,2.1,0,0,0,.71.61,2.13,2.13,0,0,0,1,.24,2.21,2.21,0,0,0,1.06-.24,2.08,2.08,0,0,0,.73-.65,2.66,2.66,0,0,0,.43-.95,4.85,4.85,0,0,0,.14-1.16,3.63,3.63,0,0,0-.18-1.21,2.6,2.6,0,0,0-.47-.84,1.85,1.85,0,0,0-.71-.49,2.28,2.28,0,0,0-.87-.16,2.34,2.34,0,0,0-1.14.26,2.3,2.3,0,0,0-.75.67,2.71,2.71,0,0,0-.41.95A4.43,4.43,0,0,0,94.81,390.4Z"/><path class="cls-3" d="M102.59,393.14h1l0-5.7h-1.27v-1.31h1.27l0-1.14a3.4,3.4,0,0,1,.29-1.39,2.69,2.69,0,0,1,.75-.94,2.86,2.86,0,0,1,1.09-.54,5.41,5.41,0,0,1,1.37-.17,6.67,6.67,0,0,1,1.18.09l1,.18v1.32a4.7,4.7,0,0,0-.82-.13c-.34,0-.68-.05-1-.05a2,2,0,0,0-1.52.5,2,2,0,0,0-.48,1.32l0,.95h4.88l0,7h1.12v1.31h-4v-1.31h1.08l0-5.7h-3.09l0,5.7h1.12v1.31h-3.92Z"/><path class="cls-3" d="M112.44,386.13h1.27l0-1.87,1.81-.13-.07,2h2.39v1.31h-2.39c0,.67,0,1.33,0,2s0,1.28,0,1.91a6,6,0,0,0,.06.94,1.83,1.83,0,0,0,.21.59.77.77,0,0,0,.36.29,1.43,1.43,0,0,0,.54.08,3.1,3.1,0,0,0,.73-.09,5.08,5.08,0,0,0,.66-.23l-.06,1.31a3.62,3.62,0,0,1-.83.3,4.19,4.19,0,0,1-1,.12,4,4,0,0,1-1.11-.14,1.6,1.6,0,0,1-.76-.44,1.74,1.74,0,0,1-.44-.79,4.5,4.5,0,0,1-.13-1.19c0-.27,0-.59,0-1s0-.78,0-1.2,0-.85,0-1.28,0-.82,0-1.18h-1.27Z"/><path class="cls-3" d="M48.8,334.35c-4.39,0-8-2.31-9.15-6.12l5.2-1.6a4,4,0,0,0,3.88,2.89,3.36,3.36,0,0,0,3.6-3.5c0-2.86-2.58-3.67-4.93-3.67a19.91,19.91,0,0,0-5.88,1l.58-13.77H56.86v4.9H47.17L47,318.34a11.68,11.68,0,0,1,2.42-.24c4.82,0,8.7,2.58,8.7,7.65C58.08,331.59,53.52,334.35,48.8,334.35Z"/><path class="cls-3" d="M70.66,333.7H64l9.76-19.17H62.4v-4.9H79.87v4.56Z"/><path class="cls-3" d="M89.67,322.07a6.43,6.43,0,1,1,6.46-6.42A6.44,6.44,0,0,1,89.67,322.07Zm0-9.07a2.64,2.64,0,1,0,2.65,2.65A2.65,2.65,0,0,0,89.67,313Zm2.61,21.86-3-1.5,14-24.82,3.16,1.53Zm13.7-.75a6.43,6.43,0,1,1,6.46-6.43A6.43,6.43,0,0,1,106,334.11Zm0-9.08a2.65,2.65,0,0,0-2.65,2.65A2.62,2.62,0,0,0,106,330.3a2.65,2.65,0,0,0,2.66-2.62A2.68,2.68,0,0,0,106,325Z"/><path class="cls-3" d="M212.1,369.14h1.13l.07-8.58h-1.2v-1.31h4.13v1.31h-1.14l-.06,8.58h1.2v1.31H212.1Z"/><path class="cls-3" d="M217.75,369.14h.94l0-5.7h-1.17v-1.31h3c0,.27,0,.56,0,.86a9.65,9.65,0,0,1-.12,1h0a2.84,2.84,0,0,1,.36-.77,2.64,2.64,0,0,1,.6-.65,3.42,3.42,0,0,1,.85-.45,3.5,3.5,0,0,1,1.11-.16,2.69,2.69,0,0,1,2.19.85,3.61,3.61,0,0,1,.71,2.36c0,.67,0,1.34,0,2s0,1.32,0,2h1.08v1.31h-3.82v-1.31h.94c0-.61,0-1.22,0-1.84s0-1.22,0-1.83A2.46,2.46,0,0,0,224,364a1.44,1.44,0,0,0-1.27-.58,2,2,0,0,0-1.55.68,2.76,2.76,0,0,0-.64,1.85l-.07,3.17h1.12v1.31h-3.85Z"/><path class="cls-3" d="M233.57,363.49a2.33,2.33,0,0,0-.47-.11,5.47,5.47,0,0,0-.59,0,2.6,2.6,0,0,0-1.08.22,2.1,2.1,0,0,0-.78.6,2.66,2.66,0,0,0-.47.9,3.57,3.57,0,0,0-.16,1.1,4.3,4.3,0,0,0,.14,1.07,2.75,2.75,0,0,0,.48.95,2.41,2.41,0,0,0,.9.69,3.19,3.19,0,0,0,1.39.27,5.41,5.41,0,0,0,2.13-.48l-.1,1.55a8.07,8.07,0,0,1-.87.27,5.44,5.44,0,0,1-1.4.16,5.22,5.22,0,0,1-2.1-.38,3.77,3.77,0,0,1-1.38-1,3.72,3.72,0,0,1-.75-1.38,5.51,5.51,0,0,1,0-3.31,4,4,0,0,1,.86-1.4,4,4,0,0,1,1.41-.92,5.46,5.46,0,0,1,1.93-.32,6.09,6.09,0,0,1,1.52.15,4.74,4.74,0,0,1,.84.28v2.35h-1.5Z"/><path class="cls-3" d="M236.35,369.14h1l0-5.7h-1.26v-1.31h3c0,.31,0,.66,0,1.07a8.48,8.48,0,0,1-.09,1.23l0,0a3.57,3.57,0,0,1,.88-1.84,2.09,2.09,0,0,1,1.55-.65,2.92,2.92,0,0,1,.6,0,2.66,2.66,0,0,1,.41.09l-.2,1.59a1.36,1.36,0,0,0-.36-.1,2.81,2.81,0,0,0-.45,0,2,2,0,0,0-1,.25,2.16,2.16,0,0,0-.7.68,3.44,3.44,0,0,0-.41,1,4.43,4.43,0,0,0-.13,1.08l0,2.6h1.22v1.31h-4Z"/><path class="cls-3" d="M250.35,370.06a8.67,8.67,0,0,1-1.2.38,7.12,7.12,0,0,1-1.72.2,5.05,5.05,0,0,1-1.85-.31,4.06,4.06,0,0,1-1.38-.87,3.76,3.76,0,0,1-.86-1.36,5.08,5.08,0,0,1-.3-1.78,5.7,5.7,0,0,1,.26-1.73,3.93,3.93,0,0,1,.77-1.39,3.87,3.87,0,0,1,1.28-.93,4.44,4.44,0,0,1,1.77-.33,4,4,0,0,1,1.64.32,3.17,3.17,0,0,1,1.18.92,4,4,0,0,1,.7,1.39,6.21,6.21,0,0,1,.24,1.77v.24h-5.95a2.56,2.56,0,0,0,.22,1.09,2.41,2.41,0,0,0,.59.84,2.45,2.45,0,0,0,.89.54,3.51,3.51,0,0,0,1.15.18,5.54,5.54,0,0,0,1.45-.18,6.46,6.46,0,0,0,1.22-.46Zm-1.36-4.7v-.16a2.29,2.29,0,0,0-.09-.59,2,2,0,0,0-.32-.64,1.77,1.77,0,0,0-.6-.51,1.94,1.94,0,0,0-.95-.21,2.08,2.08,0,0,0-1,.19,2,2,0,0,0-.64.49,2.07,2.07,0,0,0-.36.67,2.83,2.83,0,0,0-.14.76Z"/><path class="cls-3" d="M252.64,362.69l.45-.21a4.62,4.62,0,0,1,.7-.25,7.87,7.87,0,0,1,.94-.21,8.77,8.77,0,0,1,1.21-.08,4.63,4.63,0,0,1,1.55.22,2.45,2.45,0,0,1,1,.63,2.42,2.42,0,0,1,.54,1,5.45,5.45,0,0,1,.16,1.33q0,1,0,2c0,.66,0,1.33,0,2h1.12v1.31H257.6c0-.27,0-.55,0-.86a7.93,7.93,0,0,1,.12-.87h0a3.69,3.69,0,0,1-.33.7,2.56,2.56,0,0,1-.53.61,2.44,2.44,0,0,1-.78.44,3.38,3.38,0,0,1-1.12.17,3.09,3.09,0,0,1-1.26-.22,2.4,2.4,0,0,1-.82-.57,2.2,2.2,0,0,1-.44-.77,2.72,2.72,0,0,1-.14-.82,2.15,2.15,0,0,1,.37-1.32,2.48,2.48,0,0,1,.91-.76,4.08,4.08,0,0,1,1.17-.35c.41-.06.79-.1,1.13-.12l1.72-.09V365a3.06,3.06,0,0,0-.08-.7,1.26,1.26,0,0,0-.86-.91,2.6,2.6,0,0,0-.9-.13,3.54,3.54,0,0,0-.88.1,4.57,4.57,0,0,0-.63.19v1.21h-1.6Zm1.44,5.42a1,1,0,0,0,.35.79,1.35,1.35,0,0,0,1,.33,2.27,2.27,0,0,0,.93-.18,2,2,0,0,0,.67-.48,2,2,0,0,0,.41-.67,2.28,2.28,0,0,0,.13-.78v-.34c-.47,0-.91,0-1.32,0a6.5,6.5,0,0,0-1.11.17,1.88,1.88,0,0,0-.76.39A1,1,0,0,0,254.08,368.11Z"/><path class="cls-3" d="M266.42,364.51l0-1a1.76,1.76,0,0,0-.51-.19,3.76,3.76,0,0,0-.85-.08,4.12,4.12,0,0,0-.62,0,2.13,2.13,0,0,0-.54.15,1,1,0,0,0-.38.31.83.83,0,0,0-.14.51.68.68,0,0,0,.33.66,2.7,2.7,0,0,0,.72.26l2,.4q.36.09.72.21a2,2,0,0,1,.64.38,1.81,1.81,0,0,1,.48.65,2.64,2.64,0,0,1,.18,1.05,2.59,2.59,0,0,1-.32,1.35,2.39,2.39,0,0,1-.85.85,3.51,3.51,0,0,1-1.2.44,6.89,6.89,0,0,1-1.36.13,9.19,9.19,0,0,1-3-.5l0-2.25h1.6l0,1.1.67.21a3.81,3.81,0,0,0,1.1.13,2.59,2.59,0,0,0,.63-.07,1.67,1.67,0,0,0,.53-.2,1.09,1.09,0,0,0,.38-.36,1,1,0,0,0,.14-.54.8.8,0,0,0-.34-.74,2.41,2.41,0,0,0-.86-.32l-1.32-.24a8.42,8.42,0,0,1-1-.24,3,3,0,0,1-.86-.4,2.21,2.21,0,0,1-.62-.67,1.89,1.89,0,0,1-.24-1,2.34,2.34,0,0,1,.3-1.23,2.52,2.52,0,0,1,.78-.81,3.43,3.43,0,0,1,1.13-.45,6.45,6.45,0,0,1,1.33-.13,7.16,7.16,0,0,1,1.78.2c.5.14.87.25,1.12.34l0,2Z"/><path class="cls-3" d="M277,370.06a8.89,8.89,0,0,1-1.21.38,7,7,0,0,1-1.72.2,5,5,0,0,1-1.84-.31,4.06,4.06,0,0,1-1.38-.87,3.63,3.63,0,0,1-.86-1.36,5.08,5.08,0,0,1-.3-1.78,5.7,5.7,0,0,1,.26-1.73,3.93,3.93,0,0,1,.77-1.39,3.87,3.87,0,0,1,1.28-.93,4.44,4.44,0,0,1,1.77-.33,4,4,0,0,1,1.64.32,3.25,3.25,0,0,1,1.18.92,4,4,0,0,1,.7,1.39,6.21,6.21,0,0,1,.24,1.77v.24h-5.95a2.72,2.72,0,0,0,.21,1.09,2.57,2.57,0,0,0,.6.84,2.45,2.45,0,0,0,.89.54,3.51,3.51,0,0,0,1.15.18,5.59,5.59,0,0,0,1.45-.18,6.46,6.46,0,0,0,1.22-.46Zm-1.36-4.7v-.16a2.29,2.29,0,0,0-.09-.59,2,2,0,0,0-.32-.64,1.77,1.77,0,0,0-.6-.51,2,2,0,0,0-1-.21,2.13,2.13,0,0,0-1,.19,2.05,2.05,0,0,0-.63.49,2.09,2.09,0,0,0-.37.67,2.82,2.82,0,0,0-.13.76Z"/><path class="cls-3" d="M287.55,370.45h-2.81a6.55,6.55,0,0,1,.05-.89c0-.29.07-.56.11-.81h0a3,3,0,0,1-1,1.37,2.83,2.83,0,0,1-1.76.52,3.52,3.52,0,0,1-1.39-.27,3.12,3.12,0,0,1-1.09-.78,3.6,3.6,0,0,1-.73-1.24,4.78,4.78,0,0,1-.26-1.66,5.82,5.82,0,0,1,.29-1.9,4.43,4.43,0,0,1,.87-1.51,3.92,3.92,0,0,1,1.41-1,4.75,4.75,0,0,1,1.89-.35,5.94,5.94,0,0,1,.86.05c.28,0,.54.08.79.14l0-2.67h-1.52v-1.32h3.25l-.07,11h1.12Zm-2.88-6.75a3,3,0,0,0-1.58-.36,2.41,2.41,0,0,0-1.1.25,2.51,2.51,0,0,0-.81.67,3,3,0,0,0-.5,1,4.09,4.09,0,0,0-.17,1.17,4.7,4.7,0,0,0,.13,1.08,2.71,2.71,0,0,0,.38.86,1.78,1.78,0,0,0,.62.57,2,2,0,0,0,2.51-.63,4.23,4.23,0,0,0,.52-2.28Z"/><path class="cls-3" d="M209.16,386.13h1.27l0-1.87,1.81-.13-.07,2h2.39v1.31H212.2c0,.67,0,1.33,0,2s0,1.28,0,1.91a6,6,0,0,0,.06.94,1.83,1.83,0,0,0,.21.59.77.77,0,0,0,.36.29,1.43,1.43,0,0,0,.54.08,3,3,0,0,0,.73-.09,5.08,5.08,0,0,0,.66-.23l-.06,1.31a3.62,3.62,0,0,1-.83.3,4.17,4.17,0,0,1-1,.12,4,4,0,0,1-1.12-.14,1.6,1.6,0,0,1-.76-.44,1.83,1.83,0,0,1-.44-.79,4.5,4.5,0,0,1-.13-1.19c0-.27,0-.59,0-1s0-.78,0-1.2,0-.85,0-1.28,0-.82,0-1.18h-1.27Z"/><path class="cls-3" d="M215.37,393.14h.94l.07-9.68h-1.2v-1.32h3l0,4a5.24,5.24,0,0,1-.07.86c0,.3-.09.63-.14,1h0a3.21,3.21,0,0,1,.37-.77,2.64,2.64,0,0,1,.6-.65,3.25,3.25,0,0,1,.85-.45,3.42,3.42,0,0,1,1.11-.16,2.67,2.67,0,0,1,2.18.85,3.56,3.56,0,0,1,.71,2.36c0,.67,0,1.34,0,2s0,1.32,0,2h1.09v1.31H221v-1.31H222c0-.61,0-1.22,0-1.84s0-1.22,0-1.83a2.39,2.39,0,0,0-.41-1.45,1.43,1.43,0,0,0-1.27-.58,2,2,0,0,0-1.54.68,2.76,2.76,0,0,0-.65,1.85l-.06,3.17h1.12v1.31h-3.86Z"/><path class="cls-3" d="M233.16,394.06a8.89,8.89,0,0,1-1.21.38,7,7,0,0,1-1.72.2,5,5,0,0,1-1.84-.31,4.06,4.06,0,0,1-1.38-.87,3.63,3.63,0,0,1-.86-1.36,5.08,5.08,0,0,1-.3-1.78,5.7,5.7,0,0,1,.26-1.73,3.93,3.93,0,0,1,.77-1.39,3.87,3.87,0,0,1,1.28-.93,4.44,4.44,0,0,1,1.77-.33,4,4,0,0,1,1.64.32,3.25,3.25,0,0,1,1.18.92,4,4,0,0,1,.7,1.39,6.21,6.21,0,0,1,.24,1.77v.24h-5.95a2.72,2.72,0,0,0,.21,1.09,2.57,2.57,0,0,0,.6.84,2.45,2.45,0,0,0,.89.54,3.51,3.51,0,0,0,1.15.18,5.59,5.59,0,0,0,1.45-.18,6.46,6.46,0,0,0,1.22-.46Zm-1.36-4.7v-.16a2.29,2.29,0,0,0-.09-.59,2,2,0,0,0-.32-.64,1.77,1.77,0,0,0-.6-.51,2,2,0,0,0-1-.21,2.13,2.13,0,0,0-1,.19,2.05,2.05,0,0,0-.63.49,2.09,2.09,0,0,0-.37.67,2.82,2.82,0,0,0-.13.76Z"/><path class="cls-3" d="M234.79,393.14h1.09l0-5.7h-1.27v-1.31h3.06l0,7h1.12v1.31h-4Zm.79-10a1.23,1.23,0,1,1,.36.88A1.19,1.19,0,0,1,235.58,383.18Z"/><path class="cls-3" d="M239.92,393.14h1l0-5.7h-1.27v-1.31h3c0,.31,0,.66,0,1.07a8.48,8.48,0,0,1-.09,1.23l0,0a3.57,3.57,0,0,1,.88-1.84A2.09,2.09,0,0,1,245,386a2.92,2.92,0,0,1,.6,0,2.66,2.66,0,0,1,.41.09l-.2,1.59a1.36,1.36,0,0,0-.36-.1,2.81,2.81,0,0,0-.45,0,1.93,1.93,0,0,0-1,.25,2.1,2.1,0,0,0-.71.68,3.44,3.44,0,0,0-.41,1,4.43,4.43,0,0,0-.13,1.08l0,2.6h1.22v1.31h-4Z"/><path class="cls-3" d="M256.33,388.51l0-1a1.76,1.76,0,0,0-.51-.19,3.69,3.69,0,0,0-.85-.08,4.21,4.21,0,0,0-.62,0,2.05,2.05,0,0,0-.53.15,1,1,0,0,0-.39.31.9.9,0,0,0-.14.51.68.68,0,0,0,.33.66,2.7,2.7,0,0,0,.72.26l2,.4.71.21a2.13,2.13,0,0,1,.65.38,1.79,1.79,0,0,1,.47.65,2.64,2.64,0,0,1,.18,1.05,2.5,2.5,0,0,1-.32,1.35,2.31,2.31,0,0,1-.85.85,3.53,3.53,0,0,1-1.19.44,7,7,0,0,1-1.37.13,8.37,8.37,0,0,1-1.84-.18,8.74,8.74,0,0,1-1.18-.32l0-2.25h1.6l0,1.1.67.21a3.84,3.84,0,0,0,1.11.13,2.56,2.56,0,0,0,.62-.07,1.83,1.83,0,0,0,.54-.2,1.06,1.06,0,0,0,.37-.36,1,1,0,0,0,.15-.54.8.8,0,0,0-.35-.74,2.43,2.43,0,0,0-.85-.32l-1.33-.24a8.42,8.42,0,0,1-1-.24,3,3,0,0,1-.86-.4,2.18,2.18,0,0,1-.61-.67,1.89,1.89,0,0,1-.24-1,2.24,2.24,0,0,1,1.08-2,3.29,3.29,0,0,1,1.12-.45,6.45,6.45,0,0,1,1.33-.13,7.1,7.1,0,0,1,1.78.2c.5.14.87.25,1.12.34l0,2Z"/><path class="cls-3" d="M260.35,386.69c.1-.06.25-.12.44-.21a5.57,5.57,0,0,1,.7-.25,8.35,8.35,0,0,1,.94-.21,8.77,8.77,0,0,1,1.21-.08,4.59,4.59,0,0,1,1.55.22,2.45,2.45,0,0,1,1,.63,2.31,2.31,0,0,1,.54,1,5,5,0,0,1,.16,1.33c0,.67,0,1.34,0,2s0,1.33,0,2H268v1.31h-2.64c0-.27,0-.55,0-.86a8,8,0,0,1,.11-.87h0a4.49,4.49,0,0,1-.34.7,2.35,2.35,0,0,1-.53.61,2.44,2.44,0,0,1-.78.44,3.34,3.34,0,0,1-1.12.17,3.13,3.13,0,0,1-1.26-.22,2.45,2.45,0,0,1-.81-.57,2.08,2.08,0,0,1-.45-.77,2.72,2.72,0,0,1-.14-.82,2.22,2.22,0,0,1,.37-1.32,2.56,2.56,0,0,1,.91-.76,4.28,4.28,0,0,1,1.17-.35q.63-.09,1.14-.12l1.71-.09V389a3.06,3.06,0,0,0-.08-.7,1.17,1.17,0,0,0-.29-.55,1.27,1.27,0,0,0-.57-.36,2.6,2.6,0,0,0-.9-.13,3.6,3.6,0,0,0-.88.1,4,4,0,0,0-.62.19v1.21h-1.6Zm1.44,5.42a1,1,0,0,0,.34.79,1.37,1.37,0,0,0,1,.33,2.2,2.2,0,0,0,.93-.18,2,2,0,0,0,.67-.48,1.87,1.87,0,0,0,.41-.67,2.29,2.29,0,0,0,.14-.78v-.34c-.47,0-.91,0-1.33,0a6.37,6.37,0,0,0-1.1.17,1.82,1.82,0,0,0-.76.39A1,1,0,0,0,261.79,392.11Z"/><path class="cls-3" d="M269.26,393.14h1l.06-9.68h-1.46v-1.32h3.25l-.06,11h1.12v1.31h-3.92Z"/><path class="cls-3" d="M281.48,394.06a8.89,8.89,0,0,1-1.21.38,7,7,0,0,1-1.72.2,5,5,0,0,1-1.84-.31,4.06,4.06,0,0,1-1.38-.87,3.63,3.63,0,0,1-.86-1.36,5.08,5.08,0,0,1-.3-1.78,5.41,5.41,0,0,1,.26-1.73,3.93,3.93,0,0,1,.77-1.39,3.77,3.77,0,0,1,1.28-.93,4.44,4.44,0,0,1,1.77-.33,4,4,0,0,1,1.64.32,3.25,3.25,0,0,1,1.18.92,4.23,4.23,0,0,1,.7,1.39,6.21,6.21,0,0,1,.24,1.77v.24h-5.95a2.72,2.72,0,0,0,.21,1.09,2.57,2.57,0,0,0,.6.84,2.45,2.45,0,0,0,.89.54,3.51,3.51,0,0,0,1.15.18,5.59,5.59,0,0,0,1.45-.18,6.73,6.73,0,0,0,1.22-.46Zm-1.36-4.7v-.16a2.29,2.29,0,0,0-.09-.59,2,2,0,0,0-.32-.64,1.77,1.77,0,0,0-.6-.51,2,2,0,0,0-1-.21,2.13,2.13,0,0,0-1,.19,2.05,2.05,0,0,0-.63.49,2.09,2.09,0,0,0-.37.67,2.82,2.82,0,0,0-.13.76Z"/><path class="cls-3" d="M288.06,388.51l0-1a1.76,1.76,0,0,0-.51-.19,3.76,3.76,0,0,0-.85-.08,4.12,4.12,0,0,0-.62,0,2.13,2.13,0,0,0-.54.15,1,1,0,0,0-.38.31.83.83,0,0,0-.14.51.68.68,0,0,0,.33.66,2.58,2.58,0,0,0,.72.26l2,.4.72.21a2,2,0,0,1,.64.38,1.93,1.93,0,0,1,.48.65,2.64,2.64,0,0,1,.18,1.05,2.59,2.59,0,0,1-.32,1.35,2.39,2.39,0,0,1-.85.85,3.51,3.51,0,0,1-1.2.44,6.89,6.89,0,0,1-1.36.13,9.19,9.19,0,0,1-3-.5l0-2.25h1.6l0,1.1.67.21a3.81,3.81,0,0,0,1.1.13,2.65,2.65,0,0,0,.63-.07,1.67,1.67,0,0,0,.53-.2,1.09,1.09,0,0,0,.38-.36,1,1,0,0,0,.14-.54.8.8,0,0,0-.34-.74,2.49,2.49,0,0,0-.86-.32l-1.32-.24a7.92,7.92,0,0,1-1-.24,2.84,2.84,0,0,1-.86-.4,2.21,2.21,0,0,1-.62-.67,1.89,1.89,0,0,1-.24-1,2.34,2.34,0,0,1,.3-1.23,2.52,2.52,0,0,1,.78-.81,3.35,3.35,0,0,1,1.13-.45,6.45,6.45,0,0,1,1.33-.13,7.07,7.07,0,0,1,1.77.2c.51.14.88.25,1.12.34l0,2Z"/><path class="cls-3" d="M226.13,334.35c-5.24,0-9.49-3.33-9.49-8.6,0-2.86,1.09-5.07,2.69-7.45l5.81-8.67H232l-5.91,8.23-.1.17a5.36,5.36,0,0,1,1.7-.27,7.73,7.73,0,0,1,7.88,7.85C235.61,331.08,231.33,334.35,226.13,334.35Zm0-12.38a3.65,3.65,0,0,0-3.81,3.81,3.7,3.7,0,0,0,3.78,3.81,3.81,3.81,0,0,0,0-7.62Z"/><path class="cls-3" d="M248.16,334.35c-6.83,0-9.45-5.92-9.45-12.75S241.33,309,248.16,309s9.38,5.81,9.38,12.61S255,334.35,248.16,334.35Zm0-20.54c-3,0-3.6,4.76-3.6,7.79s.57,7.85,3.6,7.85,3.54-4.76,3.54-7.85S251.15,313.81,248.16,313.81Z"/><path class="cls-3" d="M266.55,322.07a6.43,6.43,0,1,1,6.46-6.42A6.43,6.43,0,0,1,266.55,322.07Zm0-9.07a2.64,2.64,0,1,0,2.66,2.65A2.65,2.65,0,0,0,266.55,313Zm2.62,21.86-3-1.5,14-24.82,3.16,1.53Zm13.7-.75a6.43,6.43,0,1,1,6.46-6.43A6.43,6.43,0,0,1,282.87,334.11Zm0-9.08a2.65,2.65,0,0,0-2.65,2.65,2.65,2.65,0,0,0,5.3,0A2.67,2.67,0,0,0,282.87,325Z"/><path class="cls-4" d="M74.42,22.2a50,50,0,1,0,50,50,50,50,0,0,0-50-50"/><rect class="cls-3" x="45.01" y="52.43" width="54.37" height="40.74"/><polyline class="cls-5" points="50.51 85.77 61.69 72.2 72.89 77.81 80.34 64.2 102.74 52.43"/><polyline class="cls-6" points="45.7 52.43 45.7 93.17 100.07 93.17"/><path class="cls-4" d="M251.65,0a50,50,0,1,0,50,50,50,50,0,0,0-50-50"/><g id="PL_Cart"><path class="cls-2" d="M270.58,67.59a2.69,2.69,0,1,1-2.69-2.69A2.7,2.7,0,0,1,270.58,67.59Z"/><path class="cls-2" d="M239.59,67.59a2.69,2.69,0,1,1-2.68-2.69A2.69,2.69,0,0,1,239.59,67.59Z"/><path class="cls-2" d="M236.73,32.69l-.89-2.57a.59.59,0,0,0-.56-.4h-4.35a.92.92,0,0,0-.91.92h0a.91.91,0,0,0,.91.91H234a.66.66,0,0,1,.64.49l5.89,21.87a.66.66,0,0,1-.39.79,10.2,10.2,0,0,0-6.47,7.66c0,.19-.06.36-.08.52a1.11,1.11,0,0,0,1.1,1.27h35.74a.9.9,0,0,0,.9-.9h0a.9.9,0,0,0-.9-.9H236.21a.54.54,0,0,1-.52-.69c.86-3.09,4.28-5.59,7.82-6s21.54-3,25.44-3.58a.94.94,0,0,0,.8-.84l1.47-16.85a1.1,1.1,0,0,0-1.09-1.2H237.39A.71.71,0,0,1,236.73,32.69Zm30.45,17.79L242.61,54h0a.31.31,0,0,1-.36-.22l-4.59-18.21a.47.47,0,0,1,.45-.58h30.55a.8.8,0,0,1,.79.88L268,49.66A.92.92,0,0,1,267.18,50.48Z"/></g><path class="cls-3" d="M242.61,54h0a.31.31,0,0,1-.36-.22l-4.59-18.21a.47.47,0,0,1,.45-.58h30.55a.8.8,0,0,1,.79.88L268,49.66a.92.92,0,0,1-.78.82L242.61,54"/><path class="cls-3" d="M271.42,44.71A10.72,10.72,0,1,1,282.13,34,10.73,10.73,0,0,1,271.42,44.71Z"/><path class="cls-7" d="M270.92,40V38.55a4.25,4.25,0,0,1-2.26-.65l.36-1a3.94,3.94,0,0,0,2.12.63c1,0,1.75-.6,1.75-1.44s-.58-1.31-1.67-1.75c-1.5-.59-2.43-1.27-2.43-2.55A2.42,2.42,0,0,1,271,29.44V28h.91v1.43a4,4,0,0,1,1.92.51l-.37,1a3.54,3.54,0,0,0-1.86-.51c-1.13,0-1.56.68-1.56,1.27,0,.77.55,1.15,1.83,1.68,1.51.62,2.28,1.38,2.28,2.69a2.56,2.56,0,0,1-2.33,2.51V40Z"/><path class="cls-7" d="M271.42,44.71A10.72,10.72,0,1,1,282.13,34,10.73,10.73,0,0,1,271.42,44.71Zm0-20.14A9.43,9.43,0,1,0,280.84,34,9.44,9.44,0,0,0,271.42,24.57Z"/></g></g></svg>
