<svg xmlns="http://www.w3.org/2000/svg" viewBox="0 0 14.5 10.88"><defs><style>.cls-1{fill:#fff;}</style></defs><title>email_white</title><g id="Layer_2" data-name="Layer 2"><g id="Guides"><path class="cls-1" d="M7.25,7.25a1.78,1.78,0,0,1-.91-.34,6.59,6.59,0,0,1-.87-.62l-.29-.2Q1.7,3.54.45,2.58l-.2-.14A.66.66,0,0,1,0,1.9V1.36A1.28,1.28,0,0,1,.4.4a1.28,1.28,0,0,1,1-.4H13.14a1.28,1.28,0,0,1,1,.4,1.28,1.28,0,0,1,.4,1V1.9a.66.66,0,0,1-.25.54l-.15.11q-1.22,1-4.78,3.54L9,6.29a6.59,6.59,0,0,1-.87.62A1.78,1.78,0,0,1,7.25,7.25Zm7-3.65c-.68.53-2.14,1.59-4.36,3.2L9.57,7a7.82,7.82,0,0,1-1.07.74,2.59,2.59,0,0,1-1.25.4A2.75,2.75,0,0,1,6,7.79a11.44,11.44,0,0,1-1.07-.74L4.64,6.8Q1.22,4.31.28,3.6a.17.17,0,0,0-.18,0,.15.15,0,0,0-.1.16V9.52a1.31,1.31,0,0,0,.4,1,1.31,1.31,0,0,0,1,.4H13.14A1.37,1.37,0,0,0,14.5,9.52V3.74a.18.18,0,0,0-.1-.17A.13.13,0,0,0,14.22,3.6Z"/></g></g></svg>