<svg xmlns="http://www.w3.org/2000/svg" width="200" height="39.8" viewBox="0 0 200 39.8">
  <title>logo</title>
  <g id="Layer_2" data-name="Layer 2">
    <g id="Guides">
      <g>
        <path d="M71.8,5.4A18.9,18.9,0,0,0,58.1,0C47.1,0,38.6,8.7,38.6,19.9s8.5,19.9,19.5,19.9a18.7,18.7,0,0,0,13.7-5.6s-3.1-4.3-4.6-5.9a4,4,0,0,0-4.7-1,8.8,8.8,0,0,1-3.6.8C54,28.2,51,24.4,51,20s2.9-8.3,7.8-8.3a11,11,0,0,1,3.4.8,4.7,4.7,0,0,0,5.1-1.2C68.6,10,71.8,5.4,71.8,5.4Z" fill="#f48120"/>
        <path d="M104.3,5.4A18.9,18.9,0,0,0,90.6,0C79.6,0,71.1,8.7,71.1,19.9s8.5,19.9,19.5,19.9a18.7,18.7,0,0,0,13.7-5.6s-3.1-4.3-4.6-5.9a4,4,0,0,0-4.7-1,8.8,8.8,0,0,1-3.6.8c-4.9,0-7.8-3.8-7.8-8.3s2.9-8.3,7.8-8.3a11,11,0,0,1,3.4.8,4.7,4.7,0,0,0,5-1.2C101.1,10,104.3,5.4,104.3,5.4Z" fill="#f48120"/>
        <path d="M40.5,39a3.6,3.6,0,0,0,.2-1.3,4.9,4.9,0,0,0-.7-2.4L20.4,0h-.2L.7,35.3A5,5,0,0,0,0,37.7,2.9,2.9,0,0,0,.3,39H12.7l6.1-12.3c.4-.8.8-1.1,1.4-1.1s1,.3,1.5,1.1L28.2,39Z" fill="#f48120"/>
        <path d="M143.4,39.8a19.9,19.9,0,1,1,20-19.9,19.9,19.9,0,0,1-20,19.9m0-11.6a8,8,0,0,0,7.8-8.3,7.9,7.9,0,1,0-15.7,0,8,8,0,0,0,7.8,8.3" fill="#f48120"/>
        <rect x="107.5" y="0.6" width="12.1" height="38.37" rx="2.9" ry="2.9" fill="#f48120"/>
        <path d="M200,39.2V4.3c0-2.3-.7-3.7-3.4-3.7h-8.3V13.6a1.2,1.2,0,0,1-1.2,1.3c-.7,0-1.1-.3-2.1-1.4l-7.2-7c-4-3.7-6-5.8-8.7-5.8a5.3,5.3,0,0,0-1.7.3V36.1c0,1.9.6,2.9,3,2.9H179v-12a1.3,1.3,0,0,1,1.3-1.4c.9,0,1.3.6,2.5,1.8l5.6,5.6c5,4.9,7.2,6.2,10,6.2Z" fill="#f48120"/>
      </g>
    </g>
  </g>
</svg>
