<svg id="Layer_1" data-name="Layer 1" xmlns="http://www.w3.org/2000/svg" viewBox="0 0 80 80"><defs><style>.cls-1,.cls-3{fill:#fff;}.cls-1,.cls-2{stroke:#3f5163;stroke-miterlimit:10;}.cls-1{stroke-width:1.5px;}.cls-2{fill:none;}.cls-4{fill:#37bfbf;}.cls-5{fill:#3f5163;}</style></defs><rect class="cls-1" x="20.56" y="6.12" width="38.89" height="54" rx="4.17" ry="4.17"/><rect class="cls-2" x="26.92" y="25.94" width="26.67" height="2.57" rx="1" ry="1"/><rect class="cls-2" x="26.92" y="34.19" width="26.67" height="2.57" rx="1" ry="1"/><rect class="cls-2" x="26.92" y="17.69" width="26.67" height="2.57" rx="1" ry="1"/><circle class="cls-3" cx="49.3" cy="56.59" r="6.11"/><polygon class="cls-4" points="45.6 62.36 45.6 73.53 48.78 70.35 52.3 73.88 52.3 62.36 45.6 62.36"/><path class="cls-5" d="M55.32,53a7,7,0,0,0-2.6-2.6,7,7,0,0,0-7.12,0A7.15,7.15,0,0,0,43,53a7.08,7.08,0,0,0,0,7.12,7.26,7.26,0,0,0,2.61,2.61,7.08,7.08,0,0,0,7.12,0,7.15,7.15,0,0,0,2.6-2.61,7,7,0,0,0,0-7.12Zm-1.19,6.43a5.72,5.72,0,0,1-2.1,2.1,5.67,5.67,0,0,1-5.74,0,5.72,5.72,0,0,1-2.1-2.1,5.67,5.67,0,0,1,0-5.74,5.72,5.72,0,0,1,2.1-2.1,5.67,5.67,0,0,1,5.74,0,5.72,5.72,0,0,1,2.1,2.1,5.67,5.67,0,0,1,0,5.74Z"/><path class="cls-4" d="M52.55,53.93a.35.35,0,0,0-.26-.12.32.32,0,0,0-.23.09L48,58,46.29,56.2a.43.43,0,0,0-.26-.09.29.29,0,0,0-.23.09l-.66.66a.26.26,0,0,0-.12.23.37.37,0,0,0,.12.26L47.75,60a.28.28,0,0,0,.23.12.35.35,0,0,0,.26-.12l4.94-4.91a.28.28,0,0,0,.12-.23.34.34,0,0,0-.12-.26Z"/></svg>