<svg xmlns="http://www.w3.org/2000/svg" viewBox="0 0 554.32 169.74"><defs><style>.cls-1{fill:#3f5163;}.cls-2{fill:#37bfbf;}.cls-3,.cls-6{fill:#1b69aa;}.cls-3{opacity:0.05;}.cls-4{fill:#eaa10f;}.cls-5{fill:#e5542e;}</style></defs><title>Asset 17</title><g id="Layer_2" data-name="Layer 2"><g id="Guides"><path class="cls-1" d="M27.86,156.92h4.72v1.47H31.32L34,166.51c.07.22.13.43.18.66s.11.44.18.65h0a6.37,6.37,0,0,0,.16-.66,4.12,4.12,0,0,1,.2-.65L37,160.43l-.68-2H35.12v-1.47h4.6v1.47H38.46l2.47,8c.07.24.13.48.18.74s.1.49.16.73h0c.07-.24.14-.48.2-.73s.13-.5.21-.74l2.74-8H43.07v-1.47h4.5v1.47h-1.1l-4.19,11.13H40.05l-2.16-6.68h0l-2.52,6.68H33.1L29,158.39H27.86Z"/><path class="cls-1" d="M48.15,168h1.06l.07-10.89H47.93v-1.48h3.44l0,4.48a6.69,6.69,0,0,1-.08,1c0,.33-.1.7-.16,1.1h0a3.44,3.44,0,0,1,.41-.87,3.13,3.13,0,0,1,.68-.73,3.06,3.06,0,0,1,.95-.5,3.73,3.73,0,0,1,1.25-.19,3,3,0,0,1,2.46,1,4.08,4.08,0,0,1,.8,2.66c0,.75,0,1.5,0,2.24s0,1.48,0,2.24h1.22v1.48h-4.3V168h1.06c0-.68,0-1.37.05-2.06s0-1.38,0-2.06a2.74,2.74,0,0,0-.46-1.64,1.63,1.63,0,0,0-1.43-.65,2.24,2.24,0,0,0-1.73.77,3.05,3.05,0,0,0-.73,2.08L51.23,168h1.26v1.48H48.15Z"/><path class="cls-1" d="M60,168h1.22l0-6.41H59.83v-1.48h3.44l0,7.89h1.26v1.48H60Zm.88-11.2a1.34,1.34,0,0,1,.41-1,1.32,1.32,0,0,1,1-.4,1.37,1.37,0,0,1,1.38,1.38,1.3,1.3,0,0,1-.4,1,1.34,1.34,0,0,1-1,.41,1.33,1.33,0,0,1-1-.41A1.31,1.31,0,0,1,60.87,156.84Z"/><path class="cls-1" d="M65.5,160.15h1.42l0-2.1,2-.15-.07,2.25H71.6v1.48H68.92q0,1.14,0,2.22c0,.73,0,1.45,0,2.16a6.11,6.11,0,0,0,.08,1.06,1.65,1.65,0,0,0,.23.66.84.84,0,0,0,.4.33,1.82,1.82,0,0,0,.61.09A3.3,3.3,0,0,0,71,168a6.41,6.41,0,0,0,.74-.25l-.07,1.47a3.7,3.7,0,0,1-.93.34,4.69,4.69,0,0,1-1.14.13,4.63,4.63,0,0,1-1.26-.15,1.85,1.85,0,0,1-.85-.5,1.88,1.88,0,0,1-.49-.89,5.11,5.11,0,0,1-.15-1.34c0-.3,0-.66,0-1.1s0-.88,0-1.35,0-1,0-1.44,0-.92,0-1.33H65.5Z"/><path class="cls-1" d="M80.49,169.08a9.27,9.27,0,0,1-1.36.43,7.7,7.7,0,0,1-1.93.22,5.85,5.85,0,0,1-2.08-.35,4.41,4.41,0,0,1-1.55-1,4.17,4.17,0,0,1-1-1.53,5.79,5.79,0,0,1-.33-2,6.11,6.11,0,0,1,.29-1.94,4.38,4.38,0,0,1,.87-1.57,4.1,4.1,0,0,1,1.44-1,4.74,4.74,0,0,1,2-.38,4.29,4.29,0,0,1,1.84.37,3.55,3.55,0,0,1,1.32,1,4.66,4.66,0,0,1,.8,1.57,7,7,0,0,1,.27,2v.27h-6.7a3,3,0,0,0,.24,1.23,3.08,3.08,0,0,0,.67,1,2.92,2.92,0,0,0,1,.6,3.79,3.79,0,0,0,1.29.21,6.06,6.06,0,0,0,1.63-.21,7.82,7.82,0,0,0,1.37-.51ZM79,163.79v-.18a2.16,2.16,0,0,0-.11-.66,2.19,2.19,0,0,0-.35-.72,2,2,0,0,0-1.75-.81,2.48,2.48,0,0,0-1.08.21,2.21,2.21,0,0,0-.71.55,2.09,2.09,0,0,0-.42.76,3.1,3.1,0,0,0-.15.85Z"/><path class="cls-2" d="M21.72,56.44h.36a8.48,8.48,0,0,0,1.7-.18,5.15,5.15,0,0,0,1.61-.63,3.83,3.83,0,0,0,1.2-1.17,3.13,3.13,0,0,0,.48-1.8,2.43,2.43,0,0,0-.8-1.93,3.12,3.12,0,0,0-2.14-.7,3.81,3.81,0,0,0-1.7.33,3.09,3.09,0,0,0-1,.83,2.82,2.82,0,0,0-.52,1,3.81,3.81,0,0,0-.14.92H17.6a5.45,5.45,0,0,1,.31-1.56A5.39,5.39,0,0,1,19,49.72,6.12,6.12,0,0,1,21,48.19a7.65,7.65,0,0,1,3.32-.63,8.58,8.58,0,0,1,2.68.38,5.26,5.26,0,0,1,1.87,1A4,4,0,0,1,30,50.53a5.06,5.06,0,0,1,.36,1.9A4.92,4.92,0,0,1,30,54.3a4.54,4.54,0,0,1-.91,1.38,5.06,5.06,0,0,1-1.32,1,6.07,6.07,0,0,1-1.55.54v.06a7.44,7.44,0,0,1,1.93.42,4.67,4.67,0,0,1,1.55.94,4.23,4.23,0,0,1,1,1.45A4.81,4.81,0,0,1,31.16,62a6.25,6.25,0,0,1-.45,2.37,4.76,4.76,0,0,1-1.42,1.9,7.12,7.12,0,0,1-2.46,1.26,12.14,12.14,0,0,1-3.57.46,15.42,15.42,0,0,1-2-.11,14.66,14.66,0,0,1-1.55-.28,8.32,8.32,0,0,1-1.15-.36l-.81-.34v-3a18,18,0,0,0,2.21,1,9,9,0,0,0,3.16.49,9.45,9.45,0,0,0,1.79-.17,4.71,4.71,0,0,0,1.53-.56,3,3,0,0,0,1.05-1A3.1,3.1,0,0,0,27.85,62a2.68,2.68,0,0,0-.49-1.68,3.22,3.22,0,0,0-1.23-1,5.06,5.06,0,0,0-1.62-.46,12.5,12.5,0,0,0-1.67-.12H21.72Z"/><path class="cls-2" d="M47.12,50.56c-.27-.09-.66-.21-1.19-.34A8.56,8.56,0,0,0,44,50a7.49,7.49,0,0,0-2.87.49,5.19,5.19,0,0,0-2,1.42,7.05,7.05,0,0,0-1.26,2.3,16.8,16.8,0,0,0-.68,3.07l.05,0a7.68,7.68,0,0,1,.7-.71,5.68,5.68,0,0,1,1-.69,6.83,6.83,0,0,1,1.28-.52,5.66,5.66,0,0,1,1.61-.21,7.11,7.11,0,0,1,2.45.41,5.22,5.22,0,0,1,3.13,3,6.61,6.61,0,0,1,.44,2.46A8.07,8.07,0,0,1,47.3,64a6.29,6.29,0,0,1-1.37,2.16,6.08,6.08,0,0,1-2.12,1.36,7.68,7.68,0,0,1-2.74.47,6.41,6.41,0,0,1-3.38-.82,6.6,6.6,0,0,1-2.17-2.13,9.26,9.26,0,0,1-1.16-2.93A15.41,15.41,0,0,1,34,58.9a17.5,17.5,0,0,1,.51-4.23,10.09,10.09,0,0,1,1.66-3.62,8.44,8.44,0,0,1,3.07-2.54,10.52,10.52,0,0,1,4.7-.95,10,10,0,0,1,1.63.13,13.37,13.37,0,0,1,1.34.26l.42.14Zm-10,9a10,10,0,0,0,.25,2.33,5.63,5.63,0,0,0,.76,1.83A3.61,3.61,0,0,0,39.4,65a3.51,3.51,0,0,0,1.75.42A3.12,3.12,0,0,0,42.66,65a3.37,3.37,0,0,0,1.1-.88,3.68,3.68,0,0,0,.67-1.27,5.11,5.11,0,0,0,.22-1.51A4.65,4.65,0,0,0,44.46,60a3.18,3.18,0,0,0-.65-1.18A3.22,3.22,0,0,0,42.68,58,4,4,0,0,0,41,57.7a4.94,4.94,0,0,0-1.3.15,5.44,5.44,0,0,0-1,.39,4.15,4.15,0,0,0-.72.51c-.21.18-.4.34-.56.49Z"/><path class="cls-2" d="M51.12,65.85a2.15,2.15,0,1,1,.63,1.52A2.08,2.08,0,0,1,51.12,65.85Z"/><path class="cls-2" d="M71.87,50.56c-.26-.09-.66-.21-1.19-.34a8.51,8.51,0,0,0-2-.19,7.49,7.49,0,0,0-2.87.49,5.08,5.08,0,0,0-2,1.42,6.7,6.7,0,0,0-1.26,2.3,16,16,0,0,0-.69,3.07l.06,0a6.59,6.59,0,0,1,.7-.71,5.31,5.31,0,0,1,1-.69,6.46,6.46,0,0,1,1.27-.52,5.71,5.71,0,0,1,1.61-.21,7.07,7.07,0,0,1,2.45.41,5.22,5.22,0,0,1,1.9,1.18,5.11,5.11,0,0,1,1.24,1.86,6.61,6.61,0,0,1,.43,2.46A7.85,7.85,0,0,1,72.05,64a6.14,6.14,0,0,1-1.37,2.16,6,6,0,0,1-2.12,1.36,7.68,7.68,0,0,1-2.74.47,6.13,6.13,0,0,1-5.54-3,9,9,0,0,1-1.17-2.93,15.41,15.41,0,0,1-.35-3.22,17.5,17.5,0,0,1,.51-4.23,10.09,10.09,0,0,1,1.66-3.62A8.44,8.44,0,0,1,64,48.51a10.52,10.52,0,0,1,4.7-.95,9.86,9.86,0,0,1,1.63.13,13.37,13.37,0,0,1,1.34.26l.42.14Zm-10,9a10,10,0,0,0,.25,2.33,5.63,5.63,0,0,0,.76,1.83A3.61,3.61,0,0,0,64.15,65a3.51,3.51,0,0,0,1.75.42A3.19,3.19,0,0,0,67.42,65a3.33,3.33,0,0,0,1.09-.88,3.68,3.68,0,0,0,.67-1.27,5.11,5.11,0,0,0,.22-1.51A4.65,4.65,0,0,0,69.21,60a3.18,3.18,0,0,0-.65-1.18A3.13,3.13,0,0,0,67.43,58a4,4,0,0,0-1.67-.32,5,5,0,0,0-1.3.15,5.33,5.33,0,0,0-1,.39,4.25,4.25,0,0,0-.73.51l-.56.49Z"/><path class="cls-2" d="M79.82,47.56a5.28,5.28,0,0,1,1.76.28,3.8,3.8,0,0,1,1.4.84,3.94,3.94,0,0,1,.93,1.42,5.51,5.51,0,0,1,.33,2A4.56,4.56,0,0,1,83,55.43a4.44,4.44,0,0,1-3.33,1.26,4.56,4.56,0,0,1-3.3-1.22,4.4,4.4,0,0,1-1.26-3.32,4.72,4.72,0,0,1,.32-1.77,4.17,4.17,0,0,1,.94-1.46,4.37,4.37,0,0,1,1.48-1A4.89,4.89,0,0,1,79.82,47.56Zm-.14,2a2.07,2.07,0,0,0-1.71.72,2.75,2.75,0,0,0-.56,1.89A3.15,3.15,0,0,0,78,54a2,2,0,0,0,1.69.71A2,2,0,0,0,81.4,54,3,3,0,0,0,82,52.13a3.16,3.16,0,0,0-.51-1.89A2,2,0,0,0,79.68,49.52Zm11.26-3.13,1.82,1.09L79.85,69.18,78,68.09Zm.61,12.48a5.61,5.61,0,0,1,1.77.28,4,4,0,0,1,1.4.84,3.92,3.92,0,0,1,.92,1.42,5.55,5.55,0,0,1,.34,2,4.53,4.53,0,0,1-1.24,3.33A4.44,4.44,0,0,1,91.41,68a4.52,4.52,0,0,1-3.3-1.22,4.38,4.38,0,0,1-1.26-3.31,4.94,4.94,0,0,1,.32-1.78,4.26,4.26,0,0,1,.94-1.46,4.37,4.37,0,0,1,1.48-1A5.07,5.07,0,0,1,91.55,58.87Zm-.14,2a2.1,2.1,0,0,0-1.71.72,2.81,2.81,0,0,0-.56,1.89,3.15,3.15,0,0,0,.58,1.89,2,2,0,0,0,1.69.71,2,2,0,0,0,1.72-.71,3,3,0,0,0,.55-1.89,3.23,3.23,0,0,0-.5-1.89A2,2,0,0,0,91.41,60.83Z"/><path class="cls-3" d="M4.35,57.42,0,57.46a56.39,56.39,0,0,0,17.53,40l3-3.14A52.08,52.08,0,0,1,4.35,57.42Z"/><path class="cls-2" d="M2,56.63H2a2,2,0,0,0,2-1.87A52.57,52.57,0,0,1,89.42,15.55a2,2,0,0,0,2.69-.25h0a2,2,0,0,0-.26-2.86A56.52,56.52,0,0,0,0,54.56,2,2,0,0,0,2,56.63Z"/><path class="cls-3" d="M109.14,56.14a52.7,52.7,0,0,1-39.73,51.45l.94,3.83a56.52,56.52,0,0,0,23.72-97.1l-2.62,2.95A52.46,52.46,0,0,1,109.14,56.14Z"/><path class="cls-3" d="M57,109.18a52.35,52.35,0,0,1-36.13-14L18.12,98a56.45,56.45,0,0,0,51.45,13.58l-.94-3.83A52.61,52.61,0,0,1,57,109.18Z"/><path class="cls-1" d="M171.58,168h1.28l.07-9.65h-1.35v-1.47h4.65v1.47H175l-.07,9.65h3.74l.18-2.12h1.69l-.18,3.59h-8.73Z"/><path class="cls-1" d="M183,160.75l.5-.23c.22-.09.48-.19.78-.28a8.89,8.89,0,0,1,2.42-.33,5.19,5.19,0,0,1,1.75.25,2.92,2.92,0,0,1,1.13.71,2.67,2.67,0,0,1,.6,1.13,5.69,5.69,0,0,1,.18,1.49c0,.76,0,1.51,0,2.26s0,1.5,0,2.26h1.26v1.47h-3c0-.29,0-.62,0-1a9.67,9.67,0,0,1,.13-1h0a3.51,3.51,0,0,1-.38.78,2.67,2.67,0,0,1-1.47,1.19,3.63,3.63,0,0,1-1.26.19,3.39,3.39,0,0,1-1.41-.25,2.65,2.65,0,0,1-.92-.64,2.31,2.31,0,0,1-.51-.86,3.11,3.11,0,0,1-.15-.93,2.47,2.47,0,0,1,.41-1.48,2.82,2.82,0,0,1,1-.85,4.53,4.53,0,0,1,1.31-.4c.47-.06.9-.11,1.28-.13l1.93-.11v-.7a3.24,3.24,0,0,0-.09-.79,1.41,1.41,0,0,0-.33-.63,1.52,1.52,0,0,0-.63-.4,3,3,0,0,0-1-.14,4,4,0,0,0-1,.11,6.47,6.47,0,0,0-.7.21v1.37H183Zm1.62,6.11a1.21,1.21,0,0,0,.38.89,1.58,1.58,0,0,0,1.11.37,2.41,2.41,0,0,0,1-.21,2.37,2.37,0,0,0,.76-.54,2.18,2.18,0,0,0,.46-.76,2.57,2.57,0,0,0,.15-.87v-.38c-.53,0-1,0-1.49,0a6.11,6.11,0,0,0-1.24.19,1.89,1.89,0,0,0-.86.44A1.07,1.07,0,0,0,184.62,166.86Z"/><path class="cls-1" d="M192.34,160.13h1.42l0-2.11,2-.14-.07,2.25h2.68v1.47h-2.68q0,1.14,0,2.22c0,.73,0,1.45,0,2.16a7.48,7.48,0,0,0,.07,1.06,1.7,1.7,0,0,0,.24.65.81.81,0,0,0,.4.34,1.82,1.82,0,0,0,.61.09,3.3,3.3,0,0,0,.82-.11,6.41,6.41,0,0,0,.74-.25l-.07,1.47a3.7,3.7,0,0,1-.93.34,4.69,4.69,0,0,1-1.14.13,4.63,4.63,0,0,1-1.26-.15,1.85,1.85,0,0,1-.85-.5,1.93,1.93,0,0,1-.49-.89,5.11,5.11,0,0,1-.15-1.34c0-.3,0-.67,0-1.1s0-.88,0-1.36,0-1,0-1.43,0-.92,0-1.33h-1.42Z"/><path class="cls-1" d="M199.16,168h1.22l0-6.41H199v-1.47h3.44l0,7.88h1.26v1.47h-4.5Zm.88-11.2a1.34,1.34,0,0,1,.41-1,1.32,1.32,0,0,1,1-.4,1.37,1.37,0,0,1,1.38,1.38,1.32,1.32,0,0,1-.4,1,1.34,1.34,0,0,1-1,.41,1.4,1.4,0,0,1-1.39-1.39Z"/><path class="cls-1" d="M205,168h1.06l0-6.41h-1.31v-1.47h3.33c0,.31,0,.63-.05,1s-.07.7-.13,1.1h0a3.87,3.87,0,0,1,.42-.87,3.08,3.08,0,0,1,.67-.73,3.43,3.43,0,0,1,.95-.5,3.79,3.79,0,0,1,1.26-.19,3,3,0,0,1,2.45,1,4,4,0,0,1,.8,2.66c0,.75,0,1.5,0,2.24s0,1.48-.05,2.24h1.23v1.47h-4.31V168h1.07c0-.69,0-1.37,0-2.06s0-1.38,0-2.06a2.81,2.81,0,0,0-.46-1.64,1.64,1.64,0,0,0-1.43-.65,2.25,2.25,0,0,0-1.74.77,3.15,3.15,0,0,0-.73,2.08l-.07,3.56h1.26v1.47H205Z"/><path class="cls-1" d="M216.73,165a5.8,5.8,0,0,1,.36-2.09,4.64,4.64,0,0,1,1-1.6,4.44,4.44,0,0,1,1.54-1,5.1,5.1,0,0,1,2-.37,4.76,4.76,0,0,1,2.18.45,4,4,0,0,1,1.41,1.16,4.61,4.61,0,0,1,.77,1.59,6.63,6.63,0,0,1,.23,1.75,5.74,5.74,0,0,1-.3,1.88,4.59,4.59,0,0,1-.91,1.54,4.16,4.16,0,0,1-1.5,1,5.48,5.48,0,0,1-2.11.38,5.28,5.28,0,0,1-2.14-.39,3.94,3.94,0,0,1-1.44-1.07,4.22,4.22,0,0,1-.82-1.5A5.64,5.64,0,0,1,216.73,165Zm2.12-.07a4.24,4.24,0,0,0,.15,1.14,3.23,3.23,0,0,0,.47,1,2.31,2.31,0,0,0,2,.95,2.46,2.46,0,0,0,1.19-.27,2.34,2.34,0,0,0,.83-.73,3.27,3.27,0,0,0,.48-1.07,5.45,5.45,0,0,0,.15-1.3,4.24,4.24,0,0,0-.2-1.36,2.71,2.71,0,0,0-.53-.95,2.06,2.06,0,0,0-.79-.55,2.67,2.67,0,0,0-1-.18,2.63,2.63,0,0,0-1.28.29,2.4,2.4,0,0,0-.85.76,3,3,0,0,0-.46,1.07A5,5,0,0,0,218.85,164.93Z"/><path class="cls-4" d="M168.24,56.41h.37a8.46,8.46,0,0,0,1.69-.18,5.06,5.06,0,0,0,1.61-.63,3.86,3.86,0,0,0,1.21-1.17,3.21,3.21,0,0,0,.47-1.8,2.4,2.4,0,0,0-.8-1.93,3.1,3.1,0,0,0-2.14-.7,3.77,3.77,0,0,0-1.69.33,3,3,0,0,0-1,.83,2.91,2.91,0,0,0-.52,1,3.81,3.81,0,0,0-.14.92h-3.13a5.13,5.13,0,0,1,.31-1.56,5.45,5.45,0,0,1,1.06-1.85,6.06,6.06,0,0,1,2.06-1.53,7.62,7.62,0,0,1,3.32-.63,8.55,8.55,0,0,1,2.67.38,5.31,5.31,0,0,1,1.88,1,4.12,4.12,0,0,1,1.1,1.55,5.06,5.06,0,0,1,.37,1.9,4.91,4.91,0,0,1-.34,1.87,4.36,4.36,0,0,1-.91,1.38,4.9,4.9,0,0,1-1.32,1,6.07,6.07,0,0,1-1.55.54v.06a7.35,7.35,0,0,1,1.93.42,4.71,4.71,0,0,1,1.56.94,4.31,4.31,0,0,1,1,1.45,4.81,4.81,0,0,1,.38,1.95,6.25,6.25,0,0,1-.45,2.37,4.83,4.83,0,0,1-1.41,1.9,7.26,7.26,0,0,1-2.47,1.26,12,12,0,0,1-3.57.46,17.37,17.37,0,0,1-2-.11,13.21,13.21,0,0,1-1.55-.28,8.32,8.32,0,0,1-1.15-.36l-.81-.34v-3a19.44,19.44,0,0,0,2.21,1,9,9,0,0,0,3.17.49,9.61,9.61,0,0,0,1.79-.17,4.57,4.57,0,0,0,1.52-.56,3,3,0,0,0,1-1,3,3,0,0,0,.4-1.63,2.75,2.75,0,0,0-.49-1.68,3.25,3.25,0,0,0-1.24-1,5.55,5.55,0,0,0-1.62-.47,14.17,14.17,0,0,0-1.67-.11h-1.12Z"/><path class="cls-4" d="M179.84,59.6,188,48h3.81l-.11,11.65h3.69v2.46h-3.69l-.06,3.2H194v2.29h-7.34V65.26h2.07l.06-3.2h-8.93Zm9-8.6,0,0-5.88,8.7.71,0h5.17Z"/><path class="cls-4" d="M197.64,65.81a2.15,2.15,0,1,1,.63,1.53A2.08,2.08,0,0,1,197.64,65.81Z"/><path class="cls-4" d="M204.59,59.6,212.76,48h3.81l-.11,11.65h3.7v2.46h-3.7l-.06,3.2h2.33v2.29h-7.34V65.26h2.07l.06-3.2h-8.93Zm9-8.6-.06,0-5.88,8.7.71,0h5.17Z"/><path class="cls-4" d="M226.34,47.53a5.57,5.57,0,0,1,1.77.28,3.88,3.88,0,0,1,1.4.84,4,4,0,0,1,.92,1.41,5.39,5.39,0,0,1,.34,2,4.56,4.56,0,0,1-1.23,3.33,4.48,4.48,0,0,1-3.34,1.26,4.56,4.56,0,0,1-3.3-1.22,4.4,4.4,0,0,1-1.26-3.32,4.92,4.92,0,0,1,.32-1.77,4.41,4.41,0,0,1,.94-1.46,4.47,4.47,0,0,1,1.48-1A4.93,4.93,0,0,1,226.34,47.53Zm-.14,2a2.07,2.07,0,0,0-1.7.72,2.7,2.7,0,0,0-.56,1.89,3.09,3.09,0,0,0,.57,1.88,2,2,0,0,0,1.69.72,2,2,0,0,0,1.73-.72,3,3,0,0,0,.54-1.88,3.23,3.23,0,0,0-.5-1.89A2,2,0,0,0,226.2,49.49Zm11.26-3.13,1.82,1.09-12.91,21.7-1.82-1.09Zm.62,12.48a5.55,5.55,0,0,1,1.76.28,3.88,3.88,0,0,1,1.4.84,3.92,3.92,0,0,1,.92,1.42,5.3,5.3,0,0,1,.34,2,4.56,4.56,0,0,1-1.23,3.33A4.44,4.44,0,0,1,237.94,68a4.57,4.57,0,0,1-3.31-1.22,4.38,4.38,0,0,1-1.26-3.31,4.94,4.94,0,0,1,.32-1.78,4.31,4.31,0,0,1,2.43-2.45A5,5,0,0,1,238.08,58.84Zm-.14,2a2.07,2.07,0,0,0-1.71.72,2.75,2.75,0,0,0-.56,1.89,3.21,3.21,0,0,0,.57,1.89,2,2,0,0,0,1.7.71,2.05,2.05,0,0,0,1.72-.71,3.07,3.07,0,0,0,.54-1.89,3.16,3.16,0,0,0-.5-1.89A2,2,0,0,0,237.94,60.8Z"/><path class="cls-3" d="M151.56,60.62l-4.34.31a56.41,56.41,0,0,0,20,38.85L170,96.46A52.06,52.06,0,0,1,151.56,60.62Z"/><path class="cls-3" d="M147.16,60.12l3.94-.28a52.57,52.57,0,0,1,84.27-45.18l2.43-3.11a56.52,56.52,0,0,0-90.64,48.57Z"/><path class="cls-4" d="M256.07,52.86a52.7,52.7,0,0,1-34.71,53.21,2,2,0,0,0-1.19,2.43h0a2,2,0,0,0,2.58,1.26,56.52,56.52,0,0,0,17.3-96.41,2,2,0,0,0-2.85.28h0a2,2,0,0,0,.26,2.7A52.45,52.45,0,0,1,256.07,52.86Z"/><path class="cls-3" d="M207.29,109a52.39,52.39,0,0,1-36.93-11.73l-2.55,3A56.51,56.51,0,0,0,220,110.67l-1.18-3.76A52.64,52.64,0,0,1,207.29,109Z"/><path class="cls-1" d="M322.29,168.05h1.26l.08-9.65h-1.34v-1.48h5a8.57,8.57,0,0,1,1.66.14,3.17,3.17,0,0,1,1.25.58,2.71,2.71,0,0,1,.79,1,2.88,2.88,0,0,1,.35,1.43,3.29,3.29,0,0,1-.17,1,2.6,2.6,0,0,1-.48.9,2.45,2.45,0,0,1-.79.64,3,3,0,0,1-1.07.3v0a3.7,3.7,0,0,1,1.23.21,3.43,3.43,0,0,1,1,.59,2.83,2.83,0,0,1,.72,1,3,3,0,0,1,.27,1.29,3.22,3.22,0,0,1-1.13,2.57,5.21,5.21,0,0,1-3.42,1h-5.28Zm4.94,0a4.28,4.28,0,0,0,1-.12,2.45,2.45,0,0,0,.85-.38,1.82,1.82,0,0,0,.57-.66,2,2,0,0,0,.21-1,1.78,1.78,0,0,0-.22-.91,1.85,1.85,0,0,0-.57-.64,2.76,2.76,0,0,0-.81-.38,3.75,3.75,0,0,0-1-.12h-1.73l0,4.18Zm-.25-5.77a2.45,2.45,0,0,0,1.65-.52,1.84,1.84,0,0,0,.61-1.49,2.08,2.08,0,0,0-.23-1,1.78,1.78,0,0,0-.62-.6,1.64,1.64,0,0,0-.59-.19,6.35,6.35,0,0,0-.84,0h-1.32l0,3.88Z"/><path class="cls-1" d="M333.72,168.05h1.14l.07-10.9h-1.64v-1.47H337l-.08,12.37h1.26v1.47h-4.41Z"/><path class="cls-1" d="M340,160.79l.51-.23a5.27,5.27,0,0,1,.78-.28,10,10,0,0,1,1.06-.24,9.22,9.22,0,0,1,1.36-.1,5.17,5.17,0,0,1,1.75.26,2.67,2.67,0,0,1,1.12.71,2.63,2.63,0,0,1,.6,1.12,5.82,5.82,0,0,1,.18,1.5c0,.75,0,1.51,0,2.26s0,1.5-.05,2.26h1.26v1.47h-3c0-.3,0-.62,0-1a7.5,7.5,0,0,1,.12-1h0a4.66,4.66,0,0,1-.38.78,2.77,2.77,0,0,1-.59.69,2.83,2.83,0,0,1-.89.5,3.8,3.8,0,0,1-1.26.19,3.45,3.45,0,0,1-1.41-.26,2.73,2.73,0,0,1-.92-.63,2.38,2.38,0,0,1-.5-.87,3.1,3.1,0,0,1-.15-.92,2.38,2.38,0,0,1,.41-1.48,2.85,2.85,0,0,1,1-.86,4.33,4.33,0,0,1,1.31-.39c.47-.07.89-.11,1.28-.14l1.92-.11v-.7a3.24,3.24,0,0,0-.09-.79,1.36,1.36,0,0,0-.32-.62,1.65,1.65,0,0,0-.64-.41,3.26,3.26,0,0,0-1-.14,4.07,4.07,0,0,0-1,.12c-.31.08-.54.14-.7.2v1.37H340Zm1.62,6.1a1.17,1.17,0,0,0,.39.89,1.54,1.54,0,0,0,1.11.37,2.61,2.61,0,0,0,1-.2,2.36,2.36,0,0,0,.76-.55,2.21,2.21,0,0,0,.45-.75,2.35,2.35,0,0,0,.16-.87v-.38c-.53,0-1,0-1.5,0a7,7,0,0,0-1.24.19,2.07,2.07,0,0,0-.85.44A1.09,1.09,0,0,0,341.66,166.89Z"/><path class="cls-1" d="M355.94,161.69a3.12,3.12,0,0,0-.54-.12,4.54,4.54,0,0,0-.65,0,2.93,2.93,0,0,0-1.23.24,2.42,2.42,0,0,0-.87.68,3,3,0,0,0-.53,1,4.2,4.2,0,0,0-.18,1.25,4.45,4.45,0,0,0,.16,1.2,3,3,0,0,0,.54,1.07,2.76,2.76,0,0,0,1,.78,3.63,3.63,0,0,0,1.57.3,5.22,5.22,0,0,0,1.35-.18,4.07,4.07,0,0,0,1-.37l-.11,1.75a7.83,7.83,0,0,1-1,.31,6.27,6.27,0,0,1-1.57.18,5.74,5.74,0,0,1-2.37-.43A4.2,4.2,0,0,1,351,168.2a4.48,4.48,0,0,1-.85-1.56,6.17,6.17,0,0,1-.26-1.74,5.73,5.73,0,0,1,.33-2,4.17,4.17,0,0,1,1-1.56,4.36,4.36,0,0,1,1.58-1,6.09,6.09,0,0,1,2.17-.37,6.55,6.55,0,0,1,1.72.18,5.53,5.53,0,0,1,.95.31v2.65h-1.69Z"/><path class="cls-1" d="M358.74,168.05h1.14l.07-10.9h-1.64v-1.47H362l-.08,8.55,3.32-2.56v0h-1.34v-1.48h4.4v1.48h-.94L364,164.41l3.62,3.64h1.06v1.47h-4.5v-1.47h1.1l-3.37-3.28v3.28H363v1.47h-4.29Z"/><path class="cls-5" d="M313.54,65.29h3.8l.12-14.36-.58.5a6,6,0,0,1-.57.42l-3.56,2.35-1.29-2.13L318.13,48h2.46l-.11,17.3h4.09v2.3h-11Z"/><path class="cls-5" d="M340.81,50.56c-.26-.09-.66-.2-1.19-.33a8.45,8.45,0,0,0-2-.2,7.49,7.49,0,0,0-2.87.49,5.1,5.1,0,0,0-2,1.43,6.65,6.65,0,0,0-1.26,2.29,16,16,0,0,0-.69,3.07l.06.06a5.81,5.81,0,0,1,.7-.72,4.85,4.85,0,0,1,1-.68,5.91,5.91,0,0,1,1.27-.52,5.71,5.71,0,0,1,1.61-.21,7.07,7.07,0,0,1,2.45.41,5.33,5.33,0,0,1,1.9,1.17,5.19,5.19,0,0,1,1.24,1.86,6.84,6.84,0,0,1,.43,2.47A7.89,7.89,0,0,1,341,64a5.9,5.9,0,0,1-3.49,3.51,7.47,7.47,0,0,1-2.74.48,6.16,6.16,0,0,1-5.54-3,9.08,9.08,0,0,1-1.17-2.92,15.48,15.48,0,0,1-.35-3.22,17.38,17.38,0,0,1,.51-4.23,10.21,10.21,0,0,1,1.66-3.63,8.41,8.41,0,0,1,3.07-2.53,10.52,10.52,0,0,1,4.7-1,11.18,11.18,0,0,1,1.63.12c.54.09,1,.18,1.34.27l.42.14Zm-10,9a9.94,9.94,0,0,0,.25,2.32,5.63,5.63,0,0,0,.76,1.83,3.34,3.34,0,0,0,3,1.62,3.31,3.31,0,0,0,1.52-.34,3.5,3.5,0,0,0,1.76-2.16,5.06,5.06,0,0,0,.22-1.51,4.65,4.65,0,0,0-.19-1.33,3.07,3.07,0,0,0-.65-1.17,3.13,3.13,0,0,0-1.13-.84,3.82,3.82,0,0,0-1.67-.33,4.58,4.58,0,0,0-1.3.16,4.19,4.19,0,0,0-1,.39,4.88,4.88,0,0,0-.73.5l-.56.49Z"/><path class="cls-5" d="M344.81,65.85a2.15,2.15,0,1,1,.63,1.53A2.08,2.08,0,0,1,344.81,65.85Z"/><path class="cls-5" d="M354.81,65.29h3.81l.11-14.36-.58.5a4.94,4.94,0,0,1-.57.42L354,54.2l-1.28-2.13L359.4,48h2.46l-.11,17.3h4.09v2.3h-11Z"/><path class="cls-5" d="M373.51,47.57a5.34,5.34,0,0,1,1.77.28,3.69,3.69,0,0,1,1.4.84,3.92,3.92,0,0,1,.92,1.41,5.55,5.55,0,0,1,.33,2,4.56,4.56,0,0,1-1.23,3.33,4.41,4.41,0,0,1-3.33,1.27,4.56,4.56,0,0,1-3.3-1.22,4.42,4.42,0,0,1-1.26-3.32,4.73,4.73,0,0,1,.32-1.78,4.26,4.26,0,0,1,.94-1.46,4.37,4.37,0,0,1,1.48-1A5.07,5.07,0,0,1,373.51,47.57Zm-.14,2a2.08,2.08,0,0,0-1.71.71,2.79,2.79,0,0,0-.56,1.89,3.13,3.13,0,0,0,.58,1.89,2,2,0,0,0,1.69.71,2,2,0,0,0,1.72-.71,3,3,0,0,0,.55-1.89,3.27,3.27,0,0,0-.5-1.89A2,2,0,0,0,373.37,49.53Zm11.26-3.14,1.82,1.09-12.91,21.7-1.82-1.09Zm.61,12.49a5.3,5.3,0,0,1,1.77.28,3.88,3.88,0,0,1,1.4.84,3.8,3.8,0,0,1,.92,1.41,5.34,5.34,0,0,1,.34,2,4.54,4.54,0,0,1-1.24,3.34A4.44,4.44,0,0,1,385.1,68a4.56,4.56,0,0,1-3.3-1.22,4.4,4.4,0,0,1-1.26-3.32,5,5,0,0,1,.32-1.78,4.41,4.41,0,0,1,2.42-2.45A5.11,5.11,0,0,1,385.24,58.88Zm-.14,2a2.12,2.12,0,0,0-1.71.71,2.84,2.84,0,0,0-.56,1.89,3.17,3.17,0,0,0,.58,1.89,2,2,0,0,0,1.69.72,2,2,0,0,0,1.73-.72,3,3,0,0,0,.54-1.89,3.27,3.27,0,0,0-.5-1.89A2,2,0,0,0,385.1,60.84Z"/><path class="cls-3" d="M299.88,68.43l-4.25.95a56.37,56.37,0,0,0,25.59,35.42l2.27-3.71A52,52,0,0,1,299.88,68.43Z"/><path class="cls-3" d="M295.46,68.6l3.85-.87a52.57,52.57,0,0,1,76.52-57.34L377.76,7a56.51,56.51,0,0,0-82.3,61.64Z"/><path class="cls-3" d="M402,45.05a52.71,52.71,0,0,1-28,58.68l1.73,3.54a56.53,56.53,0,0,0,2.67-99.92l-1.93,3.44A52.46,52.46,0,0,1,402,45.05Z"/><path class="cls-5" d="M362.25,107.91a52.39,52.39,0,0,1-36.62-5.12,2,2,0,0,0-2.65.69h0a2,2,0,0,0,.75,2.77,56.48,56.48,0,0,0,49.44,2.24,2,2,0,0,0,1-2.69h0a2,2,0,0,0-2.59-.93A52.33,52.33,0,0,1,362.25,107.91Z"/><path class="cls-1" d="M468.24,163.41a7.92,7.92,0,0,1,.45-2.72,6.27,6.27,0,0,1,1.26-2.13,5.67,5.67,0,0,1,2-1.39,6.79,6.79,0,0,1,2.64-.5,6.52,6.52,0,0,1,2.45.44,5.16,5.16,0,0,1,1.83,1.26,5.4,5.4,0,0,1,1.16,2,8.68,8.68,0,0,1,0,5.08,6.2,6.2,0,0,1-1.13,2.16,5.79,5.79,0,0,1-1.94,1.53,6.06,6.06,0,0,1-2.75.59,6.74,6.74,0,0,1-2.49-.44,5.17,5.17,0,0,1-1.88-1.27,5.48,5.48,0,0,1-1.2-2A7.6,7.6,0,0,1,468.24,163.41Zm2.23-.09a6.79,6.79,0,0,0,.22,1.76,4.6,4.6,0,0,0,.7,1.5A3.38,3.38,0,0,0,474.3,168a3.41,3.41,0,0,0,2-.53,3.85,3.85,0,0,0,1.19-1.29,5,5,0,0,0,.55-1.61,9.84,9.84,0,0,0,.14-1.5,8.69,8.69,0,0,0-.16-1.68,4.45,4.45,0,0,0-.59-1.51,3.25,3.25,0,0,0-1.14-1.1,3.61,3.61,0,0,0-1.84-.42,4.09,4.09,0,0,0-1.51.28,3.31,3.31,0,0,0-1.28.88,4.33,4.33,0,0,0-.88,1.54A7,7,0,0,0,470.47,163.32Z"/><path class="cls-1" d="M481.7,160.13h1.42l0-2.11,2-.14-.07,2.25h2.68v1.48h-2.68q0,1.13,0,2.22c0,.73,0,1.44,0,2.15a6,6,0,0,0,.08,1.06,1.55,1.55,0,0,0,.23.66.84.84,0,0,0,.4.33,1.82,1.82,0,0,0,.61.09,2.89,2.89,0,0,0,.82-.11,4.94,4.94,0,0,0,.74-.25l-.07,1.48a4.16,4.16,0,0,1-.93.33,4.68,4.68,0,0,1-1.14.14,4.6,4.6,0,0,1-1.26-.16,1.84,1.84,0,0,1-.85-.49,2,2,0,0,1-.49-.89,5.21,5.21,0,0,1-.15-1.34c0-.3,0-.67,0-1.1s0-.89,0-1.36,0-1,0-1.43,0-.93,0-1.33H481.7Z"/><path class="cls-1" d="M488.68,168h1.07l.07-10.89h-1.35v-1.47h3.44l-.06,4.48a6.52,6.52,0,0,1-.07,1c0,.34-.1.7-.16,1.1h0a3.61,3.61,0,0,1,.42-.86,2.9,2.9,0,0,1,.67-.73,3.37,3.37,0,0,1,1-.51,4,4,0,0,1,1.25-.19,3,3,0,0,1,2.45,1,4,4,0,0,1,.81,2.65c0,.76,0,1.5,0,2.24s0,1.49-.05,2.24h1.23v1.48h-4.3V168h1.06c0-.68,0-1.37,0-2.06s0-1.37,0-2.06a2.76,2.76,0,0,0-.46-1.64,1.63,1.63,0,0,0-1.43-.64,2.24,2.24,0,0,0-1.74.76,3.15,3.15,0,0,0-.73,2.08l-.07,3.56H493v1.48h-4.34Z"/><path class="cls-1" d="M508.7,169.06a12.16,12.16,0,0,1-1.36.42,7.74,7.74,0,0,1-1.93.23,5.56,5.56,0,0,1-2.08-.36,4.32,4.32,0,0,1-1.55-1,4,4,0,0,1-1-1.53,5.51,5.51,0,0,1-.34-2,6.43,6.43,0,0,1,.29-1.95,4.26,4.26,0,0,1,.87-1.56,4,4,0,0,1,1.44-1.05,4.94,4.94,0,0,1,2-.38,4.49,4.49,0,0,1,1.85.37,3.64,3.64,0,0,1,1.32,1,4.59,4.59,0,0,1,.79,1.56,7,7,0,0,1,.27,2v.27H502.6a3.08,3.08,0,0,0,.24,1.24,2.74,2.74,0,0,0,.67.94,2.6,2.6,0,0,0,1,.6,3.79,3.79,0,0,0,1.29.21,6.14,6.14,0,0,0,1.64-.21,6.71,6.71,0,0,0,1.37-.51Zm-1.53-5.29v-.18a2.52,2.52,0,0,0-.11-.67,2.21,2.21,0,0,0-.36-.72,2.12,2.12,0,0,0-.67-.58,2.29,2.29,0,0,0-1.07-.23,2.35,2.35,0,0,0-1.09.22,2.27,2.27,0,0,0-.71.54,2.43,2.43,0,0,0-.41.76,3.17,3.17,0,0,0-.15.86Z"/><path class="cls-1" d="M510.62,168h1.14l0-6.4h-1.42v-1.48h3.33c0,.35,0,.75,0,1.21a13.13,13.13,0,0,1-.09,1.38l0,0a4,4,0,0,1,1-2.07,2.36,2.36,0,0,1,1.75-.74,4.68,4.68,0,0,1,.67.05,4.56,4.56,0,0,1,.46.11l-.21,1.78a3.06,3.06,0,0,0-.41-.1,2.51,2.51,0,0,0-.51,0,2.27,2.27,0,0,0-1.16.29,2.39,2.39,0,0,0-.79.76,4,4,0,0,0-.46,1.08,5,5,0,0,0-.15,1.22l0,2.91h1.37v1.48h-4.52Z"/><path class="cls-6" d="M460,65.26h3.81l.11-14.36-.58.5a4.2,4.2,0,0,1-.57.42l-3.56,2.35L457.93,52,464.59,48h2.46l-.11,17.3H471v2.3H460Z"/><path class="cls-6" d="M474.08,65.26l.76-.59,1.64-1.31q1-.8,2-1.71c.69-.62,1.36-1.28,2-2a20.88,20.88,0,0,0,1.82-2.14,11.28,11.28,0,0,0,1.31-2.2,5.35,5.35,0,0,0,.49-2.14,2.82,2.82,0,0,0-3.25-3,3.41,3.41,0,0,0-1.75.4,3.32,3.32,0,0,0-1.08,1,4.09,4.09,0,0,0-.56,1.18,3.87,3.87,0,0,0-.17,1h-3.13a6.79,6.79,0,0,1,.3-1.82,5.7,5.7,0,0,1,1.1-2,6.19,6.19,0,0,1,2.08-1.64,7.21,7.21,0,0,1,3.32-.67,8.13,8.13,0,0,1,2.46.36,5.84,5.84,0,0,1,2,1.06,4.94,4.94,0,0,1,1.33,1.75,5.64,5.64,0,0,1,.49,2.43,7.3,7.3,0,0,1-.89,3.42,16.79,16.79,0,0,1-2.23,3.23,31.83,31.83,0,0,1-2.84,2.85c-1,.89-1.92,1.67-2.75,2.34V65c.27,0,.55-.07.86-.09s.73,0,1.27,0h7.28v2.64H474.08Z"/><path class="cls-6" d="M491.27,65.82a2.15,2.15,0,1,1,.63,1.53A2.08,2.08,0,0,1,491.27,65.82Z"/><path class="cls-6" d="M499.59,65a11.45,11.45,0,0,0,1.19.33,7.91,7.91,0,0,0,2,.2,7.46,7.46,0,0,0,2.87-.49,5,5,0,0,0,2-1.43,7,7,0,0,0,1.26-2.28,15.43,15.43,0,0,0,.69-3.08l-.06,0c-.2.22-.44.46-.71.71a4.51,4.51,0,0,1-1,.68,6.13,6.13,0,0,1-1.27.52,5.71,5.71,0,0,1-1.61.21,7.08,7.08,0,0,1-2.45-.4,5.49,5.49,0,0,1-1.91-1.18,5.21,5.21,0,0,1-1.23-1.86,6.61,6.61,0,0,1-.43-2.46,8.3,8.3,0,0,1,.47-2.87A5.81,5.81,0,0,1,502.88,48a7.62,7.62,0,0,1,2.76-.47,6.13,6.13,0,0,1,5.54,3,9,9,0,0,1,1.16,2.93,14.77,14.77,0,0,1,.35,3.22,17.35,17.35,0,0,1-.5,4.22,10.07,10.07,0,0,1-1.67,3.63A8.2,8.2,0,0,1,507.46,67a10.4,10.4,0,0,1-4.71,1,11.06,11.06,0,0,1-1.62-.13,10.8,10.8,0,0,1-1.34-.27l-.42-.14Zm10-9a10.6,10.6,0,0,0-.25-2.33,5.63,5.63,0,0,0-.76-1.83,3.55,3.55,0,0,0-1.25-1.19,3.46,3.46,0,0,0-1.75-.42,3.37,3.37,0,0,0-1.52.33,3.28,3.28,0,0,0-1.09.89,3.74,3.74,0,0,0-.66,1.27,5.12,5.12,0,0,0-.23,1.51,4.66,4.66,0,0,0,.2,1.33,3.31,3.31,0,0,0,.64,1.18,3.52,3.52,0,0,0,1.14.84,4,4,0,0,0,1.66.32,5,5,0,0,0,1.31-.15,4.69,4.69,0,0,0,1-.4,4.07,4.07,0,0,0,.73-.5l.56-.49Z"/><path class="cls-6" d="M520,47.54a5.57,5.57,0,0,1,1.77.27,3.88,3.88,0,0,1,1.4.84,3.92,3.92,0,0,1,.92,1.42,5.34,5.34,0,0,1,.34,2,4.56,4.56,0,0,1-1.23,3.33,4.48,4.48,0,0,1-3.34,1.26,4.55,4.55,0,0,1-3.3-1.21,4.42,4.42,0,0,1-1.26-3.32,4.94,4.94,0,0,1,.32-1.78A4.33,4.33,0,0,1,518,47.9,5.11,5.11,0,0,1,520,47.54Zm-.14,2a2.06,2.06,0,0,0-1.7.71,2.72,2.72,0,0,0-.56,1.89,3.14,3.14,0,0,0,.57,1.89,2,2,0,0,0,1.69.71,2,2,0,0,0,1.73-.71,3.07,3.07,0,0,0,.54-1.89,3.25,3.25,0,0,0-.5-1.89A2,2,0,0,0,519.83,49.5Zm11.26-3.14,1.82,1.09L520,69.15l-1.82-1.09Zm.62,12.49a5.28,5.28,0,0,1,1.76.28,3.62,3.62,0,0,1,1.4.84,3.8,3.8,0,0,1,.92,1.41,5.34,5.34,0,0,1,.34,2,4.57,4.57,0,0,1-1.23,3.34A4.44,4.44,0,0,1,531.57,68a4.57,4.57,0,0,1-3.31-1.22A4.4,4.4,0,0,1,527,63.44a5,5,0,0,1,.32-1.78,4.37,4.37,0,0,1,.94-1.45,4.44,4.44,0,0,1,1.49-1A5,5,0,0,1,531.71,58.85Zm-.14,2a2.1,2.1,0,0,0-1.71.71,2.79,2.79,0,0,0-.56,1.89,3.19,3.19,0,0,0,.57,1.89,2,2,0,0,0,1.7.72,2,2,0,0,0,1.72-.72,3.05,3.05,0,0,0,.54-1.89,3.2,3.2,0,0,0-.5-1.89A2,2,0,0,0,531.57,60.81Z"/><path class="cls-6" d="M443.5,54.8h0A2.18,2.18,0,0,0,441.23,57a56.39,56.39,0,0,0,14.08,36.84,2.18,2.18,0,0,0,3.14.15h0a2.18,2.18,0,0,0,.15-3,52,52,0,0,1-13-34.07A2.16,2.16,0,0,0,443.5,54.8Z"/><path class="cls-3" d="M441.29,53.9l3.94.16A52.57,52.57,0,0,1,534,18.41l2.75-2.83A56.52,56.52,0,0,0,441.29,53.9Z"/><path class="cls-3" d="M550.34,58.65a52.68,52.68,0,0,1-42.16,49.47l.75,3.87a56.52,56.52,0,0,0,28.36-95.85L534.54,19A52.52,52.52,0,0,1,550.34,58.65Z"/><path class="cls-3" d="M495.69,109.12a52.46,52.46,0,0,1-35.43-15.73l-2.86,2.72a56.5,56.5,0,0,0,50.74,16l-.76-3.87A52.57,52.57,0,0,1,495.69,109.12Z"/></g></g></svg>
