<svg id="Layer_1" data-name="Layer 1" xmlns="http://www.w3.org/2000/svg" viewBox="0 0 120 120"><defs><style>.cls-1{fill:#d6e5e9;}.cls-2{fill:#37bfbf;}.cls-3,.cls-4{fill:#fff;}.cls-3{stroke:#3f5163;stroke-linecap:round;stroke-linejoin:round;stroke-width:2px;}.cls-4{stroke:#37bfbf;stroke-miterlimit:10;}</style></defs><path class="cls-1" d="M60,5a55,55,0,1,0,55,55A55,55,0,0,0,60,5"/><path class="cls-2" d="M46.54,44.88H44.28c-1.89,0-3.43-1.15-3.43-2.56V30.4c0-1.41,1.54-2.56,3.43-2.56h2.26C48.44,27.84,50,29,50,30.4V42.32C50,43.73,48.44,44.88,46.54,44.88ZM44.28,29.35c-.77,0-1.4.47-1.4,1V42.32c0,.58.63,1,1.4,1h2.26c.78,0,1.41-.47,1.41-1V30.4c0-.58-.63-1-1.41-1Z"/><path class="cls-2" d="M61.13,44.88H58.87c-1.9,0-3.44-1.15-3.44-2.56V23.22c0-1.42,1.54-2.57,3.44-2.57h2.26c1.9,0,3.44,1.15,3.44,2.57v19.1C64.57,43.73,63,44.88,61.13,44.88ZM58.87,22.17c-.78,0-1.41.47-1.41,1v19.1c0,.58.63,1,1.41,1h2.26c.78,0,1.41-.47,1.41-1V23.22c0-.58-.63-1-1.41-1Z"/><path class="cls-2" d="M75.72,44.88H73.45c-1.89,0-3.43-1.15-3.43-2.56V36c0-1.42,1.54-2.56,3.43-2.56h2.27c1.89,0,3.43,1.14,3.43,2.56v6.33C79.15,43.73,77.61,44.88,75.72,44.88Zm-2.27-9.94c-.77,0-1.4.47-1.4,1.05v6.33c0,.58.63,1,1.4,1h2.27c.77,0,1.4-.47,1.4-1V36c0-.58-.63-1.05-1.4-1.05Z"/><g id="Layer_2" data-name="Layer 2"><g id="Layer_1-2" data-name="Layer 1-2"><polygon class="cls-3" points="87.08 50.03 32.91 50.03 55.42 71.38 55.42 82.48 63.55 82.23 63.55 72.35 87.08 50.03"/></g></g><path class="cls-4" d="M60,86.82S52.58,94.37,57.21,98a4.55,4.55,0,0,0,5.57,0C67.42,94.37,60,86.82,60,86.82Z"/></svg>