<svg xmlns="http://www.w3.org/2000/svg" viewBox="0 0 43.84 63.24"><defs><style>.cls-1{fill:#3f5163;}.cls-2{fill:#fff;}</style></defs><title>refine</title><g id="Layer_2" data-name="Layer 2"><g id="Guides"><path class="cls-1" d="M42,40.86,36.38,30A1.75,1.75,0,0,0,34,29.18l-8.17,4.19.45.85,7.31-3.74a1.76,1.76,0,0,1,2.36.76L41.12,41.3c4.86,9.48-1.81,19.49-2.86,21h0A22.51,22.51,0,0,1,19.6,52.42l-.07-.13-5.13-10a1.75,1.75,0,0,1,.76-2.36l7.37-3.78-.5-.86-8.17,4.22a1.75,1.75,0,0,0-.75,2.36l5.58,10.88.06.12a23.47,23.47,0,0,0,19.5,10.37h.49l.14-.18C39,62.94,47.49,51.63,42,40.86Z"/><path class="cls-2" d="M41.12,41.3,36,31.24a1.76,1.76,0,0,0-2.36-.76L26.3,34.22l-.45-.85,4.64,9.41-.24,1.06a2.43,2.43,0,0,0-.52.44l-.14.13a1.69,1.69,0,0,0-.22.29l-.12.11h-.06l-.31,0a3.19,3.19,0,0,0-1.44,0L22,35.29l.5.86-7.37,3.78a1.75,1.75,0,0,0-.76,2.36l5.13,10,.07.13a22.51,22.51,0,0,0,18.66,9.86h0S46,50.78,41.12,41.3Z"/><path class="cls-1" d="M38.1,62.09A22.5,22.5,0,0,1,20.09,52L20,51.82l-5.1-9.52a1.49,1.49,0,0,1,.49-2.19l7.21-3.56L22,35.29l-8.17,4.22a1.75,1.75,0,0,0-.75,2.36l5.58,10.88.06.12a23.47,23.47,0,0,0,19.5,10.37h.49l.14-.18c.09-.11,8.61-11.42,3.1-22.19L36.38,30A1.75,1.75,0,0,0,34,29.18l-8.17,4.19.64,1.2,7.13-3.68c.87-.44,1.5,0,1.94.85l5.27,9.78C45.69,51,38.1,62.09,38.1,62.09"/><path class="cls-2" d="M28.41,45.05a2.2,2.2,0,0,1-2-1.18L12.79,17.56h0l0-.08L12.52,17l-.58,0-.43,0a7.47,7.47,0,0,1-6.72-4.22l-1.4-3-.74.3a1.38,1.38,0,0,1-.49.1A1.32,1.32,0,0,1,1.6,7.7L15.78,1a1.39,1.39,0,0,1,.56-.13,1.34,1.34,0,0,1,1.2.76,1.32,1.32,0,0,1-.29,1.51l-.44.42,1.37,2.89a7.48,7.48,0,0,1-1.3,8.25l-.41.43L30.36,41.84a2.22,2.22,0,0,1,.14,1.68,2.18,2.18,0,0,1-1.08,1.28,2.13,2.13,0,0,1-1,.25ZM5.71,8.67l.3.74C6.23,10,8.34,15,12,15a4.26,4.26,0,0,0,1.51-.29h0l.29-.14h0a4.45,4.45,0,0,0,2.32-2.72c.9-2.94-1.16-6.51-1.24-6.66l-.39-.67Z"/><path class="cls-1" d="M16.34,1.69a.5.5,0,0,1,.44.27.48.48,0,0,1-.11.54l-.88.84.52,1.11,1.11,2.34a6.61,6.61,0,0,1-1.16,7.3l-.81.87L16,16,29.61,42.23A1.37,1.37,0,0,1,29,44.06a1.32,1.32,0,0,1-.62.15,1.36,1.36,0,0,1-1.21-.73L13.58,17.25l-.06-.14-.48-1-1.15.06h-.38a6.59,6.59,0,0,1-5.95-3.74L4.49,10.17,3.81,8.73l-1.47.6-.18,0a.48.48,0,0,1-.43-.26.45.45,0,0,1,0-.36A.49.49,0,0,1,2,8.46L16.14,1.73l.2,0M12,15.82a5,5,0,0,0,2-.43h0l0,0A5.37,5.37,0,0,0,17,12.06c1-3.22-1.09-6.92-1.33-7.33l-.78-1.34-1.4.67-1.68.8L6.07,7.57l-1.43.68.58,1.47c.25.62,2.55,6.1,6.78,6.1M16.34,0a2.17,2.17,0,0,0-.92.21L1.23,6.94a2.17,2.17,0,0,0-1,2.88,2.15,2.15,0,0,0,2,1.23A2.13,2.13,0,0,0,3,10.89L4,13.14a8.29,8.29,0,0,0,7.48,4.7H12L12,18,25.7,44.25a3,3,0,0,0,2.71,1.64,3,3,0,0,0,2.69-4.44L17.5,15.24a8.29,8.29,0,0,0,1.44-9.18L17.83,3.72a2.16,2.16,0,0,0,.47-2.49A2.18,2.18,0,0,0,16.34,0ZM12,14.13c-3.21,0-5.21-5-5.21-5L12.5,6.38l1.69-.8s3.56,6.12-.85,8.26h0A3.42,3.42,0,0,1,12,14.13Z"/></g></g></svg>