<svg id="Layer_1" data-name="Layer 1" xmlns="http://www.w3.org/2000/svg" viewBox="0 0 120 120"><defs><style>.cls-1,.cls-4{fill:#d6e5e9;}.cls-2{fill:#fff;stroke:#37bfbf;stroke-linecap:round;}.cls-2,.cls-4{stroke-miterlimit:10;stroke-width:2px;}.cls-3{font-size:15.4px;fill:#37bfbf;font-family:AvenirNext-Bold, Avenir Next;font-weight:700;letter-spacing:0.02em;}.cls-4{stroke:#3f5163;}</style></defs><path class="cls-1" d="M60,5a55,55,0,1,0,55,55A55,55,0,0,0,60,5"/><circle class="cls-2" cx="27.11" cy="56.55" r="11"/><text class="cls-3" transform="translate(21.88 61.8)">1</text><circle class="cls-2" cx="58.72" cy="56.55" r="11"/><text class="cls-3" transform="translate(53.06 62.23)">2</text><circle class="cls-2" cx="89.53" cy="56.55" r="11"/><text class="cls-3" transform="translate(85.06 62.33)">3</text><path class="cls-4" d="M48.91,89.43v0h0Z"/><path class="cls-4" d="M74.69,72.07a2.63,2.63,0,0,0-2,2,2.31,2.31,0,0,1-.3-.14,2.64,2.64,0,0,0-5.14,1.17L67,73.83A2.64,2.64,0,1,0,61.84,75L59.5,64.72a2.64,2.64,0,1,0-5.14,1.17L56.7,76.17,57,77.45l1.91,8.36c-3.66-.93-5.21-.85-6.87-.47-1.92.44-3.67,1.62-3.12,4.07l6.37,1.27,5,3.14a10.53,10.53,0,0,0,7.95,1.35l8.59-2a5.27,5.27,0,0,0,4-6.31L77.85,74.06A2.65,2.65,0,0,0,74.69,72.07Z"/></svg>