<svg xmlns="http://www.w3.org/2000/svg" viewBox="0 0 67.45 61.81"><defs><style>.cls-1{fill:#fff;}.cls-2{fill:#3f5163;}</style></defs><title>slowly-growing</title><g id="Layer_2" data-name="Layer 2"><g id="Guides"><path class="cls-1" d="M26.1,26.73,41.48,10a1.24,1.24,0,0,1,1.61-.17L65.8,25.59A1.22,1.22,0,0,1,66,27.4L47,49.55a1.24,1.24,0,0,1-1.85,0L26.09,28.39A1.22,1.22,0,0,1,26.1,26.73Z"/><path class="cls-2" d="M26.1,26.73l.82.76L42.31,10.81l.08,0,0,0h0L65.16,26.52l0,.08,0,.08h0l-19,22.14-.08,0-.08,0L26.92,27.64l0-.08,0-.06h0l-.82-.76L25.27,26a2.31,2.31,0,0,0-.63,1.59,2.36,2.36,0,0,0,.61,1.58L44.36,50.32a2.35,2.35,0,0,0,3.53,0l19-22.14h0a2.28,2.28,0,0,0,.56-1.53,2.32,2.32,0,0,0-1-1.93L43.73,8.94h0a2.3,2.3,0,0,0-1.34-.43,2.33,2.33,0,0,0-1.73.76L25.27,26h0Z"/><path class="cls-1" d="M15.07,47.83l5.15-3.43a.74.74,0,0,0,.32-.71L19.83,38a.72.72,0,0,0-.49-.6l-5.81-2.05a.73.73,0,0,0-1,.51A16,16,0,0,0,14,47.61.74.74,0,0,0,15.07,47.83Z"/><path class="cls-2" d="M15.07,47.83l.63.94L21,45.24l-.13.09a1.86,1.86,0,0,0,.82-1.55v-.23L21,37.88a1.85,1.85,0,0,0-1.23-1.52h0l-5.82-2h0a1.74,1.74,0,0,0-.63-.11,1.85,1.85,0,0,0-1.8,1.41h0a18.21,18.21,0,0,0-.55,4.47,15.93,15.93,0,0,0,2.13,8.11,1.87,1.87,0,0,0,2.63.59h0l-.63-.94-.62-.94.21.31v-.37l-.21.06.21.31v0L15,47a.41.41,0,0,0-.34-.21v.41L15,47a13.66,13.66,0,0,1-1.82-7,16.34,16.34,0,0,1,.48-3.92h0l-.38-.09v.39a.4.4,0,0,0,.38-.3l-.38-.09v0l-.13.36.13,0v-.38l-.13.36,5.82,2h0l.13-.36-.38,0a.37.37,0,0,0,.25.32l.13-.36-.38,0,.71,5.67.37,0h-.38v0l.37,0h0l-.22-.32a.41.41,0,0,0-.17.32h.39l-.22-.32h0L14.45,46.9h0Z"/><polygon class="cls-1" points="19.34 37.42 32.34 35.33 40.52 44.38 20.22 44.4 19.34 37.42"/><polygon class="cls-2" points="19.34 37.42 19.52 38.53 31.92 36.53 37.99 43.26 21.21 43.27 20.46 37.28 19.34 37.42 19.52 38.53 19.34 37.42 18.23 37.56 19.23 45.52 43.04 45.51 32.77 34.12 18.09 36.48 18.23 37.56 19.34 37.42"/><path class="cls-2" d="M27.52,24.68l-.28.6.29-.6h0l-.28.6.29-.6-.06,0a3.14,3.14,0,0,1-.82-.69,2.16,2.16,0,0,1-.54-1.46,3.71,3.71,0,0,1,.42-1.61,10.12,10.12,0,0,1,1.76-2.43C33.67,12.73,41.37,3.7,41.37,3.69l.05-.06,0-.06h0a3.79,3.79,0,0,1,.69-.75,2.57,2.57,0,0,1,.63-.42,1.58,1.58,0,0,1,.66-.15,2.1,2.1,0,0,1,1.4.66A10.11,10.11,0,0,1,47,6.17h0l5.89,11.69,2-1L49,5.19l-1,.5,1-.48a12.53,12.53,0,0,0-2.7-4A4.35,4.35,0,0,0,43.44,0a3.85,3.85,0,0,0-1.68.4,5.55,5.55,0,0,0-1.6,1.21,4.58,4.58,0,0,0-.59.74l1,.61-.86-.73-1.28,1.5C36,6.53,30.64,12.67,26.65,16.92a12.46,12.46,0,0,0-2.14,3,6,6,0,0,0-.65,2.6,4.49,4.49,0,0,0,1.36,3.23,5.34,5.34,0,0,0,1.35,1l.95-2Z"/><path class="cls-1" d="M12,38.73S-.41,40.15,1.25,56.67"/><path class="cls-2" d="M11.83,37.61a4.85,4.85,0,0,0-.67.12,1.13,1.13,0,1,0,.48,2.2l.34-.07h.09l0-.32,0,.32h0l0-.32,0,.32a1.13,1.13,0,0,0-.24-2.24Z"/><path class="cls-2" d="M.09,51.34c0,.39-.07.8-.09,1.21a1.13,1.13,0,0,0,1.07,1.18,1.14,1.14,0,0,0,1.18-1.08c0-.38,0-.74.08-1.1a1.12,1.12,0,1,0-2.24-.21Zm1.07-4.81c-.14.38-.27.77-.39,1.18a1.13,1.13,0,1,0,2.16.63,9.38,9.38,0,0,1,.34-1,1.13,1.13,0,0,0-2.11-.79ZM3.68,42.2c-.26.31-.52.64-.77,1a1.12,1.12,0,1,0,1.83,1.3c.21-.3.43-.58.65-.84a1.11,1.11,0,0,0-.12-1.58,1.13,1.13,0,0,0-1.59.12Zm3.93-3.15a11.45,11.45,0,0,0-1.08.65,1.12,1.12,0,1,0,1.23,1.87c.31-.2.62-.38.91-.54a1.12,1.12,0,0,0-1.06-2Z"/><path class="cls-2" d="M.08,56.2c0,.19,0,.38.06.58a1.12,1.12,0,1,0,2.23-.23c0-.18,0-.36-.05-.54a1.11,1.11,0,0,0-1.21-1,1.12,1.12,0,0,0-1,1.21Z"/><path class="cls-2" d="M11.83,41c-.05,0-.3,0-.7.14a1.12,1.12,0,1,0,.55,2.18l.32-.07h.07A1.13,1.13,0,0,0,11.83,41Z"/><path class="cls-2" d="M1.87,55.52c0,.38-.05.76-.06,1.16a1.13,1.13,0,1,0,2.25.07c0-.37,0-.74.05-1.09a1.12,1.12,0,1,0-2.24-.14Zm.71-4.66c-.09.37-.18.76-.26,1.16a1.12,1.12,0,1,0,2.2.44c.08-.36.16-.71.24-1A1.12,1.12,0,0,0,4,50.05a1.13,1.13,0,0,0-1.38.81ZM4.4,46.4c-.2.34-.39.69-.58,1.07a1.12,1.12,0,1,0,2,1c.16-.32.32-.62.49-.9A1.13,1.13,0,1,0,4.4,46.4Zm3.31-3.66a9.61,9.61,0,0,0-1,.79A1.13,1.13,0,0,0,8.25,45.2,7.18,7.18,0,0,1,9,44.57,1.14,1.14,0,0,0,9.28,43a1.13,1.13,0,0,0-1.57-.25Z"/><path class="cls-2" d="M1.88,60.19l0,.58a1.13,1.13,0,0,0,2.25-.17c0-.18,0-.37,0-.55a1.13,1.13,0,0,0-1.2-1,1.11,1.11,0,0,0-1,1.2Z"/><path class="cls-2" d="M12,43.6a5.75,5.75,0,0,0-.65.3,1.13,1.13,0,0,0,1,2l.29-.14.06,0h0A1.13,1.13,0,0,0,12,43.6Z"/><path class="cls-2" d="M5.17,54.84c0,.37-.06.75-.07,1.14a1.12,1.12,0,0,0,1.08,1.17,1.13,1.13,0,0,0,1.17-1.08c0-.35,0-.7.06-1a1.12,1.12,0,0,0-1-1.22,1.13,1.13,0,0,0-1.22,1Zm1-4.54c-.13.36-.25.73-.36,1.12A1.13,1.13,0,0,0,8,52a8.81,8.81,0,0,1,.31-1,1.13,1.13,0,0,0-2.12-.78Zm2.39-4.1c-.25.29-.5.6-.75.95a1.11,1.11,0,0,0,.27,1.56,1.13,1.13,0,0,0,1.57-.26c.2-.28.4-.54.6-.77a1.13,1.13,0,0,0-.11-1.59,1.11,1.11,0,0,0-1.58.11Z"/><path class="cls-2" d="M5.18,59.4l.06.59a1.13,1.13,0,0,0,2.24-.24c0-.18,0-.36-.05-.54a1.14,1.14,0,0,0-1.22-1,1.12,1.12,0,0,0-1,1.21Z"/></g></g></svg>