<svg xmlns="http://www.w3.org/2000/svg" viewBox="0 0 55.76 53.16"><defs><style>.cls-1{fill:#fff;}.cls-2{fill:#3f5163;}</style></defs><title>stable</title><g id="Layer_2" data-name="Layer 2"><g id="Guides"><polyline class="cls-1" points="6.54 33.2 6.54 33.21 7.38 33.24 18.77 33.77 42.48 33.21 51.12 33.01 53.75 32.94 53.75 51.07 18.68 51.9 1.26 51.09 1.26 32.96 6.54 33.2"/><path class="cls-2" d="M51.12,31.74V25.45a4.33,4.33,0,0,0-1.27-3.06c-.78-.78-2.1.14-1.88.23a3.07,3.07,0,0,1,1.88,2.83v6.32l-6.11.14-1.27,0-23.68.56-4.88-.23V25.45a4.32,4.32,0,1,0-8.64,0v6.43L0,31.63V52.29l18.67.87L55,52.31V31.65ZM6.53,25.45a3.06,3.06,0,0,1,6.12,0v6.77l-6.12-.28Zm47.09,25.4-34.94.83L1.44,50.85V33l5.09.23h0l.85,0,11.27.61,23.7-.56,8.65-.2L53.5,33Z"/><rect class="cls-2" x="18.02" y="33.14" width="1.26" height="19.39"/><polygon class="cls-2" points="22.04 27.62 25.89 27.62 25.85 26.36 21.64 26.36 22.04 27.62"/><path class="cls-2" d="M15.78,22.14H13a2.82,2.82,0,0,0-1.17.25,7.18,7.18,0,0,0,1.17,1h3.09Z"/><polygon class="cls-2" points="15.48 26.36 12.98 26.36 12.98 27.62 15.66 27.62 15.48 26.36"/><polygon class="cls-2" points="18.92 23.41 25.95 23.41 25.96 22.14 18.66 22.14 18.92 23.41"/><polygon class="cls-2" points="42.83 22.14 33.57 22.14 33.57 23.41 42.79 23.41 42.83 22.14"/><polygon class="cls-2" points="41.38 26.31 33.02 26.21 33.02 27.62 41.12 27.62 41.38 26.31"/><path class="cls-2" d="M25.75,32.94V12.32A1.28,1.28,0,0,1,27,11h5.81a1.27,1.27,0,0,1,1.27,1.28V32.94ZM27,12.31V32.94h5.83V12.32Z"/><path class="cls-2" d="M33.62,12.31h-7.7L26,11.6c.24-2.18-.2-3.66-1.23-4.16a1.85,1.85,0,0,0-1.8.11c-1,1-3.28.68-3.73.6l-.52-.1V.16l.55-.07c1.17-.16,2.64-.18,3,.62a3.46,3.46,0,0,0,3,.28A15.71,15.71,0,0,1,30.12.08,11.67,11.67,0,0,1,41.26,9a1.91,1.91,0,0,1-.39,1.94,2.42,2.42,0,0,1-2.14.37l-.22-.06-.14-.19c-2-2.85-3.88-3.35-4.75-3.41ZM27.31,11h5.05V6.53l.49-.11c.14,0,3.23-.65,6.41,3.7A1.06,1.06,0,0,0,40,10c.1-.1.11-.38,0-.74a10.52,10.52,0,0,0-9.91-7.93,14.33,14.33,0,0,0-4.23.78c-1.64.83-4.1.12-4.66-.76A3.56,3.56,0,0,0,20,1.29V7a3.22,3.22,0,0,0,2.08-.31,3,3,0,0,1,3.25-.36C26.34,6.79,27.47,8,27.31,11ZM21.18,1.28Z"/><path class="cls-2" d="M16,33l-1.4-8.76,6.07-1.37L25.3,33Zm1.17-.68,6.46,0-3.68-8-3.91.88Z"/><path class="cls-2" d="M16.85,25c-.62,0-1.06-.65-1.2-1.14h0l-2.87-9.46c-.95-.29-1.88-1-2-4.41l-.5-4.31a1.21,1.21,0,0,1,.89-1.31l1.22-.31a1.2,1.2,0,0,1,1.41.67l1.84,4c.72,1.35,1.4,3.15.8,4.38l3.07,9.65a1.79,1.79,0,0,1-.06,1.34.88.88,0,0,1-.59.44l-1.74.4Zm-.07-1.26Zm.08-.25.1.21,1.33-.3,0-.22-3.09-9.69a1,1,0,0,1,.06-.86c.31-.55,0-1.78-.73-3.23l-.05-.1h0l-1.85-4-1.16.34L12,9.91c.15,3,.89,3.25,1.21,3.35a1.23,1.23,0,0,1,.79.81Z"/><path class="cls-2" d="M52.62,19.21l-12-4.15L43.78,6l12,4.15ZM42.25,14.28l9.59,3.32,2.31-6.68L44.56,7.6Z"/><path class="cls-2" d="M52,21,40,16.81l1-2.94L53,18ZM41.65,16l9.58,3.31.19-.55-9.58-3.31Z"/><path class="cls-2" d="M43.88,32.93H38.33l4-10a.84.84,0,0,0,.11-.65,5.12,5.12,0,0,0-2.06-2.42c-1.33-.87-.59-3.25-.5-3.52l.2-.61,12.65,4.34-.29.63-.09.23a2.43,2.43,0,0,1-3.1,1.81,2.46,2.46,0,0,0-2.4,1.15Zm-3.69-1.27H43l2.76-8.37a3.75,3.75,0,0,1,3.78-1.78c.93.2,1.25-.11,1.51-.69l-10.1-3.46c-.11.61-.12,1.27.14,1.44A6.18,6.18,0,0,1,43.67,22a2.1,2.1,0,0,1-.26,1.54Z"/><rect class="cls-1" x="44.67" y="7.53" width="7.07" height="10.14" transform="translate(20.53 54.03) rotate(-70.91)"/><polygon class="cls-1" points="17.2 32.34 23.66 32.39 19.98 24.35 16.07 25.23 17.2 32.34"/><path class="cls-1" d="M40.19,31.66H43l2.76-8.37a3.75,3.75,0,0,1,3.78-1.78c.93.2,1.25-.11,1.51-.69l-10.1-3.46c-.11.61-.12,1.27.14,1.44A6.18,6.18,0,0,1,43.67,22a2.1,2.1,0,0,1-.26,1.54Z"/></g></g></svg>