<svg xmlns="http://www.w3.org/2000/svg" viewBox="0 0 135 50"><defs><style>.cls-1{fill:#fff;}</style></defs><title>statistics</title><g id="Layer_2" data-name="Layer 2"><g id="Layer_1-2" data-name="Layer 1"><path class="cls-1" d="M112.5,0H0V50H135V0ZM10.69,3.31a3.6,3.6,0,1,1-3,4.13A3.6,3.6,0,0,1,10.69,3.31ZM19.89,28a1.51,1.51,0,0,1-3,0V17.15H16V44.64a2.1,2.1,0,1,1-4.19,0V28.88h-1V44.64a2.11,2.11,0,0,1-4.22,0V17.15H5.7V28a1.51,1.51,0,0,1-3,0V15.83a1.27,1.27,0,0,1,0-.39,5,5,0,0,1,4.91-4.23h7.33a5,5,0,0,1,4.91,4.23,1.72,1.72,0,0,1,0,.39ZM33.19,3.31a3.6,3.6,0,1,1-3,4.13A3.6,3.6,0,0,1,33.19,3.31ZM42.39,28a1.51,1.51,0,0,1-3,0V17.15H38.5V44.64a2.1,2.1,0,1,1-4.19,0V28.88h-1V44.64a2.11,2.11,0,0,1-4.22,0V17.15H28.2V28a1.51,1.51,0,0,1-3,0V15.83a1.27,1.27,0,0,1,0-.39,5,5,0,0,1,4.91-4.23h7.33a5,5,0,0,1,4.91,4.23,1.72,1.72,0,0,1,0,.39ZM55.69,3.31a3.6,3.6,0,1,1-3,4.13A3.6,3.6,0,0,1,55.69,3.31ZM64.89,28a1.51,1.51,0,0,1-3,0V17.15H61V44.64a2.1,2.1,0,1,1-4.19,0V28.88h-1V44.64a2.11,2.11,0,0,1-4.22,0V17.15H50.7V28a1.51,1.51,0,0,1-3,0V15.83a1.27,1.27,0,0,1,0-.39,5,5,0,0,1,4.91-4.23h7.33a5,5,0,0,1,4.91,4.23,1.72,1.72,0,0,1,0,.39ZM78.19,3.31a3.6,3.6,0,1,1-3,4.13A3.6,3.6,0,0,1,78.19,3.31ZM87.39,28a1.51,1.51,0,0,1-3,0V17.15H83.5V44.64a2.1,2.1,0,1,1-4.19,0V28.88h-1V44.64a2.11,2.11,0,0,1-4.22,0V17.15H73.2V28a1.51,1.51,0,0,1-3,0V15.83a1.27,1.27,0,0,1,0-.39,5,5,0,0,1,4.91-4.23h7.33a5,5,0,0,1,4.91,4.23,1.72,1.72,0,0,1,0,.39Zm13.3-24.69a3.6,3.6,0,1,1-3,4.13A3.6,3.6,0,0,1,100.69,3.31ZM109.89,28a1.51,1.51,0,0,1-3,0V17.15H106V44.64a2.1,2.1,0,1,1-4.19,0V28.88h-1V44.64a2.11,2.11,0,0,1-4.22,0V17.15H95.7V28a1.51,1.51,0,0,1-3,0V15.83a1.27,1.27,0,0,1,0-.39,5,5,0,0,1,4.91-4.23h7.33a5,5,0,0,1,4.91,4.23,1.72,1.72,0,0,1,0,.39Zm13.3-24.69a3.6,3.6,0,1,1-3,4.13A3.6,3.6,0,0,1,123.19,3.31ZM132.39,28a1.51,1.51,0,0,1-3,0V17.15h-.89V44.64a2.1,2.1,0,1,1-4.19,0V28.88h-1V44.64a2.11,2.11,0,0,1-4.22,0V17.15h-.89V28a1.51,1.51,0,0,1-3,0V15.83a1.27,1.27,0,0,1,0-.39,5,5,0,0,1,4.91-4.23h7.33a5,5,0,0,1,4.91,4.23,1.72,1.72,0,0,1,0,.39Z"/></g></g></svg>